<svg width="24" height="24" viewBox="0 0 24 24" fill="none" xmlns="http://www.w3.org/2000/svg">
<path fill-rule="evenodd" clip-rule="evenodd" d="M12 20.4C16.6392 20.4 20.4 16.6392 20.4 12C20.4 7.36081 16.6392 3.6 12 3.6C7.36081 3.6 3.6 7.36081 3.6 12C3.6 16.6392 7.36081 20.4 12 20.4ZM12 22C17.5228 22 22 17.5228 22 12C22 6.47715 17.5228 2 12 2C6.47715 2 2 6.47715 2 12C2 17.5228 6.47715 22 12 22Z" fill="white"/>
<path fill-rule="evenodd" clip-rule="evenodd" d="M12.7072 11.2929C13.6835 12.2692 15.2664 12.2692 16.2427 11.2929C16.8906 10.645 17.1086 9.72995 16.8966 8.90232C16.8608 8.76264 16.6886 8.72576 16.5866 8.82771L15.5356 9.87872C15.1451 10.2692 14.5119 10.2692 14.1214 9.87872C13.7309 9.4882 13.7309 8.85503 14.1214 8.46451L15.1724 7.4135C15.2744 7.31154 15.2375 7.13937 15.0978 7.10358C14.2702 6.89155 13.3551 7.1095 12.7072 7.7574C11.7309 8.73371 11.7309 10.3166 12.7072 11.2929Z" fill="white"/>
<path fill-rule="evenodd" clip-rule="evenodd" d="M8.82769 16.5867C8.72573 16.6886 8.76262 16.8608 8.9023 16.8966C9.72993 17.1086 10.645 16.8907 11.2929 16.2428C12.2692 15.2664 12.2692 13.6835 11.2929 12.7072C10.3166 11.7309 8.73369 11.7309 7.75738 12.7072C7.10948 13.3551 6.89152 14.2702 7.10356 15.0978C7.13934 15.2375 7.31152 15.2744 7.41348 15.1724L8.46449 14.1214C8.85501 13.7309 9.48818 13.7309 9.8787 14.1214C10.2692 14.512 10.2692 15.1451 9.8787 15.5356L8.82769 16.5867Z" fill="white"/>
<rect x="12.8176" y="9.76807" width="2" height="3.96875" transform="rotate(45 12.8176 9.76807)" fill="white"/>
</svg>
