<svg width="20" height="20" viewBox="0 0 20 20" fill="none" xmlns="http://www.w3.org/2000/svg">
<rect x="2.5" y="18.5" width="15" height="1" rx="0.5" fill="#D9D9D9" stroke="white"/>
<path fill-rule="evenodd" clip-rule="evenodd" d="M10 11C10.5523 11 11 10.5523 11 10C11 9.44772 10.5523 9 10 9C9.44772 9 9 9.44772 9 10C9 10.5523 9.44772 11 10 11ZM10 13C11.6569 13 13 11.6569 13 10C13 8.34315 11.6569 7 10 7C8.34315 7 7 8.34315 7 10C7 11.6569 8.34315 13 10 13Z" fill="white"/>
<path d="M16.7617 2.93026C17.1329 2.64474 17.6082 3.12002 17.3227 3.4912L12.1214 10.2529L10 8.13155L16.7617 2.93026Z" fill="white"/>
<path fill-rule="evenodd" clip-rule="evenodd" d="M16.6009 14.5211C16.301 14.9581 16.3149 15.5557 16.6896 15.9304C17.0977 16.3385 17.769 16.323 18.1073 15.8554C19.2981 14.2096 20 12.1868 20 10C20 8.6284 19.7239 7.3213 19.2241 6.13125C18.9621 5.50731 18.1586 5.40385 17.6801 5.88236C17.3647 6.19783 17.2934 6.67773 17.4556 7.09336C17.8071 7.99431 18 8.97463 18 10C18 11.6778 17.4835 13.2349 16.6009 14.5211ZM14.392 2.43643C14.0681 2.76033 13.5718 2.82492 13.1508 2.64436C12.1839 2.22964 11.1188 2 10 2C5.58172 2 2 5.58172 2 10C2 11.6778 2.51649 13.2349 3.39914 14.5211C3.69898 14.9581 3.68507 15.5557 3.31036 15.9304C2.90229 16.3385 2.23097 16.323 1.89269 15.8554C0.701898 14.2096 0 12.1868 0 10C0 4.47715 4.47715 0 10 0C11.4882 0 12.9004 0.325075 14.1696 0.908089C14.771 1.18433 14.8599 1.96849 14.392 2.43643Z" fill="white"/>
</svg>
