<svg width="24" height="24" viewBox="0 0 24 24" fill="none" xmlns="http://www.w3.org/2000/svg">
<path d="M21.1875 6.9375H19.6406V4.6875C19.6406 4.58438 19.5562 4.5 19.4531 4.5H18.2344C18.1313 4.5 18.0469 4.58438 18.0469 4.6875V6.9375H16.5C16.3969 6.9375 16.3125 7.02187 16.3125 7.125V16.875C16.3125 16.9781 16.3969 17.0625 16.5 17.0625H18.0469V19.3125C18.0469 19.4156 18.1313 19.5 18.2344 19.5H19.4531C19.5562 19.5 19.6406 19.4156 19.6406 19.3125V17.0625H21.1875C21.2906 17.0625 21.375 16.9781 21.375 16.875V7.125C21.375 7.02187 21.2906 6.9375 21.1875 6.9375ZM7.5 5.25H5.95312V3.9375C5.95312 3.83437 5.86875 3.75 5.76562 3.75H4.54688C4.44375 3.75 4.35938 3.83437 4.35938 3.9375V5.25H2.8125C2.70937 5.25 2.625 5.33438 2.625 5.4375V18.5625C2.625 18.6656 2.70937 18.75 2.8125 18.75H4.35938V20.0625C4.35938 20.1656 4.44375 20.25 4.54688 20.25H5.76562C5.86875 20.25 5.95312 20.1656 5.95312 20.0625V18.75H7.5C7.60313 18.75 7.6875 18.6656 7.6875 18.5625V5.4375C7.6875 5.33438 7.60313 5.25 7.5 5.25ZM14.3438 9.46875H12.7969V5.4375C12.7969 5.33438 12.7125 5.25 12.6094 5.25H11.3906C11.2875 5.25 11.2031 5.33438 11.2031 5.4375V9.46875H9.65625C9.55312 9.46875 9.46875 9.55312 9.46875 9.65625V14.3438C9.46875 14.4469 9.55312 14.5312 9.65625 14.5312H11.2031V18.5625C11.2031 18.6656 11.2875 18.75 11.3906 18.75H12.6094C12.7125 18.75 12.7969 18.6656 12.7969 18.5625V14.5312H14.3438C14.4469 14.5312 14.5312 14.4469 14.5312 14.3438V9.65625C14.5312 9.55312 14.4469 9.46875 14.3438 9.46875Z" fill="white"/>
</svg>
