<svg width="46" height="176" viewBox="0 0 46 176" fill="none" xmlns="http://www.w3.org/2000/svg">
<path fill-rule="evenodd" clip-rule="evenodd" d="M44.2131 156.029L25.1212 175.121C23.9497 176.293 22.0502 176.293 20.8786 175.121L1.7867 156.029C0.615128 154.858 0.615129 152.958 1.7867 151.787C2.95828 150.615 4.85777 150.615 6.02934 151.787L22.9999 168.757L39.9705 151.787C41.142 150.615 43.0415 150.615 44.2131 151.787C45.3847 152.958 45.3847 154.858 44.2131 156.029ZM19.9999 3.08928L19.9999 -1.0968e-06L25.9999 -8.34533e-07L25.9999 3.08928L19.9999 3.08928ZM19.9999 15.4464L19.9999 9.26786L25.9999 9.26786L25.9999 15.4464L19.9999 15.4464ZM19.9999 27.8036L19.9999 21.625L25.9999 21.625L25.9999 27.8036L19.9999 27.8036ZM19.9999 40.1607L19.9999 33.9821L25.9999 33.9821L25.9999 40.1607L19.9999 40.1607ZM19.9999 52.5179L19.9999 46.3393L25.9999 46.3393L25.9999 52.5179L19.9999 52.5179ZM19.9999 64.875L19.9999 58.6964L25.9999 58.6964L25.9999 64.875L19.9999 64.875ZM19.9999 77.2321L19.9999 71.0536L25.9999 71.0536L25.9999 77.2321L19.9999 77.2321ZM19.9999 89.5893L19.9999 83.4107L25.9999 83.4107L25.9999 89.5893L19.9999 89.5893ZM19.9999 101.946L19.9999 95.7679L25.9999 95.7679L25.9999 101.946L19.9999 101.946ZM19.9999 114.304L19.9999 108.125L25.9999 108.125L25.9999 114.304L19.9999 114.304ZM19.9999 126.661L19.9999 120.482L25.9999 120.482L25.9999 126.661L19.9999 126.661ZM19.9999 139.018L19.9999 132.839L25.9999 132.839L25.9999 139.018L19.9999 139.018ZM19.9999 151.375L19.9999 145.196L25.9999 145.196L25.9999 151.375L19.9999 151.375ZM19.9999 163.732L19.9999 157.554L25.9999 157.554L25.9999 163.732L19.9999 163.732Z" fill="url(#paint0_linear_5409_80365)"/>
<defs>
<linearGradient id="paint0_linear_5409_80365" x1="22.9996" y1="0" x2="22.9996" y2="187" gradientUnits="userSpaceOnUse">
<stop offset="0.260417" stop-color="white" stop-opacity="0"/>
<stop offset="1" stop-color="white"/>
</linearGradient>
</defs>
</svg>
