<svg width="96" height="45" viewBox="0 0 96 45" fill="none" xmlns="http://www.w3.org/2000/svg">
<rect width="96" height="45" rx="22.5" fill="white"/>
<path d="M34.6877 18.7266H33.8685C33.7537 18.7266 33.6447 18.7793 33.5744 18.8695L28.7428 24.9902L26.426 22.0547C26.3545 21.9645 26.2467 21.9117 26.1318 21.9117H25.3127C25.2342 21.9117 25.1908 22.002 25.2389 22.0629L28.4486 26.1293C28.5986 26.3191 28.8869 26.3191 29.0381 26.1293L34.7615 18.8766C34.8096 18.8168 34.7662 18.7266 34.6877 18.7266Z" fill="#9396A9"/>
<path d="M46.02 22.632V17.832H37.14V18.672H45.144V21.804H38.484V20.028H37.62V26.328C37.62 27.312 38.1 27.816 39.072 27.816H45.576C46.08 27.792 46.476 27.66 46.74 27.408C47.028 27.096 47.232 26.208 47.352 24.72L46.512 24.456C46.44 25.776 46.284 26.544 46.044 26.76C45.864 26.904 45.624 26.976 45.336 26.976H39.312C38.76 26.976 38.484 26.7 38.484 26.172V22.632H46.02ZM51.72 17.244L50.928 17.628C51.42 18.228 51.876 18.912 52.308 19.68L53.088 19.284C52.656 18.54 52.2 17.868 51.72 17.244ZM56.232 17.136C55.872 18.144 55.476 18.996 55.02 19.692H49.536V20.532H53.556V21.096C53.544 21.684 53.484 22.236 53.376 22.764H48.852V23.604H53.16C52.992 24.132 52.764 24.6 52.476 25.032C51.756 25.992 50.472 26.772 48.636 27.36L49.104 28.116C50.952 27.528 52.284 26.7 53.1 25.644C53.484 25.128 53.784 24.528 54.012 23.844C54.66 25.668 56.292 27.12 58.932 28.188L59.436 27.384C56.916 26.484 55.368 25.224 54.78 23.604H59.148V22.764H54.276C54.372 22.26 54.42 21.696 54.444 21.096V20.532H58.452V19.692H55.98C56.412 19.008 56.772 18.228 57.06 17.364L56.232 17.136ZM61.572 17.376L60.948 17.976C61.836 18.6 62.544 19.2 63.048 19.764L63.66 19.152C63.096 18.564 62.4 17.976 61.572 17.376ZM61.272 20.208L60.66 20.796C61.5 21.444 62.16 22.044 62.64 22.596L63.252 21.984C62.724 21.384 62.064 20.796 61.272 20.208ZM62.784 23.52C62.244 24.96 61.608 26.364 60.888 27.732L61.752 28.104C62.412 26.772 63.012 25.344 63.552 23.832L62.784 23.52ZM64.128 19.224V20.076H67.248V22.956H64.464V23.784H67.248V26.94H63.828V27.792H71.448V26.94H68.124V23.784H70.896V22.956H68.124V20.076H71.22V19.224H67.644L68.136 19.032C67.956 18.456 67.692 17.832 67.356 17.136L66.54 17.364C66.852 17.964 67.116 18.576 67.356 19.224H64.128Z" fill="#9396A9"/>
<rect x="14.25" y="10.25" width="67.5" height="24.5" rx="12.25" stroke="#D3D3D3" stroke-width="0.5"/>
</svg>
