<svg width="266" height="43" viewBox="0 0 266 43" fill="none" xmlns="http://www.w3.org/2000/svg">
<rect width="266" height="43" rx="21.5" fill="white"/>
<rect x="71" y="39" width="48" height="4" rx="2" fill="#267EF0"/>
<path d="M75.704 14.76L74.399 15.39C74.939 16.065 75.464 16.83 75.959 17.7H72.749V19.08H77.654V19.545C77.624 20.25 77.534 20.91 77.414 21.54H71.894V22.92H77.024C76.829 23.43 76.589 23.91 76.304 24.345C75.479 25.485 73.919 26.43 71.609 27.18L72.389 28.425C74.699 27.705 76.364 26.67 77.384 25.32C77.774 24.78 78.104 24.15 78.374 23.445C79.244 25.56 81.239 27.27 84.389 28.56L85.229 27.21C82.214 26.16 80.339 24.735 79.604 22.92H84.854V21.54H78.884C78.989 20.925 79.064 20.265 79.094 19.545V19.08H83.984V17.7H81.134C81.614 16.905 82.034 16.02 82.364 15.03L80.969 14.655C80.549 15.825 80.069 16.845 79.529 17.7H76.424L77.354 17.235C76.829 16.335 76.274 15.51 75.704 14.76ZM87.959 14.85L86.924 15.84C88.064 16.635 88.934 17.385 89.549 18.09L90.569 17.07C89.849 16.335 88.979 15.6 87.959 14.85ZM87.599 18.375L86.579 19.35C87.629 20.175 88.454 20.94 89.054 21.63L90.074 20.61C89.399 19.86 88.574 19.11 87.599 18.375ZM89.204 22.59C88.514 24.36 87.719 26.1 86.819 27.795L88.244 28.425C89.069 26.76 89.819 24.99 90.479 23.115L89.204 22.59ZM90.989 17.115V18.51H94.769V21.72H91.409V23.085H94.769V26.64H90.614V28.035H100.229V26.64H96.194V23.085H99.509V21.72H96.194V18.51H99.914V17.115H96.194L96.239 17.1C95.999 16.35 95.669 15.525 95.234 14.625L93.914 15C94.259 15.675 94.559 16.38 94.829 17.115H90.989ZM103.859 14.595C103.154 15.57 102.614 16.59 102.239 17.67C101.774 18.93 101.549 20.25 101.549 21.615C101.549 22.965 101.774 24.27 102.239 25.545C102.614 26.595 103.154 27.615 103.859 28.605H105.194C104.564 27.57 104.084 26.535 103.754 25.5C103.304 24.195 103.094 22.89 103.094 21.6C103.094 20.295 103.304 18.99 103.754 17.7C104.084 16.65 104.564 15.615 105.194 14.595H103.859ZM106.334 16.29V17.775H111.884L107.999 27H109.739L113.534 17.61V16.29H106.334ZM114.806 14.595C115.421 15.615 115.901 16.65 116.246 17.7C116.681 18.99 116.906 20.295 116.906 21.6C116.906 22.89 116.681 24.195 116.246 25.5C115.901 26.535 115.421 27.57 114.806 28.605H116.141C116.831 27.615 117.371 26.595 117.761 25.545C118.211 24.27 118.451 22.965 118.451 21.615C118.451 20.25 118.211 18.93 117.761 17.67C117.371 16.59 116.831 15.57 116.141 14.595H114.806Z" fill="black"/>
<path d="M157.315 17.85C159.145 17.49 161.08 16.935 163.12 16.2L162.34 15.075C160.735 15.735 159.055 16.245 157.315 16.605V14.76H155.935V18.855C155.935 19.875 156.415 20.385 157.375 20.385H161.71C162.31 20.385 162.76 20.265 163.06 20.025C163.375 19.785 163.6 19.02 163.72 17.745L162.4 17.325C162.34 18.18 162.235 18.69 162.085 18.855C161.935 18.99 161.725 19.065 161.455 19.065H157.81C157.48 19.065 157.315 18.885 157.315 18.555V17.85ZM152.2 28.41C153.145 28.41 153.625 27.915 153.625 26.925V22.875C154.195 22.665 154.75 22.425 155.305 22.185V20.73C154.765 21 154.195 21.24 153.625 21.465V18.825H155.17V17.46H153.625V14.76H152.26V17.46H150.355V18.825H152.26V21.945C151.54 22.17 150.82 22.365 150.085 22.515L150.43 23.94C151.045 23.76 151.66 23.58 152.26 23.37V26.565C152.26 26.94 152.065 27.135 151.705 27.135C151.27 27.135 150.805 27.105 150.325 27.045L150.64 28.41H152.2ZM163.165 21.33H156.055V28.545H157.465V27.885H161.74V28.545H163.165V21.33ZM157.465 26.625V25.215H161.74V26.625H157.465ZM157.465 23.955V22.575H161.74V23.955H157.465ZM167.2 14.745V17.46H165.49V18.825H167.185C166.735 20.58 166 22.14 164.995 23.52L165.61 25.08C166.24 24.06 166.765 22.935 167.2 21.72V28.53H168.595V21.345C168.97 21.885 169.42 22.56 169.93 23.37L170.74 22.155C170.02 21.285 169.3 20.505 168.595 19.8V18.825H170.215V17.46H168.595V14.745H167.2ZM171.625 21.555C171.235 23.31 170.59 24.945 169.66 26.475L170.905 27.27C171.775 25.74 172.45 23.94 172.93 21.84L171.625 21.555ZM177.4 21.435L176.125 21.855C176.665 23.475 177.175 25.32 177.64 27.42L178.945 26.835C178.51 24.915 178 23.115 177.4 21.435ZM173.845 28.38C174.835 28.38 175.345 27.87 175.345 26.865V20.46H178.9V19.095H170.395V20.46H173.92V26.52C173.92 26.925 173.725 27.135 173.365 27.135C172.945 27.135 172.495 27.105 172.045 27.045L172.33 28.38H173.845ZM171.175 15.48V16.83H178.12V15.48H171.175ZM187.705 14.595L186.115 14.865C186.355 15.195 186.595 15.54 186.805 15.93H181.285V20.55C181.255 23.505 180.85 25.815 180.085 27.48L181.27 28.545C182.2 26.535 182.68 23.88 182.725 20.55V17.325H193.72V15.93H188.395C188.17 15.435 187.945 14.985 187.705 14.595ZM186.37 17.535C186.22 17.985 186.07 18.42 185.92 18.84H183.385V20.085H185.395C184.975 21.015 184.51 21.78 184.015 22.395L184.315 23.64H188.08V24.99H182.83V26.28H188.08V28.56H189.49V26.28H193.855V24.99H189.49V23.64H192.73V22.365H189.49V20.715H188.08V22.365H185.755C186.175 21.69 186.565 20.925 186.925 20.085H193.06V18.84H187.405C187.51 18.525 187.615 18.195 187.735 17.85L186.37 17.535Z" fill="#09111A"/>
</svg>
