<svg width="30" height="29" viewBox="0 0 30 29" fill="none" xmlns="http://www.w3.org/2000/svg">
<path d="M2.59122 22.9917L0.113728 27.9474L5.88627 28.0526L3.59105 23.0099L2.59122 22.9917ZM3.6673 24.998C3.74423 24.322 3.84685 23.6635 3.97337 23.022L2.99227 22.8285C2.86046 23.4968 2.75369 24.1822 2.67371 24.8849L3.6673 24.998ZM4.44289 21.0782C4.62936 20.4293 4.84115 19.7992 5.07617 19.1876L4.1427 18.8289C3.89735 19.4675 3.67631 20.1251 3.48178 20.8021L4.44289 21.0782ZM5.8739 17.3559C6.16915 16.7517 6.48781 16.1673 6.82746 15.6021L5.97034 15.087C5.61614 15.6764 5.28365 16.2862 4.97545 16.9168L5.8739 17.3559ZM7.92842 13.9341C8.32111 13.39 8.73368 12.8658 9.16347 12.3612L8.40214 11.7128C7.95556 12.2372 7.5264 12.7824 7.11753 13.3489L7.92842 13.9341ZM10.5196 10.8872C10.9926 10.4104 11.4809 9.95349 11.9815 9.51604L11.3235 8.76302C10.8057 9.2155 10.3001 9.68861 9.80968 10.183L10.5196 10.8872ZM13.5375 8.24634C14.0736 7.83755 14.6195 7.44875 15.1723 7.07937L14.6166 6.24794C14.0473 6.6284 13.4844 7.02926 12.9311 7.45114L13.5375 8.24634ZM16.878 6.01106C17.4637 5.66752 18.0531 5.34446 18.6426 5.04127L18.1853 4.15198C17.5799 4.46332 16.9743 4.79526 16.3721 5.1485L16.878 6.01106ZM20.4561 4.16917C21.0819 3.88836 21.7036 3.62953 22.3168 3.3919L21.9555 2.45946C21.3265 2.7032 20.6888 2.9687 20.0467 3.25681L20.4561 4.16917ZM24.2152 2.71268C24.8772 2.49528 25.5226 2.30359 26.1451 2.13647L25.8858 1.17067C25.2456 1.34254 24.5827 1.53947 23.9032 1.76259L24.2152 2.71268ZM28.0997 1.67441C28.4383 1.60572 28.766 1.54544 29.0815 1.49331L28.9185 0.506687C28.5906 0.560866 28.2509 0.623358 27.9009 0.694384L28.0997 1.67441Z" fill="white"/>
</svg>
