<svg width="30" height="29" viewBox="0 0 30 29" fill="none" xmlns="http://www.w3.org/2000/svg">
<path d="M27.4088 22.9917L29.8863 27.9474L24.1137 28.0526L26.4089 23.0099L27.4088 22.9917ZM26.3327 24.998C26.2558 24.322 26.1532 23.6635 26.0266 23.022L27.0077 22.8285C27.1395 23.4968 27.2463 24.1822 27.3263 24.8849L26.3327 24.998ZM25.5571 21.0782C25.3706 20.4293 25.1588 19.7992 24.9238 19.1876L25.8573 18.8289C26.1027 19.4675 26.3237 20.1251 26.5182 20.8021L25.5571 21.0782ZM24.1261 17.3559C23.8308 16.7517 23.5122 16.1673 23.1725 15.6021L24.0297 15.087C24.3839 15.6764 24.7164 16.2862 25.0245 16.9168L24.1261 17.3559ZM22.0716 13.9341C21.6789 13.39 21.2663 12.8658 20.8365 12.3612L21.5979 11.7128C22.0444 12.2372 22.4736 12.7824 22.8825 13.3489L22.0716 13.9341ZM19.4804 10.8872C19.0074 10.4104 18.5191 9.95349 18.0185 9.51604L18.6765 8.76302C19.1943 9.2155 19.6999 9.68861 20.1903 10.183L19.4804 10.8872ZM16.4625 8.24634C15.9264 7.83755 15.3805 7.44875 14.8277 7.07937L15.3834 6.24794C15.9527 6.6284 16.5156 7.02926 17.0689 7.45114L16.4625 8.24634ZM13.122 6.01106C12.5363 5.66752 11.9469 5.34446 11.3574 5.04127L11.8147 4.15198C12.4201 4.46332 13.0257 4.79526 13.6279 5.1485L13.122 6.01106ZM9.54386 4.16917C8.91806 3.88836 8.29639 3.62953 7.68317 3.3919L8.0445 2.45946C8.67348 2.7032 9.3112 2.9687 9.95326 3.25681L9.54386 4.16917ZM5.7848 2.71268C5.12277 2.49528 4.47742 2.30359 3.85489 2.13647L4.11417 1.17067C4.75442 1.34254 5.41735 1.53947 6.09679 1.76259L5.7848 2.71268ZM1.90027 1.67441C1.56172 1.60572 1.23403 1.54544 0.918501 1.49331L1.0815 0.506687C1.40944 0.560866 1.7491 0.623358 2.09913 0.694384L1.90027 1.67441Z" fill="white"/>
</svg>
