<svg width="46" height="176" viewBox="0 0 46 176" fill="none" xmlns="http://www.w3.org/2000/svg">
<path fill-rule="evenodd" clip-rule="evenodd" d="M1.78689 19.9706L20.8788 0.878678C22.0503 -0.292892 23.9498 -0.292892 25.1214 0.878678L44.2133 19.9706C45.3849 21.1421 45.3849 23.0416 44.2133 24.2132C43.0417 25.3848 41.1422 25.3848 39.9707 24.2132L23.0001 7.24265L6.02953 24.2132C4.85795 25.3848 2.95846 25.3848 1.78689 24.2132C0.615312 23.0416 0.615312 21.1421 1.78689 19.9706ZM26.0001 172.911L26.0001 176L20.0001 176L20.0001 172.911L26.0001 172.911ZM26.0001 160.554L26.0001 166.732L20.0001 166.732L20.0001 160.554L26.0001 160.554ZM26.0001 148.196L26.0001 154.375L20.0001 154.375L20.0001 148.196L26.0001 148.196ZM26.0001 135.839L26.0001 142.018L20.0001 142.018L20.0001 135.839L26.0001 135.839ZM26.0001 123.482L26.0001 129.661L20.0001 129.661L20.0001 123.482L26.0001 123.482ZM26.0001 111.125L26.0001 117.304L20.0001 117.304L20.0001 111.125L26.0001 111.125ZM26.0001 98.7679L26.0001 104.946L20.0001 104.946L20.0001 98.7679L26.0001 98.7679ZM26.0001 86.4107L26.0001 92.5893L20.0001 92.5893L20.0001 86.4107L26.0001 86.4107ZM26.0001 74.0536L26.0001 80.2321L20.0001 80.2321L20.0001 74.0536L26.0001 74.0536ZM26.0001 61.6964L26.0001 67.875L20.0001 67.875L20.0001 61.6964L26.0001 61.6964ZM26.0001 49.3393L26.0001 55.5178L20.0001 55.5178L20.0001 49.3393L26.0001 49.3393ZM26.0001 36.9821L26.0001 43.1607L20.0001 43.1607L20.0001 36.9821L26.0001 36.9821ZM26.0001 24.625L26.0001 30.8036L20.0001 30.8036L20.0001 24.625L26.0001 24.625ZM26.0001 12.2678L26.0001 18.4464L20.0001 18.4464L20.0001 12.2678L26.0001 12.2678Z" fill="url(#paint0_linear_5409_80364)"/>
<defs>
<linearGradient id="paint0_linear_5409_80364" x1="23.0004" y1="176" x2="23.0004" y2="-11" gradientUnits="userSpaceOnUse">
<stop offset="0.260417" stop-color="white" stop-opacity="0"/>
<stop offset="1" stop-color="white"/>
</linearGradient>
</defs>
</svg>
