<svg width="122" height="40" viewBox="0 0 122 40" fill="none" xmlns="http://www.w3.org/2000/svg">
<rect width="122" height="40" rx="20" fill="white"/>
<path d="M27.1179 15.176V15.98H31.8219V17.024H28.1499V21.776H31.6659C31.5459 22.4 31.3299 22.916 31.0419 23.324C30.3699 22.976 29.7459 22.568 29.1819 22.1L28.5219 22.556C29.1099 23.06 29.7579 23.504 30.4539 23.888C29.6859 24.44 28.4619 24.776 26.7939 24.908L27.1659 25.7C29.0739 25.484 30.4539 25.028 31.2939 24.308C33.0819 25.124 35.1819 25.592 37.5939 25.688L37.8099 24.86C35.5059 24.788 33.5139 24.392 31.8339 23.684C32.1699 23.204 32.3979 22.568 32.5419 21.776H36.4059V17.024H32.6859V15.98H37.4019V15.176H27.1179ZM35.5539 21.02H32.6499L32.6859 20.168V19.748H35.5539V21.02ZM31.7859 21.02H29.0019V19.748H31.8219V20.168C31.8219 20.456 31.8099 20.744 31.7859 21.02ZM29.0019 19.028V17.768H31.8219V19.028H29.0019ZM32.6859 17.768H35.5539V19.028H32.6859V17.768ZM48.9819 14.816C47.8179 15.32 46.5099 15.596 45.0579 15.62V20.756C44.9979 22.58 44.6139 24.008 43.9059 25.04L44.5179 25.688C45.3819 24.464 45.8379 22.82 45.8979 20.756V19.328H47.6739V25.736H48.5259V19.328H49.7739V18.5H45.8979V16.316C47.1939 16.244 48.3579 15.992 49.4139 15.584L48.9819 14.816ZM38.9859 15.74V16.532H44.3979V15.74H42.1299C41.9619 15.308 41.7939 14.912 41.6139 14.552L40.7259 14.696C40.9299 15.008 41.1099 15.356 41.2779 15.74H38.9859ZM38.8659 18.464V19.244H41.2899V20.588H39.0579V21.38H41.2899V24.572C41.2899 24.86 41.1339 25.004 40.8219 25.004C40.6539 25.004 40.4739 24.98 40.2819 24.944L40.4619 25.748H41.1099C41.8059 25.748 42.1539 25.424 42.1539 24.776V21.38H44.2659V20.588H42.1539V19.244H44.4699V18.464H43.1139C43.3419 18.056 43.5459 17.588 43.7379 17.072L42.9579 16.808C42.7779 17.384 42.5739 17.936 42.3339 18.464H41.0139C40.8219 17.816 40.6059 17.276 40.3779 16.832L39.6099 17.108C39.8499 17.528 40.0659 17.984 40.2459 18.464H38.8659ZM39.8979 22.028C39.6339 23.084 39.2259 24.044 38.6619 24.908L39.3819 25.364C39.9339 24.464 40.3779 23.408 40.6899 22.196L39.8979 22.028ZM43.3419 21.944L42.6219 22.136C42.9579 22.856 43.2339 23.6 43.4619 24.356L44.1819 24.08C43.9899 23.432 43.7019 22.724 43.3419 21.944ZM58.1499 17.36H59.9259C59.8779 18.98 59.6259 20.396 59.1579 21.608C58.6779 20.6 58.2939 19.388 57.9939 17.984L58.1499 17.36ZM58.7619 22.472C58.2099 23.492 57.4779 24.32 56.5419 24.968L56.9859 25.688C57.8859 25.04 58.6299 24.236 59.2059 23.276C59.8059 24.284 60.5259 25.1 61.3659 25.7L61.8339 24.992C60.9699 24.404 60.2379 23.576 59.6139 22.496C60.2859 21.08 60.6579 19.364 60.7179 17.36H61.4979V16.532H58.3299C58.4259 16.004 58.5219 15.428 58.5939 14.816L57.7539 14.672C57.5139 16.952 57.0339 18.764 56.3259 20.108L56.8659 20.768C57.1179 20.336 57.3579 19.844 57.5739 19.292C57.8979 20.492 58.2939 21.548 58.7619 22.472ZM53.0739 20.276C52.9899 20.516 52.8939 20.768 52.7859 21.032H51.0339V21.788H52.4499C52.2099 22.268 51.9339 22.76 51.6219 23.288C52.2099 23.504 52.7619 23.732 53.2899 23.96C52.5939 24.356 51.7419 24.68 50.7579 24.944L51.1659 25.664C52.3659 25.328 53.3619 24.884 54.1539 24.332C54.8619 24.644 55.4739 24.968 56.0019 25.28L56.4699 24.608C55.9419 24.32 55.3899 24.056 54.8139 23.792C55.4379 23.216 55.8819 22.532 56.1459 21.74V21.032H53.6379C53.7099 20.816 53.7939 20.6 53.8779 20.372L53.0739 20.276ZM54.0219 23.456C53.5899 23.276 53.1339 23.108 52.6539 22.94C52.8939 22.58 53.1099 22.196 53.3019 21.788H55.3659C55.0779 22.412 54.6219 22.976 54.0219 23.456ZM51.9819 14.924L51.2979 15.152C51.5859 15.608 51.8499 16.124 52.1019 16.712L52.7259 16.424C52.5099 15.896 52.2699 15.392 51.9819 14.924ZM55.6299 14.888C55.4139 15.392 55.1019 15.896 54.7179 16.412L55.3299 16.724C55.7139 16.22 56.0139 15.704 56.2539 15.176L55.6299 14.888ZM51.0579 17V17.756H52.7619C52.4019 18.416 51.7539 19.016 50.8299 19.556L51.2499 20.252C52.2819 19.556 53.0019 18.74 53.3979 17.792V20.072H54.2019V18.512C54.6339 18.8 55.1499 19.184 55.7499 19.664L56.1939 18.992C55.5219 18.584 54.8499 18.212 54.2019 17.888V17.756H56.3859V17H54.2019V14.708H53.3979V17H51.0579ZM64.2219 25.592C64.8939 25.592 65.2299 25.232 65.2299 24.536V21.032C65.6019 20.864 65.9739 20.696 66.3459 20.504V19.652C65.9859 19.844 65.6139 20.024 65.2299 20.192V17.828H66.3819V17H65.2299V14.732H64.3899V17H62.9499V17.828H64.3899V20.54C63.8619 20.732 63.3099 20.9 62.7579 21.032L62.9739 21.872C63.4419 21.728 63.9099 21.56 64.3899 21.38V24.32C64.3899 24.656 64.2339 24.836 63.9339 24.836C63.6459 24.836 63.3339 24.812 63.0219 24.776L63.2019 25.592H64.2219ZM67.8099 20.288H70.2579V21.764H68.2539V25.7H69.0579V25.112H72.3099V25.7H73.1139V21.764H71.0979V20.288H73.6659V19.508H71.0979V18.092H73.3539V15.176H67.0299V18.932C67.0179 21.452 66.5859 23.516 65.7339 25.1L66.4059 25.7C67.1979 24.14 67.6659 22.34 67.8099 20.288ZM70.2579 18.092V19.508H67.8579C67.8579 19.316 67.8699 19.124 67.8699 18.932V18.092H70.2579ZM69.0579 24.344V22.532H72.3099V24.344H69.0579ZM72.5139 15.98V17.312H67.8699V15.98H72.5139ZM79.8099 14.648V16.808H75.5139V22.448H76.3779V21.692H79.8099V25.784H80.6979V21.692H84.1419V22.448H85.0059V16.808H80.6979V14.648H79.8099ZM76.3779 20.852V17.648H79.8099V20.852H76.3779ZM80.6979 20.852V17.648H84.1419V20.852H80.6979ZM87.8379 23.072C87.6219 23.072 87.4539 23.144 87.3219 23.288C87.1779 23.432 87.1059 23.6 87.1059 23.816C87.1059 24.02 87.1779 24.188 87.3219 24.332C87.4539 24.476 87.6219 24.548 87.8379 24.548C88.0299 24.548 88.2099 24.476 88.3539 24.332C88.4979 24.188 88.5699 24.02 88.5699 23.816C88.5699 23.6 88.4979 23.432 88.3539 23.288C88.2099 23.144 88.0299 23.072 87.8379 23.072ZM91.002 23.072C90.786 23.072 90.618 23.144 90.486 23.288C90.342 23.432 90.27 23.6 90.27 23.816C90.27 24.02 90.342 24.188 90.486 24.332C90.618 24.476 90.786 24.548 91.002 24.548C91.194 24.548 91.374 24.476 91.518 24.332C91.662 24.188 91.734 24.02 91.734 23.816C91.734 23.6 91.662 23.432 91.518 23.288C91.374 23.144 91.194 23.072 91.002 23.072ZM94.166 23.072C93.95 23.072 93.782 23.144 93.65 23.288C93.506 23.432 93.434 23.6 93.434 23.816C93.434 24.02 93.506 24.188 93.65 24.332C93.782 24.476 93.95 24.548 94.166 24.548C94.358 24.548 94.538 24.476 94.682 24.332C94.826 24.188 94.898 24.02 94.898 23.816C94.898 23.6 94.826 23.432 94.682 23.288C94.538 23.144 94.358 23.072 94.166 23.072Z" fill="#9DA0A3"/>
</svg>
