<svg width="147" height="151" viewBox="0 0 147 151" fill="none" xmlns="http://www.w3.org/2000/svg">
<path opacity="0.601594" fill-rule="evenodd" clip-rule="evenodd" d="M72.2972 0C86.0458 0 98.723 4.51567 108.882 12.1225L104.795 12.1228C102.861 12.1228 101.293 13.6908 101.293 15.625V15.8944C101.293 17.8286 102.861 19.3965 104.795 19.3965L116.966 19.3963C119.275 21.8847 121.372 24.5666 123.23 27.4145L129.008 27.4145C131.091 27.4145 132.779 29.1031 132.779 31.1861V31.3966C132.779 33.1175 131.627 34.5691 130.052 35.0219L124.731 35.0215C122.35 35.0215 120.42 36.9514 120.42 39.3319V40.6789C120.42 43.0594 122.35 44.9892 124.731 44.9892L143.023 44.9892C144.896 45.4584 146.282 47.1525 146.282 49.1705V49.4111C146.282 51.7916 144.353 53.7214 141.972 53.7214L132.494 53.7211C132.683 55.6346 132.779 57.5745 132.779 59.5366C132.779 92.4178 105.701 119.073 72.2972 119.073C45.579 119.073 22.9072 102.019 14.9026 78.3667L12.6327 78.3668C11.715 78.3668 10.9712 77.6229 10.9712 76.7053C10.9712 76.0053 11.4042 75.4063 12.0169 75.1617L14.8168 75.1616C16.751 75.1616 18.319 73.5937 18.319 71.6595V71.3901C18.319 69.4559 16.751 67.8879 14.8168 67.8879L12.4055 67.888C12.4034 67.8736 12.4014 67.8592 12.3993 67.8448L6.4262 67.8441C4.89685 67.8441 3.65706 66.6043 3.65706 65.0749C3.65706 63.5456 4.89685 62.3058 6.4262 62.3058L11.8794 62.3062C11.8367 61.3883 11.8151 60.4649 11.8151 59.5366C11.8151 50.7462 13.7504 42.4007 17.2245 34.8906L7.5431 34.8912C3.37716 34.8912 0 31.5141 0 27.3481V26.9271C0 22.907 3.1449 19.6214 7.10869 19.3963L41.2177 19.3965C42.7055 19.3965 43.9116 18.1904 43.9116 16.7026C43.9116 15.2147 42.7055 14.0086 41.2177 14.0086L33.322 14.0084C33.3878 13.9538 33.4536 13.8993 33.5196 13.845L29.5927 13.8457C26.7658 13.8457 24.4742 11.5541 24.4742 8.72719V8.44151C24.4742 5.61462 26.7658 3.32297 29.5927 3.32297L52.325 3.32251C58.5775 1.17014 65.2986 0 72.2972 0Z" fill="#F3F3FA"/>
<path d="M36.1083 88.1969C36.1399 88.3229 36.1793 88.4567 36.2266 88.5984L36.3212 88.9762C36.3527 89.1021 36.3685 89.2044 36.3685 89.2831C36.3685 89.7239 36.2503 90.1135 36.0137 90.4519C35.7772 90.7904 35.4697 91.0383 35.0913 91.1957C34.9494 91.2115 34.7996 91.2193 34.6419 91.2193C34.5157 91.2351 34.3738 91.243 34.2162 91.243H33.7668L30.077 91.2902V95.2335C30.077 95.8159 30.0888 96.4023 30.1125 96.9926C30.1361 97.5829 30.1637 98.1142 30.1952 98.5864C30.2268 99.1531 30.2662 99.6962 30.3135 100.216H26.9076L26.9785 99.2948C26.9943 98.9327 27.0101 98.4408 27.0258 97.819C27.0416 97.1972 27.0495 96.3669 27.0495 95.3279V91.7152C26.7814 91.9513 26.4818 92.0694 26.1507 92.0694C25.8826 92.0694 25.65 92.0064 25.4529 91.8805C25.2558 91.7546 25.0942 91.5814 24.9681 91.361L22.2954 91.2193C21.775 91.0934 21.3414 90.8297 20.9945 90.4283C20.6476 90.0269 20.4741 89.5507 20.4741 88.9998C20.4741 88.9053 20.482 88.8187 20.4978 88.74C20.5135 88.6613 20.5372 88.5826 20.5687 88.5039L21.16 87.1344C21.1916 86.7881 21.2901 86.4654 21.4557 86.1663C21.6213 85.8672 21.8302 85.6075 22.0825 85.3871L25.7959 78.5158H25.8196C26.1192 77.9649 26.4739 77.4926 26.8839 77.0991C27.2939 76.7056 27.8221 76.5088 28.4686 76.5088C29.0363 76.5088 29.5448 76.6583 29.9942 76.9574C30.4436 77.2565 30.7787 77.6501 30.9994 78.138L33.9796 83.9703C34.5157 84.1592 34.9573 84.4898 35.3042 84.962C35.6511 85.4343 35.8245 85.9774 35.8245 86.5913C35.8245 86.8432 35.7851 87.1108 35.7063 87.3941L36.1083 88.1969Z" fill="url(#paint0_linear_612_5590)"/>
<path d="M119.621 88.1969C119.653 88.3229 119.692 88.4567 119.739 88.5984L119.834 88.9762C119.866 89.1021 119.881 89.2044 119.881 89.2831C119.881 89.7239 119.763 90.1135 119.527 90.4519C119.29 90.7904 118.983 91.0383 118.604 91.1957C118.462 91.2115 118.312 91.2193 118.155 91.2193C118.029 91.2351 117.887 91.243 117.729 91.243H117.28L113.59 91.2902V95.2335C113.59 95.8159 113.602 96.4023 113.625 96.9926C113.649 97.5829 113.677 98.1142 113.708 98.5864C113.74 99.1531 113.779 99.6962 113.826 100.216H110.42L110.491 99.2948C110.507 98.9327 110.523 98.4408 110.539 97.819C110.554 97.1972 110.562 96.3669 110.562 95.3279V91.7152C110.294 91.9513 109.995 92.0694 109.664 92.0694C109.395 92.0694 109.163 92.0064 108.966 91.8805C108.769 91.7546 108.607 91.5814 108.481 91.361L105.808 91.2193C105.288 91.0934 104.854 90.8297 104.507 90.4283C104.16 90.0269 103.987 89.5507 103.987 88.9998C103.987 88.9053 103.995 88.8187 104.011 88.74C104.026 88.6613 104.05 88.5826 104.082 88.5039L104.673 87.1344C104.704 86.7881 104.803 86.4654 104.969 86.1663C105.134 85.8672 105.343 85.6075 105.595 85.3871L109.309 78.5158H109.332C109.632 77.9649 109.987 77.4926 110.397 77.0991C110.807 76.7056 111.335 76.5088 111.981 76.5088C112.549 76.5088 113.058 76.6583 113.507 76.9574C113.956 77.2565 114.291 77.6501 114.512 78.138L117.492 83.9703C118.029 84.1592 118.47 84.4898 118.817 84.962C119.164 85.4343 119.337 85.9774 119.337 86.5913C119.337 86.8432 119.298 87.1108 119.219 87.3941L119.621 88.1969Z" fill="url(#paint1_linear_612_5590)"/>
<path d="M109.711 90.7915C109.735 90.8903 109.766 90.9952 109.803 91.1063L109.877 91.4025C109.901 91.5012 109.913 91.5815 109.913 91.6432C109.913 91.9888 109.821 92.2943 109.637 92.5596C109.452 92.825 109.213 93.0194 108.918 93.1428C108.807 93.1552 108.69 93.1614 108.567 93.1614C108.469 93.1737 108.358 93.1799 108.235 93.1799H107.885L105.008 93.2169V96.3088C105.008 96.7655 105.017 97.2253 105.036 97.6881C105.054 98.151 105.076 98.5675 105.1 98.9378C105.125 99.3822 105.156 99.808 105.193 100.215H102.537L102.592 99.4933C102.605 99.2094 102.617 98.8237 102.629 98.3361C102.642 97.8486 102.648 97.1975 102.648 96.3829V93.5502C102.439 93.7353 102.205 93.8279 101.947 93.8279C101.738 93.8279 101.557 93.7785 101.403 93.6798C101.249 93.581 101.123 93.4452 101.025 93.2724L98.9412 93.1614C98.5355 93.0626 98.1974 92.8559 97.9269 92.5411C97.6565 92.2264 97.5212 91.853 97.5212 91.421C97.5212 91.347 97.5274 91.2791 97.5397 91.2174C97.552 91.1556 97.5704 91.0939 97.595 91.0322L98.056 89.9584C98.0806 89.6868 98.1574 89.4338 98.2865 89.1993C98.4156 88.9648 98.5785 88.7611 98.7752 88.5883L101.67 83.2007H101.689C101.922 82.7687 102.199 82.3984 102.519 82.0898C102.838 81.7812 103.25 81.627 103.754 81.627C104.197 81.627 104.593 81.7442 104.944 81.9787C105.294 82.2132 105.555 82.5218 105.727 82.9044L108.051 87.4775C108.469 87.6256 108.813 87.8848 109.084 88.2551C109.354 88.6254 109.489 89.0512 109.489 89.5326C109.489 89.73 109.459 89.9399 109.397 90.162L109.711 90.7915Z" fill="url(#paint2_linear_612_5590)"/>
<path fill-rule="evenodd" clip-rule="evenodd" d="M64.251 94.0195C80.7865 94.0195 95.6768 95.3683 106.085 97.5227C116.265 97.5905 124.461 100.64 124.461 104.391C124.461 107.365 119.313 109.897 112.109 110.853C110.39 111.362 108.454 111.841 106.328 112.287C106.384 112.571 106.412 112.857 106.412 113.147C106.412 119.693 92.1793 125 74.6228 125C58.8275 125 45.7229 120.705 43.2527 115.075C22.1765 113.475 7.27368 109.536 7.27368 104.93C7.27368 98.9044 32.7833 94.0195 64.251 94.0195Z" fill="#E7EAF0"/>
<path d="M68.2921 109.05C80.418 109.05 90.2479 108.266 90.2479 107.299C90.2479 106.332 80.418 105.548 68.2921 105.548C56.1663 105.548 46.3363 106.332 46.3363 107.299C46.3363 108.266 56.1663 109.05 68.2921 109.05Z" fill="#D1D6E2"/>
<path d="M107.591 25.9463C107.591 27.5458 106.094 28.8254 104.202 28.8254H93.7165C91.8245 28.6975 90.2478 27.4818 90.2478 25.8183C90.2478 24.7306 90.9573 23.7709 91.9822 23.259C91.9033 23.0671 91.8245 22.8752 91.8245 22.6832C91.8245 21.5955 92.8493 20.6358 94.1895 20.6358C94.7414 20.6358 95.2144 20.8277 95.6086 21.0837C96.5546 19.6121 98.2889 18.5884 100.339 18.5884C103.177 18.5884 105.463 20.5718 105.463 23.0031V23.259C106.724 23.7069 107.591 24.7306 107.591 25.9463Z" fill="url(#paint3_linear_612_5590)"/>
<path d="M86.4717 100.215H51.4598C48.7786 100.215 46.6058 98.0509 46.6058 95.3799V47.6695C46.6058 44.9985 48.7786 42.834 51.4598 42.834H86.4717C89.1529 42.834 91.3257 44.9985 91.3257 47.6695V95.3799C91.3257 98.0509 89.1529 100.215 86.4717 100.215Z" fill="url(#paint4_linear_612_5590)"/>
<path d="M84.3341 101.563H50.9036C48.2321 101.563 46.0671 99.3896 46.0671 96.7078V49.5753C46.0671 46.8935 48.2321 44.7202 50.9036 44.7202H84.3341C87.0056 44.7202 89.1706 46.8935 89.1706 49.5753V96.7092C89.1706 99.3896 87.0056 101.563 84.3341 101.563Z" fill="#D1D6E2"/>
<path d="M83.9066 95.6361H51.8692C51.4914 95.6361 51.1853 95.3307 51.1853 94.9537V49.174C51.1853 48.7971 51.4914 48.4917 51.8692 48.4917H83.9066C84.2844 48.4917 84.5905 48.7971 84.5905 49.174V94.9537C84.589 95.3307 84.2829 95.6361 83.9066 95.6361Z" fill="#E7EAF0"/>
<path d="M66.1999 95.3667C63.2159 95.1639 46.8032 93.9188 36.6403 85.6904C36.1379 85.2827 36.373 84.4454 37.0172 84.3867C52.7901 82.9584 50.8695 54.7286 50.9805 49.3159C50.9892 48.8569 51.2813 48.4917 51.7385 48.4917H83.5868C83.9928 48.4917 84.3215 48.8217 84.3215 49.2293L82.6535 79.5444C82.5921 79.7116 82.4753 80.0357 82.3599 80.1706L70.2735 94.7767C70.123 94.9527 66.4306 95.3824 66.1999 95.3667Z" fill="white"/>
<path d="M70.7344 84.8486C72.5648 84.9636 78.0179 85.0059 82.7049 79.7417C81.5942 85.2796 74.4619 95.2983 65.1941 95.3667C70.5193 92.6203 70.3158 87.5353 70.1471 85.2549C70.1282 84.9869 70.4684 84.8311 70.7344 84.8486Z" fill="url(#paint5_linear_612_5590)"/>
<path d="M78.9334 55.4961H58.998C58.5517 55.4961 58.1898 55.8579 58.1898 56.3043C58.1898 56.7506 58.5517 57.1125 58.998 57.1125H78.9334C79.3797 57.1125 79.7415 56.7506 79.7415 56.3043C79.7415 55.8579 79.3797 55.4961 78.9334 55.4961Z" fill="#D8D8D8"/>
<path d="M78.3947 60.8843H58.4593C58.013 60.8843 57.6511 61.2461 57.6511 61.6925C57.6511 62.1388 58.013 62.5007 58.4593 62.5007H78.3947C78.841 62.5007 79.2028 62.1388 79.2028 61.6925C79.2028 61.2461 78.841 60.8843 78.3947 60.8843Z" fill="#D8D8D8"/>
<path d="M67.0799 66.272H57.9204C57.474 66.272 57.1122 66.6338 57.1122 67.0802C57.1122 67.5265 57.474 67.8884 57.9204 67.8884H67.0799C67.5262 67.8884 67.888 67.5265 67.888 67.0802C67.888 66.6338 67.5262 66.272 67.0799 66.272Z" fill="#D8D8D8"/>
<path d="M71.1208 67.0802C71.1208 66.6338 70.7589 66.272 70.3126 66.272C69.8662 66.272 69.5044 66.6338 69.5044 67.0802C69.5044 67.5265 69.8662 67.8884 70.3126 67.8884C70.7589 67.8884 71.1208 67.5265 71.1208 67.0802Z" fill="#D8D8D8"/>
<path d="M77.0696 72.0081L57.1464 71.3124C56.7004 71.2968 56.3261 71.6458 56.3105 72.0919C56.295 72.538 56.644 72.9122 57.09 72.9278L77.0132 73.6235C77.4593 73.6391 77.8336 73.2901 77.8491 72.844C77.8647 72.3979 77.5157 72.0237 77.0696 72.0081Z" fill="#D8D8D8"/>
<path d="M75.4631 77.7453L55.5764 76.3547C55.1311 76.3236 54.7449 76.6593 54.7138 77.1046C54.6826 77.5498 55.0183 77.936 55.4636 77.9672L75.3504 79.3578C75.7957 79.3889 76.1819 79.0532 76.213 78.6079C76.2441 78.1627 75.9084 77.7765 75.4631 77.7453Z" fill="#D8D8D8"/>
<path d="M62.8458 82.8026L53.7546 81.6864C53.3115 81.632 52.9083 81.947 52.8539 82.3901C52.7995 82.8331 53.1145 83.2363 53.5576 83.2907L62.6488 84.407C63.0918 84.4614 63.495 84.1463 63.5494 83.7033C63.6038 83.2603 63.2888 82.857 62.8458 82.8026Z" fill="#D8D8D8"/>
<path d="M66.7582 84.0978C66.8126 83.6548 66.4975 83.2515 66.0545 83.1971C65.6115 83.1427 65.2082 83.4578 65.1538 83.9008C65.0994 84.3438 65.4145 84.7471 65.8575 84.8015C66.3005 84.8559 66.7038 84.5408 66.7582 84.0978Z" fill="#D8D8D8"/>
<path d="M75.4313 44.7202H61.4227V49.5694H75.4313V44.7202Z" fill="#ACB4C2"/>
<path fill-rule="evenodd" clip-rule="evenodd" d="M62.231 42.834H76.2396L75.1621 44.7198H61.1534L62.231 42.834Z" fill="#909AA9"/>
<path fill-rule="evenodd" clip-rule="evenodd" d="M68.6962 38.5239C70.0352 38.5239 71.1207 39.6094 71.1207 40.9485C71.1207 42.2875 70.0352 43.3731 68.6962 43.3731C67.3571 43.3731 66.2716 42.2875 66.2716 40.9485C66.2716 39.6094 67.3571 38.5239 68.6962 38.5239ZM68.6962 39.6015C67.9523 39.6015 67.3492 40.2046 67.3492 40.9485C67.3492 41.6924 67.9523 42.2955 68.6962 42.2955C69.4401 42.2955 70.0432 41.6924 70.0432 40.9485C70.0432 40.2046 69.4401 39.6015 68.6962 39.6015Z" fill="#A2ABB9"/>
<defs>
<linearGradient id="paint0_linear_612_5590" x1="35.1793" y1="99.9312" x2="26.9554" y2="100.059" gradientUnits="userSpaceOnUse">
<stop stop-color="#E0E5EF" stop-opacity="0"/>
<stop offset="1" stop-color="#E0E5EF"/>
</linearGradient>
<linearGradient id="paint1_linear_612_5590" x1="118.692" y1="99.9312" x2="110.468" y2="100.059" gradientUnits="userSpaceOnUse">
<stop stop-color="#E0E5EF" stop-opacity="0"/>
<stop offset="1" stop-color="#E0E5EF"/>
</linearGradient>
<linearGradient id="paint2_linear_612_5590" x1="108.927" y1="99.9923" x2="102.587" y2="100.091" gradientUnits="userSpaceOnUse">
<stop stop-color="#E0E5EF" stop-opacity="0"/>
<stop offset="1" stop-color="#E0E5EF"/>
</linearGradient>
<linearGradient id="paint3_linear_612_5590" x1="115.325" y1="25.4474" x2="95.3674" y2="25.5702" gradientUnits="userSpaceOnUse">
<stop stop-color="#E0E5EF" stop-opacity="0"/>
<stop offset="1" stop-color="#E0E5EF"/>
</linearGradient>
<linearGradient id="paint4_linear_612_5590" x1="74.6999" y1="38.5189" x2="74.6999" y2="100.215" gradientUnits="userSpaceOnUse">
<stop stop-color="#A2ABB9"/>
<stop offset="1" stop-color="#E7EAF0"/>
</linearGradient>
<linearGradient id="paint5_linear_612_5590" x1="82.7049" y1="87.5542" x2="71.3394" y2="87.5542" gradientUnits="userSpaceOnUse">
<stop stop-color="#A2ABB9"/>
<stop offset="1" stop-color="#E7EAF0"/>
</linearGradient>
</defs>
</svg>
