<svg width="20" height="20" viewBox="0 0 20 20" fill="none" xmlns="http://www.w3.org/2000/svg">
<rect x="8" y="4" width="4" height="5" rx="2" fill="white"/>
<path fill-rule="evenodd" clip-rule="evenodd" d="M9.17033 13.3051L10 15.0622L10.8296 13.3055C11.2724 12.3679 11.5287 11.3532 11.5842 10.3178L11.6549 9.00004L13.1772 9.7612C13.6995 10.0222 14.0815 10.4985 14.2231 11.0649L14.9746 14.0708C14.9915 14.1042 15 14.1384 15 14.1726C15 14.7246 12.7615 15.1723 10 15.1723C7.23853 15.1723 5 14.7246 5 14.1726C5 14.1384 5.00854 14.1042 5.02539 14.0708L5.77686 11.0649C5.91846 10.4985 6.30054 10.0222 6.82275 9.7612L8.34516 9L8.41595 10.3183C8.47153 11.3534 8.72774 12.3678 9.17033 13.3051Z" fill="white"/>
<path d="M10 9.08594L11 12L10 13.5002L9 12L10 9.08594Z" fill="white"/>
<path fill-rule="evenodd" clip-rule="evenodd" d="M18.8014 12C18.4251 12 18.1016 12.2588 17.9845 12.6164C16.8848 15.9744 13.7256 18.3999 10 18.3999C5.36084 18.3999 1.6001 14.6392 1.6001 10C1.6001 5.36084 5.36084 1.6001 10 1.6001C13.6665 1.6001 16.7843 3.94913 17.9305 7.22434C18.0874 7.67263 18.4946 8 18.9695 8V8C19.5386 8 20 7.53863 20 6.9695V2.80005C20 2.35819 19.6418 2 19.2 2V2C18.7581 2 18.3999 2.35819 18.3999 2.80005V4.57178C16.6184 1.82056 13.5217 0 10 0C4.47705 0 0 4.47705 0 10C0 15.5229 4.47705 20 10 20C14.4898 20 18.2883 17.0413 19.5525 12.9674C19.7054 12.4745 19.3175 12 18.8014 12V12Z" fill="white"/>
</svg>
