<svg width="13" height="13" viewBox="0 0 13 13" fill="none" xmlns="http://www.w3.org/2000/svg">
<path d="M6.49995 8.49999C6.38595 8.49999 6.27245 8.46149 6.17995 8.38399L3.17995 5.88399C2.96795 5.70749 2.93895 5.39199 3.11595 5.17999C3.29245 4.96799 3.60745 4.93949 3.81995 5.11599L6.50545 7.35399L9.18645 5.19649C9.40145 5.02349 9.71645 5.05749 9.88945 5.27249C10.0625 5.48749 10.0285 5.80199 9.81345 5.97549L6.81345 8.38949C6.72195 8.46299 6.61095 8.49999 6.49995 8.49999" fill="#4774E7"/>
<mask id="mask0_9_1687" style="mask-type:alpha" maskUnits="userSpaceOnUse" x="3" y="5" width="7" height="4">
<path d="M6.49995 8.49999C6.38595 8.49999 6.27245 8.46149 6.17995 8.38399L3.17995 5.88399C2.96795 5.70749 2.93895 5.39199 3.11595 5.17999C3.29245 4.96799 3.60745 4.93949 3.81995 5.11599L6.50545 7.35399L9.18645 5.19649C9.40145 5.02349 9.71645 5.05749 9.88945 5.27249C10.0625 5.48749 10.0285 5.80199 9.81345 5.97549L6.81345 8.38949C6.72195 8.46299 6.61095 8.49999 6.49995 8.49999" fill="white"/>
</mask>
<g mask="url(#mask0_9_1687)">
</g>
</svg>
