<svg width="14" height="15" viewBox="0 0 14 15" fill="none" xmlns="http://www.w3.org/2000/svg">
<g id="icon/general/24x24/fill/batttery-charging-fill">
<path id="&#240;&#159;&#142;&#168; Icon &#208;&#161;olor" fill-rule="evenodd" clip-rule="evenodd" d="M6.57833 8.08333H4.08342C3.87575 8.08333 3.68325 7.9725 3.57883 7.79283C3.47442 7.61317 3.47383 7.39092 3.57708 7.21067L5.41166 4H2.43083C1.73375 4 1.16675 4.63525 1.16675 5.41692V9.58308C1.16675 10.3648 1.73375 11 2.43083 11H4.91175L6.57833 8.08333ZM9.23629 4H6.75537L5.08879 6.91667H7.5837C7.79137 6.91667 7.98387 7.0275 8.0877 7.20717C8.19212 7.38683 8.1927 7.60908 8.09004 7.78933L6.25545 11H9.23629C9.93337 11 10.5004 10.3648 10.5004 9.58308V5.41692C10.5004 4.63525 9.93337 4 9.23629 4ZM11.6667 6.33333C11.6667 6.01133 11.928 5.75 12.25 5.75C12.572 5.75 12.8333 6.01133 12.8333 6.33333V8.66667C12.8333 8.98867 12.572 9.25 12.25 9.25C11.928 9.25 11.6667 8.98867 11.6667 8.66667V6.33333Z" fill="url(#paint0_linear_1184_47380)"/>
<mask id="mask0_1184_47380" style="mask-type:alpha" maskUnits="userSpaceOnUse" x="1" y="4" width="12" height="7">
<path id="&#240;&#159;&#142;&#168; Icon &#208;&#161;olor_2" fill-rule="evenodd" clip-rule="evenodd" d="M6.57833 8.08333H4.08342C3.87575 8.08333 3.68325 7.9725 3.57883 7.79283C3.47442 7.61317 3.47383 7.39092 3.57708 7.21067L5.41166 4H2.43083C1.73375 4 1.16675 4.63525 1.16675 5.41692V9.58308C1.16675 10.3648 1.73375 11 2.43083 11H4.91175L6.57833 8.08333ZM9.23629 4H6.75537L5.08879 6.91667H7.5837C7.79137 6.91667 7.98387 7.0275 8.0877 7.20717C8.19212 7.38683 8.1927 7.60908 8.09004 7.78933L6.25545 11H9.23629C9.93337 11 10.5004 10.3648 10.5004 9.58308V5.41692C10.5004 4.63525 9.93337 4 9.23629 4ZM11.6667 6.33333C11.6667 6.01133 11.928 5.75 12.25 5.75C12.572 5.75 12.8333 6.01133 12.8333 6.33333V8.66667C12.8333 8.98867 12.572 9.25 12.25 9.25C11.928 9.25 11.6667 8.98867 11.6667 8.66667V6.33333Z" fill="white"/>
</mask>
<g mask="url(#mask0_1184_47380)">
</g>
</g>
<defs>
<linearGradient id="paint0_linear_1184_47380" x1="7.00011" y1="4" x2="7.00011" y2="11" gradientUnits="userSpaceOnUse">
<stop stop-color="#68D5C2"/>
<stop offset="1" stop-color="#56BABC"/>
</linearGradient>
</defs>
</svg>
