<svg width="13" height="12" viewBox="0 0 13 12" fill="none" xmlns="http://www.w3.org/2000/svg">
<path fill-rule="evenodd" clip-rule="evenodd" d="M1.5 6C1.5 3.2385 3.7385 1 6.5 1C9.261 1 11.5 3.2385 11.5 6C11.5 8.7615 9.261 11 6.5 11C3.7385 11 1.5 8.7615 1.5 6ZM6.5 10C4.2945 10 2.5 8.2055 2.5 6C2.5 3.7945 4.2945 2 6.5 2C8.7055 2 10.5 3.7945 10.5 6C10.5 8.2055 8.7055 10 6.5 10ZM6 4C6 3.724 6.224 3.5 6.5 3.5C6.776 3.5 7 3.724 7 4C7 4.276 6.776 4.5 6.5 4.5C6.224 4.5 6 4.276 6 4ZM6 5.5C6 5.224 6.224 5 6.5 5C6.776 5 7 5.224 7 5.5V8C7 8.276 6.776 8.5 6.5 8.5C6.224 8.5 6 8.276 6 8V5.5Z" fill="#678EF2"/>
<mask id="mask0_0_1869" style="mask-type:alpha" maskUnits="userSpaceOnUse" x="1" y="1" width="11" height="10">
<path fill-rule="evenodd" clip-rule="evenodd" d="M1.5 6C1.5 3.2385 3.7385 1 6.5 1C9.261 1 11.5 3.2385 11.5 6C11.5 8.7615 9.261 11 6.5 11C3.7385 11 1.5 8.7615 1.5 6ZM6.5 10C4.2945 10 2.5 8.2055 2.5 6C2.5 3.7945 4.2945 2 6.5 2C8.7055 2 10.5 3.7945 10.5 6C10.5 8.2055 8.7055 10 6.5 10ZM6 4C6 3.724 6.224 3.5 6.5 3.5C6.776 3.5 7 3.724 7 4C7 4.276 6.776 4.5 6.5 4.5C6.224 4.5 6 4.276 6 4ZM6 5.5C6 5.224 6.224 5 6.5 5C6.776 5 7 5.224 7 5.5V8C7 8.276 6.776 8.5 6.5 8.5C6.224 8.5 6 8.276 6 8V5.5Z" fill="white"/>
</mask>
<g mask="url(#mask0_0_1869)">
</g>
</svg>
