<svg width="14" height="15" viewBox="0 0 14 15" fill="none" xmlns="http://www.w3.org/2000/svg">
<g clip-path="url(#clip0_4522_13184)">
<path d="M0.5 7.45792C0.5 9.23698 1.20708 10.9432 2.46569 12.2011C3.72431 13.4591 5.43135 14.1658 7.2113 14.1658C8.99125 14.1658 10.6983 13.4591 11.9569 12.2011C13.2155 10.9432 13.9226 9.23698 13.9226 7.45792C13.9226 5.67887 13.2155 3.97269 11.9569 2.71471C10.6983 1.45673 8.99125 0.75 7.2113 0.75C5.43135 0.75 3.72431 1.45673 2.46569 2.71471C1.20708 3.97269 0.5 5.67887 0.5 7.45792Z" fill="url(#paint0_linear_4522_13184)"/>
<path d="M8.6442 5.25C9.38377 5.25 10.2068 5.92793 10.8924 6.65513C11.0076 6.7773 11.2454 6.87112 11.6056 6.93637C11.7033 6.95407 11.7924 7.00356 11.859 7.07713C11.9256 7.15071 11.966 7.24424 11.974 7.34317L11.9755 7.37918V8.56088C11.9755 8.75348 11.8275 8.91188 11.6387 8.92785L11.6072 8.9292L11.0197 8.9337C10.9711 9.38392 10.5769 9.7293 10.1071 9.71783C9.7314 9.71783 9.39345 9.4935 9.25395 9.15173C9.22716 9.08611 9.20835 9.01752 9.19792 8.94743L5.49442 8.97488C5.44177 9.4206 5.0496 9.76103 4.58295 9.74978C4.2072 9.74978 3.86925 9.52545 3.72997 9.18368C3.70436 9.12103 3.68602 9.05565 3.6753 8.98883L3.42847 8.99063H3.4251C3.31157 8.99066 3.20222 8.94778 3.11897 8.87059C3.03573 8.79339 2.98474 8.68759 2.97622 8.57438L2.9751 8.54063V6.86955C2.9751 6.05887 3.6591 5.28442 4.21215 5.25112L4.2486 5.25H8.64397H8.6442ZM6.53325 5.7477H5.16142V6.8727H6.53325V5.7477ZM8.53372 5.7477H6.77445L6.76365 6.8727H10.2592C10.2592 6.8727 9.5055 5.7477 8.53372 5.7477ZM4.92067 5.7477H4.2018C3.93 5.7477 3.4413 6.2787 3.47955 6.81915L3.4845 6.86707H3.69982C3.76845 6.87427 4.15185 6.8745 4.84957 6.86775L4.92562 6.86707L4.92067 5.7477Z" fill="white"/>
</g>
<defs>
<linearGradient id="paint0_linear_4522_13184" x1="7.2113" y1="0.75" x2="7.2113" y2="14.1658" gradientUnits="userSpaceOnUse">
<stop stop-color="#707E9D"/>
<stop offset="1" stop-color="#44506B"/>
</linearGradient>
<clipPath id="clip0_4522_13184">
<rect width="13.5" height="13.5" fill="white" transform="translate(0.5 0.75)"/>
</clipPath>
</defs>
</svg>
