<svg width="15" height="15" viewBox="0 0 15 15" fill="none" xmlns="http://www.w3.org/2000/svg">
<g clip-path="url(#clip0_4522_13147)">
<path d="M0.5 7.5C0.5 9.35652 1.2375 11.137 2.55025 12.4497C3.86301 13.7625 5.64348 14.5 7.5 14.5C9.35652 14.5 11.137 13.7625 12.4497 12.4497C13.7625 11.137 14.5 9.35652 14.5 7.5C14.5 5.64348 13.7625 3.86301 12.4497 2.55025C11.137 1.2375 9.35652 0.5 7.5 0.5C5.64348 0.5 3.86301 1.2375 2.55025 2.55025C1.2375 3.86301 0.5 5.64348 0.5 7.5H0.5Z" fill="url(#paint0_linear_4522_13147)"/>
<path d="M10.3 4.99868H9.6V4.66595C9.59533 4.29518 9.28267 3.99768 8.9 4.00001H6.1C5.71733 3.99791 5.40467 4.29541 5.4 4.66595V4.99868H4.7C4.31733 4.99635 4.00467 5.29385 4 5.66461V9.65928C4.00467 10.03 4.31733 10.3275 4.7 10.325H5.05V10.4916C5.05 10.7723 5.28497 11 5.575 11C5.86503 11 6.1 10.7723 6.1 10.4916V10.325H8.9V10.4916C8.9 10.7723 9.13497 11 9.425 11C9.71503 11 9.95 10.7723 9.95 10.4916V10.325H10.3C10.6827 10.3273 10.9953 10.03 11 9.65951V5.66461C10.9953 5.29385 10.6827 4.99635 10.3 4.99868ZM9.25 6.33031V8.99358C9.25 9.18095 9.0932 9.33261 8.9 9.33261C8.7068 9.33261 8.55 9.18095 8.55 8.99358V6.33031C8.55 6.14318 8.7068 5.99128 8.9 5.99128C9.0932 5.99128 9.25 6.14295 9.25 6.33031ZM6.1 4.66595H8.9V4.99868H6.1V4.66595ZM6.45 8.99335C6.45 9.18071 6.2932 9.33238 6.1 9.33238C5.9068 9.33238 5.75 9.18071 5.75 8.99335V6.33031C5.75 6.14318 5.9068 5.99128 6.1 5.99128C6.2932 5.99128 6.45 6.14295 6.45 6.33031V8.99335Z" fill="white"/>
</g>
<defs>
<linearGradient id="paint0_linear_4522_13147" x1="7.5" y1="0.5" x2="7.5" y2="14.5" gradientUnits="userSpaceOnUse">
<stop stop-color="#707E9D"/>
<stop offset="1" stop-color="#44506B"/>
</linearGradient>
<clipPath id="clip0_4522_13147">
<rect width="14" height="14" fill="white" transform="translate(0.5 0.5)"/>
</clipPath>
</defs>
</svg>
