<svg width="15" height="15" viewBox="0 0 15 15" fill="none" xmlns="http://www.w3.org/2000/svg">
<g clip-path="url(#clip0_4522_13130)">
<path d="M0.522949 7.43267C0.522949 8.33724 0.701119 9.23296 1.04728 10.0687C1.39345 10.9044 1.90083 11.6637 2.54047 12.3034C3.1801 12.943 3.93945 13.4504 4.77517 13.7966C5.61089 14.1427 6.50661 14.3209 7.41118 14.3209C8.31576 14.3209 9.21147 14.1427 10.0472 13.7966C10.8829 13.4504 11.6423 12.943 12.2819 12.3034C12.9215 11.6637 13.4289 10.9044 13.7751 10.0687C14.1212 9.23296 14.2994 8.33724 14.2994 7.43267C14.2994 6.52809 14.1212 5.63237 13.7751 4.79665C13.4289 3.96093 12.9215 3.20158 12.2819 2.56195C11.6423 1.92232 10.8829 1.41494 10.0472 1.06877C9.21147 0.722603 8.31576 0.544434 7.41118 0.544434C6.50661 0.544434 5.61089 0.722603 4.77517 1.06877C3.93945 1.41494 3.1801 1.92232 2.54047 2.56195C1.90083 3.20158 1.39345 3.96093 1.04728 4.79665C0.701119 5.63237 0.522949 6.52809 0.522949 7.43267Z" fill="url(#paint0_linear_4522_13130)"/>
<path d="M10.6211 5.67817H10.4798V4.96828C10.4727 4.84207 10.4342 4.71963 10.3677 4.61217C10.3011 4.5047 10.2087 4.41563 10.0988 4.3531C10.0988 4.3531 9.34502 3.97607 7.50154 3.97607C5.65829 3.97607 4.90333 4.3531 4.90333 4.3531C4.79347 4.41563 4.70105 4.5047 4.63451 4.61217C4.56796 4.71963 4.52942 4.84207 4.52241 4.96828V5.67817H4.38057C4.26787 5.67841 4.15983 5.72321 4.08003 5.8028C4.00022 5.88239 3.95513 5.9903 3.95459 6.10301V6.52876C3.95483 6.64163 3.99976 6.7498 4.07954 6.82963C4.15933 6.90946 4.26748 6.95444 4.38034 6.95474H4.52196V9.86249C4.52287 10.0425 4.63634 10.2029 4.8061 10.2635V10.5008C4.8061 10.5753 4.82077 10.6491 4.84928 10.7179C4.8778 10.7867 4.91959 10.8493 4.97227 10.902C5.02496 10.9547 5.0875 10.9964 5.15634 11.025C5.22518 11.0535 5.29895 11.0681 5.37346 11.0681C5.44797 11.0681 5.52175 11.0535 5.59058 11.025C5.65942 10.9964 5.72197 10.9547 5.77465 10.902C5.82734 10.8493 5.86913 10.7867 5.89764 10.7179C5.92615 10.6491 5.94083 10.5753 5.94083 10.5008V10.2885H9.06042V10.5008C9.06042 10.6513 9.1202 10.7956 9.2266 10.902C9.333 11.0084 9.47732 11.0681 9.62779 11.0681C9.77827 11.0681 9.92258 11.0084 10.029 10.902C10.1354 10.7956 10.1952 10.6513 10.1952 10.5008V10.2635C10.278 10.2339 10.3496 10.1796 10.4005 10.1078C10.4513 10.0361 10.4788 9.95043 10.4793 9.86249V6.95474H10.6209C10.7338 6.95444 10.8419 6.90946 10.9217 6.82963C11.0015 6.7498 11.0464 6.64163 11.0467 6.52876V6.10301C11.0458 5.99046 11.0006 5.88278 10.9209 5.80328C10.8412 5.72377 10.7335 5.67883 10.6209 5.67817H10.6211ZM6.08221 4.68528C6.08239 4.64772 6.09739 4.61175 6.12396 4.58518C6.15052 4.55862 6.18649 4.54362 6.22405 4.54344H8.7772C8.85544 4.54413 8.91835 4.60727 8.91904 4.68528V4.96828C8.9191 5.00598 8.9042 5.04216 8.87761 5.06889C8.85101 5.09561 8.8149 5.11068 8.7772 5.11081H6.22405C6.18643 5.11056 6.15044 5.09543 6.12394 5.06872C6.09745 5.04201 6.08261 5.0059 6.08267 4.96828V4.68528H6.08221ZM5.44438 9.72065C5.39701 9.72189 5.34988 9.71362 5.30575 9.69636C5.26162 9.67909 5.2214 9.65316 5.18745 9.6201C5.1535 9.58705 5.12651 9.54753 5.10807 9.50388C5.08963 9.46023 5.08011 9.41333 5.08008 9.36594C5.08005 9.31856 5.08951 9.27164 5.10789 9.22797C5.12627 9.18429 5.15321 9.14474 5.18712 9.11164C5.22103 9.07854 5.26122 9.05256 5.30532 9.03523C5.34943 9.01791 5.39655 9.00959 5.44393 9.01076C5.5365 9.01305 5.62453 9.05142 5.68922 9.11769C5.75391 9.18396 5.79015 9.27287 5.79021 9.36548C5.79027 9.45809 5.75414 9.54706 5.68954 9.61341C5.62493 9.67976 5.53696 9.71824 5.44438 9.72065ZM9.55687 9.72065C9.5095 9.72186 9.46237 9.71356 9.41825 9.69627C9.37414 9.67897 9.33393 9.65302 9.3 9.61994C9.26607 9.58686 9.2391 9.54732 9.22069 9.50366C9.20228 9.46 9.1928 9.41309 9.1928 9.36571C9.1928 9.31832 9.20228 9.27141 9.22069 9.22775C9.2391 9.18409 9.26607 9.14455 9.3 9.11147C9.33393 9.07839 9.37414 9.05244 9.41825 9.03514C9.46237 9.01785 9.5095 9.00956 9.55687 9.01076C9.64945 9.01311 9.73744 9.05154 9.80209 9.11785C9.86674 9.18416 9.90292 9.2731 9.90292 9.36571C9.90292 9.45831 9.86674 9.54726 9.80209 9.61356C9.73744 9.67987 9.64945 9.7183 9.55687 9.72065ZM9.91193 8.08948C9.91169 8.12696 9.89669 8.16284 9.87019 8.18935C9.84368 8.21585 9.8078 8.23085 9.77032 8.23109H5.23139C5.19375 8.23109 5.15763 8.2162 5.13093 8.18967C5.10423 8.16314 5.08911 8.12712 5.08886 8.08948V5.82001C5.08905 5.78233 5.10414 5.74625 5.13085 5.71967C5.15756 5.69309 5.19371 5.67817 5.23139 5.67817H9.77032C9.84833 5.67886 9.91147 5.742 9.91193 5.82001V8.08948Z" fill="white"/>
</g>
<defs>
<linearGradient id="paint0_linear_4522_13130" x1="7.41118" y1="0.544434" x2="7.41118" y2="14.3209" gradientUnits="userSpaceOnUse">
<stop stop-color="#707E9D"/>
<stop offset="1" stop-color="#44506B"/>
</linearGradient>
<clipPath id="clip0_4522_13130">
<rect width="14" height="14" fill="white" transform="translate(0.5 0.5)"/>
</clipPath>
</defs>
</svg>
