<svg width="9" height="9" viewBox="0 0 9 9" fill="none" xmlns="http://www.w3.org/2000/svg">
<path d="M8.8895 4.67297L5.07652 8.48595C4.98098 8.58149 4.82608 8.58149 4.73054 8.48595L0.917573 4.67297C0.763456 4.51886 0.872608 4.25534 1.09056 4.25534L2.70174 4.25534C2.83685 4.25534 2.94638 4.14581 2.94638 4.0107L2.94638 0.585678C2.94638 0.450566 3.05591 0.341034 3.19103 0.341034L6.61604 0.341035C6.75116 0.341035 6.86069 0.450566 6.86069 0.585679L6.86069 4.0107C6.86069 4.14581 6.97022 4.25534 7.10533 4.25534L8.71651 4.25534C8.93446 4.25534 9.04361 4.51886 8.8895 4.67297Z" fill="url(#paint0_linear_4522_13143)"/>
<defs>
<linearGradient id="paint0_linear_4522_13143" x1="4.90353" y1="8.65894" x2="4.90353" y2="0.341035" gradientUnits="userSpaceOnUse">
<stop stop-color="#68D5C2"/>
<stop offset="1" stop-color="#56BABC"/>
</linearGradient>
</defs>
</svg>
