
<svg width="16" height="16" viewBox="0 0 16 16" fill="none" xmlns="http://www.w3.org/2000/svg">
<path fill-rule="evenodd" clip-rule="evenodd" d="M3.48768 4.4268L6.47168 8.00747L3.59502 11.5821C3.36435 11.8688 3.40968 12.2881 3.69635 12.5195C3.81968 12.6188 3.96768 12.6668 4.11435 12.6668C4.30902 12.6668 4.50235 12.5815 4.63435 12.4181L7.85302 8.41814C8.05168 8.1708 8.04902 7.8168 7.84568 7.57347L4.51235 3.57347C4.27635 3.29014 3.85635 3.2528 3.57302 3.48814C3.29035 3.72347 3.25235 4.14414 3.48768 4.4268ZM9.1786 3.57328C8.94327 3.29061 8.52327 3.25261 8.23993 3.48794C7.95727 3.72394 7.91927 4.14394 8.1546 4.42661L11.1386 8.00728L8.26193 11.5819C8.03127 11.8686 8.0766 12.2886 8.36327 12.5193C8.4866 12.6186 8.63393 12.6666 8.78127 12.6666C8.97593 12.6666 9.16927 12.5819 9.3006 12.4179L12.5193 8.41794C12.7186 8.17061 12.7153 7.81728 12.5119 7.57328L9.1786 3.57328Z" fill="#383B46"/>
<mask id="mask0_2572_109496" style="mask-type:alpha" maskUnits="userSpaceOnUse" x="3" y="3" width="10" height="10">
<path fill-rule="evenodd" clip-rule="evenodd" d="M3.48768 4.4268L6.47168 8.00747L3.59502 11.5821C3.36435 11.8688 3.40968 12.2881 3.69635 12.5195C3.81968 12.6188 3.96768 12.6668 4.11435 12.6668C4.30902 12.6668 4.50235 12.5815 4.63435 12.4181L7.85302 8.41814C8.05168 8.1708 8.04902 7.8168 7.84568 7.57347L4.51235 3.57347C4.27635 3.29014 3.85635 3.2528 3.57302 3.48814C3.29035 3.72347 3.25235 4.14414 3.48768 4.4268ZM9.1786 3.57328C8.94327 3.29061 8.52327 3.25261 8.23993 3.48794C7.95727 3.72394 7.91927 4.14394 8.1546 4.42661L11.1386 8.00728L8.26193 11.5819C8.03127 11.8686 8.0766 12.2886 8.36327 12.5193C8.4866 12.6186 8.63393 12.6666 8.78127 12.6666C8.97593 12.6666 9.16927 12.5819 9.3006 12.4179L12.5193 8.41794C12.7186 8.17061 12.7153 7.81728 12.5119 7.57328L9.1786 3.57328Z" fill="white"/>
</mask>
<g mask="url(#mask0_2572_109496)">
</g>
</svg>
