<svg width="10" height="6" viewBox="0 0 10 6" fill="none" xmlns="http://www.w3.org/2000/svg">
<path d="M9.43357 0.878101C9.28619 0.732596 9.04919 0.733342 8.90332 0.880358L5.06146 4.75748L1.16595 0.896868C1.01857 0.751001 0.781568 0.752109 0.635318 0.899126C0.48945 1.04651 0.490559 1.28387 0.637575 1.42976L4.77795 5.53264C4.78432 5.53901 4.79256 5.54052 4.79895 5.54651C4.80044 5.548 4.80083 5.54987 4.80232 5.55138C4.87543 5.62375 4.97107 5.66014 5.06631 5.66014C5.16269 5.66014 5.25943 5.62301 5.33257 5.54915L9.43545 1.40878C9.5817 1.26136 9.58059 1.02399 9.43357 0.878101Z" fill="#969696"/>
</svg>
