<svg width="12" height="13" viewBox="0 0 12 13" fill="none" xmlns="http://www.w3.org/2000/svg">
<path d="M5.99995 8.49975C5.88595 8.49975 5.77245 8.46125 5.67995 8.38375L2.67995 5.88375C2.46795 5.70725 2.43895 5.39175 2.61595 5.17975C2.79245 4.96775 3.10745 4.93925 3.31995 5.11575L6.00545 7.35375L8.68645 5.19625C8.90145 5.02325 9.21645 5.05725 9.38945 5.27225C9.56245 5.48725 9.52845 5.80175 9.31345 5.97525L6.31345 8.38925C6.22195 8.46275 6.11095 8.49975 5.99995 8.49975Z" fill="#4774E7"/>
<mask id="mask0_6326_94055" style="mask-type:alpha" maskUnits="userSpaceOnUse" x="2" y="5" width="8" height="4">
<path d="M5.99995 8.49975C5.88595 8.49975 5.77245 8.46125 5.67995 8.38375L2.67995 5.88375C2.46795 5.70725 2.43895 5.39175 2.61595 5.17975C2.79245 4.96775 3.10745 4.93925 3.31995 5.11575L6.00545 7.35375L8.68645 5.19625C8.90145 5.02325 9.21645 5.05725 9.38945 5.27225C9.56245 5.48725 9.52845 5.80175 9.31345 5.97525L6.31345 8.38925C6.22195 8.46275 6.11095 8.49975 5.99995 8.49975Z" fill="white"/>
</mask>
<g mask="url(#mask0_6326_94055)">
</g>
</svg>
