<svg width="150" height="150" viewBox="0 0 150 150" fill="none" xmlns="http://www.w3.org/2000/svg">
<path d="M75 150C116.421 150 150 116.421 150 75C150 33.5786 116.421 0 75 0C33.5786 0 0 33.5786 0 75C0 116.421 33.5786 150 75 150Z" fill="url(#paint0_linear_4001_76641)"/>
<path d="M120 150H30V53C34.242 52.9952 38.3089 51.308 41.3084 48.3085C44.308 45.3089 45.9952 41.242 46 37H104C103.996 39.1014 104.408 41.1828 105.213 43.1238C106.018 45.0648 107.2 46.8268 108.691 48.308C110.172 49.7991 111.934 50.9816 113.875 51.787C115.817 52.5924 117.898 53.0047 120 53V150Z" fill="white"/>
<path d="M83.4853 89.3139L75 80.8286L66.5147 89.3139L63.6863 86.4854L72.1716 78.0002L63.6863 69.5149L66.5147 66.6865L75 75.1717L83.4853 66.6865L86.3137 69.5149L77.8284 78.0002L86.3137 86.4854L83.4853 89.3139Z" fill="white"/>
<path d="M88 108H62C60.3431 108 59 109.343 59 111C59 112.657 60.3431 114 62 114H88C89.6569 114 91 112.657 91 111C91 109.343 89.6569 108 88 108Z" fill="#DFEAFB"/>
<path d="M97 120H53C51.3431 120 50 121.343 50 123C50 124.657 51.3431 126 53 126H97C98.6569 126 100 124.657 100 123C100 121.343 98.6569 120 97 120Z" fill="#DFEAFB"/>
<ellipse cx="75" cy="94.2188" rx="14.25" ry="6.53125" fill="url(#paint1_linear_4001_76641)"/>
<path d="M88.6562 94.2188C88.6562 95.6489 87.3656 97.1346 84.8289 98.2973C82.3441 99.4362 78.8696 100.156 75 100.156C71.1304 100.156 67.6559 99.4362 65.1711 98.2973C62.6344 97.1346 61.3438 95.6489 61.3438 94.2188C61.3438 92.7886 62.6344 91.3029 65.1711 90.1402C67.6559 89.0013 71.1304 88.2812 75 88.2812C78.8696 88.2812 82.3441 89.0013 84.8289 90.1402C87.3656 91.3029 88.6562 92.7886 88.6562 94.2188Z" stroke="white" stroke-opacity="0.8" stroke-width="1.1875"/>
<circle cx="75" cy="77" r="19" fill="url(#paint2_radial_4001_76641)"/>
<circle cx="75" cy="77" r="19" fill="url(#paint3_linear_4001_76641)"/>
<circle cx="75" cy="77" r="17.8125" stroke="#D67504" stroke-opacity="0.27" stroke-width="2.375"/>
<g filter="url(#filter0_di_4001_76641)">
<path d="M71.4375 87.6874C74.4387 86.3802 76.0072 86.3294 78.5625 87.6874" stroke="#823423" stroke-width="2.375" stroke-linecap="round"/>
</g>
<rect x="65.5" y="75.8125" width="4.75" height="20.1875" rx="1.1875" fill="url(#paint4_linear_4001_76641)"/>
<rect x="79.75" y="75.8125" width="4.75" height="20.1875" rx="1.1875" fill="url(#paint5_linear_4001_76641)"/>
<g opacity="0.3" filter="url(#filter1_di_4001_76641)">
<path d="M70.25 67.5C69.9107 67.8958 68.7232 68.6875 66.6875 68.6875" stroke="#823423" stroke-width="2.375" stroke-linecap="round"/>
</g>
<g opacity="0.3" filter="url(#filter2_di_4001_76641)">
<path d="M79.75 67.5C80.0893 67.8958 81.2768 68.6875 83.3125 68.6875" stroke="#823423" stroke-width="2.375" stroke-linecap="round"/>
</g>
<g filter="url(#filter3_di_4001_76641)">
<path d="M66.0938 75.2188H69.6562" stroke="#823423" stroke-width="2.375" stroke-linecap="round"/>
</g>
<g filter="url(#filter4_di_4001_76641)">
<path d="M80.3438 75.2188H83.9062" stroke="#823423" stroke-width="2.375" stroke-linecap="round"/>
</g>
<defs>
<filter id="filter0_di_4001_76641" x="69.0623" y="85.5004" width="11.8755" height="5.74988" filterUnits="userSpaceOnUse" color-interpolation-filters="sRGB">
<feFlood flood-opacity="0" result="BackgroundImageFix"/>
<feColorMatrix in="SourceAlpha" type="matrix" values="0 0 0 0 0 0 0 0 0 0 0 0 0 0 0 0 0 0 127 0" result="hardAlpha"/>
<feOffset dy="1.1875"/>
<feGaussianBlur stdDeviation="0.59375"/>
<feColorMatrix type="matrix" values="0 0 0 0 1 0 0 0 0 1 0 0 0 0 1 0 0 0 0.35 0"/>
<feBlend mode="normal" in2="BackgroundImageFix" result="effect1_dropShadow_4001_76641"/>
<feBlend mode="normal" in="SourceGraphic" in2="effect1_dropShadow_4001_76641" result="shape"/>
<feColorMatrix in="SourceAlpha" type="matrix" values="0 0 0 0 0 0 0 0 0 0 0 0 0 0 0 0 0 0 127 0" result="hardAlpha"/>
<feOffset dy="1.1875"/>
<feGaussianBlur stdDeviation="1.1875"/>
<feComposite in2="hardAlpha" operator="arithmetic" k2="-1" k3="1"/>
<feColorMatrix type="matrix" values="0 0 0 0 0 0 0 0 0 0 0 0 0 0 0 0 0 0 0.25 0"/>
<feBlend mode="normal" in2="shape" result="effect2_innerShadow_4001_76641"/>
</filter>
<filter id="filter1_di_4001_76641" x="64.3125" y="66.3125" width="8.3125" height="5.9375" filterUnits="userSpaceOnUse" color-interpolation-filters="sRGB">
<feFlood flood-opacity="0" result="BackgroundImageFix"/>
<feColorMatrix in="SourceAlpha" type="matrix" values="0 0 0 0 0 0 0 0 0 0 0 0 0 0 0 0 0 0 127 0" result="hardAlpha"/>
<feOffset dy="1.1875"/>
<feGaussianBlur stdDeviation="0.59375"/>
<feColorMatrix type="matrix" values="0 0 0 0 1 0 0 0 0 1 0 0 0 0 1 0 0 0 0.35 0"/>
<feBlend mode="normal" in2="BackgroundImageFix" result="effect1_dropShadow_4001_76641"/>
<feBlend mode="normal" in="SourceGraphic" in2="effect1_dropShadow_4001_76641" result="shape"/>
<feColorMatrix in="SourceAlpha" type="matrix" values="0 0 0 0 0 0 0 0 0 0 0 0 0 0 0 0 0 0 127 0" result="hardAlpha"/>
<feOffset dy="1.1875"/>
<feGaussianBlur stdDeviation="1.1875"/>
<feComposite in2="hardAlpha" operator="arithmetic" k2="-1" k3="1"/>
<feColorMatrix type="matrix" values="0 0 0 0 0 0 0 0 0 0 0 0 0 0 0 0 0 0 0.25 0"/>
<feBlend mode="normal" in2="shape" result="effect2_innerShadow_4001_76641"/>
</filter>
<filter id="filter2_di_4001_76641" x="77.375" y="66.3125" width="8.3125" height="5.9375" filterUnits="userSpaceOnUse" color-interpolation-filters="sRGB">
<feFlood flood-opacity="0" result="BackgroundImageFix"/>
<feColorMatrix in="SourceAlpha" type="matrix" values="0 0 0 0 0 0 0 0 0 0 0 0 0 0 0 0 0 0 127 0" result="hardAlpha"/>
<feOffset dy="1.1875"/>
<feGaussianBlur stdDeviation="0.59375"/>
<feColorMatrix type="matrix" values="0 0 0 0 1 0 0 0 0 1 0 0 0 0 1 0 0 0 0.35 0"/>
<feBlend mode="normal" in2="BackgroundImageFix" result="effect1_dropShadow_4001_76641"/>
<feBlend mode="normal" in="SourceGraphic" in2="effect1_dropShadow_4001_76641" result="shape"/>
<feColorMatrix in="SourceAlpha" type="matrix" values="0 0 0 0 0 0 0 0 0 0 0 0 0 0 0 0 0 0 127 0" result="hardAlpha"/>
<feOffset dy="1.1875"/>
<feGaussianBlur stdDeviation="1.1875"/>
<feComposite in2="hardAlpha" operator="arithmetic" k2="-1" k3="1"/>
<feColorMatrix type="matrix" values="0 0 0 0 0 0 0 0 0 0 0 0 0 0 0 0 0 0 0.25 0"/>
<feBlend mode="normal" in2="shape" result="effect2_innerShadow_4001_76641"/>
</filter>
<filter id="filter3_di_4001_76641" x="63.7188" y="74.0312" width="8.3125" height="4.75" filterUnits="userSpaceOnUse" color-interpolation-filters="sRGB">
<feFlood flood-opacity="0" result="BackgroundImageFix"/>
<feColorMatrix in="SourceAlpha" type="matrix" values="0 0 0 0 0 0 0 0 0 0 0 0 0 0 0 0 0 0 127 0" result="hardAlpha"/>
<feOffset dy="1.1875"/>
<feGaussianBlur stdDeviation="0.59375"/>
<feColorMatrix type="matrix" values="0 0 0 0 1 0 0 0 0 1 0 0 0 0 1 0 0 0 0.35 0"/>
<feBlend mode="normal" in2="BackgroundImageFix" result="effect1_dropShadow_4001_76641"/>
<feBlend mode="normal" in="SourceGraphic" in2="effect1_dropShadow_4001_76641" result="shape"/>
<feColorMatrix in="SourceAlpha" type="matrix" values="0 0 0 0 0 0 0 0 0 0 0 0 0 0 0 0 0 0 127 0" result="hardAlpha"/>
<feOffset dy="1.1875"/>
<feGaussianBlur stdDeviation="1.1875"/>
<feComposite in2="hardAlpha" operator="arithmetic" k2="-1" k3="1"/>
<feColorMatrix type="matrix" values="0 0 0 0 0 0 0 0 0 0 0 0 0 0 0 0 0 0 0.25 0"/>
<feBlend mode="normal" in2="shape" result="effect2_innerShadow_4001_76641"/>
</filter>
<filter id="filter4_di_4001_76641" x="77.9688" y="74.0312" width="8.3125" height="4.75" filterUnits="userSpaceOnUse" color-interpolation-filters="sRGB">
<feFlood flood-opacity="0" result="BackgroundImageFix"/>
<feColorMatrix in="SourceAlpha" type="matrix" values="0 0 0 0 0 0 0 0 0 0 0 0 0 0 0 0 0 0 127 0" result="hardAlpha"/>
<feOffset dy="1.1875"/>
<feGaussianBlur stdDeviation="0.59375"/>
<feColorMatrix type="matrix" values="0 0 0 0 1 0 0 0 0 1 0 0 0 0 1 0 0 0 0.35 0"/>
<feBlend mode="normal" in2="BackgroundImageFix" result="effect1_dropShadow_4001_76641"/>
<feBlend mode="normal" in="SourceGraphic" in2="effect1_dropShadow_4001_76641" result="shape"/>
<feColorMatrix in="SourceAlpha" type="matrix" values="0 0 0 0 0 0 0 0 0 0 0 0 0 0 0 0 0 0 127 0" result="hardAlpha"/>
<feOffset dy="1.1875"/>
<feGaussianBlur stdDeviation="1.1875"/>
<feComposite in2="hardAlpha" operator="arithmetic" k2="-1" k3="1"/>
<feColorMatrix type="matrix" values="0 0 0 0 0 0 0 0 0 0 0 0 0 0 0 0 0 0 0.25 0"/>
<feBlend mode="normal" in2="shape" result="effect2_innerShadow_4001_76641"/>
</filter>
<linearGradient id="paint0_linear_4001_76641" x1="75" y1="0" x2="75" y2="150" gradientUnits="userSpaceOnUse">
<stop stop-color="#E3ECFA"/>
<stop offset="1" stop-color="#DAE7FF"/>
</linearGradient>
<linearGradient id="paint1_linear_4001_76641" x1="75" y1="87.6875" x2="75" y2="100.75" gradientUnits="userSpaceOnUse">
<stop stop-color="#85EDED"/>
<stop offset="1" stop-color="#7AFFFF" stop-opacity="0.65"/>
</linearGradient>
<radialGradient id="paint2_radial_4001_76641" cx="0" cy="0" r="1" gradientUnits="userSpaceOnUse" gradientTransform="translate(75 58) rotate(90) scale(38)">
<stop stop-color="#FFF1A6"/>
<stop offset="1" stop-color="#FFD27A"/>
</radialGradient>
<linearGradient id="paint3_linear_4001_76641" x1="75" y1="58" x2="75" y2="96" gradientUnits="userSpaceOnUse">
<stop stop-color="white" stop-opacity="0.52"/>
<stop offset="1" stop-color="white" stop-opacity="0"/>
<stop offset="1" stop-color="white" stop-opacity="0"/>
</linearGradient>
<linearGradient id="paint4_linear_4001_76641" x1="67.875" y1="75.8125" x2="67.875" y2="96" gradientUnits="userSpaceOnUse">
<stop stop-color="#85EDED"/>
<stop offset="1" stop-color="#85EDED" stop-opacity="0"/>
</linearGradient>
<linearGradient id="paint5_linear_4001_76641" x1="82.125" y1="75.8125" x2="82.125" y2="96" gradientUnits="userSpaceOnUse">
<stop stop-color="#85EDED"/>
<stop offset="1" stop-color="#85EDED" stop-opacity="0"/>
</linearGradient>
</defs>
</svg>
