<svg width="150" height="150" viewBox="0 0 150 150" fill="none" xmlns="http://www.w3.org/2000/svg">
<path d="M75 150C116.421 150 150 116.421 150 75C150 33.5786 116.421 0 75 0C33.5786 0 0 33.5786 0 75C0 116.421 33.5786 150 75 150Z" fill="url(#paint0_linear_4017_79369)"/>
<path d="M120 150H30V53C34.242 52.9952 38.3089 51.308 41.3084 48.3085C44.308 45.3089 45.9952 41.242 46 37H104C103.996 39.1014 104.408 41.1828 105.213 43.1238C106.018 45.0648 107.2 46.8268 108.691 48.308C110.172 49.7991 111.934 50.9816 113.875 51.787C115.817 52.5924 117.898 53.0047 120 53V150Z" fill="white"/>
<rect width="38" height="38" transform="translate(56 58)" fill="white"/>
<circle cx="75" cy="77" r="19" fill="url(#paint1_radial_4017_79369)"/>
<circle cx="75" cy="77" r="19" fill="url(#paint2_linear_4017_79369)"/>
<circle cx="75" cy="77" r="17.8125" stroke="#D67504" stroke-opacity="0.27" stroke-width="2.375"/>
<g filter="url(#filter0_di_4017_79369)">
<path d="M66.6875 72.25V72.25C67.5781 71.0625 69.3594 71.0625 70.25 72.25V72.25" stroke="#823423" stroke-width="2.375" stroke-linecap="round"/>
</g>
<g filter="url(#filter1_di_4017_79369)">
<path d="M79.75 72.25V72.25C80.6406 71.0625 82.4219 71.0625 83.3125 72.25V72.25" stroke="#823423" stroke-width="2.375" stroke-linecap="round"/>
</g>
<g filter="url(#filter2_di_4017_79369)">
<path d="M75 88.875C69.943 88.875 65.5 85.5446 65.5 81.4362C65.5 79.5002 67.2253 77.994 69.1981 78.2078L71.3778 78.444C73.7852 78.7049 76.2148 78.7049 78.6222 78.444L80.8019 78.2078C82.7747 77.994 84.5 79.5002 84.5 81.4362C84.5 85.5446 80.057 88.875 75 88.875Z" fill="#EB5D3E"/>
</g>
<path d="M88 108H62C60.3431 108 59 109.343 59 111C59 112.657 60.3431 114 62 114H88C89.6569 114 91 112.657 91 111C91 109.343 89.6569 108 88 108Z" fill="#DFEAFB"/>
<path d="M97 120H53C51.3431 120 50 121.343 50 123C50 124.657 51.3431 126 53 126H97C98.6569 126 100 124.657 100 123C100 121.343 98.6569 120 97 120Z" fill="#DFEAFB"/>
<defs>
<filter id="filter0_di_4017_79369" x="64.3125" y="70.1719" width="8.3125" height="5.64075" filterUnits="userSpaceOnUse" color-interpolation-filters="sRGB">
<feFlood flood-opacity="0" result="BackgroundImageFix"/>
<feColorMatrix in="SourceAlpha" type="matrix" values="0 0 0 0 0 0 0 0 0 0 0 0 0 0 0 0 0 0 127 0" result="hardAlpha"/>
<feOffset dy="1.1875"/>
<feGaussianBlur stdDeviation="0.59375"/>
<feColorMatrix type="matrix" values="0 0 0 0 1 0 0 0 0 1 0 0 0 0 1 0 0 0 0.35 0"/>
<feBlend mode="normal" in2="BackgroundImageFix" result="effect1_dropShadow_4017_79369"/>
<feBlend mode="normal" in="SourceGraphic" in2="effect1_dropShadow_4017_79369" result="shape"/>
<feColorMatrix in="SourceAlpha" type="matrix" values="0 0 0 0 0 0 0 0 0 0 0 0 0 0 0 0 0 0 127 0" result="hardAlpha"/>
<feOffset dy="1.1875"/>
<feGaussianBlur stdDeviation="1.1875"/>
<feComposite in2="hardAlpha" operator="arithmetic" k2="-1" k3="1"/>
<feColorMatrix type="matrix" values="0 0 0 0 0 0 0 0 0 0 0 0 0 0 0 0 0 0 0.25 0"/>
<feBlend mode="normal" in2="shape" result="effect2_innerShadow_4017_79369"/>
</filter>
<filter id="filter1_di_4017_79369" x="77.375" y="70.1719" width="8.3125" height="5.64075" filterUnits="userSpaceOnUse" color-interpolation-filters="sRGB">
<feFlood flood-opacity="0" result="BackgroundImageFix"/>
<feColorMatrix in="SourceAlpha" type="matrix" values="0 0 0 0 0 0 0 0 0 0 0 0 0 0 0 0 0 0 127 0" result="hardAlpha"/>
<feOffset dy="1.1875"/>
<feGaussianBlur stdDeviation="0.59375"/>
<feColorMatrix type="matrix" values="0 0 0 0 1 0 0 0 0 1 0 0 0 0 1 0 0 0 0.35 0"/>
<feBlend mode="normal" in2="BackgroundImageFix" result="effect1_dropShadow_4017_79369"/>
<feBlend mode="normal" in="SourceGraphic" in2="effect1_dropShadow_4017_79369" result="shape"/>
<feColorMatrix in="SourceAlpha" type="matrix" values="0 0 0 0 0 0 0 0 0 0 0 0 0 0 0 0 0 0 127 0" result="hardAlpha"/>
<feOffset dy="1.1875"/>
<feGaussianBlur stdDeviation="1.1875"/>
<feComposite in2="hardAlpha" operator="arithmetic" k2="-1" k3="1"/>
<feColorMatrix type="matrix" values="0 0 0 0 0 0 0 0 0 0 0 0 0 0 0 0 0 0 0.25 0"/>
<feBlend mode="normal" in2="shape" result="effect2_innerShadow_4017_79369"/>
</filter>
<filter id="filter2_di_4017_79369" x="64.3125" y="78.1875" width="21.375" height="13.0625" filterUnits="userSpaceOnUse" color-interpolation-filters="sRGB">
<feFlood flood-opacity="0" result="BackgroundImageFix"/>
<feColorMatrix in="SourceAlpha" type="matrix" values="0 0 0 0 0 0 0 0 0 0 0 0 0 0 0 0 0 0 127 0" result="hardAlpha"/>
<feOffset dy="1.1875"/>
<feGaussianBlur stdDeviation="0.59375"/>
<feColorMatrix type="matrix" values="0 0 0 0 1 0 0 0 0 1 0 0 0 0 1 0 0 0 0.35 0"/>
<feBlend mode="normal" in2="BackgroundImageFix" result="effect1_dropShadow_4017_79369"/>
<feBlend mode="normal" in="SourceGraphic" in2="effect1_dropShadow_4017_79369" result="shape"/>
<feColorMatrix in="SourceAlpha" type="matrix" values="0 0 0 0 0 0 0 0 0 0 0 0 0 0 0 0 0 0 127 0" result="hardAlpha"/>
<feOffset dy="1.1875"/>
<feGaussianBlur stdDeviation="1.1875"/>
<feComposite in2="hardAlpha" operator="arithmetic" k2="-1" k3="1"/>
<feColorMatrix type="matrix" values="0 0 0 0 0 0 0 0 0 0 0 0 0 0 0 0 0 0 0.25 0"/>
<feBlend mode="normal" in2="shape" result="effect2_innerShadow_4017_79369"/>
</filter>
<linearGradient id="paint0_linear_4017_79369" x1="75" y1="0" x2="75" y2="150" gradientUnits="userSpaceOnUse">
<stop stop-color="#E3ECFA"/>
<stop offset="1" stop-color="#DAE7FF"/>
</linearGradient>
<radialGradient id="paint1_radial_4017_79369" cx="0" cy="0" r="1" gradientUnits="userSpaceOnUse" gradientTransform="translate(75 58) rotate(90) scale(38)">
<stop stop-color="#FFF1A6"/>
<stop offset="1" stop-color="#FFD27A"/>
</radialGradient>
<linearGradient id="paint2_linear_4017_79369" x1="75" y1="58" x2="75" y2="96" gradientUnits="userSpaceOnUse">
<stop stop-color="white" stop-opacity="0.52"/>
<stop offset="1" stop-color="white" stop-opacity="0"/>
<stop offset="1" stop-color="white" stop-opacity="0"/>
</linearGradient>
</defs>
</svg>
