<svg width="12" height="13" viewBox="0 0 12 13" fill="none" xmlns="http://www.w3.org/2000/svg">
<path fill-rule="evenodd" clip-rule="evenodd" d="M1 6.5C1 3.7385 3.2385 1.5 6 1.5C8.761 1.5 11 3.7385 11 6.5C11 9.2615 8.761 11.5 6 11.5C3.2385 11.5 1 9.2615 1 6.5ZM6 10.5C3.7945 10.5 2 8.7055 2 6.5C2 4.2945 3.7945 2.5 6 2.5C8.2055 2.5 10 4.2945 10 6.5C10 8.7055 8.2055 10.5 6 10.5ZM5.5 4.5C5.5 4.224 5.724 4 6 4C6.276 4 6.5 4.224 6.5 4.5C6.5 4.776 6.276 5 6 5C5.724 5 5.5 4.776 5.5 4.5ZM5.5 6C5.5 5.724 5.724 5.5 6 5.5C6.276 5.5 6.5 5.724 6.5 6V8.5C6.5 8.776 6.276 9 6 9C5.724 9 5.5 8.776 5.5 8.5V6Z" fill="#678EF2"/>
<mask id="mask0_7180_13245" style="mask-type:alpha" maskUnits="userSpaceOnUse" x="1" y="1" width="10" height="11">
<path fill-rule="evenodd" clip-rule="evenodd" d="M1 6.5C1 3.7385 3.2385 1.5 6 1.5C8.761 1.5 11 3.7385 11 6.5C11 9.2615 8.761 11.5 6 11.5C3.2385 11.5 1 9.2615 1 6.5ZM6 10.5C3.7945 10.5 2 8.7055 2 6.5C2 4.2945 3.7945 2.5 6 2.5C8.2055 2.5 10 4.2945 10 6.5C10 8.7055 8.2055 10.5 6 10.5ZM5.5 4.5C5.5 4.224 5.724 4 6 4C6.276 4 6.5 4.224 6.5 4.5C6.5 4.776 6.276 5 6 5C5.724 5 5.5 4.776 5.5 4.5ZM5.5 6C5.5 5.724 5.724 5.5 6 5.5C6.276 5.5 6.5 5.724 6.5 6V8.5C6.5 8.776 6.276 9 6 9C5.724 9 5.5 8.776 5.5 8.5V6Z" fill="white"/>
</mask>
<g mask="url(#mask0_7180_13245)">
</g>
</svg>
