<svg width="150" height="150" viewBox="0 0 150 150" fill="none" xmlns="http://www.w3.org/2000/svg">
<path d="M75 150C116.421 150 150 116.421 150 75C150 33.5786 116.421 0 75 0C33.5786 0 0 33.5786 0 75C0 116.421 33.5786 150 75 150Z" fill="url(#paint0_linear_4135_76741)"/>
<path d="M120 150H30V53C34.242 52.9952 38.3089 51.308 41.3084 48.3085C44.308 45.3089 45.9952 41.242 46 37H104C103.996 39.1014 104.408 41.1828 105.213 43.1238C106.018 45.0648 107.2 46.8268 108.691 48.308C110.172 49.7991 111.934 50.9816 113.875 51.787C115.817 52.5924 117.898 53.0047 120 53V150Z" fill="white"/>
<path d="M88 108H62C60.3431 108 59 109.343 59 111C59 112.657 60.3431 114 62 114H88C89.6569 114 91 112.657 91 111C91 109.343 89.6569 108 88 108Z" fill="#DFEAFB"/>
<path d="M97 120H53C51.3431 120 50 121.343 50 123C50 124.657 51.3431 126 53 126H97C98.6569 126 100 124.657 100 123C100 121.343 98.6569 120 97 120Z" fill="#DFEAFB"/>
<circle cx="75" cy="75" r="16" fill="url(#paint1_radial_4135_76741)"/>
<circle cx="75" cy="75" r="16" fill="url(#paint2_linear_4135_76741)"/>
<circle cx="75" cy="75" r="15" stroke="#D67504" stroke-opacity="0.27" stroke-width="2"/>
<g filter="url(#filter0_di_4135_76741)">
<path d="M73 83H78" stroke="#EB5D3E" stroke-width="2" stroke-linecap="round"/>
</g>
<path opacity="0.8" d="M61 67C64.8667 70.5 76.08 78.2 90 81" stroke="#FAFAFA" stroke-width="1.5"/>
<g filter="url(#filter1_d_4135_76741)">
<path d="M64.9929 68.4765C65.486 66.8947 67.168 66.0122 68.7498 66.5052L73.5233 67.9933C75.105 68.4863 75.9876 70.1684 75.4945 71.7501L74.0065 76.5236C73.5134 78.1054 71.8314 78.9879 70.2496 78.4948L65.4762 77.0068C63.8944 76.5137 63.0118 74.8317 63.5049 73.2499L64.9929 68.4765Z" fill="#FAFAFA" fill-opacity="0.78"/>
<path d="M64.9929 68.4765C65.486 66.8947 67.168 66.0122 68.7498 66.5052L73.5233 67.9933C75.105 68.4863 75.9876 70.1684 75.4945 71.7501L74.0065 76.5236C73.5134 78.1054 71.8314 78.9879 70.2496 78.4948L65.4762 77.0068C63.8944 76.5137 63.0118 74.8317 63.5049 73.2499L64.9929 68.4765Z" fill="#FAFAFA" fill-opacity="0.78"/>
<path d="M64.9929 68.4765C65.486 66.8947 67.168 66.0122 68.7498 66.5052L73.5233 67.9933C75.105 68.4863 75.9876 70.1684 75.4945 71.7501L74.0065 76.5236C73.5134 78.1054 71.8314 78.9879 70.2496 78.4948L65.4762 77.0068C63.8944 76.5137 63.0118 74.8317 63.5049 73.2499L64.9929 68.4765Z" fill="#FAFAFA" fill-opacity="0.78"/>
<path d="M64.9929 68.4765C65.486 66.8947 67.168 66.0122 68.7498 66.5052L73.5233 67.9933C75.105 68.4863 75.9876 70.1684 75.4945 71.7501L74.0065 76.5236C73.5134 78.1054 71.8314 78.9879 70.2496 78.4948L65.4762 77.0068C63.8944 76.5137 63.0118 74.8317 63.5049 73.2499L64.9929 68.4765Z" fill="#FAFAFA" fill-opacity="0.78"/>
</g>
<path opacity="0.5" d="M66.2441 74.7446C66.1419 74.7118 66.0652 74.6455 66.0139 74.5457C65.9626 74.4459 65.9534 74.3449 65.9862 74.2427L67.6282 69.131C67.661 69.0288 67.7266 68.9543 67.825 68.9074C67.9248 68.8562 68.0258 68.8469 68.1279 68.8798L72.4333 70.2627C72.5355 70.2955 72.6122 70.3618 72.6635 70.4616C72.7162 70.557 72.7261 70.6557 72.6933 70.7579L71.0513 75.8697C71.0185 75.9719 70.9522 76.0486 70.8524 76.0999C70.7526 76.1512 70.6516 76.1604 70.5494 76.1276L70.1762 76.0077C70.0918 75.9806 70.0285 75.9259 69.9863 75.8437C69.9471 75.7674 69.9417 75.6848 69.9703 75.596C69.9803 75.5649 69.9697 75.5443 69.9386 75.5343L67.0861 74.6181C67.055 74.6081 67.0345 74.6187 67.0245 74.6498C66.996 74.7386 66.9413 74.8019 66.8606 74.8397C66.7828 74.8834 66.7017 74.8916 66.6173 74.8645L66.2441 74.7446ZM68.5038 70.0445L68.0949 71.3174C68.0835 71.353 68.0977 71.3772 68.1377 71.39L70.9635 72.2977C71.0035 72.3105 71.0292 72.2992 71.0406 72.2637L71.4495 70.9907C71.4609 70.9552 71.4467 70.931 71.4067 70.9181L68.5809 70.0104C68.5409 69.9976 68.5152 70.009 68.5038 70.0445ZM67.7802 72.2971L67.3349 73.6834C67.3235 73.7189 67.3378 73.7431 67.3778 73.756L70.2036 74.6636C70.2436 74.6765 70.2693 74.6651 70.2807 74.6296L70.7259 73.2434C70.7388 73.2034 70.7252 73.1769 70.6852 73.1641L67.8594 72.2564C67.8194 72.2436 67.793 72.2572 67.7802 72.2971Z" fill="#363636"/>
<g filter="url(#filter2_di_4135_76741)">
<path d="M79 72V72C79.75 73 81.25 73 82 72V72" stroke="#823423" stroke-width="2" stroke-linecap="round"/>
</g>
<defs>
<filter id="filter0_di_4135_76741" x="71" y="82" width="9" height="4" filterUnits="userSpaceOnUse" color-interpolation-filters="sRGB">
<feFlood flood-opacity="0" result="BackgroundImageFix"/>
<feColorMatrix in="SourceAlpha" type="matrix" values="0 0 0 0 0 0 0 0 0 0 0 0 0 0 0 0 0 0 127 0" result="hardAlpha"/>
<feOffset dy="1"/>
<feGaussianBlur stdDeviation="0.5"/>
<feColorMatrix type="matrix" values="0 0 0 0 1 0 0 0 0 1 0 0 0 0 1 0 0 0 0.35 0"/>
<feBlend mode="normal" in2="BackgroundImageFix" result="effect1_dropShadow_4135_76741"/>
<feBlend mode="normal" in="SourceGraphic" in2="effect1_dropShadow_4135_76741" result="shape"/>
<feColorMatrix in="SourceAlpha" type="matrix" values="0 0 0 0 0 0 0 0 0 0 0 0 0 0 0 0 0 0 127 0" result="hardAlpha"/>
<feOffset dy="1"/>
<feGaussianBlur stdDeviation="1"/>
<feComposite in2="hardAlpha" operator="arithmetic" k2="-1" k3="1"/>
<feColorMatrix type="matrix" values="0 0 0 0 0 0 0 0 0 0 0 0 0 0 0 0 0 0 0.25 0"/>
<feBlend mode="normal" in2="shape" result="effect2_innerShadow_4135_76741"/>
</filter>
<filter id="filter1_d_4135_76741" x="58.654" y="62.8329" width="21.6915" height="21.6914" filterUnits="userSpaceOnUse" color-interpolation-filters="sRGB">
<feFlood flood-opacity="0" result="BackgroundImageFix"/>
<feColorMatrix in="SourceAlpha" type="matrix" values="0 0 0 0 0 0 0 0 0 0 0 0 0 0 0 0 0 0 127 0" result="hardAlpha"/>
<feOffset dy="1.17854"/>
<feGaussianBlur stdDeviation="2.35709"/>
<feColorMatrix type="matrix" values="0 0 0 0 0 0 0 0 0 0 0 0 0 0 0 0 0 0 0.22 0"/>
<feBlend mode="normal" in2="BackgroundImageFix" result="effect1_dropShadow_4135_76741"/>
<feBlend mode="normal" in="SourceGraphic" in2="effect1_dropShadow_4135_76741" result="shape"/>
</filter>
<filter id="filter2_di_4135_76741" x="77" y="71" width="7" height="4.75" filterUnits="userSpaceOnUse" color-interpolation-filters="sRGB">
<feFlood flood-opacity="0" result="BackgroundImageFix"/>
<feColorMatrix in="SourceAlpha" type="matrix" values="0 0 0 0 0 0 0 0 0 0 0 0 0 0 0 0 0 0 127 0" result="hardAlpha"/>
<feOffset dy="1"/>
<feGaussianBlur stdDeviation="0.5"/>
<feColorMatrix type="matrix" values="0 0 0 0 1 0 0 0 0 1 0 0 0 0 1 0 0 0 0.35 0"/>
<feBlend mode="normal" in2="BackgroundImageFix" result="effect1_dropShadow_4135_76741"/>
<feBlend mode="normal" in="SourceGraphic" in2="effect1_dropShadow_4135_76741" result="shape"/>
<feColorMatrix in="SourceAlpha" type="matrix" values="0 0 0 0 0 0 0 0 0 0 0 0 0 0 0 0 0 0 127 0" result="hardAlpha"/>
<feOffset dy="1"/>
<feGaussianBlur stdDeviation="1"/>
<feComposite in2="hardAlpha" operator="arithmetic" k2="-1" k3="1"/>
<feColorMatrix type="matrix" values="0 0 0 0 0 0 0 0 0 0 0 0 0 0 0 0 0 0 0.25 0"/>
<feBlend mode="normal" in2="shape" result="effect2_innerShadow_4135_76741"/>
</filter>
<linearGradient id="paint0_linear_4135_76741" x1="75" y1="0" x2="75" y2="150" gradientUnits="userSpaceOnUse">
<stop stop-color="#E3ECFA"/>
<stop offset="1" stop-color="#DAE7FF"/>
</linearGradient>
<radialGradient id="paint1_radial_4135_76741" cx="0" cy="0" r="1" gradientUnits="userSpaceOnUse" gradientTransform="translate(75 59) rotate(90) scale(32)">
<stop stop-color="#FFF1A6"/>
<stop offset="1" stop-color="#FFD27A"/>
</radialGradient>
<linearGradient id="paint2_linear_4135_76741" x1="75" y1="59" x2="75" y2="91" gradientUnits="userSpaceOnUse">
<stop stop-color="white" stop-opacity="0.52"/>
<stop offset="1" stop-color="white" stop-opacity="0"/>
<stop offset="1" stop-color="white" stop-opacity="0"/>
</linearGradient>
</defs>
</svg>
