<svg width="14" height="15" viewBox="0 0 22 22" fill="none" xmlns="http://www.w3.org/2000/svg">
<path d="M0 11C0 13.9174 1.15893 16.7153 3.22183 18.7782C5.28473 20.8411 8.08262 22 11 22C13.9174 22 16.7153 20.8411 18.7782 18.7782C20.8411 16.7153 22 13.9174 22 11C22 8.08262 20.8411 5.28473 18.7782 3.22183C16.7153 1.15893 13.9174 0 11 0C8.08262 0 5.28473 1.15893 3.22183 3.22183C1.15893 5.28473 0 8.08262 0 11H0Z" fill="url(#paint0_linear_4546_84413)"/>
<path fill-rule="evenodd" clip-rule="evenodd" d="M5.89049 8.25081L10.8611 10.9551C10.9468 11.0018 11.053 11.0018 11.1393 10.9551L16.1099 8.25081C16.31 8.14173 16.2925 7.86289 16.0796 7.77714L11.1096 5.77106C11.0396 5.74306 10.9602 5.74306 10.8902 5.77106L5.92024 7.77714C5.70791 7.86289 5.69041 8.14173 5.89049 8.25081ZM16.0797 10.2162L15.0122 9.76116L11.1394 11.8682C11.0531 11.9148 10.9469 11.9148 10.8606 11.8682L6.98783 9.76116L5.92033 10.2162C5.70742 10.3066 5.68992 10.6017 5.89058 10.7167L10.8606 13.5732C10.9469 13.6228 11.0531 13.6228 11.1394 13.5732L16.1094 10.7167C16.3101 10.6017 16.2926 10.3066 16.0797 10.2162ZM15.1714 12.4132L16.0797 12.8064C16.2926 12.8986 16.3101 13.1978 16.1094 13.3145L11.1394 16.2125C11.0531 16.2627 10.9469 16.2627 10.8606 16.2125L5.89058 13.3145C5.68992 13.1978 5.70742 12.8986 5.92033 12.8064L6.82858 12.4132L10.8606 14.6072C10.9469 14.6538 11.0531 14.6538 11.1394 14.6072L15.1714 12.4132Z" fill="white"/>
<mask id="mask0_4546_84413" style="mask-type:alpha" maskUnits="userSpaceOnUse" x="5" y="5" width="12" height="12">
<path fill-rule="evenodd" clip-rule="evenodd" d="M5.89039 8.25081L10.861 10.9551C10.9467 11.0018 11.0529 11.0018 11.1392 10.9551L16.1098 8.25081C16.3099 8.14173 16.2924 7.86289 16.0795 7.77714L11.1095 5.77106C11.0395 5.74306 10.9601 5.74306 10.8901 5.77106L5.92014 7.77714C5.70781 7.86289 5.69031 8.14173 5.89039 8.25081ZM16.0796 10.2162L15.0121 9.76116L11.1393 11.8682C11.053 11.9148 10.9468 11.9148 10.8605 11.8682L6.98773 9.76116L5.92023 10.2162C5.70731 10.3066 5.68981 10.6017 5.89048 10.7167L10.8605 13.5732C10.9468 13.6228 11.053 13.6228 11.1393 13.5732L16.1093 10.7167C16.31 10.6017 16.2925 10.3066 16.0796 10.2162ZM15.1713 12.4132L16.0796 12.8064C16.2925 12.8986 16.31 13.1978 16.1093 13.3145L11.1393 16.2125C11.053 16.2627 10.9468 16.2627 10.8605 16.2125L5.89048 13.3145C5.68981 13.1978 5.70731 12.8986 5.92023 12.8064L6.82848 12.4132L10.8605 14.6072C10.9468 14.6538 11.053 14.6538 11.1393 14.6072L15.1713 12.4132Z" fill="white"/>
</mask>
<g mask="url(#mask0_4546_84413)">
</g>
<defs>
<linearGradient id="paint0_linear_4546_84413" x1="11" y1="0" x2="11" y2="22" gradientUnits="userSpaceOnUse">
<stop stop-color="#707E9D"/>
<stop offset="1" stop-color="#44506B"/>
</linearGradient>
</defs>
</svg>
