<svg width="15" height="15" viewBox="0 0 15 15" fill="none" xmlns="http://www.w3.org/2000/svg">
<rect x="0.5" y="0.5" width="14" height="14" rx="7" fill="url(#paint0_linear_4549_12183)"/>
<g clip-path="url(#clip0_4549_12183)">
<path d="M7.50047 3.68164C9.21387 3.68164 10.6027 5.08673 10.6027 6.82019C10.6027 7.97566 9.56873 9.47502 7.50047 11.318C5.4322 9.47502 4.39819 7.97566 4.39819 6.82019C4.39819 5.08673 5.78706 3.68164 7.50047 3.68164ZM7.50047 5.3521C7.12072 5.3521 6.75654 5.50295 6.48802 5.77147C6.2195 6.03998 6.06865 6.40417 6.06865 6.78391C6.06865 7.16366 6.2195 7.52784 6.48802 7.79636C6.75654 8.06488 7.12072 8.21573 7.50047 8.21573C7.88021 8.21573 8.2444 8.06488 8.51291 7.79636C8.78143 7.52784 8.93228 7.16366 8.93228 6.78391C8.93228 6.40417 8.78143 6.03998 8.51291 5.77147C8.2444 5.50295 7.88021 5.3521 7.50047 5.3521ZM7.50047 5.82937C7.75363 5.82937 7.99642 5.92994 8.17543 6.10895C8.35444 6.28796 8.45501 6.53075 8.45501 6.78391C8.45501 7.03707 8.35444 7.27987 8.17543 7.45888C7.99642 7.63789 7.75363 7.73846 7.50047 7.73846C7.2473 7.73846 7.00451 7.63789 6.8255 7.45888C6.64649 7.27987 6.54592 7.03707 6.54592 6.78391C6.54592 6.53075 6.64649 6.28796 6.8255 6.10895C7.00451 5.92994 7.2473 5.82937 7.50047 5.82937Z" fill="white"/>
</g>
<defs>
<linearGradient id="paint0_linear_4549_12183" x1="7.5" y1="0.5" x2="7.5" y2="14.5" gradientUnits="userSpaceOnUse">
<stop stop-color="#707E9D"/>
<stop offset="1" stop-color="#44506B"/>
</linearGradient>
<clipPath id="clip0_4549_12183">
<rect width="7.63636" height="7.63636" fill="white" transform="translate(3.68213 3.68164)"/>
</clipPath>
</defs>
</svg>
