<svg width="9" height="9" viewBox="0 0 9 9" fill="none" xmlns="http://www.w3.org/2000/svg">
<path d="M8.8895 4.32703L5.07652 0.514054C4.98098 0.418515 4.82608 0.418515 4.73054 0.514054L0.917573 4.32703C0.763456 4.48114 0.872608 4.74466 1.09056 4.74466L2.70174 4.74466C2.83685 4.74466 2.94638 4.85419 2.94638 4.9893L2.94638 8.41432C2.94638 8.54943 3.05591 8.65897 3.19103 8.65897L6.61604 8.65897C6.75116 8.65897 6.86069 8.54943 6.86069 8.41432L6.86069 4.9893C6.86069 4.85419 6.97022 4.74466 7.10533 4.74466L8.71651 4.74466C8.93446 4.74466 9.04361 4.48114 8.8895 4.32703Z" fill="#F1965C"/>
</svg>
