<svg width="13" height="12" viewBox="0 0 13 12" fill="none" xmlns="http://www.w3.org/2000/svg">
<path fill-rule="evenodd" clip-rule="evenodd" d="M3.45712 2.50013H9.45512C10.4446 2.50013 11.2501 3.29163 11.2501 4.26463V5.50012C11.2501 5.77663 11.0266 6.00012 10.7501 6.00012C10.4736 6.00012 10.2501 5.77663 10.2501 5.50012V4.26463C10.2501 3.84363 9.89363 3.50012 9.45512 3.50012H3.45712L4.10363 4.14663C4.29862 4.34212 4.29862 4.65813 4.10363 4.85363C4.00612 4.95113 3.87812 5.00012 3.75012 5.00012C3.62212 5.00012 3.49413 4.95113 3.39663 4.85363L1.89662 3.35363C1.70112 3.15813 1.70112 2.84213 1.89662 2.64663L3.39663 1.14662C3.59163 0.951125 3.90813 0.951125 4.10363 1.14662C4.29862 1.34212 4.29862 1.65812 4.10363 1.85362L3.45712 2.50013ZM8.8965 7.14674C9.092 6.95124 9.408 6.95124 9.6035 7.14674L11.1035 8.64674C11.299 8.84224 11.299 9.15824 11.1035 9.35374L9.6035 10.8537C9.506 10.9512 9.378 11.0002 9.25 11.0002C9.122 11.0002 8.994 10.9512 8.8965 10.8537C8.701 10.6582 8.701 10.3422 8.8965 10.1467L9.543 9.50024H3.545C2.555 9.50024 1.75 8.70874 1.75 7.73574V6.50024C1.75 6.22374 1.974 6.00024 2.25 6.00024C2.526 6.00024 2.75 6.22374 2.75 6.50024V7.73574C2.75 8.15724 3.1065 8.50024 3.545 8.50024H9.543L8.8965 7.85374C8.701 7.65824 8.701 7.34224 8.8965 7.14674Z" fill="#4774E7"/>
<mask id="mask0_7180_13236" style="mask-type:alpha" maskUnits="userSpaceOnUse" x="1" y="1" width="11" height="10">
<path fill-rule="evenodd" clip-rule="evenodd" d="M3.45712 2.50013H9.45512C10.4446 2.50013 11.2501 3.29163 11.2501 4.26463V5.50012C11.2501 5.77663 11.0266 6.00012 10.7501 6.00012C10.4736 6.00012 10.2501 5.77663 10.2501 5.50012V4.26463C10.2501 3.84363 9.89363 3.50012 9.45512 3.50012H3.45712L4.10363 4.14663C4.29862 4.34212 4.29862 4.65813 4.10363 4.85363C4.00612 4.95113 3.87812 5.00012 3.75012 5.00012C3.62212 5.00012 3.49413 4.95113 3.39663 4.85363L1.89662 3.35363C1.70112 3.15813 1.70112 2.84213 1.89662 2.64663L3.39663 1.14662C3.59163 0.951125 3.90813 0.951125 4.10363 1.14662C4.29862 1.34212 4.29862 1.65812 4.10363 1.85362L3.45712 2.50013ZM8.8965 7.14674C9.092 6.95124 9.408 6.95124 9.6035 7.14674L11.1035 8.64674C11.299 8.84224 11.299 9.15824 11.1035 9.35374L9.6035 10.8537C9.506 10.9512 9.378 11.0002 9.25 11.0002C9.122 11.0002 8.994 10.9512 8.8965 10.8537C8.701 10.6582 8.701 10.3422 8.8965 10.1467L9.543 9.50024H3.545C2.555 9.50024 1.75 8.70874 1.75 7.73574V6.50024C1.75 6.22374 1.974 6.00024 2.25 6.00024C2.526 6.00024 2.75 6.22374 2.75 6.50024V7.73574C2.75 8.15724 3.1065 8.50024 3.545 8.50024H9.543L8.8965 7.85374C8.701 7.65824 8.701 7.34224 8.8965 7.14674Z" fill="white"/>
</mask>
<g mask="url(#mask0_7180_13236)">
</g>
</svg>
