<svg width="12" height="12" viewBox="0 0 12 12" fill="none" xmlns="http://www.w3.org/2000/svg">
<path fill-rule="evenodd" clip-rule="evenodd" d="M2.95712 2.49964H8.95512C9.94462 2.49964 10.7501 3.29114 10.7501 4.26414V5.49964C10.7501 5.77614 10.5266 5.99964 10.2501 5.99964C9.97363 5.99964 9.75012 5.77614 9.75012 5.49964V4.26414C9.75012 3.84314 9.39363 3.49964 8.95512 3.49964H2.95712L3.60363 4.14614C3.79862 4.34164 3.79862 4.65764 3.60363 4.85314C3.50612 4.95064 3.37812 4.99964 3.25012 4.99964C3.12212 4.99964 2.99413 4.95064 2.89663 4.85314L1.39662 3.35314C1.20112 3.15764 1.20112 2.84164 1.39662 2.64614L2.89663 1.14614C3.09162 0.950637 3.40813 0.950637 3.60363 1.14614C3.79862 1.34164 3.79862 1.65764 3.60363 1.85314L2.95712 2.49964ZM8.3965 7.14626C8.592 6.95076 8.908 6.95076 9.1035 7.14626L10.6035 8.64626C10.799 8.84176 10.799 9.15776 10.6035 9.35326L9.1035 10.8533C9.006 10.9508 8.878 10.9998 8.75 10.9998C8.622 10.9998 8.494 10.9508 8.3965 10.8533C8.201 10.6578 8.201 10.3418 8.3965 10.1463L9.043 9.49976H3.045C2.055 9.49976 1.25 8.70826 1.25 7.73526V6.49976C1.25 6.22326 1.474 5.99976 1.75 5.99976C2.026 5.99976 2.25 6.22326 2.25 6.49976V7.73526C2.25 8.15676 2.6065 8.49976 3.045 8.49976H9.043L8.3965 7.85326C8.201 7.65776 8.201 7.34176 8.3965 7.14626Z" fill="#383B46"/>
<mask id="mask0_2333_63660" style="mask-type:alpha" maskUnits="userSpaceOnUse" x="1" y="0" width="10" height="11">
<path fill-rule="evenodd" clip-rule="evenodd" d="M2.95712 2.49964H8.95512C9.94462 2.49964 10.7501 3.29114 10.7501 4.26414V5.49964C10.7501 5.77614 10.5266 5.99964 10.2501 5.99964C9.97363 5.99964 9.75012 5.77614 9.75012 5.49964V4.26414C9.75012 3.84314 9.39363 3.49964 8.95512 3.49964H2.95712L3.60363 4.14614C3.79862 4.34164 3.79862 4.65764 3.60363 4.85314C3.50612 4.95064 3.37812 4.99964 3.25012 4.99964C3.12212 4.99964 2.99413 4.95064 2.89663 4.85314L1.39662 3.35314C1.20112 3.15764 1.20112 2.84164 1.39662 2.64614L2.89663 1.14614C3.09162 0.950637 3.40813 0.950637 3.60363 1.14614C3.79862 1.34164 3.79862 1.65764 3.60363 1.85314L2.95712 2.49964ZM8.3965 7.14626C8.592 6.95076 8.908 6.95076 9.1035 7.14626L10.6035 8.64626C10.799 8.84176 10.799 9.15776 10.6035 9.35326L9.1035 10.8533C9.006 10.9508 8.878 10.9998 8.75 10.9998C8.622 10.9998 8.494 10.9508 8.3965 10.8533C8.201 10.6578 8.201 10.3418 8.3965 10.1463L9.043 9.49976H3.045C2.055 9.49976 1.25 8.70826 1.25 7.73526V6.49976C1.25 6.22326 1.474 5.99976 1.75 5.99976C2.026 5.99976 2.25 6.22326 2.25 6.49976V7.73526C2.25 8.15676 2.6065 8.49976 3.045 8.49976H9.043L8.3965 7.85326C8.201 7.65776 8.201 7.34176 8.3965 7.14626Z" fill="white"/>
</mask>
<g mask="url(#mask0_2333_63660)">
</g>
</svg>
