<svg width="12" height="12" viewBox="0 0 12 12" fill="none" xmlns="http://www.w3.org/2000/svg">
<path d="M2.5 4.31825C2.76425 4.41887 2.976 4.58075 3.13525 4.803C3.29537 5.027 3.375 5.27987 3.375 5.5625C3.375 5.84425 3.29537 6.09712 3.13525 6.32112C2.976 6.54337 2.76425 6.70612 2.5 6.80587L2.5 11.2491L1.625 11.2491L1.625 6.80587C1.36075 6.70525 1.149 6.54337 0.989749 6.32112C0.830607 6.10014 0.746571 5.83393 0.749999 5.56162C0.749999 5.27987 0.829624 5.027 0.989749 4.80387C1.14773 4.58168 1.36915 4.41241 1.625 4.31825L1.625 0.75L2.5 0.75L2.5 4.31825ZM6.4375 6.94325C6.70175 7.04387 6.9135 7.20575 7.07275 7.42887C7.23287 7.652 7.3125 7.90487 7.3125 8.1875C7.3125 8.46925 7.23287 8.72212 7.07275 8.94612C6.9135 9.16837 6.70175 9.33112 6.4375 9.43087L6.4375 11.2491L5.5625 11.2491L5.5625 9.43087C5.29825 9.33025 5.0865 9.16837 4.92725 8.94612C4.76811 8.72514 4.68407 8.45892 4.6875 8.18662C4.6875 7.90487 4.76712 7.65112 4.92725 7.428C5.08536 7.20613 5.30677 7.03718 5.5625 6.94325L5.5625 0.75L6.4375 0.75L6.4375 6.94325ZM10.375 2.56825C10.6392 2.66887 10.851 2.83075 11.0111 3.053C11.1704 3.27787 11.25 3.53075 11.25 3.8125C11.25 4.09425 11.1704 4.348 11.0111 4.57112C10.851 4.79425 10.6392 4.95612 10.375 5.05587L10.375 11.2491L9.5 11.2491L9.5 5.05587C9.23575 4.95525 9.024 4.79337 8.86475 4.57112C8.70579 4.35038 8.62176 4.0845 8.625 3.8125C8.625 3.529 8.70462 3.277 8.86475 3.05387C9.02273 2.83169 9.24415 2.66241 9.5 2.56825L9.5 0.75L10.375 0.75L10.375 2.56825Z" fill="#678EF2"/>
</svg>
