<svg width="14" height="15" viewBox="0 0 14 15" fill="none" xmlns="http://www.w3.org/2000/svg">
<g clip-path="url(#clip0_4522_13252)">
<path d="M0.5 7.5C0.5 9.29021 1.21116 11.0071 2.47703 12.273C3.7429 13.5388 5.45979 14.25 7.25 14.25C9.04021 14.25 10.7571 13.5388 12.023 12.273C13.2888 11.0071 14 9.29021 14 7.5C14 5.70979 13.2888 3.9929 12.023 2.72703C10.7571 1.46116 9.04021 0.75 7.25 0.75C5.45979 0.75 3.7429 1.46116 2.47703 2.72703C1.21116 3.9929 0.5 5.70979 0.5 7.5H0.5Z" fill="url(#paint0_linear_4522_13252)"/>
<path d="M10.3212 7.16249C10.058 7.16249 9.88249 6.97349 9.88249 6.68999V6.40649L7.99573 8.43824C7.90798 8.53274 7.82023 8.57999 7.68874 8.57999C7.55698 8.57999 7.46923 8.53274 7.38175 8.43824L6.81124 7.82399L5.80198 8.91074C5.71423 9.00524 5.62648 9.05249 5.49499 9.05249C5.23174 9.05249 5.05624 8.86349 5.05624 8.57999C5.05624 8.43824 5.10025 8.34374 5.188 8.24924L6.50425 6.83174C6.592 6.73724 6.67975 6.68999 6.81124 6.68999C6.943 6.68999 7.03075 6.73724 7.11823 6.83174L7.68874 7.44599L9.26824 5.74499H9.00499C8.74174 5.74499 8.56624 5.55599 8.56624 5.27249C8.56624 4.98899 8.74174 4.79999 9.00499 4.79999H10.3212C10.5845 4.79999 10.76 4.98899 10.76 5.27249V6.68999C10.76 6.97349 10.5845 7.16249 10.3212 7.16249ZM10.3212 9.52499C10.5845 9.52499 10.76 9.71399 10.76 9.99749C10.76 10.281 10.5845 10.47 10.3212 10.47H4.17874C3.91549 10.47 3.73999 10.281 3.73999 9.99749V5.27249C3.73999 4.98899 3.91549 4.79999 4.17874 4.79999C4.44199 4.79999 4.61749 4.98899 4.61749 5.27249V9.52499H10.3212Z" fill="white"/>
</g>
<defs>
<linearGradient id="paint0_linear_4522_13252" x1="7.25" y1="0.75" x2="7.25" y2="14.25" gradientUnits="userSpaceOnUse">
<stop stop-color="#707E9D"/>
<stop offset="1" stop-color="#44506B"/>
</linearGradient>
<clipPath id="clip0_4522_13252">
<rect width="13.5" height="13.5" fill="white" transform="translate(0.5 0.75)"/>
</clipPath>
</defs>
</svg>
