<svg width="10" height="6" viewBox="0 0 10 6" fill="none" xmlns="http://www.w3.org/2000/svg">
<path d="M9.43367 5.1219C9.28629 5.2674 9.04929 5.26666 8.90342 5.11964L5.06156 1.24252L1.16605 5.10313C1.01867 5.249 0.781667 5.24789 0.635417 5.10087C0.489549 4.95349 0.490658 4.71613 0.637674 4.57024L4.77805 0.467364C4.78442 0.460994 4.79266 0.459482 4.79905 0.453495C4.80054 0.452003 4.80093 0.450128 4.80242 0.448616C4.87553 0.376247 4.97116 0.339861 5.06641 0.339861C5.16279 0.339861 5.25953 0.376993 5.33267 0.450854L9.43554 4.59122C9.5818 4.73864 9.58069 4.97601 9.43367 5.1219Z" fill="#969696"/>
</svg>
