<svg width="9" height="9" viewBox="0 0 9 9" fill="none" xmlns="http://www.w3.org/2000/svg">
<path d="M8.58237 4.32701L4.76939 0.514039C4.67386 0.4185 4.51896 0.4185 4.42342 0.514039L0.610444 4.32701C0.456327 4.48113 0.565479 4.74464 0.783433 4.74464L2.39461 4.74464C2.52972 4.74464 2.63925 4.85418 2.63925 4.98929L2.63925 8.41431C2.63925 8.54942 2.74878 8.65895 2.8839 8.65895L6.30891 8.65895C6.44403 8.65895 6.55356 8.54942 6.55356 8.41431L6.55356 4.98929C6.55356 4.85417 6.66309 4.74464 6.7982 4.74464L8.40938 4.74464C8.62733 4.74464 8.73648 4.48113 8.58237 4.32701Z" fill="#F1965C"/>
</svg>
