<svg width="15" height="16" viewBox="0 0 15 16" fill="none" xmlns="http://www.w3.org/2000/svg">
<path fill-rule="evenodd" clip-rule="evenodd" d="M8.99536 2.91537L13.6305 10.5998C13.9737 11.1695 13.984 11.8546 13.6577 12.4322C13.3079 13.0527 12.6282 13.4375 11.8851 13.4375H2.61475C1.87163 13.4375 1.19194 13.0527 0.842126 12.4322C0.515876 11.8546 0.526147 11.1695 0.869314 10.5998L5.50448 2.91537C5.86638 2.31604 6.51888 1.95837 7.24992 1.95837C7.98096 1.95837 8.63346 2.31604 8.99536 2.91537ZM7.85417 8.60417C7.85417 8.93767 7.5835 9.20833 7.25 9.20833C6.9165 9.20833 6.64583 8.93767 6.64583 8.60417V6.1875C6.64583 5.854 6.9165 5.58333 7.25 5.58333C7.5835 5.58333 7.85417 5.854 7.85417 6.1875V8.60417ZM7.25 11.0208C6.9165 11.0208 6.64583 10.7502 6.64583 10.4167C6.64583 10.0832 6.9165 9.8125 7.25 9.8125C7.5835 9.8125 7.85417 10.0832 7.85417 10.4167C7.85417 10.7502 7.5835 11.0208 7.25 11.0208Z" fill="#678EF2"/>
<mask id="mask0_4337_79823" style="mask-type:alpha" maskUnits="userSpaceOnUse" x="0" y="1" width="14" height="13">
<path fill-rule="evenodd" clip-rule="evenodd" d="M8.99536 2.91537L13.6305 10.5998C13.9737 11.1695 13.984 11.8546 13.6577 12.4322C13.3079 13.0527 12.6282 13.4375 11.8851 13.4375H2.61475C1.87163 13.4375 1.19194 13.0527 0.842126 12.4322C0.515876 11.8546 0.526147 11.1695 0.869314 10.5998L5.50448 2.91537C5.86638 2.31604 6.51888 1.95837 7.24992 1.95837C7.98096 1.95837 8.63346 2.31604 8.99536 2.91537ZM7.85417 8.60417C7.85417 8.93767 7.5835 9.20833 7.25 9.20833C6.9165 9.20833 6.64583 8.93767 6.64583 8.60417V6.1875C6.64583 5.854 6.9165 5.58333 7.25 5.58333C7.5835 5.58333 7.85417 5.854 7.85417 6.1875V8.60417ZM7.25 11.0208C6.9165 11.0208 6.64583 10.7502 6.64583 10.4167C6.64583 10.0832 6.9165 9.8125 7.25 9.8125C7.5835 9.8125 7.85417 10.0832 7.85417 10.4167C7.85417 10.7502 7.5835 11.0208 7.25 11.0208Z" fill="white"/>
</mask>
<g mask="url(#mask0_4337_79823)">
</g>
</svg>
