<svg width="144" height="121" viewBox="0 0 144 121" fill="none" xmlns="http://www.w3.org/2000/svg">
<path opacity="0.601594" fill-rule="evenodd" clip-rule="evenodd" d="M71.1692 0C84.7033 0 97.1827 4.44521 107.183 11.9334L103.16 11.9337C101.256 11.9337 99.7127 13.4772 99.7127 15.3812V15.6464C99.7127 17.5504 101.256 19.0939 103.16 19.0939L115.141 19.0937C117.414 21.5432 119.479 24.1833 121.307 26.9868L126.995 26.9868C129.045 26.9868 130.708 28.6491 130.708 30.6995V30.9067C130.708 32.6008 129.573 34.0298 128.022 34.4754L122.785 34.4751C120.441 34.4751 118.541 36.3748 118.541 38.7182V40.0442C118.541 42.3876 120.441 44.2873 122.785 44.2873L140.792 44.2873C142.635 44.7492 144 46.4168 144 48.4033V48.6402C144 50.9836 142.1 52.8833 139.757 52.8833L130.427 52.883C130.613 54.7665 130.708 56.6762 130.708 58.6077C130.708 90.9759 104.051 117.215 71.1692 117.215C44.8679 117.215 22.5498 100.428 14.67 77.144L12.4356 77.1441C11.5323 77.1441 10.8 76.4119 10.8 75.5086C10.8 74.8194 11.2262 74.2298 11.8294 73.989L14.5856 73.989C16.4896 73.989 18.0331 72.4454 18.0331 70.5414V70.2762C18.0331 68.3722 16.4896 66.8287 14.5856 66.8287L12.2119 66.8288C12.2099 66.8146 12.2079 66.8005 12.2059 66.7863L6.32594 66.7856C4.82045 66.7856 3.6 65.5651 3.6 64.0596C3.6 62.5541 4.82045 61.3337 6.32594 61.3337L11.6941 61.3341C11.652 60.4305 11.6308 59.5216 11.6308 58.6077C11.6308 49.9545 13.5359 41.7392 16.9558 34.3462L7.42541 34.3469C3.32447 34.3469 0 31.0224 0 26.9214V26.507C0 22.5496 3.09583 19.3153 6.99778 19.0937L40.5746 19.0939C42.0392 19.0939 43.2265 17.9066 43.2265 16.442C43.2265 14.9774 42.0392 13.7901 40.5746 13.7901L32.8021 13.7898C32.8669 13.7361 32.9317 13.6825 32.9966 13.629L29.131 13.6297C26.3482 13.6297 24.0923 11.3738 24.0923 8.59103V8.3098C24.0923 5.52702 26.3482 3.27113 29.131 3.27113L51.5086 3.27067C57.6636 1.15188 64.2798 0 71.1692 0Z" fill="#F3F3FA"/>
<path d="M40.5162 36.323H38.5773C38.5773 32.4418 35.431 29.2955 31.5497 29.2955C27.6685 29.2955 24.522 32.4418 24.522 36.323H23.1058C21.3202 36.323 19.8728 37.8964 19.8728 39.837C19.8728 41.7776 21.3203 43.3507 23.1058 43.3507H40.5163C42.3021 43.3507 43.7494 41.7775 43.7494 39.837C43.7494 37.8963 42.302 36.323 40.5162 36.323Z" fill="url(#paint0_linear_227_2354)"/>
<path d="M90.1398 16.3432H88.7496C88.7496 13.5603 86.4938 11.3046 83.7109 11.3046C80.9279 11.3046 78.672 13.5603 78.672 16.3432H77.6565C76.3763 16.3432 75.3384 17.4714 75.3384 18.8627C75.3384 20.2541 76.3763 21.3819 77.6565 21.3819H90.1398C91.4202 21.3819 92.4579 20.2541 92.4579 18.8627C92.4579 17.4714 91.4202 16.3432 90.1398 16.3432Z" fill="url(#paint1_linear_227_2354)"/>
<path fill-rule="evenodd" clip-rule="evenodd" d="M67.7569 89.6354C84.0343 89.6354 98.6923 90.9631 108.938 93.0839C118.959 93.1506 127.028 96.1522 127.028 99.8453C127.028 102.772 121.96 105.265 114.868 106.206C113.176 106.707 111.27 107.179 109.178 107.618C109.232 107.897 109.26 108.179 109.26 108.464C109.26 114.908 95.2493 120.133 77.9668 120.133C62.418 120.133 49.5178 115.904 47.0861 110.363C26.3388 108.787 11.6685 104.91 11.6685 100.376C11.6685 94.444 36.7801 89.6354 67.7569 89.6354Z" fill="#E7EAF0"/>
<path d="M115.177 85.808C115.199 85.8954 115.227 85.9882 115.26 86.0864L115.326 86.3484C115.348 86.4358 115.359 86.5067 115.359 86.5613C115.359 86.867 115.276 87.1372 115.111 87.372C114.945 87.6067 114.729 87.7787 114.464 87.8878C114.365 87.8987 114.26 87.9042 114.149 87.9042C114.061 87.9151 113.962 87.9206 113.851 87.9206H113.536L110.95 87.9533V90.6882C110.95 91.0922 110.959 91.4988 110.975 91.9083C110.992 92.3177 111.011 92.6861 111.033 93.0137C111.055 93.4067 111.083 93.7834 111.116 94.1436H108.729L108.779 93.505C108.79 93.2539 108.801 92.9127 108.812 92.4814C108.823 92.0502 108.829 91.4743 108.829 90.7537V88.2481C108.641 88.4119 108.431 88.4938 108.199 88.4938C108.011 88.4938 107.848 88.4501 107.71 88.3627C107.572 88.2754 107.459 88.1553 107.37 88.0025L105.497 87.9042C105.133 87.8169 104.829 87.634 104.586 87.3556C104.343 87.0772 104.221 86.7469 104.221 86.3648C104.221 86.2993 104.227 86.2393 104.238 86.1847C104.249 86.1301 104.265 86.0755 104.287 86.0209L104.702 85.0711C104.724 84.8309 104.793 84.6071 104.909 84.3996C105.025 84.1922 105.171 84.0121 105.348 83.8592L107.95 79.0937H107.967C108.177 78.7115 108.426 78.384 108.713 78.1111C109 77.8381 109.37 77.7017 109.823 77.7017C110.221 77.7017 110.578 77.8054 110.892 78.0128C111.207 78.2202 111.442 78.4932 111.597 78.8316L113.685 82.8766C114.061 83.0076 114.37 83.2369 114.613 83.5644C114.857 83.892 114.978 84.2686 114.978 84.6944C114.978 84.8691 114.95 85.0547 114.895 85.2512L115.177 85.808Z" fill="url(#paint2_linear_227_2354)"/>
<path d="M125.785 91.1119C125.807 91.1992 125.834 91.292 125.868 91.3903L125.934 91.6523C125.956 91.7396 125.967 91.8106 125.967 91.8652C125.967 92.1709 125.884 92.4411 125.718 92.6758C125.553 92.9106 125.337 93.0825 125.072 93.1917C124.973 93.2026 124.868 93.2081 124.757 93.2081C124.669 93.219 124.569 93.2244 124.459 93.2244H124.144L121.558 93.2572V95.9921C121.558 96.396 121.566 96.8027 121.583 97.2121C121.6 97.6215 121.619 97.99 121.641 98.3175C121.663 98.7106 121.691 99.0872 121.724 99.4475H119.337L119.387 98.8088C119.398 98.5577 119.409 98.2165 119.42 97.7853C119.431 97.3541 119.437 96.7781 119.437 96.0576V93.552C119.249 93.7157 119.039 93.7976 118.807 93.7976C118.619 93.7976 118.456 93.754 118.318 93.6666C118.18 93.5793 118.066 93.4592 117.978 93.3063L116.105 93.2081C115.74 93.1207 115.437 92.9379 115.193 92.6595C114.95 92.3811 114.829 92.0508 114.829 91.6687C114.829 91.6032 114.834 91.5431 114.845 91.4885C114.856 91.434 114.873 91.3794 114.895 91.3248L115.31 90.3749C115.332 90.1348 115.401 89.9109 115.517 89.7035C115.633 89.4961 115.779 89.3159 115.956 89.1631L118.558 84.3975H118.575C118.785 84.0154 119.033 83.6879 119.321 83.4149C119.608 83.142 119.978 83.0055 120.431 83.0055C120.829 83.0055 121.185 83.1092 121.5 83.3167C121.815 83.5241 122.05 83.7971 122.205 84.1355L124.293 88.1805C124.669 88.3115 124.978 88.5408 125.221 88.8683C125.464 89.1958 125.586 89.5725 125.586 89.9983C125.586 90.173 125.558 90.3586 125.503 90.5551L125.785 91.1119Z" fill="url(#paint3_linear_227_2354)"/>
<path d="M32.0976 89.2075C32.1286 89.3314 32.1674 89.4631 32.214 89.6026L32.3071 89.9745C32.3382 90.0985 32.3537 90.1992 32.3537 90.2767C32.3537 90.7106 32.2373 91.0941 32.0044 91.4273C31.7716 91.7604 31.4689 92.0045 31.0964 92.1595C30.9567 92.1749 30.8092 92.1827 30.654 92.1827C30.5298 92.1982 30.3901 92.2059 30.2349 92.2059H29.7925L26.1603 92.2524V96.1342C26.1603 96.7075 26.172 97.2848 26.1952 97.8659C26.2185 98.447 26.2457 98.97 26.2767 99.4348C26.3078 99.9927 26.3466 100.527 26.3931 101.039H23.0403L23.1102 100.132C23.1257 99.7758 23.1412 99.2915 23.1568 98.6794C23.1723 98.0673 23.18 97.2499 23.18 96.2272V92.6708C22.9162 92.9033 22.6212 93.0195 22.2953 93.0195C22.0314 93.0195 21.8024 92.9575 21.6084 92.8335C21.4144 92.7096 21.2553 92.5391 21.1311 92.3222L18.5001 92.1827C17.9879 92.0587 17.561 91.7992 17.2195 91.404C16.878 91.0089 16.7073 90.5401 16.7073 89.9978C16.7073 89.9048 16.715 89.8196 16.7306 89.7421C16.7461 89.6646 16.7694 89.5871 16.8004 89.5096L17.3825 88.1615C17.4135 87.8206 17.5106 87.5029 17.6735 87.2085C17.8365 86.914 18.0422 86.6584 18.2905 86.4414L21.946 79.6774H21.9693C22.2642 79.135 22.6135 78.6702 23.0171 78.2828C23.4206 77.8954 23.9406 77.7017 24.577 77.7017C25.1358 77.7017 25.6364 77.8489 26.0788 78.1433C26.5212 78.4377 26.8511 78.8251 27.0684 79.3055L30.0021 85.0468C30.5298 85.2327 30.9644 85.5581 31.3059 86.023C31.6474 86.4879 31.8182 87.0225 31.8182 87.6269C31.8182 87.8748 31.7794 88.1382 31.7018 88.4172L32.0976 89.2075Z" fill="url(#paint4_linear_227_2354)"/>
<path d="M72.2651 105.573C77.3181 105.573 81.4143 104.505 81.4143 103.186C81.4143 101.868 77.3181 100.8 72.2651 100.8C67.2122 100.8 63.116 101.868 63.116 103.186C63.116 104.505 67.2122 105.573 72.2651 105.573Z" fill="#D1D6E2"/>
<path fill-rule="evenodd" clip-rule="evenodd" d="M49.5911 49.326H62.8402L65.0417 52.8137L83.5207 52.7808C88.2075 52.7725 92.0137 56.5651 92.022 61.2519C92.022 61.2569 92.022 61.2619 92.022 61.267V88.0442H49.5911V49.326Z" fill="#D9DFE8"/>
<path d="M88.5745 57.8122H54.0994V96H88.5745V57.8122Z" fill="#A2ABB9"/>
<path d="M89.37 61.5249H53.3037V95.2044H89.37V61.5249Z" fill="white"/>
<path d="M90.4308 63.9116H53.0386V94.9392H90.4308V63.9116Z" fill="#C8CEDE"/>
<path d="M46.1436 67.3591H96.5303L91.9497 96H50.7242L46.1436 67.3591Z" fill="url(#paint5_linear_227_2354)"/>
<path d="M77.1711 80.7514C77.1711 80.2388 76.7555 79.8232 76.2429 79.8232C75.7303 79.8232 75.3147 80.2388 75.3147 80.7514C75.3147 81.264 75.7303 81.6796 76.2429 81.6796C76.7555 81.6796 77.1711 81.264 77.1711 80.7514Z" fill="#D9DFE8"/>
<path d="M86.3204 79.8232H79.9558C79.4431 79.8232 79.0276 80.2388 79.0276 80.7514C79.0276 81.264 79.4431 81.6796 79.9558 81.6796H86.3204C86.833 81.6796 87.2486 81.264 87.2486 80.7514C87.2486 80.2388 86.833 79.8232 86.3204 79.8232Z" fill="#D9DFE8"/>
<path d="M86.0551 83.8011H75.9777C75.4651 83.8011 75.0496 84.2167 75.0496 84.7293C75.0496 85.2419 75.4651 85.6575 75.9777 85.6575H86.0551C86.5677 85.6575 86.9833 85.2419 86.9833 84.7293C86.9833 84.2167 86.5677 83.8011 86.0551 83.8011Z" fill="#D9DFE8"/>
<path d="M68.6849 51.4475C70.8819 51.4475 72.6628 49.6666 72.6628 47.4696C72.6628 45.2727 70.8819 43.4917 68.6849 43.4917C66.488 43.4917 64.707 45.2727 64.707 47.4696C64.707 49.6666 66.488 51.4475 68.6849 51.4475Z" fill="#D9DFE8"/>
<path fill-rule="evenodd" clip-rule="evenodd" d="M68.685 48.7956L67.1262 49.6151L67.4239 47.8794L66.1628 46.6501L67.9056 46.3969L68.685 44.8177L69.4644 46.3969L71.2071 46.6501L69.946 47.8794L70.2437 49.6151L68.685 48.7956Z" fill="white"/>
<path d="M91.5043 37.8675L89.0694 40.9253L82.0574 31.4538L96.2044 32.0762L94.0897 34.917L83.9494 32.3202L93.0797 36.2654L94.7047 39.1459L91.5043 37.8675Z" fill="url(#paint6_linear_227_2354)"/>
<path d="M97.3259 40.0442C112.582 49.9691 113.95 62.1331 101.43 76.536" stroke="#D1D6E2" stroke-linecap="round" stroke-linejoin="round" stroke-dasharray="4 4"/>
<defs>
<linearGradient id="paint0_linear_227_2354" x1="3472.14" y1="969.737" x2="724.681" y2="986.603" gradientUnits="userSpaceOnUse">
<stop stop-color="#E0E5EF" stop-opacity="0"/>
<stop offset="1" stop-color="#E0E5EF"/>
</linearGradient>
<linearGradient id="paint1_linear_227_2354" x1="2550.62" y1="685.574" x2="580.686" y2="697.666" gradientUnits="userSpaceOnUse">
<stop stop-color="#E0E5EF" stop-opacity="0"/>
<stop offset="1" stop-color="#E0E5EF"/>
</linearGradient>
<linearGradient id="paint2_linear_227_2354" x1="1144.59" y1="1702.17" x2="556.264" y2="1711.23" gradientUnits="userSpaceOnUse">
<stop stop-color="#E0E5EF" stop-opacity="0"/>
<stop offset="1" stop-color="#E0E5EF"/>
</linearGradient>
<linearGradient id="paint3_linear_227_2354" x1="1155.2" y1="1707.47" x2="566.872" y2="1716.53" gradientUnits="userSpaceOnUse">
<stop stop-color="#E0E5EF" stop-opacity="0"/>
<stop offset="1" stop-color="#E0E5EF"/>
</linearGradient>
<linearGradient id="paint4_linear_227_2354" x1="1464.29" y1="2383.4" x2="654.719" y2="2395.99" gradientUnits="userSpaceOnUse">
<stop stop-color="#E0E5EF" stop-opacity="0"/>
<stop offset="1" stop-color="#E0E5EF"/>
</linearGradient>
<linearGradient id="paint5_linear_227_2354" x1="2565.48" y1="2931.45" x2="2565.48" y2="-702.17" gradientUnits="userSpaceOnUse">
<stop stop-color="#A2ABB9"/>
<stop offset="1" stop-color="#E7EAF0"/>
</linearGradient>
<linearGradient id="paint6_linear_227_2354" x1="151.883" y1="1436.01" x2="-1144.36" y2="284.476" gradientUnits="userSpaceOnUse">
<stop stop-color="#A2ABB9"/>
<stop offset="1" stop-color="#E7EAF0"/>
</linearGradient>
</defs>
</svg>
