<svg width="24" height="24" viewBox="0 0 24 24" fill="none" xmlns="http://www.w3.org/2000/svg">
<path d="M12 0.857178C12.6007 0.859424 13.1951 0.980022 13.7492 1.21208C14.3032 1.44414 14.8061 1.7831 15.2291 2.20961C15.6521 2.63612 15.9869 3.1418 16.2144 3.69776C16.4419 4.25372 16.5576 4.84906 16.5549 5.44975V5.41546L16.6818 5.48918C18.0512 6.28709 19.1981 7.41643 20.0171 8.77339C20.836 10.1304 21.3008 11.6714 21.3686 13.2549L21.3738 13.3869C22.1613 13.76 22.8265 14.3495 23.2915 15.0865C23.7566 15.8236 24.0023 16.6777 24 17.5492C24 20.0863 21.96 22.14 19.4452 22.14C18.5263 22.14 17.6692 21.8657 16.9526 21.3926L17.2098 21.5503C15.6719 22.591 13.8569 23.1459 12 23.1429C10.1874 23.1458 8.41363 22.6171 6.89832 21.6223L6.79204 21.5486C6.13032 21.9257 5.36575 22.14 4.55318 22.14C3.95278 22.1376 3.35874 22.0169 2.80498 21.7848C2.25123 21.5528 1.7486 21.2139 1.3258 20.7876C0.903002 20.3613 0.56831 19.8559 0.340835 19.3002C0.11336 18.7446 -0.00244242 18.1496 3.90514e-05 17.5492C3.90514e-05 15.6 1.20347 13.9355 2.90232 13.2686L2.62632 13.3869L2.63147 13.2566C2.69944 11.6732 3.16425 10.1322 3.9832 8.77523C4.80216 7.4183 5.94899 6.28893 7.31833 5.49089L7.44518 5.41889C7.44789 4.21107 7.92843 3.05339 8.78185 2.19869C9.63527 1.34398 10.7922 0.861703 12 0.857178ZM16.2086 7.21032L16.2 7.22746C15.8559 8.05878 15.2735 8.76967 14.5261 9.27058C13.7787 9.77149 12.8998 10.04 12 10.0423C11.0497 10.0401 10.1237 9.74103 9.35166 9.18687C8.57958 8.63271 7.99994 7.85116 7.69375 6.95146L7.79147 7.21203L7.49832 7.41775C6.61149 8.06619 5.87248 8.89558 5.33019 9.85102C4.78789 10.8065 4.45468 11.8662 4.35261 12.96L4.5549 12.9549C5.15545 12.9574 5.74963 13.0781 6.30349 13.3103C6.85736 13.5424 7.36006 13.8814 7.78289 14.3079C8.20571 14.7344 8.54036 15.24 8.76774 15.7959C8.99511 16.3517 9.11075 16.9469 9.10804 17.5475C9.10804 18.7132 8.67775 19.7795 7.96633 20.5903L8.14118 20.376L8.50118 20.5766C9.5821 21.1375 10.7822 21.4298 12 21.4286C13.3732 21.4286 14.6966 21.0618 15.8589 20.3778C15.23 19.5686 14.8896 18.5723 14.892 17.5475C14.8895 16.9302 15.0119 16.3187 15.252 15.75C15.4922 15.1813 15.845 14.6672 16.2892 14.2385C16.7334 13.8098 17.2598 13.4756 17.8367 13.2558C18.4135 13.0361 19.0289 12.9355 19.6458 12.96L19.6509 13.0029C19.5498 11.8404 19.1877 10.7157 18.5917 9.71247C17.9958 8.70926 17.1812 7.8534 16.2086 7.20861V7.21032Z" fill="white"/>
</svg>
