<svg width="163" height="46" viewBox="0 0 163 46" fill="none" xmlns="http://www.w3.org/2000/svg">
<rect width="163" height="46" rx="23" fill="#325AE7"/>
<path d="M54.086 26.5299C53.861 26.8751 53.9657 27.3399 54.311 27.5649C54.6562 27.7899 55.121 27.6851 55.346 27.3399C55.931 26.4251 56.921 25.8851 58.001 25.8851C58.5304 25.8834 59.0516 26.016 59.5159 26.2704C59.9802 26.5248 60.3724 26.8928 60.656 27.3399C60.7638 27.5064 60.9332 27.6236 61.1271 27.6657C61.321 27.7079 61.5237 27.6716 61.691 27.5649C61.8575 27.457 61.9746 27.2877 62.0168 27.0938C62.0589 26.8999 62.0227 26.6972 61.916 26.5299C61.4985 25.87 60.9203 25.3269 60.2355 24.9517C59.5507 24.5765 58.7818 24.3814 58.001 24.3847C57.2201 24.3814 56.4512 24.5765 55.7664 24.9517C55.0816 25.3269 54.5034 25.87 54.086 26.5299Z" fill="white"/>
<path d="M58 14C62.9648 14 67 18.0352 67 23C67 27.9648 62.9648 32 58 32C53.0352 32 49 27.9648 49 23C49 18.0352 53.0352 14 58 14ZM58 30.7143C62.2583 30.7143 65.7143 27.2583 65.7143 23C65.7143 18.7417 62.2583 15.2857 58 15.2857C53.7417 15.2857 50.2857 18.7417 50.2857 23C50.2857 27.2583 53.7417 30.7143 58 30.7143ZM59.9286 21.0714C59.9286 20.7304 60.064 20.4034 60.3051 20.1623C60.5463 19.9212 60.8733 19.7857 61.2143 19.7857C61.5553 19.7857 61.8823 19.9212 62.1234 20.1623C62.3645 20.4034 62.5 20.7304 62.5 21.0714C62.5 21.4124 62.3645 21.7394 62.1234 21.9806C61.8823 22.2217 61.5553 22.3571 61.2143 22.3571C60.8733 22.3571 60.5463 22.2217 60.3051 21.9806C60.064 21.7394 59.9286 21.4124 59.9286 21.0714ZM53.5 21.0714C53.5 20.7304 53.6355 20.4034 53.8766 20.1623C54.1177 19.9212 54.4447 19.7857 54.7857 19.7857C55.1267 19.7857 55.4537 19.9212 55.6949 20.1623C55.936 20.4034 56.0714 20.7304 56.0714 21.0714C56.0714 21.4124 55.936 21.7394 55.6949 21.9806C55.4537 22.2217 55.1267 22.3571 54.7857 22.3571C54.4447 22.3571 54.1177 22.2217 53.8766 21.9806C53.6355 21.7394 53.5 21.4124 53.5 21.0714Z" fill="white"/>
<path d="M77.482 16.618H78.518V18.536H83.32V19.516H78.518V21.994H84.062V22.974H79.442C80.3753 24.7287 81.9947 26.3013 84.3 27.692L83.6 28.588C81.2013 26.8987 79.5447 25.0273 78.63 22.974H78.518V29.358H77.482V22.974H77.356C76.3573 25.2607 74.6633 27.146 72.274 28.63L71.7 27.692C73.94 26.46 75.564 24.8873 76.572 22.974H71.938V21.994H77.482V19.516H72.778V18.536H77.482V16.618ZM93.316 24.08C93.0547 24.584 92.7653 25.0087 92.448 25.354L91.86 24.64C92.476 23.968 92.8867 23.0767 93.092 21.966L93.932 22.12C93.848 22.4933 93.764 22.8433 93.68 23.17H94.968V21.868H95.948V23.17H98.034V24.08H95.948V25.788H98.328V26.698H95.948V29.442H94.968V26.698H91.916V25.788H94.968V24.08H93.316ZM92.028 18.298V17.402H97.866C97.866 19.2967 97.74 20.4353 97.488 20.818C97.2267 21.1913 96.802 21.378 96.214 21.378C96.0273 21.378 95.6353 21.3593 95.038 21.322L94.8 20.482L96.004 20.552C96.3867 20.5427 96.6293 20.4167 96.732 20.174C96.816 19.9407 96.872 19.3153 96.9 18.298H94.842C94.702 18.9327 94.4967 19.502 94.226 20.006C93.8527 20.6033 93.3113 21.14 92.602 21.616L92.014 20.846C92.6393 20.482 93.1107 20.0433 93.428 19.53C93.6427 19.166 93.7967 18.7553 93.89 18.298H92.028ZM87.282 23.352V25.018L87.268 25.186H88.556V23.352H87.282ZM87.226 26.04C87.1047 27.4213 86.7873 28.5787 86.274 29.512L85.588 28.882C86.12 27.8367 86.3953 26.516 86.414 24.92V20.622C86.3487 20.6873 86.302 20.7387 86.274 20.776L85.658 20.034C86.4887 19.1473 87.1793 17.9713 87.73 16.506L88.64 16.716L88.29 17.612H90.782V18.312C90.4927 18.9 90.18 19.4273 89.844 19.894H91.524V28.294C91.524 28.9567 91.1833 29.288 90.502 29.288H89.704L89.466 28.448C89.8207 28.4853 90.068 28.504 90.208 28.504C90.516 28.504 90.67 28.3313 90.67 27.986V26.04H89.368V29.204H88.556V26.04H87.226ZM88.822 19.894C89.074 19.53 89.3727 19.0447 89.718 18.438H87.898C87.674 18.8767 87.3753 19.362 87.002 19.894H88.822ZM90.67 25.186V23.352H89.368V25.186H90.67ZM90.67 22.512V20.762H89.368V22.512H90.67ZM88.556 20.762H87.282V22.512H88.556V20.762ZM104.012 18.662H106.826V16.576H107.82V18.662H111.012V22.778H112.258V23.73H108.1C108.996 25.7367 110.452 27.3513 112.468 28.574L111.796 29.344C109.761 27.9627 108.287 26.2127 107.372 24.094C106.691 26.5113 105.253 28.2893 103.06 29.428L102.43 28.602C104.53 27.594 105.874 25.97 106.462 23.73H103.438V22.778H106.672C106.775 22.106 106.826 21.434 106.826 20.762V19.628H104.012V18.662ZM107.82 19.628V20.538C107.82 21.3313 107.764 22.078 107.652 22.778H110.032V19.628H107.82ZM100.596 17.038C101.529 18.242 102.248 19.3107 102.752 20.244L101.926 20.818C101.403 19.8473 100.685 18.76 99.77 17.556L100.596 17.038ZM102.906 23.184C102.234 25.256 101.478 27.202 100.638 29.022L99.686 28.602C100.591 26.7167 101.371 24.794 102.024 22.834L102.906 23.184Z" fill="white"/>
</svg>
