<svg width="24" height="24" viewBox="0 0 24 24" fill="none" xmlns="http://www.w3.org/2000/svg">
<path fill-rule="evenodd" clip-rule="evenodd" d="M5.55056 9.98537C4.54521 11.2902 4 12.8911 4 14.5382C4 18.658 7.33974 21.9978 11.4595 21.9978H12.5405C16.6603 21.9978 20 18.658 20 14.5382C20 12.8911 19.4548 11.2902 18.4494 9.98537L12.4778 2.23503C12.2363 1.92168 11.7637 1.92168 11.5222 2.23503L5.55056 9.98537ZM12.2376 19.4189C12.1665 19.7139 12.39 19.9978 12.6935 19.9978C12.8967 19.9978 13.0768 19.8668 13.1395 19.6735L15.449 12.5512C15.542 12.2643 15.2961 11.9815 14.9991 12.0339L14.5564 12.1119L13.9757 12.2143L11.5048 12.6501C11.3607 12.6755 11.239 12.5427 11.2769 12.4014L12.4549 8.00483C12.5911 7.49673 12.2082 6.99777 11.6822 6.99777C11.3201 6.99777 11.0031 7.24097 10.9094 7.59072L9.457 13.0112L9.16255 14.1099C9.0868 14.3925 9.33021 14.6582 9.61837 14.6074L10.7387 14.4098L13.2656 13.9643C13.4075 13.9392 13.5285 14.068 13.4947 14.2081L12.2376 19.4189Z" fill="white"/>
</svg>
