<svg width="24" height="24" viewBox="0 0 24 24" fill="none" xmlns="http://www.w3.org/2000/svg">
<path d="M11.9999 22C10.6862 22.0036 9.38478 21.7465 8.17104 21.2438C6.95731 20.741 5.85534 20.0025 4.92891 19.071C3.99743 18.1446 3.25894 17.0426 2.75618 15.8289C2.25342 14.6152 1.99637 13.3138 1.99991 12C1.99637 10.6863 2.25342 9.3849 2.75618 8.17117C3.25894 6.95743 3.99743 5.85546 4.92891 4.92904C5.85534 3.99755 6.95731 3.25906 8.17104 2.7563C9.38478 2.25354 10.6862 1.99649 11.9999 2.00004V7.00004C10.6743 7.00149 9.40336 7.52874 8.46599 8.46611C7.52862 9.40348 7.00137 10.6744 6.99991 12C7.00137 13.3257 7.52862 14.5966 8.46599 15.534C9.40336 16.4713 10.6743 16.9986 11.9999 17C13.3256 16.9986 14.5965 16.4713 15.5338 15.534C16.4712 14.5966 16.9985 13.3257 16.9999 12H21.9999C22.0035 13.3138 21.7464 14.6152 21.2437 15.8289C20.7409 17.0426 20.0024 18.1446 19.0709 19.071C18.1445 20.0025 17.0425 20.741 15.8288 21.2438C14.6151 21.7465 13.3137 22.0036 11.9999 22ZM21.9944 11.69C21.9804 11.2273 21.9348 10.7661 21.8579 10.3095C21.9355 10.766 21.9814 11.2273 21.9954 11.69H21.9944ZM15.9519 2.80654C15.1213 2.45247 14.2468 2.21181 13.3519 2.09104C14.2464 2.21019 15.1205 2.45091 15.9499 2.80654H15.9519Z" fill="white"/>
<path opacity="0.2" d="M17 12C17 10.6739 16.4732 9.40215 15.5355 8.46447C14.5979 7.52678 13.3261 7 12 7V2C14.6522 2 17.1957 3.05357 19.0711 4.92893C20.9464 6.8043 22 9.34783 22 12H17Z" fill="white"/>
</svg>
