<svg width="376" height="277" viewBox="0 0 376 277" fill="none" xmlns="http://www.w3.org/2000/svg">
<path fill-rule="evenodd" clip-rule="evenodd" d="M242.799 55.6996C245.567 57.4447 248.246 59.3188 250.827 61.3136L249.915 62.2254C247.33 60.2341 244.646 58.3652 241.871 56.6272L240.324 58.1748C225.213 48.8142 207.394 43.4104 188.312 43.4104C169.13 43.4104 151.224 48.8713 136.062 58.3231L134.516 56.7766C131.748 58.5213 129.07 60.3966 126.492 62.394L125.58 61.4824C128.154 59.4817 130.827 57.6012 133.589 55.8494L133.589 55.8494C141.282 50.9698 149.672 47.0888 158.575 44.3887C165.78 42.2034 173.322 40.7916 181.104 40.25C183.485 40.0843 185.889 40 188.312 40C188.312 40 188.312 40 188.312 40C191.255 40 194.169 40.1242 197.048 40.3677C213.767 41.7815 229.341 47.2156 242.799 55.6996Z" fill="white" fill-opacity="0.2"/>
<path fill-rule="evenodd" clip-rule="evenodd" d="M268.458 77.5148C268.458 77.8385 268.368 78.1411 268.211 78.399C282.237 95.91 290.626 118.132 290.626 142.313C290.626 165.607 282.842 187.082 269.732 204.281C262.865 213.289 254.538 221.124 245.102 227.431C239.713 231.034 233.963 234.138 227.918 236.678L225.305 234.065C242.448 227.147 257.207 215.564 268.011 200.889L269.535 202.414C281.984 185.618 289.347 164.825 289.347 142.313C289.347 118.419 281.053 96.4619 267.186 79.1646C267.048 79.2007 266.903 79.22 266.753 79.22C265.811 79.22 265.048 78.4566 265.048 77.5148C265.048 76.573 265.811 75.8096 266.753 75.8096C267.695 75.8096 268.458 76.573 268.458 77.5148ZM108.415 78.399C94.3887 95.9101 86 118.132 86 142.313C86 165.079 93.4359 186.109 106.012 203.106L106.011 203.106C116.834 217.733 131.463 229.374 148.436 236.564L151.046 233.954C133.934 226.988 119.211 215.368 108.451 200.666L106.926 202.191C94.5769 185.434 87.2789 164.726 87.2789 142.313C87.2789 118.419 95.5734 96.4619 109.44 79.1646C109.578 79.2007 109.723 79.22 109.873 79.22C110.815 79.22 111.578 78.4566 111.578 77.5148C111.578 76.573 110.815 75.8096 109.873 75.8096C108.931 75.8096 108.168 76.573 108.168 77.5148C108.168 77.8385 108.258 78.1412 108.415 78.399Z" fill="white" fill-opacity="0.2"/>
<path fill-rule="evenodd" clip-rule="evenodd" d="M57 248H209V249H57V248ZM327 249H212V248H327C335.544 248 343.194 251.827 348.329 257.859L347.524 258.456C342.572 252.668 335.214 249 327 249ZM349.346 260.84C352.283 265.162 354 270.381 354 276C354 276.335 353.994 276.668 353.982 277H354.982C354.994 276.668 355 276.335 355 276C355 270.157 353.21 264.733 350.15 260.244L349.346 260.84ZM48 248H54V249H48C40.0663 249 32.9318 252.422 27.9919 257.87L27.2839 257.162C32.4055 251.533 39.7901 248 48 248ZM25.3771 259.498C21.9958 264.126 20 269.83 20 276C20 276.335 20.0059 276.668 20.0175 277H21.0182C21.0061 276.668 21 276.335 21 276C21 270.106 22.8884 264.654 26.0931 260.214L25.3771 259.498Z" fill="white" fill-opacity="0.1"/>
<path fill-rule="evenodd" clip-rule="evenodd" d="M25.5 93H0V92H25.5V93Z" fill="white" fill-opacity="0.1"/>
<path fill-rule="evenodd" clip-rule="evenodd" d="M25.5 189H0V188H25.5V189Z" fill="white" fill-opacity="0.1"/>
<path d="M36 92.5C36 93.3284 35.3284 94 34.5 94C33.6716 94 33 93.3284 33 92.5C33 91.6716 33.6716 91 34.5 91C35.3284 91 36 91.6716 36 92.5Z" fill="white" fill-opacity="0.1"/>
<path d="M36 188.5C36 189.328 35.3284 190 34.5 190C33.6716 190 33 189.328 33 188.5C33 187.672 33.6716 187 34.5 187C35.3284 187 36 187.672 36 188.5Z" fill="white" fill-opacity="0.1"/>
<path d="M13 221.5C13 222.328 12.3284 223 11.5 223C10.6716 223 10 222.328 10 221.5C10 220.672 10.6716 220 11.5 220C12.3284 220 13 220.672 13 221.5Z" fill="white" fill-opacity="0.1"/>
<path d="M7 70.5C7 71.3284 6.32843 72 5.5 72C4.67157 72 4 71.3284 4 70.5C4 69.6716 4.67157 69 5.5 69C6.32843 69 7 69.6716 7 70.5Z" fill="white" fill-opacity="0.1"/>
<path fill-rule="evenodd" clip-rule="evenodd" d="M50.3536 41.3536L20.7071 71H10V70H20.2929L49.6464 40.6465L50.3536 41.3536Z" fill="white" fill-opacity="0.1"/>
<path fill-rule="evenodd" clip-rule="evenodd" d="M96.7929 13H113.5V14H97.2071L35 76.2071V87H34V75.7929L96.7929 13Z" fill="white" fill-opacity="0.1"/>
<path fill-rule="evenodd" clip-rule="evenodd" d="M34 196H35V206.293L63.7071 235H74.5V236H63.2929L34 206.707V196Z" fill="white" fill-opacity="0.1"/>
<path fill-rule="evenodd" clip-rule="evenodd" d="M13 222H37.7929L63.7929 248H65.2071L38.2071 221H13V222Z" fill="white" fill-opacity="0.1"/>
<path fill-rule="evenodd" clip-rule="evenodd" d="M350 93H375.5V92H350V93Z" fill="white" fill-opacity="0.1"/>
<path fill-rule="evenodd" clip-rule="evenodd" d="M350 189H375.5V188H350V189Z" fill="white" fill-opacity="0.1"/>
<path d="M339.5 92.5C339.5 93.3284 340.172 94 341 94C341.828 94 342.5 93.3284 342.5 92.5C342.5 91.6716 341.828 91 341 91C340.172 91 339.5 91.6716 339.5 92.5Z" fill="white" fill-opacity="0.1"/>
<path d="M339.5 188.5C339.5 189.328 340.172 190 341 190C341.828 190 342.5 189.328 342.5 188.5C342.5 187.672 341.828 187 341 187C340.172 187 339.5 187.672 339.5 188.5Z" fill="white" fill-opacity="0.1"/>
<path d="M362.5 221.5C362.5 222.328 363.172 223 364 223C364.828 223 365.5 222.328 365.5 221.5C365.5 220.672 364.828 220 364 220C363.172 220 362.5 220.672 362.5 221.5Z" fill="white" fill-opacity="0.1"/>
<path d="M368.5 70.5C368.5 71.3284 369.172 72 370 72C370.828 72 371.5 71.3284 371.5 70.5C371.5 69.6716 370.828 69 370 69C369.172 69 368.5 69.6716 368.5 70.5Z" fill="white" fill-opacity="0.1"/>
<path fill-rule="evenodd" clip-rule="evenodd" d="M325.146 41.3536L354.793 71H365.5V70H355.207L325.854 40.6465L325.146 41.3536Z" fill="white" fill-opacity="0.1"/>
<path fill-rule="evenodd" clip-rule="evenodd" d="M278.707 13H262V14H278.293L340.5 76.2071V87H341.5V75.7929L278.707 13Z" fill="white" fill-opacity="0.1"/>
<path fill-rule="evenodd" clip-rule="evenodd" d="M341.5 196H340.5V206.293L311.793 235H301V236H312.207L341.5 206.707V196Z" fill="white" fill-opacity="0.1"/>
<path fill-rule="evenodd" clip-rule="evenodd" d="M362.5 222H337.707L311.707 248H310.293L337.293 221H362.5V222Z" fill="white" fill-opacity="0.1"/>
</svg>
