<svg width="375" height="301" viewBox="0 0 375 301" fill="none" xmlns="http://www.w3.org/2000/svg">
<g filter="url(#filter0_f_331_4745)">
<rect x="158.715" y="156.756" width="58.83" height="63.9457" rx="29.415" fill="#E3E1FF"/>
</g>
<path d="M106.073 140.129C107.778 132.456 112.468 125.635 121.846 121.372L135.488 190.007C130.373 189.297 118.777 186.085 113.32 178.923C104.368 167.173 103.928 149.782 106.073 140.129Z" fill="url(#paint0_linear_331_4745)"/>
<path d="M268.495 140.129C266.79 132.456 262.101 125.635 252.722 121.372L239.08 190.007C244.196 189.297 255.791 186.085 261.248 178.923C270.2 167.173 270.64 149.782 268.495 140.129Z" fill="url(#paint1_linear_331_4745)"/>
<path fill-rule="evenodd" clip-rule="evenodd" d="M217.339 106.025C228.423 105.172 233.196 108.776 236.949 114.551C241.744 121.929 239.615 144.309 238.87 152.137C238.754 153.356 238.671 154.222 238.654 154.624C238.228 164.429 235.244 181.054 233.538 184.465C231.833 187.875 230.128 190.859 224.16 193.843C218.191 196.827 201.992 201.517 200.287 201.517C199.975 201.517 199.592 201.574 199.159 201.638C197.221 201.926 194.277 202.365 192.187 198.533H187.497V198.533H182.382C180.292 202.365 177.347 201.927 175.41 201.638C174.977 201.574 174.594 201.517 174.282 201.517C172.577 201.517 156.377 196.828 150.409 193.843C144.441 190.859 142.735 187.875 141.03 184.465C139.325 181.054 136.341 164.429 135.915 154.624C135.897 154.223 135.815 153.356 135.699 152.138C134.954 144.309 132.825 121.929 137.62 114.551C141.373 108.777 146.146 105.172 157.23 106.025C157.316 106.032 157.537 106.051 157.876 106.081C161.255 106.378 176.381 107.707 187.219 107.73C198.066 107.718 213.3 106.379 216.693 106.081C217.032 106.051 217.253 106.031 217.339 106.025Z" fill="url(#paint2_linear_331_4745)"/>
<path fill-rule="evenodd" clip-rule="evenodd" d="M187.071 195.55H184.237C182.602 195.55 181.203 196.639 180.046 197.795C179.152 198.69 177.921 199.337 176.414 198.96C173.002 198.107 150.835 192.566 146.572 184.893C142.309 177.219 139.325 153.346 139.325 129.473C139.325 99.2042 166.933 109.384 167.035 106.451C167.141 103.374 150.409 100.989 140.085 111.312C139.191 112.289 138.384 113.375 137.62 114.552C132.825 121.929 134.954 144.31 135.699 152.138C135.815 153.357 135.897 154.223 135.915 154.625C136.341 164.43 139.325 181.055 141.03 184.465C142.735 187.876 144.441 190.86 150.409 193.844C156.377 196.828 172.577 201.517 174.282 201.517C174.594 201.517 174.977 201.574 175.41 201.639C177.188 201.903 179.814 202.294 181.849 199.395C182.208 198.885 182.77 198.533 183.394 198.533H187.071C187.071 195.123 187.071 197.681 187.071 195.55Z" fill="url(#paint3_linear_331_4745)"/>
<path fill-rule="evenodd" clip-rule="evenodd" d="M115.309 125.299C113.39 135.315 113.781 146.474 114.173 155.477L116.304 156.756L117.157 164.003L115.878 166.561C116.134 170.14 117.792 178.525 122.342 185.882C118.88 184.17 115.576 181.884 113.32 178.924C104.368 167.174 103.928 149.783 106.073 140.13C107.323 134.504 110.178 129.336 115.309 125.299Z" fill="url(#paint4_linear_331_4745)"/>
<path fill-rule="evenodd" clip-rule="evenodd" d="M122.704 186.058C122.462 185.942 122.221 185.823 121.982 185.701C117.544 178.377 115.92 170.131 115.666 166.576L115.662 166.518L116.938 163.965L116.105 156.885L113.965 155.601L113.96 155.486C113.572 146.56 113.182 135.484 115.054 125.502C115.221 125.367 115.392 125.232 115.565 125.1C113.607 135.105 113.988 146.294 114.381 155.353L116.504 156.627L117.376 164.041L116.095 166.604C116.366 170.239 118.065 178.71 122.704 186.058Z" fill="#668AB4"/>
<path fill-rule="evenodd" clip-rule="evenodd" d="M259.26 125.299C261.179 135.315 260.787 146.474 260.396 155.477L258.264 156.756L257.412 164.003L258.69 166.561C258.435 170.14 256.777 178.525 252.227 185.882C255.688 184.17 258.993 181.884 261.248 178.924C270.201 167.174 270.64 149.783 268.495 140.13C267.245 134.504 264.391 129.336 259.26 125.299Z" fill="url(#paint5_linear_331_4745)"/>
<path fill-rule="evenodd" clip-rule="evenodd" d="M252.587 185.701C257.025 178.377 258.649 170.131 258.903 166.576L258.907 166.518L257.631 163.965L258.464 156.885L260.604 155.601L260.609 155.486C260.997 146.56 261.387 135.484 259.515 125.502C259.348 125.367 259.177 125.232 259.004 125.1C260.962 135.105 260.581 146.294 260.188 155.353L258.065 156.627L257.193 164.041L258.474 166.604C258.203 170.239 256.504 178.71 251.865 186.058C252.107 185.942 252.348 185.823 252.587 185.701Z" fill="#668AB4"/>
<path fill-rule="evenodd" clip-rule="evenodd" d="M187.071 195.562H184.237C182.602 195.562 181.203 196.651 180.046 197.807C179.152 198.702 177.921 199.349 176.414 198.972C173.002 198.119 150.835 192.577 146.572 184.904C142.309 177.231 139.325 153.357 139.325 129.484C139.325 99.216 166.933 109.395 167.035 106.463C167.141 103.386 150.409 101.001 140.085 111.324C139.191 112.301 138.384 113.387 137.62 114.563C132.825 121.941 134.954 144.322 135.699 152.15C135.815 153.369 135.897 154.235 135.915 154.636C136.341 164.441 139.325 181.067 141.03 184.477C142.735 187.887 144.441 190.872 150.409 193.856C156.377 196.84 172.577 201.529 174.282 201.529C174.594 201.529 174.977 201.586 175.41 201.651C177.188 201.915 179.814 202.306 181.849 199.407C182.208 198.897 182.77 198.545 183.394 198.545H187.071C187.071 195.135 187.071 197.693 187.071 195.562Z" fill="url(#paint6_linear_331_4745)"/>
<path fill-rule="evenodd" clip-rule="evenodd" d="M187.071 195.562H184.237C182.602 195.562 181.203 196.651 180.046 197.807C179.152 198.702 177.921 199.349 176.414 198.972C173.002 198.119 150.835 192.577 146.572 184.904C142.309 177.231 139.325 153.357 139.325 129.484C139.325 99.216 166.933 109.395 167.035 106.463C167.141 103.386 150.409 101.001 140.085 111.324C139.191 112.301 138.384 113.387 137.62 114.563C132.825 121.941 134.954 144.322 135.699 152.15C135.815 153.369 135.897 154.235 135.915 154.636C136.341 164.441 139.325 181.067 141.03 184.477C142.735 187.887 144.441 190.872 150.409 193.856C156.377 196.84 172.577 201.529 174.282 201.529C174.594 201.529 174.977 201.586 175.41 201.651C177.188 201.915 179.814 202.306 181.849 199.407C182.208 198.897 182.77 198.545 183.394 198.545H187.071C187.071 195.135 187.071 197.693 187.071 195.562Z" fill="url(#paint7_linear_331_4745)"/>
<path fill-rule="evenodd" clip-rule="evenodd" d="M187.071 195.562H190.344C191.979 195.562 193.378 196.651 194.535 197.807C195.43 198.702 196.66 199.349 198.167 198.972C201.58 198.119 223.746 192.577 228.009 184.904C232.272 177.231 235.256 153.357 235.256 129.484C235.256 99.216 207.648 109.395 207.546 106.463C207.44 103.386 224.172 101.001 234.496 111.324C235.39 112.301 236.197 113.387 236.961 114.563C241.756 121.941 239.627 144.322 238.882 152.15C238.766 153.369 238.684 154.235 238.666 154.636C238.24 164.441 235.256 181.067 233.551 184.477C231.846 187.887 230.14 190.872 224.172 193.856C218.204 196.84 202.004 201.529 200.299 201.529C199.987 201.529 199.604 201.586 199.171 201.651C197.393 201.915 194.768 202.306 192.732 199.407C192.373 198.897 191.811 198.545 191.187 198.545H187.071C187.071 195.135 187.071 197.693 187.071 195.562Z" fill="url(#paint8_linear_331_4745)"/>
<path fill-rule="evenodd" clip-rule="evenodd" d="M187.071 195.562H190.344C191.979 195.562 193.378 196.651 194.535 197.807C195.43 198.702 196.66 199.349 198.167 198.972C201.58 198.119 223.746 192.577 228.009 184.904C232.272 177.231 235.256 153.357 235.256 129.484C235.256 99.216 207.648 109.395 207.546 106.463C207.44 103.386 224.172 101.001 234.496 111.324C235.39 112.301 236.197 113.387 236.961 114.563C241.756 121.941 239.627 144.322 238.882 152.15C238.766 153.369 238.684 154.235 238.666 154.636C238.24 164.441 235.256 181.067 233.551 184.477C231.846 187.887 230.14 190.872 224.172 193.856C218.204 196.84 202.004 201.529 200.299 201.529C199.987 201.529 199.604 201.586 199.171 201.651C197.393 201.915 194.768 202.306 192.732 199.407C192.373 198.897 191.811 198.545 191.187 198.545H187.071C187.071 195.135 187.071 197.693 187.071 195.562Z" fill="url(#paint9_linear_331_4745)"/>
<path fill-rule="evenodd" clip-rule="evenodd" d="M187.071 195.562H190.344C191.979 195.562 193.378 196.651 194.535 197.807C195.43 198.702 196.66 199.349 198.167 198.972C201.58 198.119 223.746 192.577 228.009 184.904C232.272 177.231 235.256 153.357 235.256 129.484C235.256 99.216 207.648 109.395 207.546 106.463C207.44 103.386 224.172 101.001 234.496 111.324C235.39 112.301 236.197 113.387 236.961 114.563C241.756 121.941 239.627 144.322 238.882 152.15C238.766 153.369 238.684 154.235 238.666 154.636C238.24 164.441 235.256 181.067 233.551 184.477C231.846 187.887 230.14 190.872 224.172 193.856C218.204 196.84 202.004 201.529 200.299 201.529C199.987 201.529 199.604 201.586 199.171 201.651C197.393 201.915 194.768 202.306 192.732 199.407C192.373 198.897 191.811 198.545 191.187 198.545H187.071C187.071 195.135 187.071 197.693 187.071 195.562Z" fill="url(#paint10_linear_331_4745)"/>
<path fill-rule="evenodd" clip-rule="evenodd" d="M183.525 203.394H191.043L197.514 212.884L197.091 213.172L190.773 203.905H183.796L177.477 213.172L177.055 212.884L183.525 203.394Z" fill="#668AB4"/>
<g filter="url(#filter1_f_331_4745)">
<path fill-rule="evenodd" clip-rule="evenodd" d="M221.552 105.919C220.257 105.875 218.857 105.908 217.339 106.025C217.253 106.031 217.032 106.051 216.693 106.081C213.3 106.379 198.066 107.718 187.219 107.73C176.381 107.707 161.255 106.378 157.876 106.081L157.876 106.081C157.537 106.051 157.316 106.032 157.23 106.025C146.146 105.172 141.373 108.777 137.62 114.551C132.825 121.929 134.954 144.309 135.699 152.138C135.815 153.356 135.897 154.223 135.915 154.624C136.341 164.429 139.325 181.054 141.03 184.465C142.735 187.875 144.441 190.859 150.409 193.843C154.61 195.944 163.879 198.889 169.596 200.449C160.564 180.441 160.734 157.348 172.15 137.978C182.865 119.798 201.246 108.696 221.552 105.919Z" fill="#6DBCF1"/>
</g>
<path fill-rule="evenodd" clip-rule="evenodd" d="M158.474 112.181C151.863 112.05 148.558 114.577 145.814 118.438C141.817 124.062 142.756 141.667 143.084 147.825C143.135 148.784 143.172 149.465 143.172 149.78C143.187 157.476 144.983 170.6 146.208 173.327C147.433 176.055 148.672 178.449 153.251 180.981C153.838 181.306 154.557 181.659 155.366 182.026C154.441 180.789 153.838 179.526 153.238 178.19C151.882 175.171 149.894 160.648 149.878 152.131C149.877 151.782 149.837 151.028 149.781 149.967C149.417 143.153 148.378 123.67 152.802 117.446C154.382 115.222 156.13 113.399 158.474 112.181Z" fill="url(#paint11_linear_331_4745)"/>
<mask id="mask0_331_4745" style="mask-type:alpha" maskUnits="userSpaceOnUse" x="120" y="57" width="135" height="157">
<path fill-rule="evenodd" clip-rule="evenodd" d="M187.497 57C180.676 57 156.803 57.0005 141.03 70.2152C121.739 86.377 120.567 113.699 120.567 120.946C120.567 128.193 122.273 165.282 126.536 178.071C128.951 185.318 130.579 189.361 134.209 192.991C137.62 196.402 145.719 201.944 151.261 204.502C156.746 207.033 173.502 213.321 187.071 213.865V213.88C187.142 213.878 187.214 213.876 187.286 213.873C187.356 213.876 187.427 213.878 187.497 213.88V213.865C201.066 213.322 217.822 207.033 223.307 204.502C228.849 201.944 236.948 196.402 240.359 192.991C243.989 189.362 245.617 185.318 248.032 178.071C252.295 165.282 254.001 128.193 254.001 120.946C254.001 113.699 252.829 86.3771 233.538 70.2153C218.078 57.263 194.837 57.0054 187.497 57.0002V57Z" fill="url(#paint12_linear_331_4745)"/>
</mask>
<g mask="url(#mask0_331_4745)">
<g filter="url(#filter2_d_331_4745)">
<path fill-rule="evenodd" clip-rule="evenodd" d="M141.03 70.2152C156.803 57.0005 180.676 57 187.497 57V57.0002C194.837 57.0054 218.078 57.263 233.538 70.2153C252.829 86.3771 254.001 113.699 254.001 120.946C254.001 128.193 252.295 165.282 248.032 178.071C245.617 185.318 243.989 189.362 240.359 192.991C236.948 196.402 228.849 201.944 223.307 204.502C217.822 207.033 201.066 213.322 187.497 213.865V213.88C187.467 213.879 187.437 213.878 187.407 213.877C187.366 213.876 187.326 213.875 187.286 213.873C187.214 213.876 187.142 213.878 187.071 213.88V213.865C173.502 213.321 156.746 207.033 151.261 204.502C145.719 201.944 137.62 196.402 134.209 192.991C130.579 189.361 128.951 185.318 126.536 178.071C122.273 165.282 120.567 128.193 120.567 120.946C120.567 113.699 121.739 86.377 141.03 70.2152ZM236.949 114.551C233.195 108.777 228.423 105.172 217.339 106.025C217.253 106.032 217.032 106.051 216.692 106.081C213.3 106.379 198.066 107.718 187.219 107.73C176.381 107.708 161.255 106.378 157.876 106.081L157.876 106.081L157.874 106.081C157.536 106.051 157.315 106.032 157.23 106.025C146.146 105.173 141.373 108.777 137.619 114.551C132.824 121.929 134.954 144.31 135.699 152.138C135.815 153.357 135.897 154.223 135.914 154.624C136.341 164.429 139.325 181.055 141.03 184.465C142.735 187.875 144.44 190.86 150.409 193.844C156.377 196.828 172.576 201.517 174.282 201.517C174.593 201.517 174.976 201.574 175.41 201.639C177.158 201.899 179.725 202.281 181.746 199.538C182.18 198.949 182.837 198.533 183.569 198.533H187.497V198.533H190.999C191.731 198.533 192.388 198.949 192.822 199.538C194.843 202.281 197.41 201.899 199.158 201.638L199.159 201.638C199.592 201.574 199.975 201.517 200.286 201.517C201.992 201.517 218.191 196.828 224.159 193.844C230.128 190.859 231.833 187.875 233.538 184.465C235.243 181.054 238.227 164.429 238.654 154.624C238.671 154.223 238.754 153.357 238.87 152.138L238.87 152.138C239.614 144.31 241.744 121.929 236.949 114.551Z" fill="url(#paint13_linear_331_4745)"/>
</g>
</g>
<path fill-rule="evenodd" clip-rule="evenodd" d="M187.071 203.649H190.907L197.302 213.028C194.468 214.242 190.251 214.688 187.497 214.73V214.733C187.424 214.733 187.35 214.733 187.275 214.733C187.206 214.733 187.138 214.733 187.071 214.733V214.73C184.316 214.688 180.099 214.243 177.266 213.028L183.66 203.65H187.071V203.649Z" fill="url(#paint14_linear_331_4745)"/>
<path fill-rule="evenodd" clip-rule="evenodd" d="M219.996 62.34C219.005 64.1609 217.628 66.5703 216.618 68.3379L216.616 68.3411L216.616 68.3411C215.841 69.6981 214.372 70.3095 212.766 70.5167C211.165 70.7233 209.5 70.5168 208.453 70.3074C206.345 69.8858 195.979 68.2255 187.497 68.1707V68.1693C187.429 68.1693 187.362 68.1694 187.293 68.1697C187.219 68.1694 187.145 68.1693 187.071 68.1693V68.1707C178.589 68.2255 168.223 69.8859 166.115 70.3075C165.068 70.5168 163.404 70.7234 161.803 70.5168C160.197 70.3096 158.728 69.6981 157.952 68.3412L157.952 68.3411L157.95 68.338C156.94 66.5703 155.563 64.1608 154.572 62.3398C154.359 62.4238 154.147 62.5091 153.935 62.5958C154.935 64.4365 156.337 66.889 157.354 68.6699L157.36 68.6796L157.36 68.6796L157.362 68.6828C158.292 70.3076 160.019 70.9744 161.716 71.1933C163.419 71.413 165.164 71.1933 166.249 70.9763C168.352 70.5557 178.833 68.8785 187.293 68.8517C195.751 68.8809 206.218 70.556 208.319 70.9763C209.404 71.1932 211.15 71.413 212.853 71.1932C214.55 70.9743 216.276 70.3076 217.207 68.6827L217.209 68.6795L217.208 68.6795L217.214 68.6698L217.214 68.6697C218.232 66.8889 219.633 64.4366 220.634 62.5959C220.422 62.5093 220.209 62.424 219.996 62.34Z" fill="#668AB4"/>
<g filter="url(#filter3_b_331_4745)">
<g filter="url(#filter4_f_331_4745)">
<circle cx="186.851" cy="153.345" r="36.6622" fill="white" fill-opacity="0.2"/>
<circle cx="186.851" cy="153.345" r="36.1622" stroke="white" stroke-opacity="0.2"/>
</g>
<g filter="url(#filter5_f_331_4745)">
<circle cx="186.851" cy="153.345" r="26.4309" fill="white" fill-opacity="0.1"/>
<circle cx="186.851" cy="153.345" r="25.9309" stroke="white" stroke-opacity="0.3"/>
</g>
<g filter="url(#filter6_f_331_4745)">
<circle cx="186.851" cy="153.345" r="17.9048" fill="white" fill-opacity="0.2"/>
<circle cx="186.851" cy="153.345" r="17.4048" stroke="white" stroke-opacity="0.5"/>
</g>
<g filter="url(#filter7_f_331_4745)">
<circle cx="186.85" cy="153.345" r="10.2313" fill="white" fill-opacity="0.4"/>
<circle cx="186.85" cy="153.345" r="9.73131" stroke="white"/>
</g>
<g filter="url(#filter8_f_331_4745)">
<circle cx="192.819" cy="145.671" r="2.55783" fill="white"/>
</g>
<g filter="url(#filter9_f_331_4745)">
<circle cx="178.751" cy="158.887" r="2.13152" fill="white"/>
</g>
<g filter="url(#filter10_f_331_4745)">
<circle cx="204.329" cy="157.181" r="2.13152" fill="white"/>
</g>
<g filter="url(#filter11_f_331_4745)">
<circle cx="171.078" cy="132.456" r="2.13152" fill="white"/>
</g>
<g filter="url(#filter12_f_331_4745)">
<circle cx="194.098" cy="159.74" r="1.27891" fill="white"/>
</g>
<circle cx="178.751" cy="117.962" r="1.27891" fill="white"/>
<g filter="url(#filter13_f_331_4745)">
<circle cx="178.324" cy="168.691" r="0.852609" fill="white"/>
</g>
<g filter="url(#filter14_f_331_4745)">
<circle cx="174.062" cy="141.408" r="0.852609" fill="white"/>
</g>
<g filter="url(#filter15_f_331_4745)">
<circle cx="161.273" cy="178.923" r="0.852609" fill="white"/>
</g>
<g filter="url(#filter16_f_331_4745)">
<circle cx="209.019" cy="180.628" r="0.852609" fill="white"/>
</g>
<g filter="url(#filter17_f_331_4745)">
<circle cx="207.314" cy="169.545" r="0.852609" fill="white"/>
</g>
<g filter="url(#filter18_f_331_4745)">
<circle cx="214.134" cy="132.029" r="0.852609" fill="white"/>
</g>
<g filter="url(#filter19_f_331_4745)">
<circle cx="217.545" cy="134.588" r="0.852609" fill="white"/>
</g>
<g filter="url(#filter20_f_331_4745)">
<circle cx="159.567" cy="175.513" r="0.852609" fill="white"/>
</g>
<g filter="url(#filter21_f_331_4745)">
<circle cx="177.472" cy="129.472" r="0.852609" fill="white"/>
</g>
</g>
<defs>
<filter id="filter0_f_331_4745" x="78.7148" y="76.7559" width="218.83" height="223.945" filterUnits="userSpaceOnUse" color-interpolation-filters="sRGB">
<feFlood flood-opacity="0" result="BackgroundImageFix"/>
<feBlend mode="normal" in="SourceGraphic" in2="BackgroundImageFix" result="shape"/>
<feGaussianBlur stdDeviation="40" result="effect1_foregroundBlur_331_4745"/>
</filter>
<filter id="filter1_f_331_4745" x="118.581" y="89.9004" width="118.971" height="126.549" filterUnits="userSpaceOnUse" color-interpolation-filters="sRGB">
<feFlood flood-opacity="0" result="BackgroundImageFix"/>
<feBlend mode="normal" in="SourceGraphic" in2="BackgroundImageFix" result="shape"/>
<feGaussianBlur stdDeviation="8" result="effect1_foregroundBlur_331_4745"/>
</filter>
<filter id="filter2_d_331_4745" x="114.567" y="55" width="145.434" height="168.88" filterUnits="userSpaceOnUse" color-interpolation-filters="sRGB">
<feFlood flood-opacity="0" result="BackgroundImageFix"/>
<feColorMatrix in="SourceAlpha" type="matrix" values="0 0 0 0 0 0 0 0 0 0 0 0 0 0 0 0 0 0 127 0" result="hardAlpha"/>
<feOffset dy="4"/>
<feGaussianBlur stdDeviation="3"/>
<feComposite in2="hardAlpha" operator="out"/>
<feColorMatrix type="matrix" values="0 0 0 0 0.0404966 0 0 0 0 0.316277 0 0 0 0 0.454167 0 0 0 0.4 0"/>
<feBlend mode="normal" in2="BackgroundImageFix" result="effect1_dropShadow_331_4745"/>
<feBlend mode="normal" in="SourceGraphic" in2="effect1_dropShadow_331_4745" result="shape"/>
</filter>
<filter id="filter3_b_331_4745" x="146.188" y="112.683" width="81.3242" height="81.3242" filterUnits="userSpaceOnUse" color-interpolation-filters="sRGB">
<feFlood flood-opacity="0" result="BackgroundImageFix"/>
<feGaussianBlur in="BackgroundImageFix" stdDeviation="2"/>
<feComposite in2="SourceAlpha" operator="in" result="effect1_backgroundBlur_331_4745"/>
<feBlend mode="normal" in="SourceGraphic" in2="effect1_backgroundBlur_331_4745" result="shape"/>
</filter>
<filter id="filter4_f_331_4745" x="149.688" y="116.183" width="74.3242" height="74.3242" filterUnits="userSpaceOnUse" color-interpolation-filters="sRGB">
<feFlood flood-opacity="0" result="BackgroundImageFix"/>
<feBlend mode="normal" in="SourceGraphic" in2="BackgroundImageFix" result="shape"/>
<feGaussianBlur stdDeviation="0.25" result="effect1_foregroundBlur_331_4745"/>
</filter>
<filter id="filter5_f_331_4745" x="159.92" y="126.414" width="53.8613" height="53.8613" filterUnits="userSpaceOnUse" color-interpolation-filters="sRGB">
<feFlood flood-opacity="0" result="BackgroundImageFix"/>
<feBlend mode="normal" in="SourceGraphic" in2="BackgroundImageFix" result="shape"/>
<feGaussianBlur stdDeviation="0.25" result="effect1_foregroundBlur_331_4745"/>
</filter>
<filter id="filter6_f_331_4745" x="168.446" y="134.94" width="36.8096" height="36.8096" filterUnits="userSpaceOnUse" color-interpolation-filters="sRGB">
<feFlood flood-opacity="0" result="BackgroundImageFix"/>
<feBlend mode="normal" in="SourceGraphic" in2="BackgroundImageFix" result="shape"/>
<feGaussianBlur stdDeviation="0.25" result="effect1_foregroundBlur_331_4745"/>
</filter>
<filter id="filter7_f_331_4745" x="176.119" y="142.613" width="21.4629" height="21.4629" filterUnits="userSpaceOnUse" color-interpolation-filters="sRGB">
<feFlood flood-opacity="0" result="BackgroundImageFix"/>
<feBlend mode="normal" in="SourceGraphic" in2="BackgroundImageFix" result="shape"/>
<feGaussianBlur stdDeviation="0.25" result="effect1_foregroundBlur_331_4745"/>
</filter>
<filter id="filter8_f_331_4745" x="189.761" y="142.613" width="6.11523" height="6.11523" filterUnits="userSpaceOnUse" color-interpolation-filters="sRGB">
<feFlood flood-opacity="0" result="BackgroundImageFix"/>
<feBlend mode="normal" in="SourceGraphic" in2="BackgroundImageFix" result="shape"/>
<feGaussianBlur stdDeviation="0.25" result="effect1_foregroundBlur_331_4745"/>
</filter>
<filter id="filter9_f_331_4745" x="176.119" y="156.256" width="5.2627" height="5.2627" filterUnits="userSpaceOnUse" color-interpolation-filters="sRGB">
<feFlood flood-opacity="0" result="BackgroundImageFix"/>
<feBlend mode="normal" in="SourceGraphic" in2="BackgroundImageFix" result="shape"/>
<feGaussianBlur stdDeviation="0.25" result="effect1_foregroundBlur_331_4745"/>
</filter>
<filter id="filter10_f_331_4745" x="201.697" y="154.55" width="5.2627" height="5.2627" filterUnits="userSpaceOnUse" color-interpolation-filters="sRGB">
<feFlood flood-opacity="0" result="BackgroundImageFix"/>
<feBlend mode="normal" in="SourceGraphic" in2="BackgroundImageFix" result="shape"/>
<feGaussianBlur stdDeviation="0.25" result="effect1_foregroundBlur_331_4745"/>
</filter>
<filter id="filter11_f_331_4745" x="168.446" y="129.824" width="5.2627" height="5.2627" filterUnits="userSpaceOnUse" color-interpolation-filters="sRGB">
<feFlood flood-opacity="0" result="BackgroundImageFix"/>
<feBlend mode="normal" in="SourceGraphic" in2="BackgroundImageFix" result="shape"/>
<feGaussianBlur stdDeviation="0.25" result="effect1_foregroundBlur_331_4745"/>
</filter>
<filter id="filter12_f_331_4745" x="192.319" y="157.961" width="3.55762" height="3.55762" filterUnits="userSpaceOnUse" color-interpolation-filters="sRGB">
<feFlood flood-opacity="0" result="BackgroundImageFix"/>
<feBlend mode="normal" in="SourceGraphic" in2="BackgroundImageFix" result="shape"/>
<feGaussianBlur stdDeviation="0.25" result="effect1_foregroundBlur_331_4745"/>
</filter>
<filter id="filter13_f_331_4745" x="176.972" y="167.339" width="2.70508" height="2.70508" filterUnits="userSpaceOnUse" color-interpolation-filters="sRGB">
<feFlood flood-opacity="0" result="BackgroundImageFix"/>
<feBlend mode="normal" in="SourceGraphic" in2="BackgroundImageFix" result="shape"/>
<feGaussianBlur stdDeviation="0.25" result="effect1_foregroundBlur_331_4745"/>
</filter>
<filter id="filter14_f_331_4745" x="172.709" y="140.056" width="2.70508" height="2.70508" filterUnits="userSpaceOnUse" color-interpolation-filters="sRGB">
<feFlood flood-opacity="0" result="BackgroundImageFix"/>
<feBlend mode="normal" in="SourceGraphic" in2="BackgroundImageFix" result="shape"/>
<feGaussianBlur stdDeviation="0.25" result="effect1_foregroundBlur_331_4745"/>
</filter>
<filter id="filter15_f_331_4745" x="159.92" y="177.57" width="2.70508" height="2.70508" filterUnits="userSpaceOnUse" color-interpolation-filters="sRGB">
<feFlood flood-opacity="0" result="BackgroundImageFix"/>
<feBlend mode="normal" in="SourceGraphic" in2="BackgroundImageFix" result="shape"/>
<feGaussianBlur stdDeviation="0.25" result="effect1_foregroundBlur_331_4745"/>
</filter>
<filter id="filter16_f_331_4745" x="207.666" y="179.275" width="2.70508" height="2.70508" filterUnits="userSpaceOnUse" color-interpolation-filters="sRGB">
<feFlood flood-opacity="0" result="BackgroundImageFix"/>
<feBlend mode="normal" in="SourceGraphic" in2="BackgroundImageFix" result="shape"/>
<feGaussianBlur stdDeviation="0.25" result="effect1_foregroundBlur_331_4745"/>
</filter>
<filter id="filter17_f_331_4745" x="205.961" y="168.192" width="2.70508" height="2.70508" filterUnits="userSpaceOnUse" color-interpolation-filters="sRGB">
<feFlood flood-opacity="0" result="BackgroundImageFix"/>
<feBlend mode="normal" in="SourceGraphic" in2="BackgroundImageFix" result="shape"/>
<feGaussianBlur stdDeviation="0.25" result="effect1_foregroundBlur_331_4745"/>
</filter>
<filter id="filter18_f_331_4745" x="212.781" y="130.677" width="2.70508" height="2.70508" filterUnits="userSpaceOnUse" color-interpolation-filters="sRGB">
<feFlood flood-opacity="0" result="BackgroundImageFix"/>
<feBlend mode="normal" in="SourceGraphic" in2="BackgroundImageFix" result="shape"/>
<feGaussianBlur stdDeviation="0.25" result="effect1_foregroundBlur_331_4745"/>
</filter>
<filter id="filter19_f_331_4745" x="216.192" y="133.235" width="2.70508" height="2.70508" filterUnits="userSpaceOnUse" color-interpolation-filters="sRGB">
<feFlood flood-opacity="0" result="BackgroundImageFix"/>
<feBlend mode="normal" in="SourceGraphic" in2="BackgroundImageFix" result="shape"/>
<feGaussianBlur stdDeviation="0.25" result="effect1_foregroundBlur_331_4745"/>
</filter>
<filter id="filter20_f_331_4745" x="158.215" y="174.16" width="2.70508" height="2.70508" filterUnits="userSpaceOnUse" color-interpolation-filters="sRGB">
<feFlood flood-opacity="0" result="BackgroundImageFix"/>
<feBlend mode="normal" in="SourceGraphic" in2="BackgroundImageFix" result="shape"/>
<feGaussianBlur stdDeviation="0.25" result="effect1_foregroundBlur_331_4745"/>
</filter>
<filter id="filter21_f_331_4745" x="176.119" y="128.119" width="2.70508" height="2.70508" filterUnits="userSpaceOnUse" color-interpolation-filters="sRGB">
<feFlood flood-opacity="0" result="BackgroundImageFix"/>
<feBlend mode="normal" in="SourceGraphic" in2="BackgroundImageFix" result="shape"/>
<feGaussianBlur stdDeviation="0.25" result="effect1_foregroundBlur_331_4745"/>
</filter>
<linearGradient id="paint0_linear_331_4745" x1="120.244" y1="121.372" x2="120.244" y2="190.007" gradientUnits="userSpaceOnUse">
<stop stop-color="#DEF4FB"/>
<stop offset="1" stop-color="#A6CEFD"/>
</linearGradient>
<linearGradient id="paint1_linear_331_4745" x1="254.324" y1="121.372" x2="254.324" y2="190.007" gradientUnits="userSpaceOnUse">
<stop stop-color="#DEF4FB"/>
<stop offset="1" stop-color="#A6CEFD"/>
</linearGradient>
<linearGradient id="paint2_linear_331_4745" x1="169.798" y1="140.556" x2="203.903" y2="191.712" gradientUnits="userSpaceOnUse">
<stop stop-color="#2275E8"/>
<stop offset="1" stop-color="#6554C5"/>
</linearGradient>
<linearGradient id="paint3_linear_331_4745" x1="137.62" y1="154.198" x2="234.817" y2="156.33" gradientUnits="userSpaceOnUse">
<stop stop-color="#70D6FE"/>
<stop offset="1" stop-color="#CFF6FF"/>
</linearGradient>
<linearGradient id="paint4_linear_331_4745" x1="113.671" y1="125.299" x2="113.671" y2="185.882" gradientUnits="userSpaceOnUse">
<stop stop-color="#BFE4FF"/>
<stop offset="1" stop-color="#55B8FF"/>
</linearGradient>
<linearGradient id="paint5_linear_331_4745" x1="260.898" y1="125.299" x2="260.898" y2="185.882" gradientUnits="userSpaceOnUse">
<stop stop-color="#BFE4FF"/>
<stop offset="1" stop-color="#55B8FF"/>
</linearGradient>
<linearGradient id="paint6_linear_331_4745" x1="141.883" y1="104.758" x2="199.008" y2="185.756" gradientUnits="userSpaceOnUse">
<stop offset="0.0135415" stop-color="#70D6FE" stop-opacity="0.19"/>
<stop offset="0.232292" stop-color="#70D6FE"/>
<stop offset="1" stop-color="#E5FAFF"/>
</linearGradient>
<linearGradient id="paint7_linear_331_4745" x1="141.883" y1="104.758" x2="199.008" y2="185.756" gradientUnits="userSpaceOnUse">
<stop offset="0.0135415" stop-color="#C2EEFF" stop-opacity="0.85"/>
<stop offset="0.232292" stop-color="#E3EDF1" stop-opacity="0.44"/>
<stop offset="1" stop-color="#FAFEFF" stop-opacity="0.36"/>
</linearGradient>
<linearGradient id="paint8_linear_331_4745" x1="237.387" y1="97.9376" x2="196.036" y2="199.398" gradientUnits="userSpaceOnUse">
<stop stop-color="#F2FBFF" stop-opacity="0.91"/>
<stop offset="0.253125" stop-color="#70D6FE"/>
<stop offset="1" stop-color="#E3FAFF"/>
</linearGradient>
<linearGradient id="paint9_linear_331_4745" x1="237.387" y1="97.9376" x2="196.036" y2="199.398" gradientUnits="userSpaceOnUse">
<stop stop-color="#F2FBFF" stop-opacity="0.91"/>
<stop offset="0.253125" stop-color="#70D6FE"/>
<stop offset="1" stop-color="#E3FAFF"/>
</linearGradient>
<linearGradient id="paint10_linear_331_4745" x1="237.387" y1="97.9376" x2="196.036" y2="199.398" gradientUnits="userSpaceOnUse">
<stop stop-color="#CBF0FF" stop-opacity="0.57"/>
<stop offset="0.253125" stop-color="#C2EEFF" stop-opacity="0.57"/>
<stop offset="1" stop-color="#F5FDFF" stop-opacity="0.54"/>
</linearGradient>
<linearGradient id="paint11_linear_331_4745" x1="165.712" y1="134.657" x2="166.815" y2="174.234" gradientUnits="userSpaceOnUse">
<stop stop-color="white" stop-opacity="0.32"/>
<stop offset="1" stop-color="white" stop-opacity="0"/>
</linearGradient>
<linearGradient id="paint12_linear_331_4745" x1="187.284" y1="57" x2="187.284" y2="213.88" gradientUnits="userSpaceOnUse">
<stop stop-color="white"/>
<stop offset="1" stop-color="#D7F5FD"/>
</linearGradient>
<linearGradient id="paint13_linear_331_4745" x1="187.284" y1="57" x2="187.284" y2="213.88" gradientUnits="userSpaceOnUse">
<stop stop-color="white"/>
<stop offset="1" stop-color="#D7F5FD"/>
</linearGradient>
<linearGradient id="paint14_linear_331_4745" x1="187.284" y1="203.649" x2="187.284" y2="214.733" gradientUnits="userSpaceOnUse">
<stop stop-color="#55B8FF"/>
<stop offset="1" stop-color="#C7E8FF"/>
</linearGradient>
</defs>
</svg>
