<svg width="10" height="10" viewBox="0 0 10 10" fill="none" xmlns="http://www.w3.org/2000/svg">
<path fill-rule="evenodd" clip-rule="evenodd" d="M0 5C0 2.2385 2.2385 0 5 0C7.761 0 10 2.2385 10 5C10 7.7615 7.761 10 5 10C2.2385 10 0 7.7615 0 5ZM5 9C2.7945 9 1 7.2055 1 5C1 2.7945 2.7945 1 5 1C7.2055 1 9 2.7945 9 5C9 7.2055 7.2055 9 5 9ZM4.5 3C4.5 2.724 4.724 2.5 5 2.5C5.276 2.5 5.5 2.724 5.5 3C5.5 3.276 5.276 3.5 5 3.5C4.724 3.5 4.5 3.276 4.5 3ZM4.5 4.5C4.5 4.224 4.724 4 5 4C5.276 4 5.5 4.224 5.5 4.5V7C5.5 7.276 5.276 7.5 5 7.5C4.724 7.5 4.5 7.276 4.5 7V4.5Z" fill="#678EF2"/>
</svg>
