<svg width="20" height="20" viewBox="0 0 20 20" fill="none" xmlns="http://www.w3.org/2000/svg">
<path fill-rule="evenodd" clip-rule="evenodd" d="M9.82061 15.9959C9.8206 15.5222 9.4424 15.1414 8.9777 15.0496C7.99207 14.8549 7.05151 14.3756 6.28773 13.6118C4.23746 11.5616 4.23745 8.23744 6.2877 6.18719C8.33795 4.13694 11.6621 4.13695 13.7123 6.18722C14.554 7.02886 15.0501 8.08515 15.2008 9.17987C15.268 9.66807 15.6556 10.079 16.1484 10.079C16.621 10.079 17.0131 9.70107 16.9682 9.23065C16.8191 7.6682 16.1463 6.1463 14.9498 4.94978C12.2161 2.21609 7.78392 2.21608 5.05025 4.94975C2.31658 7.68342 2.3166 12.1156 5.05029 14.8493C6.14244 15.9414 7.50569 16.5973 8.92342 16.8167C9.41167 16.8923 9.82061 16.4899 9.82061 15.9959Z" fill="url(#paint0_linear_259_2592)"/>
<defs>
<linearGradient id="paint0_linear_259_2592" x1="13.5061" y1="8.04334" x2="12.0624" y2="17.3241" gradientUnits="userSpaceOnUse">
<stop stop-color="#325AE7"/>
<stop offset="1" stop-color="#325AE7" stop-opacity="0"/>
</linearGradient>
</defs>
</svg>
