<svg width="40" height="40" viewBox="0 0 40 40" fill="none" xmlns="http://www.w3.org/2000/svg">
<rect width="40" height="40" rx="4" fill="#EDBF45"/>
<path d="M25.7687 22.9503C24.0375 22.9503 22.5375 24.3853 22.5375 26.1763C22.5375 27.9672 24.0375 29.4023 25.7687 29.4023C27.5 29.4023 29 27.9672 29 26.1763C29 24.5039 27.5 22.9503 25.7687 22.9503ZM25.7687 28.209C24.6146 28.209 23.6916 27.3717 23.6916 26.1785C23.6916 24.9853 24.6146 24.148 25.7687 24.148C26.9229 24.148 27.8458 25.1039 27.8458 26.1785C27.8458 27.3717 26.9229 28.209 25.7687 28.209ZM20.1167 17.9311C22.0771 17.9311 23.5771 16.3774 23.5771 14.4655C23.5771 12.5537 22.0771 11 20.1167 11C18.1563 11 16.6563 12.5537 16.6563 14.4655C16.6563 16.3774 18.1542 17.9311 20.1167 17.9311ZM20.1167 12.1955C21.3854 12.1955 22.4251 13.2701 22.4251 14.4655C22.4251 15.661 21.3876 16.7356 20.1167 16.7356C18.8458 16.7356 17.8084 15.661 17.8084 14.4655C17.8084 13.2701 18.8458 12.1955 20.1167 12.1955ZM14.1167 22.7107C12.3854 22.7107 11 24.1458 11 25.9367C11 27.7277 12.3854 29.165 14.1167 29.165C15.848 29.165 17.2313 27.7299 17.2313 25.939C17.2313 24.148 15.8458 22.7107 14.1167 22.7107ZM14.1167 27.9695C13.0793 27.9695 12.1563 27.0136 12.1563 25.939C12.1563 24.8644 13.0793 23.9084 14.1167 23.9084C15.1542 23.9084 16.0771 24.8644 16.0771 25.939C16.0771 27.0136 15.1542 27.9695 14.1167 27.9695ZM26.3458 21.8735L27.5 21.7548C27.3854 19.4847 26.2313 17.3333 24.5 16.0192L23.8084 16.9751C25.3084 18.1706 26.2313 19.9616 26.3458 21.8735ZM16.5396 16.8542L15.848 15.8983C13.8854 17.2147 12.7313 19.2452 12.5 21.5153L13.6542 21.6339C13.8854 19.7243 14.9229 18.0497 16.5396 16.8542ZM17.2313 28.0881L16.7687 29.1627C17.8062 29.6418 18.8458 30 20 30C20.9229 30 21.7313 29.8813 22.5375 29.6418L22.1916 28.5672C20.6916 28.8045 18.7313 28.8045 17.2313 28.0881Z" fill="white"/>
</svg>
