<svg width="14" height="14" viewBox="0 0 14 14" fill="none" xmlns="http://www.w3.org/2000/svg">
<path d="M4.95951 2.0181L4.95925 2.01788L3.35986 0.7165C3.10391 0.508543 2.79129 0.4 2.46776 0.4C2.27043 0.4 2.068 0.440259 1.87433 0.524524C1.39801 0.805851 0.936676 1.13649 0.756321 1.57876C0.194811 2.97506 0.332454 4.56311 0.922079 6.11838C1.51137 7.67278 2.54017 9.15899 3.6991 10.3153C4.45145 11.0649 5.26765 11.7159 6.13327 12.2285L6.13329 12.2284L6.13845 12.2316C7.26448 12.9215 8.39349 13.3488 9.48572 13.5214C9.82898 13.5743 10.1734 13.6 10.5041 13.6C11.2056 13.6 11.7355 13.5586 12.3435 13.3076L12.3458 13.3067C12.7173 13.156 12.9765 12.8442 13.282 12.472C13.7736 11.873 13.6853 10.9655 13.0744 10.4758L13.0736 10.4752L11.6683 9.34294C11.393 9.12557 11.0643 9.01875 10.7461 9.01875C10.4476 9.01875 10.162 9.11162 9.93169 9.29027L9.89522 9.31856L9.85327 9.3378C9.76531 9.37814 9.65137 9.48739 9.50962 9.65578C9.45518 9.72807 9.39934 9.78358 9.36318 9.81952C9.35949 9.82319 9.35601 9.82665 9.35275 9.82991L9.35281 9.82997L9.34692 9.83563C8.97295 10.1946 8.53622 10.468 8.02127 10.468C7.35914 10.468 6.78915 10.1461 6.3271 9.77564C5.93163 9.45853 5.57557 9.07193 5.28222 8.75343C5.23535 8.70254 5.19008 8.65339 5.14651 8.60654C5.0814 8.54127 5.01676 8.47345 4.95725 8.41097L4.95386 8.4074C4.89269 8.34317 4.83762 8.28536 4.78667 8.23441L4.78396 8.23166C4.13412 7.56917 3.61498 6.83741 3.88264 5.82042C3.95708 5.53251 4.10949 5.27843 4.27297 5.05802C4.41954 4.86041 4.59154 4.66882 4.74849 4.49398C4.76594 4.47454 4.78321 4.4553 4.80024 4.43628L4.8012 4.43522C4.92871 4.29385 5.04785 4.16173 5.15152 4.03278L5.15151 4.03277L5.15333 4.03053C5.39424 3.73526 5.5059 3.36342 5.47218 2.97396L5.47209 2.97286C5.44055 2.59653 5.2575 2.26015 4.95951 2.0181Z" stroke="#999999" stroke-width="0.8"/>
</svg>
