<svg width="24" height="24" viewBox="0 0 24 24" fill="none" xmlns="http://www.w3.org/2000/svg">
<path d="M1.476 14.2814C1.9335 14.7419 2.4765 15.0794 3.051 15.3704C4.026 15.8639 5.061 16.1954 6.12 16.4489C7.716 16.8329 9.3405 17.0264 10.98 17.0834C12.516 17.1374 14.049 17.0744 15.5745 16.8719C16.752 16.7159 17.9145 16.4834 19.047 16.1279C20.0325 15.8189 20.985 15.4349 21.8415 14.8469C22.299 14.5334 22.71 14.1719 22.992 13.6844C23.274 13.1939 23.3355 12.6809 23.1165 12.1469C22.941 11.7134 22.6365 11.3819 22.287 11.0834C22.2135 11.0204 22.1355 10.9619 22.062 10.9019C21.489 11.5184 21.135 11.8034 20.5755 12.1124C19.641 12.6299 18.6405 12.9794 17.6085 13.2404C16.56 13.5074 15.495 13.6919 14.4165 13.7714C13.6035 13.8329 12.7875 13.8809 11.9715 13.8884C10.692 13.8974 9.417 13.7999 8.1525 13.5959C6.9675 13.4054 5.8065 13.1324 4.6845 12.6959C3.945 12.4079 3.234 12.0629 2.613 11.5619C2.3715 11.3684 2.1585 11.1389 1.9185 10.9109C1.7805 11.0309 1.6215 11.1584 1.476 11.3024C1.1415 11.6309 0.879 12.0044 0.786 12.4769C0.7755 12.5414 0.762 12.6044 0.75 12.6689C0.75 12.7499 0.75 12.8294 0.75 12.9119C0.7605 12.9659 0.7725 13.0184 0.7815 13.0724C0.873 13.5554 1.1385 13.9394 1.476 14.2814Z" fill="white"/>
<path d="M22.5315 15.7753C22.383 15.6298 22.221 15.5008 22.0635 15.3628C21.594 15.9598 20.997 16.3588 20.3535 16.6993C19.488 17.1568 18.567 17.4673 17.622 17.7073C16.1295 18.0868 14.6085 18.2773 13.0725 18.3388C11.229 18.4123 9.3975 18.3073 7.581 17.9683C6.3285 17.7358 5.1075 17.3998 3.9525 16.8508C3.399 16.5868 2.868 16.2808 2.4135 15.8638C2.247 15.7123 2.097 15.5428 1.929 15.3703C1.779 15.5008 1.62 15.6298 1.473 15.7723C1.14 16.1023 0.879 16.4773 0.786 16.9483C0.7725 17.0158 0.7605 17.0848 0.75 17.1508C0.75 17.2258 0.75 17.2978 0.75 17.3713C0.756 17.3893 0.765 17.4058 0.7665 17.4238C0.816 17.8753 1.032 18.2473 1.323 18.5818C1.716 19.0333 2.199 19.3678 2.7165 19.6588C3.645 20.1793 4.641 20.5288 5.667 20.8018C7.5735 21.3073 9.5205 21.5263 11.49 21.5653C12.873 21.5923 14.25 21.5173 15.6225 21.3328C16.752 21.1813 17.8665 20.9593 18.9585 20.6248C19.977 20.3113 20.961 19.9198 21.846 19.3138C22.3035 19.0018 22.713 18.6388 22.9965 18.1528C23.229 17.7508 23.316 17.3233 23.2035 16.8643C23.094 16.4308 22.8435 16.0828 22.5315 15.7753Z" fill="white"/>
<path d="M2.41507 10.2585C3.11557 10.7715 3.89558 11.13 4.71158 11.415C6.39908 12.0045 8.14808 12.2895 9.92558 12.423C10.5856 12.4725 11.2501 12.486 11.9116 12.516C13.0111 12.5025 14.1091 12.45 15.2011 12.321C16.2331 12.198 17.2561 12.018 18.2611 11.7465C19.3531 11.4525 20.4031 11.0655 21.3556 10.4475C21.9301 10.0755 22.4341 9.62698 22.7926 9.03448C23.1901 8.37898 23.3386 7.67248 23.1931 6.91648C23.0641 6.25048 22.7266 5.68948 22.2526 5.21098C21.6211 4.57198 20.8546 4.14148 20.0371 3.79198C18.9646 3.33448 17.8426 3.04948 16.6996 2.83648C15.5011 2.61448 14.2936 2.49448 13.0756 2.44948C11.6401 2.39548 10.2061 2.44498 8.77808 2.61898C7.84358 2.73148 6.91807 2.89348 6.00457 3.12598C4.95157 3.39598 3.93007 3.74848 2.98657 4.29898C2.34607 4.67248 1.76707 5.11948 1.35157 5.74198C0.702075 6.71548 0.606075 7.73998 1.12207 8.80198C1.41607 9.40498 1.87957 9.86698 2.41507 10.2585ZM4.81507 6.96898C5.59207 6.56698 6.42307 6.32698 7.27207 6.13498C8.25307 5.91448 9.24607 5.78848 10.2481 5.71498C11.3686 5.63248 12.4891 5.62798 13.6096 5.69998C15.0091 5.78998 16.3906 5.98348 17.7391 6.38548C18.4096 6.58498 19.0666 6.82798 19.6516 7.22248C19.7566 7.29298 19.8541 7.37848 19.9591 7.45948C19.7341 7.67848 19.4836 7.82998 19.2226 7.96348C18.4711 8.34898 17.6701 8.58898 16.8511 8.77648C15.8206 9.01348 14.7766 9.14698 13.7236 9.22048C12.6436 9.29698 11.5621 9.30148 10.4821 9.23398C9.08107 9.14548 7.69208 8.95498 6.34208 8.55598C5.65508 8.35348 4.98457 8.10748 4.38608 7.70548C4.31258 7.65598 4.24357 7.60048 4.17457 7.54648C4.14757 7.52398 4.12208 7.49698 4.09057 7.46548C4.30358 7.25248 4.55558 7.10398 4.81507 6.96898Z" fill="white"/>
</svg>
