<svg width="14" height="14" viewBox="0 0 14 14" fill="none" xmlns="http://www.w3.org/2000/svg">
<path fill-rule="evenodd" clip-rule="evenodd" d="M7 13.2C10.4242 13.2 13.2 10.4242 13.2 7C13.2 3.57583 10.4242 0.8 7 0.8C3.57583 0.8 0.8 3.57583 0.8 7C0.8 10.4242 3.57583 13.2 7 13.2ZM7 14C10.866 14 14 10.866 14 7C14 3.13401 10.866 0 7 0C3.13401 0 0 3.13401 0 7C0 10.866 3.13401 14 7 14Z" fill="#999999"/>
<path d="M3.5 6.99399C3.5 6.77308 3.67909 6.59399 3.9 6.59399H10.1C10.3209 6.59399 10.5 6.77308 10.5 6.99399V6.99399C10.5 7.21491 10.3209 7.39399 10.1 7.39399H3.9C3.67909 7.39399 3.5 7.21491 3.5 6.99399V6.99399Z" fill="#999999"/>
<path d="M6.9999 3.5C7.22082 3.5 7.3999 3.67909 7.3999 3.9L7.3999 10.1C7.3999 10.3209 7.22082 10.5 6.9999 10.5V10.5C6.77899 10.5 6.5999 10.3209 6.5999 10.1L6.5999 3.9C6.5999 3.67909 6.77899 3.5 6.9999 3.5V3.5Z" fill="#999999"/>
</svg>
