<svg width="375" height="100" viewBox="0 0 375 100" fill="none" xmlns="http://www.w3.org/2000/svg">
<rect width="375" height="100" fill="#345CCE"/>
<mask id="mask0_20_3214" style="mask-type:alpha" maskUnits="userSpaceOnUse" x="0" y="0" width="375" height="100">
<rect width="375" height="100" rx="4" fill="white" fill-opacity="0.2"/>
</mask>
<g mask="url(#mask0_20_3214)">
<path d="M98.8249 83.5226C75.3207 89.7725 35.7907 99.9999 -9.08105 83.5226V132.954L75.3207 154.545L400.641 139.204C404.915 122.727 413.248 88.5226 412.393 83.5226C411.325 77.2727 399.039 57.9544 373.398 73.8634C347.757 89.7724 305.509 92.3679 288.462 90.909C241.987 86.9318 221.688 67.9718 174.145 68.7498C139.423 69.318 123.38 76.9933 98.8249 83.5226Z" fill="white" fill-opacity="0.2"/>
</g>
<path d="M350.782 87.516L323.451 100H240L304.996 65.1333L350.782 87.516Z" fill="url(#paint0_linear_20_3214)"/>
<path d="M253.58 65.1941V61.1041C253.58 60.3809 254.015 59.7207 254.701 59.4025L264.649 54.788C265.314 54.4796 266.09 54.9378 266.09 55.6388V60.0111C266.09 60.751 265.635 61.4233 264.925 61.7325L254.999 66.0549C254.336 66.3436 253.58 65.885 253.58 65.1941Z" fill="#1D51C9"/>
<path d="M257.833 48.1866V41.1645C257.833 40.4642 258.241 39.8211 258.894 39.492L265.995 35.9128C266.662 35.5767 267.466 36.0341 267.466 36.749V43.3333C267.466 44.0002 267.096 44.6179 266.491 44.96L259.348 48.9999C258.68 49.3772 257.833 48.9222 257.833 48.1866Z" fill="#1D51C9"/>
<path d="M330.141 37.0373V30.583C330.141 29.8698 330.942 29.4123 331.609 29.7448L338.597 33.2316C339.09 33.4775 339.398 33.9615 339.398 34.4888V40.9432C339.398 41.6564 338.598 42.1138 337.931 41.7813L330.942 38.2945C330.45 38.0487 330.141 37.5647 330.141 37.0373Z" fill="#0840CB"/>
<path d="M325.959 26.0024L306.519 17.2742C305.86 16.9782 305.109 16.9196 304.408 17.1094L302.869 17.5255L302.619 79.1076L325.137 90.9504L327.389 89.0555V28.1425C327.389 27.2276 326.832 26.3945 325.959 26.0024Z" fill="url(#paint1_linear_20_3214)"/>
<path d="M324.342 27.1644L304.133 17.6951C302.802 17.0718 301.243 17.9881 301.243 19.3933V78.6774C301.243 79.7416 301.871 80.7167 302.871 81.204L323.095 91.0668C324.427 91.7165 326.013 90.8009 326.013 89.3824V29.7117C326.013 28.631 325.365 27.6438 324.342 27.1644Z" fill="#122873"/>
<path fill-rule="evenodd" clip-rule="evenodd" d="M315.772 25.0441C315.877 24.9741 316.01 24.964 316.125 25.0169L322.771 28.0895C323.832 28.5802 324.512 29.6431 324.512 30.8125V86.7573C324.512 87.4932 323.744 87.9771 323.08 87.6592L304.699 78.8578C303.657 78.3591 302.995 77.3068 302.995 76.152V20.5106C302.995 19.7805 303.752 19.2965 304.414 19.6029L312.316 23.2562C312.598 23.3863 312.811 23.6283 312.893 23.9272C313.089 24.6445 313.261 25.2704 314.128 25.5785C314.679 25.774 315.192 25.4313 315.772 25.0441Z" fill="white"/>
<path d="M329.14 49.9745V49.3823L351.408 60.5145V61.1066L329.14 49.9745Z" fill="#07DCFE" fill-opacity="0.5"/>
<path d="M329.14 55.659V55.0669L351.408 66.1991V66.7912L329.14 55.659Z" fill="#07DCFE" fill-opacity="0.5"/>
<path d="M329.14 61.1068V60.5146L351.408 71.6468V72.2389L329.14 61.1068Z" fill="#07DCFE" fill-opacity="0.5"/>
<path d="M329.14 51.8695V51.2773L351.408 62.4095V63.0016L329.14 51.8695Z" fill="#07DCFE" fill-opacity="0.5"/>
<path d="M329.14 57.5541V56.9619L351.408 68.0941V68.6862L329.14 57.5541Z" fill="#07DCFE" fill-opacity="0.5"/>
<path d="M329.14 63.0016V62.4094L351.408 73.5416V74.1337L329.14 63.0016Z" fill="#07DCFE" fill-opacity="0.5"/>
<path d="M329.14 53.7643V53.1721L351.408 64.3043V64.8964L329.14 53.7643Z" fill="#07DCFE" fill-opacity="0.5"/>
<path d="M329.14 59.4488V58.8567L351.408 69.9888V70.581L329.14 59.4488Z" fill="#07DCFE" fill-opacity="0.5"/>
<path d="M329.14 64.8963V64.3042L351.408 75.4364V76.0285L329.14 64.8963Z" fill="#07DCFE" fill-opacity="0.5"/>
<path d="M303.995 74.2522V66.5544L313.127 70.6994V77.9235L303.995 74.2522Z" fill="#07DCFE"/>
<path d="M314.128 78.5156V71.1731L323.386 75.4365V82.6605L314.128 78.5156Z" fill="#07DCFE"/>
<path d="M303.995 65.607V60.3962L323.385 69.2783V74.3707L303.995 65.607Z" fill="#07DCFE"/>
<path d="M303.995 59.449V23.0918L323.385 32.0923V68.2126L303.995 59.449Z" fill="#07DCFE"/>
<path d="M300.993 95.2137C299.742 95.2137 299.616 94.2663 300.117 93.2004C300.367 92.8057 300.892 92.0398 300.993 92.1346C301.118 92.253 301.493 92.253 302.994 92.0162C304.495 91.7793 304.495 92.8452 304.37 92.9636C304.245 93.082 302.244 95.2137 300.993 95.2137Z" fill="#363159"/>
<path d="M292.986 91.661C291.986 91.3058 292.361 90.3583 292.611 89.6478H293.487C293.737 89.6478 294.613 88.2266 295.238 88.1082C295.864 87.9898 296.864 89.0556 295.864 89.6478C294.863 90.2399 293.987 92.0163 292.986 91.661Z" fill="#363159"/>
<path d="M300.367 94.0295C299.742 93.7926 299.992 93.2005 300.367 91.8978C300.868 91.5425 301.894 90.8793 301.994 91.0688C302.119 91.3056 301.994 92.8452 301.994 93.3189C301.994 93.7926 300.993 94.2663 300.367 94.0295Z" fill="#F1AFB0"/>
<path d="M293.237 90.2399C292.106 90.3112 292.611 89.2925 292.861 88.2266C293.112 87.8713 294.112 87.3866 294.112 88.1082C294.112 89.4109 295.238 90.1136 293.237 90.2399Z" fill="#F1AFB0"/>
<path d="M304.496 81.3577C304.245 79.8182 301.118 74.3705 299.867 72.4757C298.866 72.0415 296.639 71.8836 295.739 74.7258C294.613 78.2786 302.744 81.1209 301.618 83.6078C300.492 86.0948 300.117 92.4899 300.242 92.6083C300.367 92.7267 301.368 92.8452 301.994 92.1346C302.619 91.424 304.746 82.8973 304.496 81.3577Z" fill="#5730C7"/>
<path d="M294.613 79.5814C294.113 78.5156 293.362 73.4232 293.612 71.2915L296.489 71.5284C296.573 71.8836 296.94 73.0205 297.74 74.7259C298.741 76.8576 297.615 79.9367 297.615 81.0025C297.615 81.8552 295.28 86.8844 294.113 89.2924C293.112 89.2924 292.778 88.7398 292.736 88.4634C292.611 87.1608 295.113 80.6473 294.613 79.5814Z" fill="#5730C7"/>
<path d="M278.35 39.7189V35.993C278.35 35.5392 278.515 35.0947 278.862 34.7817C281.883 32.057 288.139 30.571 293.243 30.508C294.297 30.4949 295.113 31.3277 295.113 32.3253V36.2503C295.113 37.337 294.148 38.1931 293.002 38.2547C288.738 38.4838 284.79 39.9915 281.926 41.5192C280.439 42.312 278.35 41.3341 278.35 39.7189Z" fill="#1D51C9"/>
<path d="M254.706 65.7862V61.6961C254.706 60.9729 255.141 60.3128 255.827 59.9946L265.775 55.3801C266.44 55.0716 267.216 55.5299 267.216 56.2308V60.6031C267.216 61.3431 266.761 62.0153 266.051 62.3246L256.125 66.6469C255.462 66.9356 254.706 66.4771 254.706 65.7862Z" fill="url(#paint2_linear_20_3214)"/>
<path d="M329.265 37.6296V31.1753C329.265 30.4621 330.066 30.0046 330.733 30.3371L337.721 33.8239C338.214 34.0698 338.522 34.5538 338.522 35.0811V41.5355C338.522 42.2486 337.722 42.7061 337.055 42.3736L330.066 38.8868C329.574 38.641 329.265 38.157 329.265 37.6296Z" fill="#00D8E4"/>
<path d="M330.641 32.8966V32.4784C330.641 32.3015 330.838 32.1871 331.005 32.2673L337.135 35.2235C337.219 35.264 337.271 35.3455 337.271 35.4346V35.9623C337.271 36.1407 337.071 36.255 336.904 36.1717L330.774 33.106C330.692 33.065 330.641 32.9844 330.641 32.8966Z" fill="white"/>
<path d="M330.641 34.7916V34.3734C330.641 34.1965 330.838 34.0821 331.005 34.1624L337.135 37.1186C337.219 37.159 337.271 37.2405 337.271 37.3296V37.8573C337.271 38.0357 337.071 38.15 336.904 38.0667L330.774 35.001C330.692 34.96 330.641 34.8794 330.641 34.7916Z" fill="white"/>
<path d="M330.641 36.9261V36.5106C330.641 36.3325 330.841 36.2181 331.008 36.3009L335.511 38.5392C335.594 38.5801 335.645 38.6609 335.645 38.7489V39.271C335.645 39.4511 335.441 39.5653 335.274 39.4785L330.771 37.1337C330.691 37.092 330.641 37.0125 330.641 36.9261Z" fill="white"/>
<path d="M259.085 48.5418V41.5197C259.085 40.8195 259.493 40.1763 260.146 39.8472L267.246 36.268C267.913 35.932 268.718 36.3893 268.718 37.1042V43.6885C268.718 44.3554 268.347 44.9732 267.743 45.3152L260.599 49.3551C259.932 49.7324 259.085 49.2774 259.085 48.5418Z" fill="url(#paint3_linear_20_3214)"/>
<path fill-rule="evenodd" clip-rule="evenodd" d="M290.359 50.2238C290.359 49.012 289.172 48.11 287.935 48.4221C277.261 51.1149 270.093 56.1057 270.093 61.8173C270.093 63.4694 270.693 65.0611 271.804 66.5544C274.635 62.7475 280.789 59.5806 288.795 57.686C289.706 57.4705 290.359 56.7048 290.359 55.8163V50.2238Z" fill="#0CD3FA"/>
<path fill-rule="evenodd" clip-rule="evenodd" d="M270.093 61.8174C270.093 63.4694 270.693 65.0612 271.804 66.5545C276.454 72.8058 290.06 77.3313 306.122 77.3313C309.126 77.3313 312.045 77.173 314.835 76.8746C316.048 76.7449 317.131 77.6296 317.131 78.7849V84.4293C317.131 85.3702 316.402 86.1714 315.415 86.2845C312.45 86.6244 309.335 86.8055 306.122 86.8055C286.224 86.8055 270.093 79.8597 270.093 71.2916V61.8174Z" fill="#0CA4FA" fill-opacity="0.8"/>
<path d="M320.227 35.3025L305.949 28.8022C305.596 28.6414 305.371 28.3033 305.371 27.9323C305.371 27.2238 306.15 26.7567 306.827 27.0598L321.147 33.4759C321.521 33.6433 321.759 33.9994 321.759 34.3906C321.759 35.136 320.937 35.6256 320.227 35.3025Z" fill="#3CF2FD"/>
<path d="M317.557 38.3058L305.921 33.0508C305.585 32.8991 305.371 32.5782 305.371 32.2259C305.371 31.5569 306.106 31.1146 306.746 31.3981L318.423 36.5703C318.779 36.7282 319.007 37.0671 319.007 37.4396C319.007 38.1453 318.229 38.6096 317.557 38.3058Z" fill="#3CF2FD"/>
<path d="M313.887 41.0458L305.848 37.2887C305.556 37.1523 305.371 36.8709 305.371 36.5627C305.371 35.9699 306.022 35.5781 306.589 35.8295L314.708 39.4294C315.041 39.577 315.254 39.8936 315.254 40.2416C315.254 40.9064 314.517 41.3401 313.887 41.0458Z" fill="#3CF2FD"/>
<path d="M313.729 50.5464L305.873 46.7806C305.565 46.6331 305.371 46.3343 305.371 46.0077C305.371 45.3733 306.068 44.9541 306.674 45.2231L314.649 48.7589C315.018 48.9226 315.254 49.2735 315.254 49.6593C315.254 50.4006 314.428 50.8812 313.729 50.5464Z" fill="#3CF2FD"/>
<path d="M312.437 54.4248L305.901 51.5133C305.578 51.3692 305.371 51.0612 305.371 50.7228C305.371 50.0915 306.056 49.6686 306.667 49.9234L313.275 52.6834C313.641 52.8364 313.878 53.1798 313.878 53.5589C313.878 54.2604 313.107 54.7235 312.437 54.4248Z" fill="#3CF2FD"/>
<path d="M316.4 60.8275L305.912 55.9123C305.581 55.7572 305.371 55.4378 305.371 55.0881C305.371 54.4157 306.108 53.9706 306.752 54.2543L317.363 58.9284C317.755 59.1013 318.006 59.4738 318.006 59.8835C318.006 60.6647 317.139 61.1741 316.4 60.8275Z" fill="#3CF2FD"/>
<path d="M305.871 67.3834C305.246 67.7387 303.119 65.9623 302.494 65.3701C302.077 64.7385 301.518 63.4279 302.619 63.2385C303.995 63.0016 305.121 65.2517 305.371 64.4227C305.621 63.5937 307.373 61.8173 307.748 61.462C308.123 61.1068 307.998 60.5146 308.123 60.1593C308.248 59.8041 308.499 59.3303 309.249 58.3829C310 57.4355 310.125 57.7908 310.125 57.9092C310.125 58.0277 308.999 59.4488 309.249 59.4488C309.499 59.4488 309.921 59.5963 310.25 59.8041C310.625 60.0409 310.375 60.8699 310.125 60.9883C309.875 61.1068 309.499 61.3436 308.999 61.8173C308.499 62.291 308.123 63.4753 307.748 64.4227C307.373 65.3701 306.497 67.0281 305.871 67.3834Z" fill="#F1AFB0"/>
<path d="M301.494 58.6197C301.869 58.0275 301.869 56.1327 301.494 55.3037C300.826 55.1853 299.267 55.0905 298.366 55.659C297.24 56.3695 299.117 57.0801 298.241 58.0275C297.365 58.9749 296.99 59.3302 296.865 59.9224C296.74 60.5145 298.992 62.4093 299.117 60.9882C299.242 59.5671 299.367 59.8039 299.992 59.8039C300.618 59.8039 301.118 59.2118 301.494 58.6197Z" fill="#F1AFB0"/>
<path d="M298.866 57.1987C298.866 56.9144 299.366 57.0013 299.616 57.0802C299.742 56.8434 300.242 56.3697 300.742 56.0144C301.243 55.6591 301.743 55.6591 301.993 55.1854C302.244 54.7117 301.493 54.4749 300.492 54.238C299.491 54.0012 297.865 53.409 297.24 56.1328C296.614 58.8567 298.616 59.0935 298.866 59.2119C299.116 59.3304 299.992 58.1461 299.491 58.1461C298.991 58.1461 298.866 57.554 298.866 57.1987Z" fill="#40309B"/>
<path d="M299.242 60.7514C297.991 60.633 297.49 60.2777 296.99 59.4487C296.531 59.4882 295.589 59.5672 295.489 59.5672C295.364 59.5672 295.238 59.4487 293.862 62.6463C292.761 65.2043 293.153 69.7914 293.487 71.7652C293.862 72.1204 293.987 72.2389 295.864 72.9494C297.365 73.5179 299.492 73.3442 300.367 73.1863C299.367 68.6861 300.618 65.1332 301.118 65.1332C301.518 65.1332 302.369 65.6069 302.744 65.8438L304.246 63.5937C301.994 61.5804 300.493 60.8699 299.242 60.7514Z" fill="#7B6CF9"/>
<path fill-rule="evenodd" clip-rule="evenodd" d="M289.609 48.7498C289.158 48.413 288.552 48.2663 287.935 48.4221C287.708 48.4793 287.483 48.5375 287.26 48.5967C278.343 50.9606 271.999 54.9502 270.456 59.6063C270.217 60.3284 270.093 61.0666 270.093 61.8173C270.093 63.4238 270.66 64.9733 271.713 66.4307C271.743 66.472 271.773 66.5132 271.804 66.5544C271.954 66.3528 272.113 66.153 272.281 65.9551C271.337 64.6196 270.844 63.2273 270.844 61.8173C270.844 57.983 274.487 54.2798 280.957 51.4941C283.483 50.4061 286.399 49.479 289.609 48.7553V48.7498Z" fill="white"/>
<path fill-rule="evenodd" clip-rule="evenodd" d="M288.108 48.3789C277.339 51.0613 270.093 56.075 270.093 61.8174C270.093 70.3855 286.224 77.3314 306.122 77.3314C309.232 77.3314 312.25 77.1617 315.129 76.8426L312.627 76.6208L306.122 76.6208C296.255 76.6208 287.358 74.8972 280.957 72.1406C274.487 69.3549 270.844 65.6517 270.844 61.8174C270.844 57.983 274.487 54.2798 280.957 51.4941C283.083 50.5783 285.486 49.7765 288.108 49.114V48.3789Z" fill="white"/>
<path d="M263.713 41.1488V40.9091C263.713 40.7309 263.819 40.5677 263.987 40.4869L270.117 37.5345C270.45 37.3742 270.844 37.6032 270.844 37.9568V38.1965C270.844 38.3747 270.738 38.5378 270.571 38.6187L264.441 41.571C264.108 41.7314 263.713 41.5024 263.713 41.1488Z" fill="#3CF2FD"/>
<path d="M263.713 43.1612V42.9221C263.713 42.7441 263.819 42.581 263.986 42.5001L269.115 40.0228C269.448 39.862 269.843 40.091 269.843 40.4448V40.6839C269.843 40.8619 269.738 41.0249 269.57 41.1058L264.441 43.5832C264.108 43.744 263.713 43.515 263.713 43.1612Z" fill="#3CF2FD"/>
<path d="M263.713 45.2703V45.0456C263.713 44.8719 263.814 44.7122 263.975 44.6293L267.353 42.8935C267.686 42.7222 268.092 42.9507 268.092 43.3098V43.5345C268.092 43.7082 267.991 43.868 267.83 43.9508L264.453 45.6866C264.119 45.858 263.713 45.6295 263.713 45.2703Z" fill="#3CF2FD"/>
<path d="M262.587 59.8541V59.5046C262.587 59.3251 262.694 59.1611 262.864 59.0809L268.869 56.2386C269.201 56.0811 269.593 56.3102 269.593 56.6623V56.9104C269.593 57.0874 269.489 57.2496 269.323 57.331L263.318 60.2748C262.985 60.4381 262.587 60.2092 262.587 59.8541Z" fill="#3CF2FD"/>
<path d="M262.587 62.0946V61.752C262.587 61.574 262.693 61.411 262.86 61.3301L267.739 58.9716C268.072 58.8107 268.467 59.0396 268.467 59.3935V59.6379C268.467 59.813 268.365 59.9738 268.202 60.0561L263.323 62.5128C262.989 62.6806 262.587 62.452 262.587 62.0946Z" fill="#3CF2FD"/>
<path fill-rule="evenodd" clip-rule="evenodd" d="M333.393 86.8057H326.138L326.638 91.5428C326.638 92.3276 328.038 92.9639 329.766 92.9639C331.493 92.9639 332.893 92.3276 332.893 91.5428L333.393 86.8057Z" fill="#F9ED67"/>
<path fill-rule="evenodd" clip-rule="evenodd" d="M328.89 86.8057H326.138L326.638 91.5428C326.638 92.1895 327.589 92.7354 328.89 92.9074V86.8057Z" fill="#CD6909"/>
<path fill-rule="evenodd" clip-rule="evenodd" d="M334.395 85.9762V86.0946H334.388C334.262 87.2823 332.241 88.2263 329.766 88.2263C327.291 88.2263 325.27 87.2823 325.144 86.0946H325.137V85.9762V84.9103H325.688C326.47 84.2053 328.003 83.7261 329.766 83.7261C331.529 83.7261 333.062 84.2053 333.843 84.9103H334.395V85.9762Z" fill="#CD6909"/>
<path d="M334.395 85.0289C334.395 86.2716 332.322 87.279 329.766 87.279C327.21 87.279 325.137 86.2716 325.137 85.0289C325.137 83.7862 327.21 82.7788 329.766 82.7788C332.322 82.7788 334.395 83.7862 334.395 85.0289Z" fill="#F9ED67"/>
<path d="M332.893 85.0288C332.893 85.7482 331.493 86.3315 329.766 86.3315C328.038 86.3315 326.638 85.7482 326.638 85.0288C326.638 84.3093 328.038 83.7261 329.766 83.7261C331.493 83.7261 332.893 84.3093 332.893 85.0288Z" fill="#413C3C"/>
<path d="M325.137 74.8445C329.266 76.0288 330.892 79.2263 331.017 82.187C331.1 82.7791 330.567 83.7028 327.764 82.6607C324.962 81.6185 324.845 77.0156 325.137 74.8445Z" fill="#02B2D9"/>
<path d="M338.022 81.7131C335.896 80.1735 333.769 81.5947 331.767 82.6605C330.683 83.3711 328.915 84.9106 330.516 85.3843C332.518 85.9765 335.646 84.0816 335.896 84.0816C336.146 84.0816 335.646 83.3711 335.771 83.0158C335.896 82.6605 336.521 83.6079 336.646 83.6079C336.771 83.6079 340.149 83.2526 338.022 81.7131Z" fill="#00B7D9"/>
<path d="M326.889 79.3445C328.39 79.9366 329.891 83.0157 330.141 85.7396C323.511 84.0816 324.011 80.4103 323.386 80.4103C322.885 80.4103 321.509 79.5419 320.884 79.1076C321.885 78.8708 325.387 78.7524 326.889 79.3445Z" fill="url(#paint4_linear_20_3214)"/>
<path fill-rule="evenodd" clip-rule="evenodd" d="M322.449 79.3341C322.455 79.3019 322.487 79.2804 322.521 79.2861C324.656 79.6427 325.919 80.268 326.696 80.9287C327.474 81.5899 327.76 82.282 327.948 82.758C328.318 83.6921 329.185 84.6316 329.931 85.2203C329.958 85.2412 329.961 85.2785 329.939 85.3036C329.917 85.3288 329.878 85.3322 329.851 85.3112C329.096 84.7156 328.212 83.7602 327.831 82.7996C327.644 82.3282 327.367 81.6583 326.612 81.0168C325.857 80.3748 324.618 79.7566 322.499 79.4027C322.465 79.397 322.443 79.3663 322.449 79.3341Z" fill="#08ABD4"/>
<path fill-rule="evenodd" clip-rule="evenodd" d="M325.825 82.5421C325.825 82.5094 325.853 82.4829 325.888 82.4829C326.141 82.4829 326.299 82.5052 326.424 82.554C326.54 82.5995 326.623 82.6669 326.72 82.7465C326.727 82.7521 326.734 82.7578 326.742 82.7636C326.955 82.9367 327.293 83.1997 328.287 83.5525C328.319 83.564 328.335 83.5981 328.323 83.6288C328.311 83.6594 328.275 83.6749 328.243 83.6634C327.235 83.3057 326.885 83.0357 326.66 82.8535C326.654 82.8489 326.649 82.8444 326.643 82.8399C326.541 82.7569 326.473 82.7015 326.376 82.6635C326.274 82.6235 326.135 82.6013 325.888 82.6013C325.853 82.6013 325.825 82.5748 325.825 82.5421Z" fill="#08ABD4"/>
<path fill-rule="evenodd" clip-rule="evenodd" d="M324.22 80.7407C324.211 80.7092 324.231 80.6766 324.264 80.668C324.508 80.605 324.667 80.587 324.801 80.6031C324.926 80.6181 325.024 80.6624 325.141 80.7149C325.149 80.7186 325.157 80.7224 325.166 80.7262C325.42 80.84 325.819 81.0096 326.876 81.1024C326.91 81.1054 326.935 81.1343 326.932 81.1669C326.929 81.1994 326.898 81.2234 326.864 81.2203C325.792 81.1262 325.379 80.953 325.112 80.8332C325.105 80.8301 325.099 80.8272 325.092 80.8242C324.971 80.7696 324.889 80.7331 324.785 80.7206C324.676 80.7074 324.535 80.7207 324.297 80.7823C324.264 80.7909 324.229 80.7723 324.22 80.7407Z" fill="#08ABD4"/>
<path fill-rule="evenodd" clip-rule="evenodd" d="M325.655 79.7515C325.788 79.908 325.885 80.0948 325.949 80.3986C325.956 80.4307 325.934 80.4619 325.9 80.4683C325.866 80.4747 325.833 80.4539 325.827 80.4219C325.766 80.1336 325.676 79.9651 325.558 79.8255C325.498 79.7547 325.43 79.6903 325.352 79.6205C325.33 79.6005 325.307 79.5799 325.283 79.5586C325.224 79.5064 325.16 79.4499 325.093 79.3863C325.069 79.3632 325.069 79.3257 325.093 79.3026C325.118 79.2794 325.157 79.2794 325.182 79.3026C325.247 79.3647 325.309 79.4191 325.367 79.4709C325.391 79.4925 325.415 79.5136 325.439 79.5346C325.517 79.6054 325.59 79.6743 325.655 79.7515Z" fill="#08ABD4"/>
<path d="M329.391 86.0947C328.64 78.1601 331.517 75.7915 334.52 74.252C336.271 80.5286 334.27 83.3708 331.768 84.792C329.766 85.9289 329.432 86.0157 329.391 86.3315L329.391 86.0947Z" fill="#00ECFA"/>
<path fill-rule="evenodd" clip-rule="evenodd" d="M334.402 75.3773C334.436 75.381 334.461 75.4103 334.457 75.4428C333.754 81.3306 330.904 84.9451 329.556 86.0215C329.53 86.0425 329.49 86.0394 329.468 86.0144C329.446 85.9894 329.449 85.952 329.475 85.9309C330.797 84.8756 333.633 81.2897 334.332 75.4295C334.336 75.397 334.367 75.3737 334.402 75.3773Z" fill="#08ABD4"/>
<path fill-rule="evenodd" clip-rule="evenodd" d="M333.409 76.326C333.442 76.3339 333.463 76.3661 333.454 76.3978C333.425 76.5077 333.417 76.671 333.427 76.8617C333.436 77.0512 333.463 77.2633 333.502 77.4685C333.541 77.6738 333.591 77.8708 333.647 78.0303C333.674 78.1101 333.703 78.1796 333.732 78.2356C333.761 78.2926 333.789 78.332 333.813 78.3548C333.838 78.378 333.838 78.4155 333.813 78.4386C333.789 78.4617 333.749 78.4617 333.725 78.4386C333.686 78.4022 333.651 78.3491 333.62 78.2876C333.588 78.2253 333.557 78.1504 333.528 78.0674C333.47 77.9012 333.418 77.6985 333.379 77.4893C333.34 77.28 333.312 77.0628 333.302 76.8674C333.292 76.6733 333.299 76.4961 333.333 76.3691C333.341 76.3374 333.375 76.3181 333.409 76.326Z" fill="#08ABD4"/>
<path fill-rule="evenodd" clip-rule="evenodd" d="M331.642 78.2192C331.677 78.2192 331.705 78.2457 331.705 78.2785C331.705 78.9266 331.767 79.6031 331.907 80.205C332.046 80.8081 332.262 81.3303 332.566 81.6749C332.588 81.7001 332.584 81.7374 332.558 81.7583C332.531 81.7793 332.492 81.7759 332.47 81.7507C332.148 81.3848 331.926 80.8411 331.784 80.2304C331.642 79.6184 331.58 78.933 331.58 78.2785C331.58 78.2457 331.608 78.2192 331.642 78.2192Z" fill="#08ABD4"/>
<path fill-rule="evenodd" clip-rule="evenodd" d="M334.677 78.9381C334.706 78.955 334.716 78.9913 334.698 79.0194C334.504 79.3252 334.215 79.5678 333.961 79.7335C333.833 79.8165 333.713 79.881 333.616 79.925C333.568 79.9469 333.524 79.9641 333.488 79.9759C333.454 79.987 333.421 79.9956 333.394 79.9956C333.359 79.9956 333.331 79.9691 333.331 79.9364C333.331 79.9037 333.359 79.8772 333.394 79.8772C333.398 79.8772 333.415 79.8746 333.447 79.864C333.478 79.854 333.517 79.8388 333.562 79.8182C333.653 79.777 333.767 79.7157 333.89 79.6359C334.136 79.4759 334.409 79.2448 334.591 78.9584C334.609 78.9304 334.647 78.9213 334.677 78.9381Z" fill="#08ABD4"/>
<path fill-rule="evenodd" clip-rule="evenodd" d="M333.438 82.5003C333.462 82.5234 333.462 82.5609 333.438 82.584C333.181 82.8275 332.767 83.0677 332.406 83.246C332.225 83.3355 332.055 83.4102 331.922 83.4628C331.856 83.489 331.798 83.5099 331.753 83.5244C331.73 83.5317 331.709 83.5375 331.692 83.5416C331.676 83.5454 331.658 83.5488 331.642 83.5488C331.608 83.5488 331.58 83.5223 331.58 83.4896C331.58 83.4569 331.608 83.4304 331.642 83.4304C331.642 83.4304 331.642 83.4304 331.642 83.4304C331.643 83.4303 331.649 83.4298 331.662 83.4267C331.675 83.4236 331.692 83.4188 331.713 83.4121C331.755 83.3989 331.809 83.3791 331.874 83.3535C332.003 83.3024 332.17 83.2291 332.348 83.141C332.707 82.964 333.106 82.7305 333.349 82.5003C333.374 82.4771 333.413 82.4771 333.438 82.5003Z" fill="#08ABD4"/>
<mask id="mask1_20_3214" style="mask-type:alpha" maskUnits="userSpaceOnUse" x="0" y="0" width="116" height="88">
<rect width="115.141" height="88" rx="4" fill="#D9D9D9"/>
</mask>
<g mask="url(#mask1_20_3214)">
<path fill-rule="evenodd" clip-rule="evenodd" d="M67.12 8.86557L47.7055 -16.1184L47.3651 -15.8814L66.7289 9.03736L-2.20149 39.3187L-2.02362 39.6815L66.9844 9.36611L81.6309 28.2143L78.8761 3.70105L67.12 8.86557ZM67.3754 9.19432L78.5184 4.29916L81.0454 26.7859L67.3754 9.19432Z" fill="white" fill-opacity="0.1"/>
<path fill-rule="evenodd" clip-rule="evenodd" d="M66.1456 10.9708L46.6494 -14.1184L46.309 -13.8814L65.7573 11.1462L-3.25968 42.3196L-3.07774 42.6806L66.0122 11.4742L80.5747 30.2143L77.8196 5.69788L66.1456 10.9708ZM66.4005 11.2988L77.4626 6.30233L79.9893 28.7859L66.4005 11.2988Z" fill="white" fill-opacity="0.1"/>
<path fill-rule="evenodd" clip-rule="evenodd" d="M65.17 13.0745L45.5932 -12.1184L45.2528 -11.8814L64.7845 13.2534L-4.31785 45.3205L-4.13187 45.6797L65.0389 13.5808L79.5186 32.2143L76.7631 7.6947L65.17 13.0745ZM65.4244 13.4019L76.4069 8.30551L78.9331 30.7859L65.4244 13.4019Z" fill="white" fill-opacity="0.1"/>
<path fill-rule="evenodd" clip-rule="evenodd" d="M64.1928 15.1768L44.5366 -10.1184L44.1962 -9.88138L63.81 15.3591L-5.37648 48.3215L-5.18652 48.6788L64.064 15.6859L78.4619 34.2143L75.7061 9.69151L64.1928 15.1768ZM64.4468 15.5036L75.3506 10.3087L77.8765 32.7859L64.4468 15.5036Z" fill="white" fill-opacity="0.1"/>
<path fill-rule="evenodd" clip-rule="evenodd" d="M63.2922 17.3769L43.4804 -8.11841L43.14 -7.88138L62.9147 17.5661L-6.43651 52.3233L-6.23882 52.6769L63.1678 17.8919L77.4058 36.2143L74.6493 11.6851L63.2922 17.3769ZM63.5454 17.7027L74.2951 12.3151L76.8203 34.7859L63.5454 17.7027Z" fill="white" fill-opacity="0.1"/>
<path fill-rule="evenodd" clip-rule="evenodd" d="M62.5345 19.7609L42.4243 -6.11841L42.0839 -5.88138L62.1671 19.9632L-7.50005 58.3272L-7.28759 58.673L62.419 20.2873L76.3496 38.2143L73.5916 13.672L62.5345 19.7609ZM62.7863 20.085L73.2405 14.3282L75.7642 36.7859L62.7863 20.085Z" fill="white" fill-opacity="0.1"/>
<path fill-rule="evenodd" clip-rule="evenodd" d="M61.8287 22.2125L41.3676 -4.11841L41.0272 -3.88138L61.4733 22.4302L-8.56523 65.3322L-8.33569 65.668L61.7241 22.7529L75.293 40.2143L72.5331 15.6555L61.8287 22.2125ZM62.0795 22.5352L72.1857 16.3447L74.7075 38.7859L62.0795 22.5352Z" fill="white" fill-opacity="0.1"/>
<path fill-rule="evenodd" clip-rule="evenodd" d="M61.101 24.6352L40.3115 -2.11841L39.9711 -1.88138L60.7568 24.8673L-9.62919 72.3372L-9.38403 72.663L61.0073 25.1895L74.2368 42.2143L71.4751 17.6386L61.101 24.6352ZM61.3514 24.9574L71.1314 18.3616L73.6514 40.7859L61.3514 24.9574Z" fill="white" fill-opacity="0.1"/>
<path fill-rule="evenodd" clip-rule="evenodd" d="M60.4124 27.1081L39.2553 -0.118408L38.9149 0.118619L60.0808 27.3564L-10.6938 80.3432L-10.4317 80.657L60.3313 27.6788L73.1807 44.2143L70.4166 19.6182L60.4124 27.1081ZM60.6629 27.4305L70.0776 20.382L72.5952 42.7859L60.6629 27.4305Z" fill="white" fill-opacity="0.1"/>
</g>
<path d="M45.9227 27.379L50.7182 30L45.9227 32.621L45.9227 27.379ZM45.7748 32.7019C45.7748 32.7018 45.7749 32.7018 45.7749 32.7018L45.7748 32.7019ZM45.7748 27.2981L45.7749 27.2982L45.7748 27.2981Z" fill="white" stroke="white"/>
<path d="M59.4741 26.72C60.1341 26.72 60.6775 26.91 61.1041 27.29C61.5308 27.6767 61.7441 28.18 61.7441 28.8C61.7441 29.4133 61.5108 29.9733 61.0441 30.48C60.7708 30.7667 60.2775 31.15 59.5641 31.63C58.6575 32.2367 58.1375 32.7833 58.0041 33.27H61.7541V34H56.9941C56.9941 33.34 57.2308 32.75 57.7041 32.23C58.0108 31.8833 58.5275 31.46 59.2541 30.96C59.8208 30.5533 60.1941 30.2567 60.3741 30.07C60.7408 29.67 60.9241 29.2433 60.9241 28.79C60.9241 28.3567 60.7941 28.02 60.5341 27.78C60.2741 27.54 59.9108 27.42 59.4441 27.42C58.9441 27.42 58.5675 27.5867 58.3141 27.92C58.0275 28.2467 57.8808 28.7233 57.8741 29.35H57.0541C57.0541 28.5567 57.2775 27.92 57.7241 27.44C58.1641 26.96 58.7475 26.72 59.4741 26.72ZM64.8702 26.72C65.7235 26.72 66.3669 27.0967 66.8002 27.85C67.1802 28.49 67.3702 29.35 67.3702 30.43C67.3702 31.51 67.1802 32.37 66.8002 33.01C66.3602 33.7633 65.7169 34.14 64.8702 34.14C64.0169 34.14 63.3735 33.7633 62.9402 33.01C62.5602 32.37 62.3702 31.51 62.3702 30.43C62.3702 29.35 62.5602 28.49 62.9402 27.85C63.3669 27.0967 64.0102 26.72 64.8702 26.72ZM64.8702 27.42C64.2302 27.42 63.7702 27.7633 63.4902 28.45C63.2902 28.93 63.1902 29.59 63.1902 30.43C63.1902 31.2567 63.2902 31.9167 63.4902 32.41C63.7702 33.0967 64.2302 33.44 64.8702 33.44C65.5102 33.44 65.9702 33.0967 66.2502 32.41C66.4569 31.9033 66.5602 31.2433 66.5602 30.43C66.5602 29.6033 66.4569 28.9433 66.2502 28.45C65.9702 27.7633 65.5102 27.42 64.8702 27.42ZM70.4663 26.72C71.1263 26.72 71.6696 26.91 72.0963 27.29C72.523 27.6767 72.7363 28.18 72.7363 28.8C72.7363 29.4133 72.503 29.9733 72.0363 30.48C71.763 30.7667 71.2696 31.15 70.5563 31.63C69.6496 32.2367 69.1296 32.7833 68.9963 33.27H72.7463V34H67.9863C67.9863 33.34 68.223 32.75 68.6963 32.23C69.003 31.8833 69.5196 31.46 70.2463 30.96C70.813 30.5533 71.1863 30.2567 71.3663 30.07C71.733 29.67 71.9163 29.2433 71.9163 28.79C71.9163 28.3567 71.7863 28.02 71.5263 27.78C71.2663 27.54 70.903 27.42 70.4363 27.42C69.9363 27.42 69.5596 27.5867 69.3063 27.92C69.0196 28.2467 68.873 28.7233 68.8663 29.35H68.0463C68.0463 28.5567 68.2696 27.92 68.7163 27.44C69.1563 26.96 69.7396 26.72 70.4663 26.72ZM75.9624 26.72C76.6224 26.72 77.1657 26.91 77.5924 27.29C78.0191 27.6767 78.2324 28.18 78.2324 28.8C78.2324 29.4133 77.9991 29.9733 77.5324 30.48C77.2591 30.7667 76.7657 31.15 76.0524 31.63C75.1457 32.2367 74.6257 32.7833 74.4924 33.27H78.2424V34H73.4824C73.4824 33.34 73.7191 32.75 74.1924 32.23C74.4991 31.8833 75.0157 31.46 75.7424 30.96C76.3091 30.5533 76.6824 30.2567 76.8624 30.07C77.2291 29.67 77.4124 29.2433 77.4124 28.79C77.4124 28.3567 77.2824 28.02 77.0224 27.78C76.7624 27.54 76.3991 27.42 75.9324 27.42C75.4324 27.42 75.0557 27.5867 74.8024 27.92C74.5157 28.2467 74.3691 28.7233 74.3624 29.35H73.5424C73.5424 28.5567 73.7657 27.92 74.2124 27.44C74.6524 26.96 75.2357 26.72 75.9624 26.72ZM78.9085 26.36H87.7985V27.07H83.4585V28.58C84.6985 29.2 85.9585 29.92 87.2385 30.74L86.8085 31.38C85.4952 30.5067 84.3785 29.8267 83.4585 29.34V35.02H82.7285V27.07H78.9085V26.36ZM89.9685 26.19C90.4752 26.8567 90.9418 27.5667 91.3685 28.32L90.6985 28.65C90.2585 27.85 89.7952 27.1367 89.3085 26.51L89.9685 26.19ZM89.0785 29.11H92.4885V25.82H93.2285V29.11H96.5685V29.81H93.2285V31.59H97.2785V32.29H93.2285V35.04H92.4885V32.29H88.4385V31.59H92.4885V29.81H89.0785V29.11ZM96.2785 26.53C95.9718 27.23 95.5485 27.9467 95.0085 28.68L94.3685 28.35C94.9018 27.65 95.3252 26.94 95.6385 26.22L96.2785 26.53ZM99.8785 27.65C99.4585 28.3633 98.9318 28.9567 98.2985 29.43L97.8185 28.83C98.8318 28.07 99.5118 27.04 99.8585 25.74L100.608 25.88C100.515 26.2133 100.388 26.57 100.228 26.95H106.438V27.65H103.298V29.25H106.088V29.94H103.298V32.1H106.758V32.8H103.298V35.03H102.568V32.8H97.9485V32.1H99.5985V29.25H102.568V27.65H99.8785ZM100.318 32.1H102.568V29.94H100.318V32.1Z" fill="white"/>
<path d="M47.852 44.272V45.68H50.156V50.752H53.628V51.952H47.484V53.36H52.476C51.388 54.32 49.532 55.184 46.924 55.952L47.772 57.28C50.46 56.288 52.412 55.152 53.628 53.856V57.6H55.132V53.728C56.428 55.168 58.46 56.352 61.212 57.296L61.868 55.92C59.436 55.28 57.596 54.416 56.38 53.36H61.276V51.952H55.132V50.752H58.652V45.68H60.94V44.272H58.652V42.96H57.18V44.272H51.644V42.96H50.156V44.272H47.852ZM51.644 45.68H57.18V46.848H51.644V45.68ZM57.18 48.176V49.376H51.644V48.176H57.18ZM63.352 44.272V45.68H65.656V50.752H69.128V51.952H62.984V53.36H67.976C66.888 54.32 65.032 55.184 62.424 55.952L63.272 57.28C65.96 56.288 67.912 55.152 69.128 53.856V57.6H70.632V53.728C71.928 55.168 73.96 56.352 76.712 57.296L77.368 55.92C74.936 55.28 73.096 54.416 71.88 53.36H76.776V51.952H70.632V50.752H74.152V45.68H76.44V44.272H74.152V42.96H72.68V44.272H67.144V42.96H65.656V44.272H63.352ZM67.144 45.68H72.68V46.848H67.144V45.68ZM72.68 48.176V49.376H67.144V48.176H72.68ZM78.852 44.272V45.68H81.156V50.752H84.628V51.952H78.484V53.36H83.476C82.388 54.32 80.532 55.184 77.924 55.952L78.772 57.28C81.46 56.288 83.412 55.152 84.628 53.856V57.6H86.132V53.728C87.428 55.168 89.46 56.352 92.212 57.296L92.868 55.92C90.436 55.28 88.596 54.416 87.38 53.36H92.276V51.952H86.132V50.752H89.652V45.68H91.94V44.272H89.652V42.96H88.18V44.272H82.644V42.96H81.156V44.272H78.852ZM82.644 45.68H88.18V46.848H82.644V45.68ZM88.18 48.176V49.376H82.644V48.176H88.18ZM94.352 44.272V45.68H96.656V50.752H100.128V51.952H93.984V53.36H98.976C97.888 54.32 96.032 55.184 93.424 55.952L94.272 57.28C96.96 56.288 98.912 55.152 100.128 53.856V57.6H101.632V53.728C102.928 55.168 104.96 56.352 107.712 57.296L108.368 55.92C105.936 55.28 104.096 54.416 102.88 53.36H107.776V51.952H101.632V50.752H105.152V45.68H107.44V44.272H105.152V42.96H103.68V44.272H98.144V42.96H96.656V44.272H94.352ZM98.144 45.68H103.68V46.848H98.144V45.68ZM103.68 48.176V49.376H98.144V48.176H103.68ZM122.14 45.328H116.188C116.492 44.624 116.732 43.856 116.892 43.04L115.212 42.816C115.052 43.68 114.796 44.528 114.476 45.328H110.636V57.648H112.156V56.48H120.62V57.616H122.14V45.328ZM112.156 55.008V51.456H120.62V55.008H112.156ZM112.156 50.016V46.768H120.62V50.016H112.156ZM131.672 42.848V44.656H126.248V49.504C126.184 52.32 125.576 54.64 124.408 56.496L125.608 57.536C126.904 55.488 127.608 53.04 127.704 50.208H128.552C129.16 51.792 130.216 53.184 131.704 54.4C130.36 55.216 128.728 55.888 126.808 56.432L127.64 57.76C129.72 57.136 131.496 56.32 132.968 55.312C134.408 56.24 136.2 57.04 138.376 57.696L139.224 56.4C137.272 55.856 135.576 55.168 134.168 54.368C135.528 53.184 136.536 51.76 137.208 50.112V48.768H133.208V46.128H136.872C136.648 46.768 136.392 47.36 136.088 47.888L137.56 48.304C138.008 47.36 138.328 46.4 138.552 45.44V44.656H133.208V42.848H131.672ZM129.992 50.208H135.576C135 51.456 134.104 52.576 132.92 53.552C131.592 52.592 130.616 51.472 129.992 50.208ZM127.72 48.768V46.128H131.672V48.768H127.72ZM145.748 42.816V45.488H141.14V46.944H145.748V49.792H140.228V51.248H145.748V57.664H147.268V51.248H152.404C152.356 53.024 152.244 54.032 152.068 54.256C151.892 54.464 151.604 54.576 151.204 54.608C150.676 54.608 150.116 54.592 149.508 54.592L149.924 56.016H150.948C151.332 56.016 151.732 55.968 152.116 55.888C152.564 55.792 152.884 55.616 153.092 55.392C153.604 54.848 153.876 52.992 153.892 49.792H151.668L151.972 46.224V45.488H147.268V42.816H145.748ZM147.268 49.792V46.944H150.452L150.18 49.792H147.268ZM151.252 42.848L150.468 44C151.556 44.512 152.612 45.2 153.636 46.096L154.436 44.848C153.476 44.08 152.42 43.408 151.252 42.848Z" fill="white"/>
<path d="M51.6996 69.5V76.96H51.1696V76.1H45.4596V76.98H44.9296V69.5H47.2696C47.5229 68.9667 47.7029 68.4067 47.8096 67.82L48.3896 67.9C48.2629 68.5 48.0862 69.0333 47.8596 69.5H51.6996ZM45.4596 75.58H51.1696V72.97H45.4596V75.58ZM45.4596 72.45H51.1696V70.01H45.4596V72.45ZM57.8896 67.83H58.4296V69.11H61.8196V69.38C61.6796 69.9867 61.4796 70.5767 61.2196 71.15L60.6996 71C60.9129 70.58 61.0896 70.1233 61.2296 69.63H58.4296V71.67H61.0396V72.16C60.5796 73.2867 59.8462 74.2533 58.8396 75.06C59.7929 75.64 60.9462 76.12 62.2996 76.5L61.9996 76.96C60.5396 76.54 59.3362 76.0167 58.3896 75.39C57.4362 76.0433 56.2729 76.5767 54.8996 76.99L54.5996 76.52C55.9196 76.14 57.0329 75.6567 57.9396 75.07C56.8529 74.25 56.0996 73.29 55.6796 72.19H54.9896C54.9429 74.0167 54.4929 75.58 53.6396 76.88L53.2196 76.51C54.0062 75.3367 54.4196 73.83 54.4596 71.99V69.11H57.8896V67.83ZM56.2096 72.19C56.6362 73.1767 57.3629 74.0333 58.3896 74.76C59.3362 74.04 60.0262 73.1833 60.4596 72.19H56.2096ZM54.9896 71.67H57.8896V69.63H54.9896V71.67ZM66.4796 67.81H67.0196V69.62H69.9596V69.88L69.7396 72.31H71.1796C71.1796 74.1767 71.0296 75.27 70.7296 75.59C70.5896 75.7367 70.3929 75.84 70.1396 75.9C69.9396 75.9333 69.7429 75.9533 69.5496 75.96H68.8896L68.7396 75.45H69.6396C69.9796 75.4433 70.2196 75.3567 70.3596 75.19C70.5196 74.9833 70.6162 74.2 70.6496 72.84H67.0196V76.99H66.4796V72.84H62.8496V72.31H66.4796V70.15H63.4296V69.62H66.4796V67.81ZM67.0196 72.31H69.2196L69.4196 70.15H67.0196V72.31ZM69.5796 67.87C70.3396 68.2633 71.0262 68.7433 71.6396 69.31L71.3396 69.75C70.6796 69.13 69.9996 68.64 69.2996 68.28L69.5796 67.87ZM78.2096 71.22H78.7496V76.9H78.2096V71.22ZM74.8296 71.25H75.3696V73.04C75.3429 74.8333 74.7429 76.15 73.5696 76.99L73.1596 76.62C74.2529 75.88 74.8096 74.6867 74.8296 73.04V71.25ZM76.9996 67.89C78.2329 69.3967 79.6662 70.5867 81.2996 71.46L81.0296 71.93C79.3629 71.0233 77.9562 69.8467 76.8096 68.4C75.7629 69.78 74.3596 70.9867 72.5996 72.02L72.3396 71.54C74.0396 70.5667 75.4662 69.35 76.6196 67.89H76.9996ZM85.3696 75.58C84.3762 75.9467 83.2196 76.2533 81.8996 76.5L81.8296 75.96C83.1962 75.7267 84.3762 75.4233 85.3696 75.05V75.58ZM84.1496 68C83.6096 69.3867 83.0596 70.4767 82.4996 71.27C83.0196 71.2033 83.5562 71.1133 84.1096 71L84.7396 69.8L85.2296 69.99C84.2296 71.87 83.4129 73.1767 82.7796 73.91C83.5662 73.7567 84.3896 73.5233 85.2496 73.21V73.71C84.1562 74.1033 83.1096 74.37 82.1096 74.51L81.9596 74.01C82.0396 73.9767 82.1229 73.9233 82.2096 73.85C82.6496 73.3967 83.1829 72.6267 83.8096 71.54C83.3162 71.6333 82.7029 71.73 81.9696 71.83L81.8296 71.33C81.9096 71.29 81.9896 71.22 82.0696 71.12C82.6696 70.18 83.1896 69.07 83.6296 67.79L84.1496 68ZM90.2596 72.92V76.98H89.7296V76.45H86.4596V76.98H85.9396V72.92H90.2596ZM86.4596 75.93H89.7296V73.44H86.4596V75.93ZM85.4196 68.84V68.34H90.3996C90.3796 70.1667 90.2696 71.26 90.0696 71.62C89.8696 71.98 89.5129 72.16 88.9996 72.16C88.8796 72.16 88.6262 72.1533 88.2396 72.14L88.1096 71.65L88.8796 71.68C89.2929 71.6733 89.5562 71.5167 89.6696 71.21C89.7762 70.89 89.8396 70.1 89.8596 68.84H87.7496C87.5629 69.74 87.3262 70.43 87.0396 70.91C86.6662 71.47 86.1229 71.9667 85.4096 72.4L85.0696 71.98C85.7229 71.5867 86.2129 71.1567 86.5396 70.69C86.8529 70.2167 87.0796 69.6 87.2196 68.84H85.4196ZM92.4396 71.11C92.0729 71.67 91.6996 72.1633 91.3196 72.59L91.1396 72.02C92.1662 70.7533 92.9029 69.3367 93.3496 67.77L93.8596 68.01C93.6329 68.7567 93.3362 69.4833 92.9696 70.19V77H92.4396V71.11ZM93.9196 69.26H100.38V69.78H93.9196V69.26ZM94.8496 70.74H99.5096V71.23H94.8496V70.74ZM94.8496 72.15H99.5096V72.65H94.8496V72.15ZM99.6796 73.62V76.97H99.1496V76.42H95.2196V76.97H94.6796V73.62H99.6796ZM95.2196 75.9H99.1496V74.13H95.2196V75.9ZM97.0596 67.83C97.2796 68.25 97.4496 68.64 97.5696 69L97.0896 69.19C96.9296 68.7433 96.7462 68.3367 96.5396 67.97L97.0596 67.83ZM102.27 68.65H104.46C104.606 68.39 104.72 68.11 104.8 67.81L105.36 67.89C105.273 68.1767 105.166 68.43 105.04 68.65H108.43V73.41H102.27V68.65ZM107.9 72.93V71.94H102.8V72.93H107.9ZM102.8 71.49H107.9V70.55H102.8V71.49ZM102.8 70.09H107.9V69.12H102.8V70.09ZM102.32 74.26C102.066 75.18 101.723 75.9733 101.29 76.64L100.84 76.34C101.28 75.7 101.6 74.9733 101.8 74.16L102.32 74.26ZM103.91 76.82C103.403 76.82 103.15 76.58 103.15 76.1V74.1H103.7V75.98C103.7 76.22 103.82 76.34 104.06 76.34H106.4C106.653 76.34 106.83 76.2833 106.93 76.17C107.07 76.0233 107.16 75.5967 107.2 74.89L107.72 75.06C107.66 75.8733 107.526 76.3833 107.32 76.59C107.146 76.7433 106.873 76.82 106.5 76.82H103.91ZM105.08 73.76C105.653 74.3 106.093 74.77 106.4 75.17L105.99 75.46C105.683 75.04 105.246 74.5567 104.68 74.01L105.08 73.76ZM108.32 73.99C109.006 74.83 109.526 75.5533 109.88 76.16L109.45 76.46C109.043 75.7533 108.526 75.02 107.9 74.26L108.32 73.99ZM110.91 70.92H114.47V73.89H110.91V70.92ZM113.94 73.39V71.43H111.46V73.39H113.94ZM114.83 75.14C113.483 75.52 112.053 75.8267 110.54 76.06L110.41 75.51C111.93 75.3167 113.403 75.02 114.83 74.62V75.14ZM118.22 76.95C117.733 76.93 117.27 76.6067 116.83 75.98C116.67 75.76 116.536 75.5233 116.43 75.27C115.843 75.9967 115.206 76.5667 114.52 76.98L114.21 76.52C114.943 76.08 115.603 75.4733 116.19 74.7C116.05 74.3267 115.926 73.8967 115.82 73.41C115.606 72.3767 115.496 71.1533 115.49 69.74H110.39V69.2H115.49V67.86H116.03V69.2H117.7C117.513 68.78 117.313 68.4167 117.1 68.11L117.64 68.02C117.84 68.36 118.036 68.7533 118.23 69.2H119.22V69.74H116.03C116.05 71.0733 116.146 72.2067 116.32 73.14C116.393 73.5133 116.476 73.85 116.57 74.15C117.163 73.21 117.666 72.06 118.08 70.7L118.56 70.96C118.08 72.4867 117.49 73.76 116.79 74.78C116.89 75.0467 117.016 75.31 117.17 75.57C117.53 76.1033 117.86 76.37 118.16 76.37C118.44 76.37 118.68 75.77 118.88 74.57L119.33 74.87C119.076 76.2567 118.706 76.95 118.22 76.95ZM120.51 67.97C121.21 68.4833 121.813 69.01 122.32 69.55L121.93 69.94C121.503 69.4533 120.9 68.9233 120.12 68.35L120.51 67.97ZM120.27 70.38C120.97 70.9067 121.543 71.4167 121.99 71.91L121.6 72.3C121.186 71.8133 120.613 71.2967 119.88 70.75L120.27 70.38ZM122.19 73.32C121.71 74.6533 121.203 75.85 120.67 76.91L120.14 76.67C120.746 75.51 121.266 74.3267 121.7 73.12L122.19 73.32ZM122.77 69.62H128.64V70.15H125.98V72.74H128.37V73.26H125.98V76.1H128.84V76.63H122.51V76.1H125.45V73.26H123.05V72.74H125.45V70.15H122.77V69.62ZM125.34 67.8C125.626 68.3667 125.846 68.88 126 69.34L125.52 69.51C125.34 68.97 125.11 68.45 124.83 67.95L125.34 67.8ZM129.39 71.61H131.12V68.81C130.526 68.91 129.966 68.9867 129.44 69.04L129.34 68.55C130.706 68.4233 131.926 68.1967 133 67.87L133.17 68.34C132.73 68.4733 132.226 68.5967 131.66 68.71V71.61H133.14V72.12H131.66V72.68C132.173 73.16 132.67 73.67 133.15 74.21L132.84 74.66C132.42 74.1133 132.026 73.6333 131.66 73.22V76.98H131.12V73.06C130.726 73.9867 130.17 74.83 129.45 75.59L129.23 75.05C130.11 74.1833 130.726 73.2067 131.08 72.12H129.39V71.61ZM133.36 74.67H135.6V73.4H133.73V72.89H135.6V71.85H136.14V72.89H138.02V73.4H136.14V74.67H138.31V75.19H136.14V76.97H135.6V75.19H133.36V74.67ZM133.16 69.31C133 70.0033 132.8 70.6167 132.56 71.15L132.12 70.99C132.353 70.4833 132.546 69.8833 132.7 69.19L133.16 69.31ZM129.92 69.39C130.186 69.91 130.413 70.44 130.6 70.98L130.17 71.17C129.95 70.5433 129.716 70 129.47 69.54L129.92 69.39ZM133.59 68.79V68.29H137.82V68.76C137.546 69.5467 137.043 70.22 136.31 70.78C136.87 71.0867 137.54 71.3533 138.32 71.58L138.06 72.04C137.18 71.78 136.443 71.4667 135.85 71.1C135.223 71.4867 134.476 71.8033 133.61 72.05L133.34 71.59C134.153 71.37 134.833 71.0967 135.38 70.77C134.666 70.21 134.203 69.55 133.99 68.79H133.59ZM135.83 70.48C136.496 69.9933 136.973 69.43 137.26 68.79H134.51C134.683 69.4367 135.123 70 135.83 70.48ZM139.94 71.11C139.573 71.67 139.2 72.1633 138.82 72.59L138.64 72.02C139.666 70.7533 140.403 69.3367 140.85 67.77L141.36 68.01C141.133 68.7567 140.836 69.4833 140.47 70.19V77H139.94V71.11ZM141.42 69.26H147.88V69.78H141.42V69.26ZM142.35 70.74H147.01V71.23H142.35V70.74ZM142.35 72.15H147.01V72.65H142.35V72.15ZM147.18 73.62V76.97H146.65V76.42H142.72V76.97H142.18V73.62H147.18ZM142.72 75.9H146.65V74.13H142.72V75.9ZM144.56 67.83C144.78 68.25 144.95 68.64 145.07 69L144.59 69.19C144.43 68.7433 144.246 68.3367 144.04 67.97L144.56 67.83ZM149.77 68.65H151.96C152.106 68.39 152.22 68.11 152.3 67.81L152.86 67.89C152.773 68.1767 152.666 68.43 152.54 68.65H155.93V73.41H149.77V68.65ZM155.4 72.93V71.94H150.3V72.93H155.4ZM150.3 71.49H155.4V70.55H150.3V71.49ZM150.3 70.09H155.4V69.12H150.3V70.09ZM149.82 74.26C149.566 75.18 149.223 75.9733 148.79 76.64L148.34 76.34C148.78 75.7 149.1 74.9733 149.3 74.16L149.82 74.26ZM151.41 76.82C150.903 76.82 150.65 76.58 150.65 76.1V74.1H151.2V75.98C151.2 76.22 151.32 76.34 151.56 76.34H153.9C154.153 76.34 154.33 76.2833 154.43 76.17C154.57 76.0233 154.66 75.5967 154.7 74.89L155.22 75.06C155.16 75.8733 155.026 76.3833 154.82 76.59C154.646 76.7433 154.373 76.82 154 76.82H151.41ZM152.58 73.76C153.153 74.3 153.593 74.77 153.9 75.17L153.49 75.46C153.183 75.04 152.746 74.5567 152.18 74.01L152.58 73.76ZM155.82 73.99C156.506 74.83 157.026 75.5533 157.38 76.16L156.95 76.46C156.543 75.7533 156.026 75.02 155.4 74.26L155.82 73.99Z" fill="white"/>
<defs>
<linearGradient id="paint0_linear_20_3214" x1="297.365" y1="65.8439" x2="296.58" y2="99.0056" gradientUnits="userSpaceOnUse">
<stop stop-color="#07DCFE" stop-opacity="0.25"/>
<stop offset="1" stop-color="#07DCFE" stop-opacity="0"/>
</linearGradient>
<linearGradient id="paint1_linear_20_3214" x1="272.595" y1="51.751" x2="320.529" y2="87.6273" gradientUnits="userSpaceOnUse">
<stop stop-color="#2AC9F3"/>
<stop offset="1" stop-color="#E12BEF"/>
</linearGradient>
<linearGradient id="paint2_linear_20_3214" x1="255.081" y1="63.3567" x2="266.509" y2="58.1647" gradientUnits="userSpaceOnUse">
<stop stop-color="#32A4F7"/>
<stop offset="1" stop-color="#63D2FF"/>
</linearGradient>
<linearGradient id="paint3_linear_20_3214" x1="259.46" y1="45.7112" x2="268.355" y2="40.563" gradientUnits="userSpaceOnUse">
<stop stop-color="#3298F7"/>
<stop offset="1" stop-color="#63D2FF"/>
</linearGradient>
<linearGradient id="paint4_linear_20_3214" x1="322.26" y1="79.4629" x2="329.213" y2="85.1615" gradientUnits="userSpaceOnUse">
<stop stop-color="#02EBFC"/>
<stop offset="1" stop-color="#27D0DC"/>
</linearGradient>
</defs>
</svg>
