<svg width="17" height="16" viewBox="0 0 17 16" fill="none" xmlns="http://www.w3.org/2000/svg">
<path fill-rule="evenodd" clip-rule="evenodd" d="M10.0425 4.67193L8.48493 1.29727C8.30524 0.907935 7.75189 0.907931 7.57219 1.29727L6.01465 4.67193C5.81946 5.09486 5.42765 5.39381 4.96819 5.47039L1.17447 6.10267C1.02304 6.12791 0.954625 6.30671 1.05053 6.42659L3.66806 9.6985C3.93199 10.0284 4.03374 10.4594 3.94522 10.8726L3.167 14.5042C3.09286 14.8502 3.46955 15.1164 3.77092 14.9309L7.29096 12.7648C7.7433 12.4864 8.31382 12.4864 8.76616 12.7648L12.2862 14.9309C12.5876 15.1164 12.9643 14.8502 12.8901 14.5042L12.1119 10.8726C12.0234 10.4594 12.1251 10.0284 12.3891 9.6985L15.0066 6.42659C15.1025 6.30671 15.0341 6.12791 14.8827 6.10267L11.0889 5.47039C10.6295 5.39381 10.2377 5.09486 10.0425 4.67193ZM9.39767 0.876001C8.85859 -0.292002 7.19853 -0.291999 6.65945 0.876003L5.10191 4.25067C5.04614 4.3715 4.9342 4.45692 4.80292 4.4788L1.00921 5.11108C0.10061 5.26252 -0.309877 6.33529 0.265549 7.05457L2.88308 10.3265C2.95849 10.4207 2.98756 10.5439 2.96226 10.6619L2.18405 14.2936C1.92454 15.5046 3.24298 16.4362 4.29778 15.7871L7.81782 13.6209C7.94706 13.5414 8.11006 13.5414 8.2393 13.6209L11.7593 15.7871C12.8141 16.4362 14.1326 15.5046 13.8731 14.2936L13.0949 10.6619C13.0696 10.5439 13.0986 10.4207 13.174 10.3265L15.7916 7.05457C16.367 6.33529 15.9565 5.26252 15.0479 5.11108L11.2542 4.4788C11.1229 4.45692 11.011 4.3715 10.9552 4.25067L9.39767 0.876001Z" fill="#333333"/>
</svg>
