<svg width="16" height="16" viewBox="0 0 16 16" fill="none" xmlns="http://www.w3.org/2000/svg">
<path fill-rule="evenodd" clip-rule="evenodd" d="M13.5429 1L14.9959 2.45299L10.0888 7.36011L8.43459 7.56134L8.63581 5.90713L13.5429 1ZM12.8358 0.292893C13.2264 -0.0976311 13.8595 -0.0976311 14.25 0.292893L15.703 1.74588C16.0936 2.13641 16.0936 2.76957 15.703 3.1601L10.7959 8.06722C10.6379 8.22527 10.4314 8.32581 10.2096 8.3528L7.92153 8.63112C7.59921 8.67032 7.3256 8.39672 7.36481 8.0744L7.64313 5.78637C7.67012 5.5645 7.77066 5.35806 7.92871 5.20002L12.8358 0.292893ZM7.5 1.99594C7.77614 1.99594 8 2.2198 8 2.49594C8 2.77208 7.77614 2.99594 7.5 2.99594H2C1.44772 2.99594 1 3.44366 1 3.99594V13.9959C1 14.5482 1.44772 14.9959 2 14.9959H12C12.5523 14.9959 13 14.5482 13 13.9959V8.49594C13 8.2198 13.2239 7.99594 13.5 7.99594C13.7761 7.99594 14 8.2198 14 8.49594V13.9959C14 15.1005 13.1046 15.9959 12 15.9959H2C0.89543 15.9959 0 15.1005 0 13.9959V3.99594C0 2.89137 0.895431 1.99594 2 1.99594H7.5Z" fill="#333333"/>
</svg>
