<svg width="14" height="14" viewBox="0 0 14 14" fill="none" xmlns="http://www.w3.org/2000/svg">
<path fill-rule="evenodd" clip-rule="evenodd" d="M7.76505 14H7.6398C7.43687 13.9882 7.23178 13.9185 7.04684 13.7798L5.76684 12.8198C5.41432 12.5554 5.20685 12.1405 5.20685 11.6998V6.0725V6.07227V5.04916L6.00685 5.68655V6.70989L6.00684 6.70988V11.6998C6.00684 11.8887 6.09576 12.0665 6.24684 12.1798L7.52683 13.1398C7.7246 13.2881 8.00683 13.147 8.00683 12.8998V6.69694L8.00685 6.69693V5.67399L8.80685 5.03687L8.80685 5.03677L13.008 1.69094C13.3783 1.39603 13.1695 0.8 12.6959 0.8L1.30409 0.8C0.830548 0.8 0.621733 1.39592 0.991937 1.69088L5.20685 5.04906V6.0724L0.492484 2.31628C-0.470034 1.54941 0.0728645 0 1.30409 0H12.6959C13.9273 0 14.4701 1.54968 13.5073 2.31644L8.80685 6.05994L8.80685 6.06004L8.80682 6.06006V12.8998C8.80682 13.5273 8.31087 13.9684 7.76505 14Z" fill="#999999"/>
<rect x="10" y="7" width="4" height="0.8" rx="0.4" fill="#999999"/>
<rect x="10" y="9" width="4" height="0.8" rx="0.4" fill="#999999"/>
<rect x="10" y="11" width="4" height="0.8" rx="0.4" fill="#999999"/>
</svg>
