<svg width="24" height="24" viewBox="0 0 24 24" fill="none" xmlns="http://www.w3.org/2000/svg">
<rect width="24" height="24" rx="2" fill="#0071B6" fill-opacity="0.4"/>
<path fill-rule="evenodd" clip-rule="evenodd" d="M13 6.5H11V8.5H13V6.5ZM11 5.5C10.4477 5.5 10 5.94772 10 6.5V8.5C10 9.05228 10.4477 9.5 11 9.5H13C13.5523 9.5 14 9.05228 14 8.5V6.5C14 5.94772 13.5523 5.5 13 5.5H11Z" fill="white"/>
<path fill-rule="evenodd" clip-rule="evenodd" d="M8 15.5H6V17.5H8V15.5ZM6 14.5C5.44772 14.5 5 14.9477 5 15.5V17.5C5 18.0523 5.44772 18.5 6 18.5H8C8.55228 18.5 9 18.0523 9 17.5V15.5C9 14.9477 8.55228 14.5 8 14.5H6Z" fill="white"/>
<path fill-rule="evenodd" clip-rule="evenodd" d="M18 15.5H16V17.5H18V15.5ZM16 14.5C15.4477 14.5 15 14.9477 15 15.5V17.5C15 18.0523 15.4477 18.5 16 18.5H18C18.5523 18.5 19 18.0523 19 17.5V15.5C19 14.9477 18.5523 14.5 18 14.5H16Z" fill="white"/>
<path fill-rule="evenodd" clip-rule="evenodd" d="M13 15.5H11V17.5H13V15.5ZM11 14.5C10.4477 14.5 10 14.9477 10 15.5V17.5C10 18.0523 10.4477 18.5 11 18.5H13C13.5523 18.5 14 18.0523 14 17.5V15.5C14 14.9477 13.5523 14.5 13 14.5H11Z" fill="white"/>
<path fill-rule="evenodd" clip-rule="evenodd" d="M6.5 12.5C6.5 11.9477 6.94771 11.5 7.5 11.5H16.5C17.0523 11.5 17.5 11.9477 17.5 12.5V13.5H16.5V12.5H7.5V13.5H6.5V12.5Z" fill="white"/>
</svg>
