<svg width="13" height="12" viewBox="0 0 13 12" fill="none" xmlns="http://www.w3.org/2000/svg">
<path fill-rule="evenodd" clip-rule="evenodd" d="M1.875 6C1.875 3.2385 4.1135 1 6.875 1C9.636 1 11.875 3.2385 11.875 6C11.875 8.7615 9.636 11 6.875 11C4.1135 11 1.875 8.7615 1.875 6ZM6.875 10C4.6695 10 2.875 8.2055 2.875 6C2.875 3.7945 4.6695 2 6.875 2C9.0805 2 10.875 3.7945 10.875 6C10.875 8.2055 9.0805 10 6.875 10ZM6.375 4C6.375 3.724 6.599 3.5 6.875 3.5C7.151 3.5 7.375 3.724 7.375 4C7.375 4.276 7.151 4.5 6.875 4.5C6.599 4.5 6.375 4.276 6.375 4ZM6.375 5.5C6.375 5.224 6.599 5 6.875 5C7.151 5 7.375 5.224 7.375 5.5V8C7.375 8.276 7.151 8.5 6.875 8.5C6.599 8.5 6.375 8.276 6.375 8V5.5Z" fill="white"/>
<mask id="mask0_126_4048" style="mask-type:alpha" maskUnits="userSpaceOnUse" x="1" y="1" width="11" height="10">
<path fill-rule="evenodd" clip-rule="evenodd" d="M1.875 6C1.875 3.2385 4.1135 1 6.875 1C9.636 1 11.875 3.2385 11.875 6C11.875 8.7615 9.636 11 6.875 11C4.1135 11 1.875 8.7615 1.875 6ZM6.875 10C4.6695 10 2.875 8.2055 2.875 6C2.875 3.7945 4.6695 2 6.875 2C9.0805 2 10.875 3.7945 10.875 6C10.875 8.2055 9.0805 10 6.875 10ZM6.375 4C6.375 3.724 6.599 3.5 6.875 3.5C7.151 3.5 7.375 3.724 7.375 4C7.375 4.276 7.151 4.5 6.875 4.5C6.599 4.5 6.375 4.276 6.375 4ZM6.375 5.5C6.375 5.224 6.599 5 6.875 5C7.151 5 7.375 5.224 7.375 5.5V8C7.375 8.276 7.151 8.5 6.875 8.5C6.599 8.5 6.375 8.276 6.375 8V5.5Z" fill="white"/>
</mask>
<g mask="url(#mask0_126_4048)">
</g>
</svg>
