<svg width="16" height="16" viewBox="0 0 16 16" fill="none" xmlns="http://www.w3.org/2000/svg">
<path fill-rule="evenodd" clip-rule="evenodd" d="M14 6H2C1.44772 6 1 6.44772 1 7V14C1 14.5523 1.44772 15 2 15H14C14.5523 15 15 14.5523 15 14V7C15 6.44772 14.5523 6 14 6ZM2 5C0.895431 5 0 5.89543 0 7V14C0 15.1046 0.895431 16 2 16H14C15.1046 16 16 15.1046 16 14V7C16 5.89543 15.1046 5 14 5H2Z" fill="#333333"/>
<path fill-rule="evenodd" clip-rule="evenodd" d="M11 5V4C11 2.34315 9.65685 1 8 1C6.34315 1 5 2.34315 5 4V5H11ZM8 0C5.79086 0 4 1.79086 4 4V6H12V4C12 1.79086 10.2091 0 8 0Z" fill="#333333"/>
<path d="M9 10C9 10.5523 8.55228 11 8 11C7.44772 11 7 10.5523 7 10C7 9.44772 7.44772 9 8 9C8.55228 9 9 9.44772 9 10Z" fill="#333333"/>
</svg>
