<svg width="29" height="32" viewBox="0 0 29 32" fill="none" xmlns="http://www.w3.org/2000/svg">
<path fill-rule="evenodd" clip-rule="evenodd" d="M29 9.32843C29 8.79799 28.7893 8.28929 28.4142 7.91421L21.0858 0.585786C20.7107 0.210714 20.202 0 19.6716 0H9C6.79089 0 5 1.79077 5 4V28C5 30.2092 6.79089 32 9 32H25C27.2091 32 29 30.2092 29 28V9.32843ZM20.4905 1.40454L19.8083 3.71558C19.4956 4.7749 20.101 5.88721 21.1603 6.19995L27.0132 7.92749L20.4905 1.40454ZM9 1H19.5673L18.8492 3.43237C18.3802 5.02148 19.2881 6.68994 20.8772 7.15894L28 9.26147V28C28 29.6567 26.6569 31 25 31H9C7.34314 31 6 29.6567 6 28V4C6 2.34326 7.34314 1 9 1Z" fill="#8EA4BE"/>
<path d="M19 13.5C19 13.2239 19.2239 13 19.5 13H24.5C24.7761 13 25 13.2239 25 13.5C25 13.7761 24.7761 14 24.5 14H19.5C19.2239 14 19 13.7761 19 13.5Z" fill="#8EA4BE"/>
<path d="M19 17.5C19 17.2239 19.2239 17 19.5 17H24.5C24.7761 17 25 17.2239 25 17.5C25 17.7761 24.7761 18 24.5 18H19.5C19.2239 18 19 17.7761 19 17.5Z" fill="#8EA4BE"/>
<path d="M19 21.5C19 21.2239 19.2239 21 19.5 21H24.5C24.7761 21 25 21.2239 25 21.5C25 21.7761 24.7761 22 24.5 22H19.5C19.2239 22 19 21.7761 19 21.5Z" fill="#8EA4BE"/>
<path d="M0 11C0 9.89543 0.895431 9 2 9H14C15.1046 9 16 9.89543 16 11V23C16 24.1046 15.1046 25 14 25H2C0.895431 25 0 24.1046 0 23V11Z" fill="url(#paint0_linear_60_3875)"/>
<path d="M5 13H8.22323C10.0744 13 11 13.8105 11 15.4314C11 17.0672 10.0672 17.8852 8.20145 17.8852H6.18693V21H5V13ZM6.18693 14.042V16.8431H8.12523C8.71325 16.8431 9.14156 16.7311 9.41016 16.507C9.67877 16.2754 9.81307 15.9169 9.81307 15.4314C9.81307 14.9309 9.67514 14.5798 9.39927 14.3782C9.13067 14.1541 8.70599 14.042 8.12523 14.042H6.18693Z" fill="white"/>
<defs>
<linearGradient id="paint0_linear_60_3875" x1="14.5" y1="0" x2="14.5" y2="32" gradientUnits="userSpaceOnUse">
<stop stop-color="#E99A00"/>
<stop offset="1" stop-color="#FCB11F"/>
</linearGradient>
</defs>
</svg>
