<svg width="40" height="40" viewBox="0 0 40 40" fill="none" xmlns="http://www.w3.org/2000/svg">
<rect width="40" height="40" fill="#F5F5F5"/>
<path d="M20.2078 32.7181C17.9048 32.7181 15.7908 32.0032 14.4298 30.9355C13.7386 31.127 12.8544 31.4353 12.2964 31.8174C11.819 32.1443 11.8785 32.4776 11.9646 32.6122C12.3424 33.2034 18.4458 32.9897 20.2078 32.8056V32.7181Z" fill="#FAAD08"/>
<path d="M19.7925 32.7181C22.0955 32.7181 24.2095 32.0032 25.5706 30.9355C26.2618 31.127 27.1459 31.4353 27.704 31.8174C28.1813 32.1443 28.1218 32.4776 28.0358 32.6122C27.658 33.2034 21.5545 32.9897 19.7925 32.8056V32.7181H19.7925Z" fill="#FAAD08"/>
<path d="M19.8065 18.9253C23.5971 18.9003 26.635 18.1886 27.6643 17.9156C27.9097 17.8504 28.041 17.7337 28.041 17.7337C28.0419 17.7002 28.0566 17.1351 28.0566 16.8435C28.0566 11.9337 25.6675 7.00031 19.7925 7C13.9175 7.00031 11.5283 11.9337 11.5283 16.8435C11.5283 17.1351 11.5431 17.7002 11.544 17.7337C11.544 17.7337 11.6508 17.8429 11.8465 17.8957C12.7969 18.1523 15.8919 18.8998 19.7786 18.9253H19.8065Z" fill="black"/>
<path d="M30.2402 23.0759C30.0069 22.3306 29.6885 21.4614 29.366 20.6266C29.366 20.6266 29.1806 20.6039 29.0868 20.6309C26.1933 21.4653 22.6864 21.9972 20.0138 21.9651H19.9862C17.3286 21.9969 13.8454 21.4711 10.9617 20.6448C10.8515 20.6133 10.6339 20.6267 10.6339 20.6267C10.3115 21.4614 9.99307 22.3306 9.75981 23.0759C8.6474 26.63 9.00777 28.1008 9.28221 28.1338C9.87108 28.2045 11.5744 25.4583 11.5744 25.4583C11.5744 28.2488 14.112 32.5335 19.9229 32.5729C19.9743 32.5727 20.0257 32.5727 20.0771 32.5729C25.888 32.5335 28.4256 28.2488 28.4256 25.4583C28.4256 25.4583 30.1289 28.2045 30.7178 28.1338C30.9922 28.1009 31.3526 26.63 30.2402 23.0759Z" fill="black"/>
<path d="M18.0035 14.4222C17.2019 14.4576 16.5168 13.5619 16.4739 12.4233C16.4303 11.2839 17.0444 10.3315 17.8462 10.2959C18.647 10.2609 19.3316 11.1562 19.3752 12.2953C19.419 13.4347 18.8048 14.3868 18.0035 14.4222ZM23.9413 12.4233C23.8984 13.5619 23.2133 14.4575 22.4117 14.4222C21.6104 14.3868 20.9961 13.4347 21.04 12.2953C21.0835 11.1562 21.7681 10.2609 22.569 10.2959C23.3708 10.3316 23.985 11.2839 23.9414 12.4233" fill="#F5F5F5"/>
<path d="M25.1738 15.8996C24.9634 15.3965 22.8448 14.8359 20.2219 14.8359H20.1938C17.5709 14.8359 15.4523 15.3965 15.2419 15.8996C15.2319 15.9222 15.2267 15.9465 15.2266 15.9712C15.2266 16.0075 15.2379 16.0402 15.2555 16.068C15.4327 16.347 17.7853 17.7257 20.1938 17.7257H20.222C22.6304 17.7257 24.983 16.3471 25.1603 16.068C25.1789 16.039 25.1889 16.0054 25.189 15.971C25.189 15.9454 25.1833 15.9214 25.1738 15.8996Z" fill="#FAAD08"/>
<path d="M18.9591 12.6924C18.9953 13.1463 18.7471 13.5496 18.4055 13.5937C18.0634 13.6378 17.7571 13.3056 17.7207 12.8514C17.685 12.3972 17.9328 11.994 18.2738 11.9502C18.6165 11.906 18.9233 12.2385 18.9591 12.6924ZM21.0592 12.9191C21.132 12.8015 21.6289 12.1828 22.6572 12.4081C22.9273 12.4672 23.0523 12.5542 23.0787 12.5885C23.1176 12.6391 23.1282 12.7111 23.0888 12.8081C23.0106 13.0002 22.8492 12.995 22.7597 12.9574C22.7019 12.9331 21.9857 12.5034 21.3259 13.1447C21.2805 13.1888 21.1993 13.2039 21.1223 13.1516C21.0454 13.0992 21.0135 12.9929 21.0592 12.9191Z" fill="black"/>
<path d="M20.0132 22.0674H19.9854C18.1591 22.0889 15.9445 21.853 13.8 21.4411C13.6164 22.4772 13.5056 23.7795 13.6008 25.3327C13.8413 29.2582 16.2331 31.7255 19.925 31.7615H20.075C23.7669 31.7255 26.1588 29.2582 26.3993 25.3327C26.4945 23.7794 26.3836 22.4771 26.1999 21.4409C24.055 21.853 21.8401 22.0891 20.0132 22.0674Z" fill="#F5F5F5"/>
<path d="M14.8115 21.8535V25.7814C14.8115 25.7814 16.6778 26.1444 18.5474 25.8931V22.2699C17.363 22.2053 16.0855 22.0612 14.8115 21.8535Z" fill="#EB1C26"/>
<path d="M28.1665 17.7256C28.1665 17.7256 24.6619 18.8796 20.0143 18.9125H19.9867C15.3467 18.8797 11.8464 17.7295 11.8344 17.7256L10.6606 20.7815C13.5965 21.7047 17.2353 22.2998 19.9867 22.2652L20.0142 22.2652C22.7657 22.2999 26.404 21.7048 29.3403 20.7815L28.1665 17.7256Z" fill="#EB1C26"/>
</svg>
