<svg width="14" height="14" viewBox="0 0 14 14" fill="none" xmlns="http://www.w3.org/2000/svg">
<path fill-rule="evenodd" clip-rule="evenodd" d="M10.0625 6.125C10.0625 8.29962 8.29962 10.0625 6.125 10.0625C3.95038 10.0625 2.1875 8.29962 2.1875 6.125C2.1875 3.95038 3.95038 2.1875 6.125 2.1875C8.29962 2.1875 10.0625 3.95038 10.0625 6.125ZM9.34449 10.2723C8.45545 10.9634 7.33829 11.375 6.125 11.375C3.22551 11.375 0.875 9.0245 0.875 6.125C0.875 3.22551 3.22551 0.875 6.125 0.875C9.0245 0.875 11.375 3.22551 11.375 6.125C11.375 7.33814 10.9635 8.45518 10.2725 9.34417L13.1518 12.2235C13.4081 12.4797 13.4081 12.8953 13.1518 13.1515C12.8955 13.4078 12.48 13.4078 12.2237 13.1515L9.34449 10.2723Z" fill="#09111A" fill-opacity="0.4"/>
</svg>
