<svg width="16" height="16" viewBox="0 0 16 16" fill="none" xmlns="http://www.w3.org/2000/svg">
<rect x="14.7422" y="0.554932" width="1" height="9.82209" rx="0.5" transform="rotate(45 14.7422 0.554932)" fill="#333333"/>
<rect x="10" width="6" height="1" rx="0.5" fill="#333333"/>
<rect x="16" width="6" height="1" rx="0.5" transform="rotate(90 16 0)" fill="#333333"/>
<path fill-rule="evenodd" clip-rule="evenodd" d="M8 3.5C8 3.22386 7.77614 3 7.5 3H2C0.895431 3 0 3.89543 0 5V14C0 15.1046 0.89543 16 2 16H11C12.1046 16 13 15.1046 13 14V8.5C13 8.22386 12.7761 8 12.5 8C12.2239 8 12 8.22386 12 8.5V14C12 14.5523 11.5523 15 11 15H2C1.44772 15 1 14.5523 1 14V5C1 4.44772 1.44772 4 2 4H7.5C7.77614 4 8 3.77614 8 3.5Z" fill="#333333"/>
</svg>
