<svg width="16" height="16" viewBox="0 0 16 16" fill="none" xmlns="http://www.w3.org/2000/svg">
<path fill-rule="evenodd" clip-rule="evenodd" d="M3.9739 7.54991C3.77843 7.35444 3.46151 7.35444 3.26604 7.54991L1.07364 9.7423C-0.357881 11.1738 -0.357881 13.4948 1.07364 14.9263C2.50517 16.3578 4.82613 16.3578 6.25766 14.9263L9.57493 11.609C11.0065 10.1775 11.0065 7.85656 9.57493 6.42505C9.43472 6.28483 9.20922 6.29681 9.069 6.43702L8.85172 6.65431C8.72047 6.78555 8.73582 7.00166 8.86706 7.13291C9.90765 8.17348 9.90765 9.86059 8.86706 10.9012L5.54979 14.2184C4.50921 15.259 2.82209 15.259 1.78151 14.2184C0.740925 13.1778 0.740926 11.4907 1.78151 10.4502L3.9739 8.25777C4.16938 8.0623 4.16938 7.74538 3.9739 7.54991Z" fill="#333333"/>
<path fill-rule="evenodd" clip-rule="evenodd" d="M12.3135 8.16259C12.118 7.96712 12.118 7.6502 12.3135 7.45473L14.2185 5.54976C15.2591 4.50919 15.2591 2.82208 14.2185 1.7815C13.1779 0.740921 11.4908 0.740921 10.4502 1.7815L7.71754 4.51414C6.67696 5.55472 6.67696 7.24183 7.71754 8.28241C7.84417 8.40903 7.85843 8.61738 7.7318 8.74401L7.49664 8.97917C7.3617 9.11411 7.14462 9.12521 7.00968 8.99027C5.57815 7.55875 5.57815 5.2378 7.00968 3.80628L9.74234 1.07364C11.1739 -0.35788 13.4948 -0.357878 14.9264 1.07364C16.3579 2.50516 16.3579 4.8261 14.9264 6.25762L13.0214 8.16259C12.8259 8.35806 12.509 8.35806 12.3135 8.16259Z" fill="#333333"/>
</svg>
