<svg width="40" height="40" viewBox="0 0 40 40" fill="none" xmlns="http://www.w3.org/2000/svg">
<rect width="40" height="40" fill="#F5F5F5"/>
<path d="M24.9525 15.6549C25.2745 15.6549 25.5912 15.6785 25.9097 15.7122C25.0522 11.8608 20.784 9 15.9102 9C10.4625 9 6 12.5797 6 17.1283C6 19.7527 7.484 21.908 9.9655 23.5823L8.975 26.4565L12.44 24.7823C13.679 25.0169 14.673 25.2599 15.9102 25.2599C16.2218 25.2599 16.5297 25.2464 16.8342 25.2245C16.6418 24.5848 16.528 23.9165 16.528 23.2194C16.5297 19.0439 20.2467 15.6549 24.9525 15.6549ZM19.6255 13.0641C20.3745 13.0641 20.8663 13.5384 20.8663 14.2574C20.8663 14.973 20.3745 15.4523 19.6255 15.4523C18.8852 15.4523 18.1397 14.973 18.1397 14.2574C18.1397 13.5367 18.8835 13.0641 19.6255 13.0641ZM12.6902 15.4523C11.9465 15.4523 11.1975 14.973 11.1975 14.2574C11.1975 13.5384 11.9465 13.0641 12.6902 13.0641C13.434 13.0641 13.9275 13.5367 13.9275 14.2574C13.9275 14.973 13.434 15.4523 12.6902 15.4523ZM34 23.1046C34 19.2835 30.0345 16.1696 25.5807 16.1696C20.8645 16.1696 17.1528 19.2852 17.1528 23.1046C17.1528 26.9359 20.8663 30.0397 25.5807 30.0397C26.5678 30.0397 27.5635 29.8017 28.554 29.562L31.2717 31L30.5263 28.6101C32.516 27.1688 34 25.2599 34 23.1046ZM22.8472 21.908C22.3555 21.908 21.8567 21.4354 21.8567 20.9527C21.8567 20.4768 22.3555 19.9975 22.8472 19.9975C23.5998 19.9975 24.088 20.4768 24.088 20.9527C24.088 21.4354 23.5998 21.908 22.8472 21.908ZM28.2985 21.908C27.8102 21.908 27.3132 21.4354 27.3132 20.9527C27.3132 20.4768 27.8085 19.9975 28.2985 19.9975C29.044 19.9975 29.5392 20.4768 29.5392 20.9527C29.5392 21.4354 29.044 21.908 28.2985 21.908Z" fill="#2CC14F"/>
</svg>
