<svg width="9" height="9" viewBox="0 0 9 9" fill="none" xmlns="http://www.w3.org/2000/svg">
<path d="M8.3895 4.67297L4.57652 8.48595C4.48098 8.58149 4.32608 8.58149 4.23054 8.48595L0.417573 4.67297C0.263456 4.51886 0.372608 4.25534 0.590562 4.25534L2.20174 4.25534C2.33685 4.25534 2.44638 4.14581 2.44638 4.0107L2.44638 0.585678C2.44638 0.450566 2.55591 0.341034 2.69103 0.341034L6.11604 0.341035C6.25116 0.341035 6.36069 0.450566 6.36069 0.585679L6.36069 4.0107C6.36069 4.14581 6.47022 4.25534 6.60533 4.25534L8.21651 4.25534C8.43446 4.25534 8.54361 4.51886 8.3895 4.67297Z" fill="url(#paint0_linear_242_3204)"/>
<defs>
<linearGradient id="paint0_linear_242_3204" x1="4.40353" y1="8.65894" x2="4.40353" y2="0.341035" gradientUnits="userSpaceOnUse">
<stop stop-color="#68D5C2"/>
<stop offset="1" stop-color="#56BABC"/>
</linearGradient>
</defs>
</svg>
