<svg width="35" height="34" viewBox="0 0 35 34" fill="none" xmlns="http://www.w3.org/2000/svg">
<rect x="0.655518" width="33.7143" height="34" rx="4.25" fill="#659BEF"/>
<path d="M18.253 11.5787C21.3517 11.9694 22.9321 14.2506 22.9321 17.0162C22.9321 17.735 22.8236 18.4225 22.5757 19.0475L25.2716 20.6256C25.7674 19.5319 26.0153 18.2975 26.0153 17.0162C26.0153 12.5162 22.901 8.8131 18.2529 8.42249V11.5787H18.253Z" fill="white"/>
<path d="M16.7035 22.4537C14.3795 22.0631 12.0709 19.7818 12.0709 17.0162C12.0709 14.2506 14.3795 11.9694 16.7035 11.5787V8.42249C12.8301 8.8131 8.98767 12.5162 8.98767 17.0162C8.98767 21.5162 12.8301 25.2194 16.7035 25.61V22.4537Z" fill="white"/>
<path d="M21.7855 20.4069C20.9333 21.5006 19.8023 22.235 18.2529 22.4537V25.61C20.577 25.3756 23.0405 24.0006 24.4349 21.985L21.7855 20.4069Z" fill="#5FCABB"/>
</svg>
