<svg width="9" height="9" viewBox="0 0 9 9" fill="none" xmlns="http://www.w3.org/2000/svg">
<path d="M8.58237 4.32703L4.76939 0.514054C4.67386 0.418515 4.51896 0.418515 4.42342 0.514054L0.610444 4.32703C0.456327 4.48114 0.565479 4.74466 0.783433 4.74466L2.39461 4.74466C2.52972 4.74466 2.63925 4.85419 2.63925 4.9893L2.63925 8.41432C2.63925 8.54943 2.74878 8.65897 2.8839 8.65897L6.30891 8.65897C6.44403 8.65897 6.55356 8.54943 6.55356 8.41432L6.55356 4.9893C6.55356 4.85419 6.66309 4.74466 6.7982 4.74466L8.40938 4.74466C8.62733 4.74466 8.73648 4.48114 8.58237 4.32703Z" fill="#F1965C"/>
</svg>
