<svg width="10" height="6" viewBox="0 0 10 6" fill="none" xmlns="http://www.w3.org/2000/svg">
<path d="M9.43357 5.12214C9.28619 5.26765 9.04919 5.2669 8.90332 5.11989L5.06146 1.24277L1.16595 5.10338C1.01857 5.24924 0.781568 5.24813 0.635318 5.10112C0.48945 4.95374 0.490559 4.71637 0.637575 4.57048L4.77795 0.467608C4.78432 0.461238 4.79256 0.459726 4.79895 0.453739C4.80044 0.452247 4.80083 0.450372 4.80232 0.44886C4.87543 0.376491 4.97107 0.340105 5.06631 0.340105C5.16269 0.340105 5.25943 0.377237 5.33257 0.451098L9.43545 4.59147C9.5817 4.73889 9.58059 4.97626 9.43357 5.12214Z" fill="#969696"/>
</svg>
