<svg width="24" height="24" viewBox="0 0 24 24" fill="none" xmlns="http://www.w3.org/2000/svg">
<rect x="9" y="2" width="6" height="2" rx="0.5" fill="white"/>
<path fill-rule="evenodd" clip-rule="evenodd" d="M7.5 2C7.77614 2 8 2.22386 8 2.5V4C8 4.55228 8.44772 5 9 5H15C15.5523 5 16 4.55228 16 4V2.5C16 2.22386 16.2239 2 16.5 2H18C19.1046 2 20 2.89542 20 4V20C20 21.1046 19.1046 22 18 22H6C4.89543 22 4 21.1046 4 20V4C4 2.89542 4.89543 2 6 2H7.5ZM7.5 7C7.22386 7 7 7.22386 7 7.5V8.5C7 8.77614 7.22386 9 7.5 9H16.5C16.7761 9 17 8.77614 17 8.5V7.5C17 7.22386 16.7761 7 16.5 7H7.5ZM7 11.5C7 11.2239 7.22386 11 7.5 11H16.5C16.7761 11 17 11.2239 17 11.5V12.5C17 12.7761 16.7761 13 16.5 13H7.5C7.22386 13 7 12.7761 7 12.5V11.5ZM7.5 15C7.22386 15 7 15.2239 7 15.5V16.5C7 16.7761 7.22386 17 7.5 17H16.5C16.7761 17 17 16.7761 17 16.5V15.5C17 15.2239 16.7761 15 16.5 15H7.5Z" fill="white"/>
</svg>
