<svg width="18" height="18" viewBox="0 0 18 18" fill="none" xmlns="http://www.w3.org/2000/svg">
<path fill-rule="evenodd" clip-rule="evenodd" d="M2 1.8C1.33726 1.8 0.8 2.33726 0.8 3V12C0.8 12.6627 1.33726 13.2 2 13.2H6.75279C7.20731 13.2 7.62283 13.4568 7.8261 13.8633L9 16.2111L10.1739 13.8633C10.3772 13.4568 10.7927 13.2 11.2472 13.2H16C16.6627 13.2 17.2 12.6627 17.2 12V3C17.2 2.33726 16.6627 1.8 16 1.8H2ZM0 3C0 1.89543 0.895431 1 2 1H16C17.1046 1 18 1.89543 18 3V12C18 13.1046 17.1046 14 16 14H11.2472C11.0957 14 10.9572 14.0856 10.8894 14.2211L9.71554 16.5689C9.42072 17.1586 8.57928 17.1586 8.28446 16.5689L7.11056 14.2211C7.0428 14.0856 6.9043 14 6.75279 14H2C0.89543 14 0 13.1046 0 12V3Z" fill="#333333"/>
<rect x="5" y="4" width="8" height="0.8" rx="0.4" fill="#333333"/>
<rect x="5" y="7" width="8" height="0.8" rx="0.4" fill="#333333"/>
<rect x="5" y="10" width="8" height="0.8" rx="0.4" fill="#333333"/>
</svg>
