<svg width="18" height="18" viewBox="0 0 18 18" fill="none" xmlns="http://www.w3.org/2000/svg">
<path fill-rule="evenodd" clip-rule="evenodd" d="M0.471191 2.09113L6.00169 8.35438C7.59394 10.1576 10.4062 10.1576 11.9984 8.35438L17.4879 2.13763L16.7136 1.80581L11.3988 7.82486C10.125 9.26744 7.87516 9.26744 6.60136 7.82486L1.24918 1.76355L0.471191 2.09113Z" fill="#333333"/>
<path fill-rule="evenodd" clip-rule="evenodd" d="M0 14.6254V13.4645L5.45168 7.73147L5.98322 8.33343L0 14.6254ZM18 13.4643L12.5485 7.73145L12.0169 8.33341L18 14.6252V13.4643Z" fill="#333333"/>
<path fill-rule="evenodd" clip-rule="evenodd" d="M4 1.4C4 1.17909 3.82091 1 3.6 1H2C0.895431 1 0 1.89543 0 3V15C0 16.1046 0.89543 17 2 17H16C17.1046 17 18 16.1046 18 15V3C18 1.89543 17.1046 1 16 1H6.4C6.17909 1 6 1.17909 6 1.4C6 1.62091 6.17909 1.8 6.4 1.8H16C16.6627 1.8 17.2 2.33726 17.2 3V15C17.2 15.6627 16.6627 16.2 16 16.2H2C1.33726 16.2 0.8 15.6627 0.8 15V3C0.8 2.33726 1.33726 1.8 2 1.8H3.6C3.82091 1.8 4 1.62091 4 1.4Z" fill="#333333"/>
</svg>
