<svg width="20" height="16" viewBox="0 0 20 16" fill="none" xmlns="http://www.w3.org/2000/svg">
<path d="M5.1211 1.74997C5.3068 1.45285 5.6932 1.45285 5.8789 1.74997L9.23525 7.12004C9.3509 7.30507 9.3509 7.55363 9.23525 7.73865L5.8789 13.1087C5.6932 13.4058 5.3068 13.4058 5.1211 13.1087L1.76475 7.73865C1.6491 7.55363 1.6491 7.30507 1.76475 7.12004L5.1211 1.74997Z" fill="#FEAE30"/>
<path d="M14.1211 1.74997C14.3068 1.45285 14.6932 1.45285 14.8789 1.74997L18.2353 7.12004C18.3509 7.30507 18.3509 7.55363 18.2353 7.73865L14.8789 13.1087C14.6932 13.4058 14.3068 13.4058 14.1211 13.1087L10.7647 7.73865C10.6491 7.55363 10.6491 7.30507 10.7647 7.12004L14.1211 1.74997Z" fill="#FEAE30"/>
<path fill-rule="evenodd" clip-rule="evenodd" d="M16.6403 15.0849C17.2218 14.8326 17.6497 14.2744 17.726 13.5991C17.7221 13.6323 17.7254 13.6603 17.7288 13.6887C17.7307 13.705 17.7326 13.7215 17.7332 13.739L19 3.86987C18.9972 3.86707 18.9943 3.86677 18.9919 3.86651C18.9879 3.8661 18.985 3.8658 18.9856 3.85524C18.9847 3.50997 18.7179 3.23243 18.3868 3.23088C18.2244 3.23201 18.0766 3.29809 17.9698 3.40677C17.9681 3.40978 17.9688 3.40753 17.9698 3.40406C17.971 3.39986 17.9728 3.39387 17.9716 3.39317L13.9486 7.17443L10.7167 0.425385C10.5706 0.177218 10.3134 -0.000265282 10.0113 0.00116253C9.68881 -0.000986581 9.4096 0.188215 9.26938 0.4651L6.05511 7.17592L1.95395 3.32324C1.85626 3.25189 1.7435 3.19788 1.61673 3.20013C1.28558 3.19857 1.01528 3.47864 1.01622 3.82391C1.01532 3.83969 1.01061 3.84042 1.0059 3.84116C1.00381 3.84148 1.00171 3.84181 0.999954 3.84346L2.27005 13.7654C2.27013 13.7687 2.27048 13.772 2.2713 13.7752L2.27005 13.7654C2.26994 13.7606 2.27043 13.7558 2.27091 13.7511C2.27151 13.7452 2.27209 13.7395 2.27148 13.7341C2.35216 14.4285 2.80017 15.0021 3.40452 15.2439C4.72744 15.7175 7.15421 16.0245 9.96898 15.9995C12.85 15.9706 15.327 15.6041 16.6403 15.0849Z" fill="url(#paint0_linear_316_592)"/>
<mask id="path-4-inside-1_316_592" fill="white">
<path fill-rule="evenodd" clip-rule="evenodd" d="M16.6403 15.0849C17.2218 14.8326 17.6497 14.2744 17.726 13.5991C17.7221 13.6323 17.7254 13.6603 17.7288 13.6887C17.7307 13.705 17.7326 13.7215 17.7332 13.739L19 3.86987C18.9972 3.86707 18.9943 3.86677 18.9919 3.86651C18.9879 3.8661 18.985 3.8658 18.9856 3.85524C18.9847 3.50997 18.7179 3.23243 18.3868 3.23088C18.2244 3.23201 18.0766 3.29809 17.9698 3.40677C17.9681 3.40978 17.9688 3.40753 17.9698 3.40406C17.971 3.39986 17.9728 3.39387 17.9716 3.39317L13.9486 7.17443L10.7167 0.425385C10.5706 0.177218 10.3134 -0.000265282 10.0113 0.00116253C9.68881 -0.000986581 9.4096 0.188215 9.26938 0.4651L6.05511 7.17592L1.95395 3.32324C1.85626 3.25189 1.7435 3.19788 1.61673 3.20013C1.28558 3.19857 1.01528 3.47864 1.01622 3.82391C1.01532 3.83969 1.01061 3.84042 1.0059 3.84116C1.00381 3.84148 1.00171 3.84181 0.999954 3.84346L2.27005 13.7654C2.27013 13.7687 2.27048 13.772 2.2713 13.7752L2.27005 13.7654C2.26994 13.7606 2.27043 13.7558 2.27091 13.7511C2.27151 13.7452 2.27209 13.7395 2.27148 13.7341C2.35216 14.4285 2.80017 15.0021 3.40452 15.2439C4.72744 15.7175 7.15421 16.0245 9.96898 15.9995C12.85 15.9706 15.327 15.6041 16.6403 15.0849Z"/>
</mask>
<path d="M17.726 13.5991L18.1235 13.644L17.3288 13.5518L17.726 13.5991ZM16.6403 15.0849L16.7874 15.4571L16.7995 15.4519L16.6403 15.0849ZM17.7288 13.6887L17.3315 13.7357L17.3315 13.7357L17.7288 13.6887ZM17.7332 13.739L17.3334 13.7523L18.13 13.79L17.7332 13.739ZM19 3.86987L19.3967 3.92079L19.4214 3.72851L19.2857 3.59L19 3.86987ZM18.9919 3.86651L19.0335 3.46868L19.0335 3.46868L18.9919 3.86651ZM18.9856 3.85524L19.385 3.87796L19.3857 3.86607L19.3856 3.85415L18.9856 3.85524ZM18.3868 3.23088L18.3887 2.83085L18.384 2.83089L18.3868 3.23088ZM17.9698 3.40677L17.6845 3.12634L17.6455 3.16601L17.6189 3.21481L17.9698 3.40677ZM17.9698 3.40406L18.3538 3.5162L18.3538 3.51611L17.9698 3.40406ZM17.9716 3.39317L18.1799 3.05166L17.9197 2.89302L17.6977 3.10171L17.9716 3.39317ZM13.9486 7.17443L13.5878 7.34718L13.824 7.84045L14.2225 7.46589L13.9486 7.17443ZM10.7167 0.425385L11.0775 0.252627L11.0701 0.237196L11.0614 0.222453L10.7167 0.425385ZM10.0113 0.00116253L10.0086 0.40118L10.0132 0.401158L10.0113 0.00116253ZM9.26938 0.4651L8.91244 0.284338L8.90863 0.29231L9.26938 0.4651ZM6.05511 7.17592L5.78124 7.46746L6.1797 7.84178L6.41586 7.34871L6.05511 7.17592ZM1.95395 3.32324L2.22783 3.0317L2.20982 3.01478L2.18986 3.00021L1.95395 3.32324ZM1.61673 3.20013L1.61484 3.60022L1.62383 3.60006L1.61673 3.20013ZM1.01622 3.82391L1.41557 3.84661L1.41625 3.83473L1.41622 3.82282L1.01622 3.82391ZM1.0059 3.84116L1.06764 4.23636L1.06766 4.23636L1.0059 3.84116ZM0.999954 3.84346L0.726533 3.5515L0.577217 3.69133L0.603192 3.89425L0.999954 3.84346ZM2.2713 13.7752L1.88359 13.8736L2.66807 13.7244L2.2713 13.7752ZM2.27091 13.7511L1.87296 13.7106L1.87296 13.7106L2.27091 13.7511ZM2.27148 13.7341L2.6688 13.6879L1.87406 13.7794L2.27148 13.7341ZM3.40452 15.2439L3.25595 15.6153L3.26277 15.618L3.26969 15.6205L3.40452 15.2439ZM9.96898 15.9995L9.97254 16.3995L9.97299 16.3994L9.96898 15.9995ZM17.3285 13.5542C17.2684 14.087 16.9316 14.5225 16.4811 14.718L16.7995 15.4519C17.5121 15.1427 18.0311 14.4619 18.1235 13.644L17.3285 13.5542ZM18.126 13.6417C18.1251 13.634 18.1246 13.6303 18.1243 13.6271C18.124 13.6244 18.1241 13.624 18.1241 13.6251C18.1243 13.6281 18.1244 13.636 18.1232 13.6464L17.3288 13.5518C17.3186 13.6379 17.3284 13.7097 17.3315 13.7357L18.126 13.6417ZM18.133 13.7258C18.1318 13.6887 18.1277 13.656 18.126 13.6417L17.3315 13.7357C17.3326 13.7446 17.333 13.7484 17.3333 13.7516C17.3336 13.7542 17.3335 13.7541 17.3334 13.7523L18.133 13.7258ZM18.6032 3.81894L17.3365 13.6881L18.13 13.79L19.3967 3.92079L18.6032 3.81894ZM18.9503 4.26435C18.9557 4.26492 18.9152 4.26201 18.8693 4.2467C18.815 4.2286 18.7605 4.19705 18.7142 4.14973L19.2857 3.59C19.1762 3.4781 19.0437 3.46975 19.0335 3.46868L18.9503 4.26435ZM18.5863 3.83252C18.586 3.838 18.5703 3.98221 18.673 4.11243C18.7353 4.19144 18.8129 4.23039 18.8718 4.24845C18.8979 4.25648 18.9195 4.26018 18.9312 4.26193C18.9374 4.26286 18.9424 4.26346 18.9453 4.2638C18.9468 4.26398 18.9481 4.26411 18.9489 4.2642C18.9496 4.26428 18.9503 4.26434 18.9503 4.26435L19.0335 3.46868C19.0228 3.46757 19.0631 3.47033 19.1065 3.48367C19.1637 3.50123 19.2399 3.53937 19.3011 3.61693C19.3567 3.68741 19.3743 3.75844 19.3806 3.7971C19.3869 3.83561 19.3857 3.86571 19.385 3.87796L18.5863 3.83252ZM18.3849 3.63087C18.4818 3.63133 18.5852 3.71597 18.5856 3.85633L19.3856 3.85415C19.3841 3.30396 18.9541 2.83354 18.3887 2.83088L18.3849 3.63087ZM18.255 3.6872C18.2891 3.65251 18.336 3.63124 18.3896 3.63087L18.384 2.83089C18.1128 2.83278 17.8641 2.94368 17.6845 3.12634L18.255 3.6872ZM17.5859 3.29191C17.5858 3.29218 17.5854 3.29331 17.5851 3.2945C17.5848 3.29568 17.5841 3.29796 17.5833 3.30074C17.5827 3.30323 17.5813 3.30828 17.5798 3.31462C17.5788 3.31892 17.5752 3.33385 17.5726 3.35316C17.5713 3.36222 17.5687 3.38285 17.5688 3.40923C17.5688 3.41936 17.5669 3.50225 17.6138 3.5925C17.642 3.64671 17.6997 3.72591 17.8053 3.7732C17.9131 3.82153 18.0146 3.81145 18.0806 3.79224C18.187 3.76129 18.2485 3.69433 18.2553 3.68743C18.2877 3.6542 18.307 3.62207 18.3083 3.61997C18.3143 3.61037 18.3187 3.60246 18.3207 3.59874L17.6189 3.21481C17.6205 3.21184 17.6245 3.20452 17.6303 3.19535C17.6313 3.19369 17.6504 3.16185 17.6826 3.12878C17.6893 3.12195 17.7508 3.05504 17.8571 3.02411C17.9231 3.00491 18.0246 2.99483 18.1324 3.04315C18.2379 3.09043 18.2956 3.16961 18.3238 3.22379C18.3706 3.314 18.3687 3.39681 18.3688 3.40684C18.3689 3.43312 18.3663 3.45362 18.365 3.46252C18.3599 3.49978 18.347 3.53931 18.3538 3.5162L17.5859 3.29191ZM17.7634 3.73469C17.6326 3.65491 17.5945 3.53324 17.5838 3.49018C17.5712 3.43982 17.5717 3.39892 17.5722 3.38245C17.5733 3.34687 17.5791 3.31992 17.5803 3.3144C17.5836 3.29886 17.5876 3.28595 17.5858 3.292L18.3538 3.51611C18.354 3.51552 18.3552 3.51118 18.3566 3.50626C18.3578 3.50169 18.3604 3.49212 18.3629 3.48021C18.3645 3.47258 18.3707 3.44374 18.3718 3.4067C18.3723 3.38951 18.3728 3.348 18.3601 3.29715C18.3493 3.25362 18.311 3.13162 18.1799 3.05166L17.7634 3.73469ZM14.2225 7.46589L18.2456 3.68464L17.6977 3.10171L13.6746 6.88296L14.2225 7.46589ZM10.356 0.598142L13.5878 7.34718L14.3093 7.00167L11.0775 0.252627L10.356 0.598142ZM10.0132 0.401158C10.1482 0.40052 10.2847 0.479996 10.372 0.628316L11.0614 0.222453C10.8566 -0.125559 10.4785 -0.40105 10.0094 -0.398833L10.0132 0.401158ZM9.62623 0.645818C9.70407 0.492122 9.85105 0.400104 10.0086 0.401154L10.0139 -0.398829C9.52657 -0.402077 9.11514 -0.115691 8.91253 0.284382L9.62623 0.645818ZM6.41586 7.34871L9.63013 0.63789L8.90863 0.29231L5.69436 7.00313L6.41586 7.34871ZM1.68008 3.61478L5.78124 7.46746L6.32898 6.88438L2.22783 3.0317L1.68008 3.61478ZM1.62383 3.60006C1.62881 3.59998 1.65653 3.60134 1.71804 3.64627L2.18986 3.00021C2.05598 2.90244 1.8582 2.79578 1.60962 2.80019L1.62383 3.60006ZM1.41622 3.82282C1.41584 3.68464 1.52047 3.59968 1.61484 3.60012L1.61861 2.80013C1.05069 2.79746 0.614715 3.27265 0.616221 3.82501L1.41622 3.82282ZM1.06766 4.23636C1.06771 4.23635 1.06848 4.23623 1.06935 4.23609C1.0703 4.23594 1.07177 4.23571 1.07354 4.2354C1.07703 4.23482 1.08261 4.23383 1.08941 4.23241C1.10281 4.22961 1.12432 4.22446 1.14972 4.21494C1.20633 4.19373 1.26811 4.15606 1.31938 4.09472C1.40805 3.98866 1.41409 3.87269 1.41557 3.84661L0.616864 3.80122C0.61745 3.79091 0.620694 3.68319 0.705598 3.58163C0.810957 3.45559 0.956535 3.44402 0.94414 3.44595L1.06766 4.23636ZM1.27338 4.13542C1.17311 4.22932 1.05214 4.23879 1.06764 4.23636L0.944161 3.44595C0.944112 3.44596 0.943487 3.44606 0.94278 3.44617C0.942019 3.44629 0.940845 3.44648 0.939425 3.44671C0.936643 3.44718 0.932202 3.44794 0.926794 3.44901C0.916171 3.45111 0.899019 3.45491 0.878509 3.46161C0.834366 3.47605 0.778685 3.50266 0.726533 3.5515L1.27338 4.13542ZM2.66682 13.7147L1.39672 3.79267L0.603192 3.89425L1.87329 13.8162L2.66682 13.7147ZM1.87016 13.7748C1.87076 13.8004 1.8737 13.8346 1.88359 13.8736L2.65901 13.6768C2.66727 13.7093 2.6695 13.737 2.66995 13.7561L1.87016 13.7748ZM2.66807 13.7244L2.66682 13.7147L1.87329 13.8162L1.87454 13.826L2.66807 13.7244ZM1.87296 13.7106C1.87291 13.7112 1.86937 13.7409 1.87016 13.7748L2.66995 13.7561C2.67027 13.77 2.66966 13.7807 2.66928 13.7863C2.66894 13.7911 2.66852 13.7949 2.66886 13.7915L1.87296 13.7106ZM1.87406 13.7794C1.87104 13.753 1.87165 13.7323 1.87216 13.7222C1.87262 13.7131 1.87346 13.7058 1.87296 13.7106L2.66886 13.7915C2.66897 13.7905 2.6704 13.7773 2.67114 13.7626C2.67194 13.7468 2.67253 13.7205 2.6689 13.6887L1.87406 13.7794ZM3.5531 14.8725C3.08726 14.6861 2.73282 14.2388 2.6688 13.6879L1.87415 13.7802C1.97151 14.6181 2.51309 15.3181 3.25595 15.6153L3.5531 14.8725ZM9.96542 15.5995C7.16705 15.6244 4.79603 15.3172 3.53935 14.8673L3.26969 15.6205C4.65885 16.1178 7.14137 16.4247 9.97254 16.3994L9.96542 15.5995ZM16.4932 14.7129C15.2488 15.2049 12.8306 15.5708 9.96497 15.5995L9.97299 16.3994C12.8694 16.3704 15.4051 16.0033 16.7873 15.4569L16.4932 14.7129Z" fill="url(#paint1_linear_316_592)" mask="url(#path-4-inside-1_316_592)"/>
<path d="M10.752 6.86114V14.0011H9.66195V8.17114C9.22195 8.58448 8.67529 8.88448 8.02195 9.07114V7.99114C8.34195 7.91114 8.68195 7.77114 9.04195 7.57114C9.40195 7.34448 9.69529 7.10781 9.92195 6.86114H10.752Z" fill="#FEAE30"/>
<defs>
<linearGradient id="paint0_linear_316_592" x1="1.99995" y1="10.2867" x2="18" y2="10.2867" gradientUnits="userSpaceOnUse">
<stop offset="0.183594" stop-color="#FED530"/>
<stop offset="0.5" stop-color="#FFFBEB"/>
<stop offset="0.8125" stop-color="#FED530"/>
</linearGradient>
<linearGradient id="paint1_linear_316_592" x1="6.49995" y1="1.14398" x2="11.5895" y2="15.6177" gradientUnits="userSpaceOnUse">
<stop stop-color="#FF9519" stop-opacity="0.35"/>
<stop offset="1" stop-color="#FF9519" stop-opacity="0"/>
</linearGradient>
</defs>
</svg>
