<svg width="20" height="17" viewBox="0 0 20 17" fill="none" xmlns="http://www.w3.org/2000/svg">
<path d="M5.1211 1.75061C5.3068 1.45349 5.6932 1.45349 5.8789 1.75061L9.23525 7.12078C9.3509 7.30581 9.3509 7.55437 9.23525 7.73939L5.8789 13.1096C5.6932 13.4067 5.3068 13.4067 5.1211 13.1096L1.76475 7.73939C1.6491 7.55437 1.6491 7.30581 1.76475 7.12078L5.1211 1.75061Z" fill="#5F9FE9"/>
<path d="M14.1211 1.75061C14.3068 1.45349 14.6932 1.45349 14.8789 1.75061L18.2353 7.12078C18.3509 7.30581 18.3509 7.55437 18.2353 7.73939L14.8789 13.1096C14.6932 13.4067 14.3068 13.4067 14.1211 13.1096L10.7647 7.73939C10.6491 7.55437 10.6491 7.30581 10.7647 7.12078L14.1211 1.75061Z" fill="#5F9FE9"/>
<path fill-rule="evenodd" clip-rule="evenodd" d="M16.6403 15.0851C17.2219 14.8328 17.6498 14.2747 17.7261 13.5993C17.7221 13.6325 17.7254 13.6605 17.7288 13.6889C17.7307 13.7052 17.7327 13.7217 17.7333 13.7393L19 3.86993C18.9973 3.86713 18.9944 3.86683 18.9919 3.86658C18.9879 3.86616 18.9851 3.86586 18.9857 3.8553C18.9847 3.51002 18.718 3.23249 18.3868 3.23093C18.2244 3.23206 18.0767 3.29815 17.9698 3.40683C17.9682 3.40983 17.9688 3.40758 17.9699 3.40411C17.9711 3.39991 17.9728 3.39392 17.9717 3.39323L13.9486 7.17454L10.7168 0.425391C10.5707 0.177221 10.3134 -0.000265302 10.0113 0.00116253C9.68886 -0.000986617 9.40965 0.188218 9.26943 0.465107L6.05516 7.17603L1.954 3.32329C1.8563 3.25194 1.74355 3.19793 1.61677 3.20018C1.28562 3.19862 1.01532 3.4787 1.01627 3.82398C1.01537 3.83975 1.01066 3.84048 1.00595 3.84122C1.00385 3.84155 1.00176 3.84187 1 3.84352L2.2701 13.7657C2.27018 13.7689 2.27053 13.7722 2.27135 13.7754L2.2701 13.7657C2.26999 13.7608 2.27048 13.756 2.27096 13.7513C2.27156 13.7454 2.27214 13.7397 2.27152 13.7343C2.35221 14.4287 2.80022 15.0023 3.40457 15.2441C4.72749 15.7178 7.15426 16.0248 9.96903 15.9997C12.85 15.9709 15.327 15.6043 16.6403 15.0851Z" fill="url(#paint0_linear_316_603)"/>
<mask id="path-4-inside-1_316_603" fill="white">
<path fill-rule="evenodd" clip-rule="evenodd" d="M16.6403 15.0851C17.2219 14.8328 17.6498 14.2747 17.7261 13.5993C17.7221 13.6325 17.7254 13.6605 17.7288 13.6889C17.7307 13.7052 17.7327 13.7217 17.7333 13.7393L19 3.86993C18.9973 3.86713 18.9944 3.86683 18.9919 3.86658C18.9879 3.86616 18.9851 3.86586 18.9857 3.8553C18.9847 3.51002 18.718 3.23249 18.3868 3.23093C18.2244 3.23206 18.0767 3.29815 17.9698 3.40683C17.9682 3.40983 17.9688 3.40758 17.9699 3.40411C17.9711 3.39991 17.9728 3.39392 17.9717 3.39323L13.9486 7.17454L10.7168 0.425391C10.5707 0.177221 10.3134 -0.000265302 10.0113 0.00116253C9.68886 -0.000986617 9.40965 0.188218 9.26943 0.465107L6.05516 7.17603L1.954 3.32329C1.8563 3.25194 1.74355 3.19793 1.61677 3.20018C1.28562 3.19862 1.01532 3.4787 1.01627 3.82398C1.01537 3.83975 1.01066 3.84048 1.00595 3.84122C1.00385 3.84155 1.00176 3.84187 1 3.84352L2.2701 13.7657C2.27018 13.7689 2.27053 13.7722 2.27135 13.7754L2.2701 13.7657C2.26999 13.7608 2.27048 13.756 2.27096 13.7513C2.27156 13.7454 2.27214 13.7397 2.27152 13.7343C2.35221 14.4287 2.80022 15.0023 3.40457 15.2441C4.72749 15.7178 7.15426 16.0248 9.96903 15.9997C12.85 15.9709 15.327 15.6043 16.6403 15.0851Z"/>
</mask>
<path d="M17.7261 13.5993L18.1235 13.6442L17.3289 13.5521L17.7261 13.5993ZM16.6403 15.0851L16.7874 15.4573L16.7995 15.4521L16.6403 15.0851ZM17.7288 13.6889L17.3316 13.7359L17.3316 13.736L17.7288 13.6889ZM17.7333 13.7393L17.3335 13.7525L18.13 13.7902L17.7333 13.7393ZM19 3.86993L19.3967 3.92085L19.4214 3.72858L19.2858 3.59008L19 3.86993ZM18.9919 3.86658L19.0335 3.46874H19.0335L18.9919 3.86658ZM18.9857 3.8553L19.385 3.87802L19.3857 3.86613L19.3857 3.85421L18.9857 3.8553ZM18.3868 3.23093L18.3887 2.83091L18.384 2.83094L18.3868 3.23093ZM17.9698 3.40683L17.6846 3.1264L17.6455 3.16613L17.6188 3.21502L17.9698 3.40683ZM17.9699 3.40411L18.3538 3.51628L18.3538 3.51616L17.9699 3.40411ZM17.9717 3.39323L18.1797 3.05159L17.9196 2.89319L17.6977 3.10176L17.9717 3.39323ZM13.9486 7.17454L13.5878 7.3473L13.8241 7.84057L14.2226 7.466L13.9486 7.17454ZM10.7168 0.425391L11.0776 0.252636L11.0702 0.237205L11.0615 0.222462L10.7168 0.425391ZM10.0113 0.00116253L10.0086 0.40118L10.0132 0.401158L10.0113 0.00116253ZM9.26943 0.465107L8.91249 0.284347L8.90867 0.29232L9.26943 0.465107ZM6.05516 7.17603L5.78128 7.46757L6.17975 7.8419L6.41591 7.34882L6.05516 7.17603ZM1.954 3.32329L2.22787 3.03176L2.20987 3.01484L2.18991 3.00027L1.954 3.32329ZM1.61677 3.20018L1.61489 3.60028L1.62388 3.60012L1.61677 3.20018ZM1.01627 3.82398L1.41562 3.84667L1.4163 3.83479L1.41626 3.82288L1.01627 3.82398ZM1.00595 3.84122L1.06769 4.23642L1.06771 4.23642L1.00595 3.84122ZM1 3.84352L0.726583 3.55156L0.577263 3.69139L0.603237 3.89431L1 3.84352ZM2.27135 13.7754L1.88363 13.8738L2.66811 13.7246L2.27135 13.7754ZM2.27096 13.7513L2.66891 13.7918L2.66891 13.7917L2.27096 13.7513ZM2.27152 13.7343L2.66885 13.6881L1.8741 13.7796L2.27152 13.7343ZM3.40457 15.2441L3.25599 15.6155L3.26282 15.6182L3.26974 15.6207L3.40457 15.2441ZM9.96903 15.9997L9.97259 16.3997L9.97303 16.3997L9.96903 15.9997ZM17.3286 13.5544C17.2684 14.0872 16.9316 14.5227 16.4811 14.7182L16.7995 15.4521C17.5121 15.1429 18.0312 14.4621 18.1235 13.6442L17.3286 13.5544ZM18.126 13.6419C18.1251 13.6342 18.1247 13.6305 18.1244 13.6273C18.1241 13.6246 18.1241 13.6242 18.1242 13.6253C18.1243 13.6283 18.1245 13.6362 18.1233 13.6466L17.3289 13.5521C17.3186 13.6381 17.3285 13.7099 17.3316 13.7359L18.126 13.6419ZM18.133 13.726C18.1318 13.6889 18.1277 13.6562 18.126 13.6419L17.3316 13.736C17.3326 13.7448 17.3331 13.7486 17.3334 13.7518C17.3336 13.7545 17.3335 13.7543 17.3335 13.7525L18.133 13.726ZM18.6033 3.819L17.3365 13.6883L18.13 13.7902L19.3967 3.92085L18.6033 3.819ZM18.9504 4.26441C18.9558 4.26498 18.9153 4.26208 18.8693 4.24676C18.815 4.22866 18.7605 4.1971 18.7142 4.14978L19.2858 3.59008C19.1762 3.47816 19.0437 3.46981 19.0335 3.46874L18.9504 4.26441ZM18.5863 3.83258C18.586 3.83806 18.5703 3.98227 18.673 4.11249C18.7354 4.1915 18.813 4.23046 18.8718 4.24852C18.898 4.25655 18.9196 4.26025 18.9313 4.262C18.9374 4.26292 18.9424 4.26353 18.9454 4.26387C18.9469 4.26404 18.9482 4.26418 18.949 4.26426C18.9497 4.26434 18.9503 4.26441 18.9504 4.26441L19.0335 3.46874C19.0228 3.46763 19.0631 3.47039 19.1066 3.48373C19.1638 3.50129 19.2399 3.53943 19.3011 3.61699C19.3567 3.68748 19.3743 3.7585 19.3806 3.79716C19.3869 3.83567 19.3857 3.86577 19.385 3.87802L18.5863 3.83258ZM18.385 3.63092C18.4818 3.63138 18.5853 3.71602 18.5857 3.85639L19.3857 3.85421C19.3842 3.30402 18.9542 2.83359 18.3887 2.83093L18.385 3.63092ZM18.2551 3.68725C18.2892 3.65256 18.336 3.63129 18.3896 3.63092L18.384 2.83094C18.1128 2.83283 17.8642 2.94373 17.6846 3.1264L18.2551 3.68725ZM17.5859 3.29194C17.5858 3.29224 17.5855 3.29337 17.5851 3.29458C17.5848 3.29577 17.5841 3.29806 17.5834 3.30085C17.5827 3.30335 17.5813 3.30841 17.5798 3.31476C17.5788 3.31908 17.5752 3.33401 17.5726 3.35335C17.5713 3.36241 17.5687 3.38306 17.5688 3.40945C17.5689 3.41959 17.567 3.50253 17.614 3.59281C17.6422 3.64704 17.7 3.7262 17.8056 3.7734C17.9135 3.82162 18.015 3.81146 18.0809 3.79222C18.1872 3.76122 18.2487 3.69427 18.2554 3.68736C18.2878 3.65412 18.3071 3.62199 18.3084 3.61988C18.3144 3.61027 18.3188 3.60236 18.3208 3.59863L17.6188 3.21502C17.6204 3.21205 17.6245 3.20472 17.6302 3.19555C17.6313 3.19388 17.6503 3.16204 17.6826 3.12895C17.6892 3.12212 17.7507 3.05522 17.8569 3.02424C17.9228 3.00501 18.0242 2.99484 18.1321 3.04305C18.2377 3.09024 18.2955 3.16939 18.3237 3.2236C18.3706 3.31383 18.3688 3.3967 18.3688 3.40673C18.3689 3.43302 18.3663 3.45354 18.3651 3.46245C18.36 3.49979 18.3471 3.53929 18.3538 3.51628L17.5859 3.29194ZM17.7636 3.73486C17.6328 3.65521 17.5946 3.53366 17.5839 3.4905C17.5713 3.44009 17.5717 3.39915 17.5722 3.38266C17.5733 3.34703 17.5792 3.32004 17.5803 3.31451C17.5836 3.29894 17.5876 3.28602 17.5859 3.29206L18.3538 3.51616C18.354 3.51556 18.3553 3.51122 18.3566 3.5063C18.3579 3.50171 18.3605 3.49213 18.363 3.4802C18.3646 3.47257 18.3708 3.44369 18.3719 3.40661C18.3724 3.38938 18.3728 3.34783 18.3601 3.29695C18.3492 3.25331 18.3108 3.13142 18.1797 3.05159L17.7636 3.73486ZM14.2226 7.466L18.2456 3.68469L17.6977 3.10176L13.6747 6.88308L14.2226 7.466ZM10.356 0.598147L13.5878 7.3473L14.3094 7.00178L11.0776 0.252636L10.356 0.598147ZM10.0132 0.401158C10.1483 0.40052 10.2848 0.479996 10.3721 0.628321L11.0615 0.222462C10.8566 -0.125554 10.4785 -0.40105 10.0094 -0.398833L10.0132 0.401158ZM9.62628 0.645824C9.70411 0.492121 9.8511 0.400104 10.0086 0.401154L10.014 -0.398829C9.52661 -0.402077 9.11518 -0.115684 8.91258 0.284391L9.62628 0.645824ZM6.41591 7.34882L9.63018 0.637895L8.90867 0.29232L5.6944 7.00325L6.41591 7.34882ZM1.68012 3.61483L5.78128 7.46757L6.32903 6.8845L2.22787 3.03176L1.68012 3.61483ZM1.62388 3.60012C1.62885 3.60003 1.65657 3.60139 1.71809 3.64632L2.18991 3.00027C2.05603 2.90249 1.85825 2.79583 1.60967 2.80024L1.62388 3.60012ZM1.41626 3.82288C1.41589 3.68468 1.52052 3.59973 1.61489 3.60017L1.61865 2.80018C1.05073 2.79751 0.614761 3.27271 0.616267 3.82507L1.41626 3.82288ZM1.06771 4.23642C1.06775 4.23641 1.06852 4.23629 1.0694 4.23616C1.07034 4.236 1.07181 4.23577 1.07359 4.23547C1.07707 4.23488 1.08266 4.23389 1.08946 4.23247C1.10286 4.22967 1.12436 4.22452 1.14977 4.215C1.20638 4.19379 1.26816 4.15612 1.31943 4.09478C1.40809 3.98872 1.41414 3.87275 1.41562 3.84667L0.61691 3.80128C0.617496 3.79098 0.620739 3.68325 0.705642 3.58169C0.811002 3.45565 0.956582 3.44408 0.944187 3.44602L1.06771 4.23642ZM1.27342 4.13548C1.17315 4.22938 1.05218 4.23885 1.06769 4.23642L0.944207 3.44601C0.944158 3.44602 0.943533 3.44612 0.942826 3.44623C0.942065 3.44635 0.940891 3.44654 0.939471 3.44677C0.936689 3.44724 0.932249 3.448 0.92684 3.44907C0.916218 3.45117 0.899066 3.45497 0.878556 3.46167C0.834413 3.47611 0.778734 3.50272 0.726583 3.55156L1.27342 4.13548ZM2.66686 13.7149L1.39676 3.79273L0.603237 3.89431L1.87334 13.8164L2.66686 13.7149ZM1.87021 13.775C1.87081 13.8006 1.87375 13.8348 1.88363 13.8738L2.65907 13.6771C2.66731 13.7095 2.66955 13.7372 2.66999 13.7563L1.87021 13.775ZM2.66811 13.7246L2.66686 13.7149L1.87334 13.8164L1.87459 13.8262L2.66811 13.7246ZM1.87301 13.7108C1.87295 13.7114 1.86942 13.7411 1.87021 13.775L2.66999 13.7563C2.67032 13.7702 2.66971 13.781 2.66932 13.7865C2.66898 13.7913 2.66857 13.7951 2.66891 13.7918L1.87301 13.7108ZM1.8741 13.7796C1.87109 13.7532 1.8717 13.7325 1.87221 13.7224C1.87266 13.7134 1.8735 13.706 1.87301 13.7108L2.66891 13.7917C2.66901 13.7907 2.67044 13.7775 2.67119 13.7628C2.67198 13.747 2.67258 13.7208 2.66895 13.6889L1.8741 13.7796ZM3.55315 14.8727C3.08731 14.6864 2.73286 14.239 2.66885 13.6881L1.8742 13.7804C1.97155 14.6183 2.51313 15.3183 3.25599 15.6155L3.55315 14.8727ZM9.96546 15.5997C7.1671 15.6246 4.79608 15.3175 3.5394 14.8675L3.26974 15.6207C4.6589 16.1181 7.14142 16.4249 9.97259 16.3997L9.96546 15.5997ZM16.4933 14.7132C15.2488 15.2051 12.8307 15.571 9.96502 15.5997L9.97303 16.3997C12.8694 16.3707 15.4052 16.0035 16.7874 15.4571L16.4933 14.7132Z" fill="url(#paint1_linear_316_603)" mask="url(#path-4-inside-1_316_603)"/>
<path d="M10.112 6.72114C10.8053 6.72114 11.3686 6.91781 11.802 7.31114C12.2353 7.71114 12.452 8.22448 12.452 8.85114C12.452 9.45781 12.2186 10.0211 11.752 10.5411C11.472 10.8278 10.9786 11.2111 10.272 11.6911C9.50529 12.1978 9.04529 12.6478 8.89195 13.0411H12.462V14.0011H7.54195C7.54195 13.2878 7.77862 12.6645 8.25195 12.1311C8.49862 11.8378 9.03529 11.4045 9.86195 10.8311C10.3486 10.4845 10.6886 10.2111 10.882 10.0111C11.2086 9.64448 11.372 9.25448 11.372 8.84114C11.372 8.44114 11.262 8.14114 11.042 7.94114C10.822 7.74114 10.4986 7.64114 10.072 7.64114C9.61862 7.64114 9.27862 7.79448 9.05195 8.10114C8.81862 8.39448 8.69195 8.83114 8.67195 9.41114H7.58195C7.59529 8.61114 7.82529 7.97114 8.27195 7.49114C8.72529 6.97781 9.33862 6.72114 10.112 6.72114Z" fill="#5F9FE9"/>
<defs>
<linearGradient id="paint0_linear_316_603" x1="2" y1="10.2869" x2="18" y2="10.2869" gradientUnits="userSpaceOnUse">
<stop offset="0.183594" stop-color="#C6D3FF"/>
<stop offset="0.5" stop-color="#FCFEFD"/>
<stop offset="0.8125" stop-color="#B3C6FE"/>
</linearGradient>
<linearGradient id="paint1_linear_316_603" x1="6.5" y1="1.144" x2="11.5897" y2="15.6179" gradientUnits="userSpaceOnUse">
<stop stop-color="#8EB4FB" stop-opacity="0.58"/>
<stop offset="1" stop-color="#9DBFFE" stop-opacity="0"/>
</linearGradient>
</defs>
</svg>
