<svg width="20" height="17" viewBox="0 0 20 17" fill="none" xmlns="http://www.w3.org/2000/svg">
<path d="M5.12098 1.75024C5.30668 1.45311 5.69307 1.45311 5.87878 1.75024L9.23507 7.1204C9.35071 7.30543 9.35071 7.55399 9.23507 7.73902L5.87878 13.1092C5.69307 13.4063 5.30668 13.4063 5.12098 13.1092L1.76468 7.73902C1.64904 7.55399 1.64904 7.30543 1.76468 7.1204L5.12098 1.75024Z" fill="#E48658"/>
<path d="M14.1209 1.75024C14.3066 1.45311 14.693 1.45311 14.8787 1.75024L18.235 7.1204C18.3506 7.30543 18.3506 7.55399 18.235 7.73902L14.8787 13.1092C14.693 13.4063 14.3066 13.4063 14.1209 13.1092L10.7646 7.73902C10.6489 7.55399 10.6489 7.30543 10.7646 7.1204L14.1209 1.75024Z" fill="#E48658"/>
<path fill-rule="evenodd" clip-rule="evenodd" d="M16.6401 15.0851C17.2216 14.8328 17.6495 14.2747 17.7258 13.5993C17.7218 13.6325 17.7252 13.6605 17.7285 13.6889C17.7304 13.7052 17.7324 13.7217 17.733 13.7393L18.9997 3.86993C18.997 3.86713 18.9941 3.86683 18.9916 3.86658C18.9876 3.86616 18.9848 3.86586 18.9854 3.8553C18.9844 3.51002 18.7177 3.23249 18.3865 3.23093C18.2241 3.23206 18.0764 3.29815 17.9695 3.40683C17.9679 3.40983 17.9686 3.40758 17.9696 3.40411C17.9708 3.39991 17.9725 3.39392 17.9714 3.39323L13.9484 7.17454L10.7166 0.425391C10.5705 0.177221 10.3132 -0.000265319 10.0112 0.00116253C9.6887 -0.0009866 9.4095 0.188218 9.26928 0.465107L6.05506 7.17603L1.95397 3.32329C1.85627 3.25194 1.74352 3.19793 1.61675 3.20018C1.2856 3.19862 1.01531 3.4787 1.01625 3.82398C1.01535 3.83975 1.01064 3.84048 1.00593 3.84122C1.00384 3.84155 1.00174 3.84187 0.999985 3.84352L2.27006 13.7657C2.27014 13.7689 2.27049 13.7722 2.27131 13.7754L2.27006 13.7657C2.26995 13.7608 2.27044 13.756 2.27092 13.7513C2.27152 13.7454 2.2721 13.7397 2.27149 13.7343C2.35217 14.4287 2.80017 15.0023 3.40451 15.2441C4.72741 15.7178 7.15414 16.0248 9.96887 15.9997C12.8498 15.9709 15.3268 15.6043 16.6401 15.0851Z" fill="url(#paint0_linear_316_614)"/>
<mask id="path-4-inside-1_316_614" fill="white">
<path fill-rule="evenodd" clip-rule="evenodd" d="M16.6401 15.0851C17.2216 14.8328 17.6495 14.2747 17.7258 13.5993C17.7218 13.6325 17.7252 13.6605 17.7285 13.6889C17.7304 13.7052 17.7324 13.7217 17.733 13.7393L18.9997 3.86993C18.997 3.86713 18.9941 3.86683 18.9916 3.86658C18.9876 3.86616 18.9848 3.86586 18.9854 3.8553C18.9844 3.51002 18.7177 3.23249 18.3865 3.23093C18.2241 3.23206 18.0764 3.29815 17.9695 3.40683C17.9679 3.40983 17.9686 3.40758 17.9696 3.40411C17.9708 3.39991 17.9725 3.39392 17.9714 3.39323L13.9484 7.17454L10.7166 0.425391C10.5705 0.177221 10.3132 -0.000265319 10.0112 0.00116253C9.6887 -0.0009866 9.4095 0.188218 9.26928 0.465107L6.05506 7.17603L1.95397 3.32329C1.85627 3.25194 1.74352 3.19793 1.61675 3.20018C1.2856 3.19862 1.01531 3.4787 1.01625 3.82398C1.01535 3.83975 1.01064 3.84048 1.00593 3.84122C1.00384 3.84155 1.00174 3.84187 0.999985 3.84352L2.27006 13.7657C2.27014 13.7689 2.27049 13.7722 2.27131 13.7754L2.27006 13.7657C2.26995 13.7608 2.27044 13.756 2.27092 13.7513C2.27152 13.7454 2.2721 13.7397 2.27149 13.7343C2.35217 14.4287 2.80017 15.0023 3.40451 15.2441C4.72741 15.7178 7.15414 16.0248 9.96887 15.9997C12.8498 15.9709 15.3268 15.6043 16.6401 15.0851Z"/>
</mask>
<path d="M17.7258 13.5993L18.1232 13.6442L17.3286 13.5521L17.7258 13.5993ZM16.6401 15.0851L16.7872 15.4573L16.7993 15.4521L16.6401 15.0851ZM17.7285 13.6889L17.3313 13.7359L17.3313 13.736L17.7285 13.6889ZM17.733 13.7393L17.3332 13.7525L18.1297 13.7902L17.733 13.7393ZM18.9997 3.86993L19.3964 3.92085L19.4211 3.72857L19.2855 3.59006L18.9997 3.86993ZM18.9916 3.86658L19.0332 3.46875L19.0332 3.46874L18.9916 3.86658ZM18.9854 3.8553L19.3847 3.87802L19.3854 3.86612L19.3854 3.85421L18.9854 3.8553ZM18.3865 3.23093L18.3884 2.83091L18.3837 2.83094L18.3865 3.23093ZM17.9695 3.40683L17.6843 3.1264L17.6453 3.16608L17.6186 3.21489L17.9695 3.40683ZM17.9696 3.40411L17.5856 3.29205L17.5855 3.29218L17.9696 3.40411ZM17.9714 3.39323L18.1796 3.05171L17.9195 2.89307L17.6974 3.10176L17.9714 3.39323ZM13.9484 7.17454L13.5876 7.34729L13.8238 7.84058L14.2224 7.466L13.9484 7.17454ZM10.7166 0.425391L11.0774 0.252638L11.07 0.237208L11.0613 0.222465L10.7166 0.425391ZM10.0112 0.00116253L10.0085 0.40118L10.013 0.401158L10.0112 0.00116253ZM9.26928 0.465107L8.91234 0.284349L8.90852 0.292322L9.26928 0.465107ZM6.05506 7.17603L5.78118 7.46757L6.17965 7.84191L6.41582 7.34882L6.05506 7.17603ZM1.95397 3.32329L2.22785 3.03176L2.20984 3.01484L2.18988 3.00027L1.95397 3.32329ZM1.61675 3.20018L1.61486 3.60028L1.62385 3.60012L1.61675 3.20018ZM1.01625 3.82398L1.41561 3.84667L1.41628 3.83479L1.41625 3.82288L1.01625 3.82398ZM1.00593 3.84122L1.06767 4.23643L1.06769 4.23642L1.00593 3.84122ZM0.999985 3.84352L0.726565 3.55156L0.577248 3.69139L0.603222 3.89431L0.999985 3.84352ZM2.27131 13.7754L1.8836 13.8738L2.66808 13.7246L2.27131 13.7754ZM2.27092 13.7513L2.66887 13.7918L2.66887 13.7917L2.27092 13.7513ZM2.27149 13.7343L2.66882 13.6881L1.87407 13.7796L2.27149 13.7343ZM3.40451 15.2441L3.25593 15.6155L3.26276 15.6182L3.26968 15.6207L3.40451 15.2441ZM9.96887 15.9997L9.97243 16.3997L9.97287 16.3997L9.96887 15.9997ZM17.3283 13.5544C17.2681 14.0872 16.9313 14.5227 16.4808 14.7182L16.7993 15.4521C17.5119 15.1429 18.0309 14.4621 18.1232 13.6442L17.3283 13.5544ZM18.1257 13.6419C18.1248 13.6342 18.1244 13.6305 18.1241 13.6273C18.1238 13.6246 18.1238 13.6242 18.1239 13.6253C18.124 13.6283 18.1242 13.6362 18.123 13.6466L17.3286 13.5521C17.3183 13.6381 17.3282 13.7099 17.3313 13.7359L18.1257 13.6419ZM18.1328 13.726C18.1315 13.6889 18.1274 13.6562 18.1257 13.6419L17.3313 13.736C17.3323 13.7448 17.3328 13.7486 17.3331 13.7518C17.3333 13.7544 17.3333 13.7543 17.3332 13.7525L18.1328 13.726ZM18.6029 3.819L17.3362 13.6883L18.1297 13.7902L19.3964 3.92085L18.6029 3.819ZM18.95 4.2644C18.9555 4.26497 18.9149 4.26207 18.869 4.24675C18.8147 4.22866 18.7602 4.1971 18.7139 4.14979L19.2855 3.59006C19.1759 3.47817 19.0435 3.46982 19.0332 3.46875L18.95 4.2644ZM18.586 3.83258C18.5857 3.83806 18.57 3.98226 18.6727 4.11249C18.7351 4.19149 18.8127 4.23045 18.8715 4.24851C18.8977 4.25654 18.9193 4.26024 18.9309 4.26199C18.9371 4.26292 18.9421 4.26352 18.9451 4.26386C18.9466 4.26404 18.9478 4.26417 18.9486 4.26426C18.9494 4.26434 18.95 4.26441 18.9501 4.26441L19.0332 3.46874C19.0225 3.46763 19.0628 3.47039 19.1063 3.48373C19.1635 3.50129 19.2396 3.53944 19.3008 3.617C19.3564 3.68748 19.374 3.7585 19.3803 3.79716C19.3866 3.83567 19.3854 3.86577 19.3847 3.87802L18.586 3.83258ZM18.3847 3.63092C18.4815 3.63138 18.585 3.71602 18.5854 3.85639L19.3854 3.85421C19.3839 3.30402 18.9539 2.83359 18.3884 2.83093L18.3847 3.63092ZM18.2548 3.68725C18.2889 3.65256 18.3357 3.63129 18.3893 3.63092L18.3837 2.83094C18.1125 2.83283 17.8639 2.94373 17.6843 3.1264L18.2548 3.68725ZM17.5855 3.29218C17.5855 3.29244 17.5851 3.29357 17.5848 3.29475C17.5845 3.29593 17.5838 3.2982 17.5831 3.30098C17.5824 3.30346 17.581 3.30851 17.5795 3.31485C17.5785 3.31916 17.5749 3.33408 17.5723 3.3534C17.571 3.36247 17.5685 3.38309 17.5685 3.40946C17.5686 3.41964 17.5668 3.50239 17.6136 3.59252C17.6416 3.64661 17.6992 3.72569 17.8045 3.77304C17.9122 3.82146 18.0137 3.8116 18.0799 3.79243C18.1865 3.76157 18.2482 3.69451 18.2549 3.68759C18.2874 3.65431 18.3067 3.62212 18.308 3.62003C18.3141 3.61041 18.3184 3.60249 18.3205 3.59877L17.6186 3.21489C17.6202 3.21191 17.6243 3.20458 17.63 3.1954C17.6311 3.19374 17.6502 3.16185 17.6825 3.12873C17.6892 3.12188 17.7508 3.05487 17.8573 3.02402C17.9235 3.00486 18.025 2.995 18.1326 3.04341C18.2379 3.09075 18.2955 3.16981 18.3236 3.22389C18.3703 3.31397 18.3685 3.39664 18.3685 3.40672C18.3686 3.43299 18.3661 3.45348 18.3648 3.46239C18.3597 3.49964 18.3468 3.5392 18.3536 3.51603L17.5855 3.29218ZM17.7631 3.73474C17.6323 3.65497 17.5942 3.53333 17.5835 3.49025C17.571 3.43988 17.5714 3.39898 17.5719 3.3825C17.573 3.34691 17.5789 3.31996 17.5801 3.31444C17.5833 3.2989 17.5874 3.28599 17.5856 3.29205L18.3536 3.51616C18.3537 3.51558 18.355 3.51124 18.3563 3.50633C18.3576 3.50175 18.3602 3.49219 18.3627 3.48027C18.3643 3.47264 18.3705 3.4438 18.3716 3.40676C18.3721 3.38956 18.3725 3.34804 18.3599 3.29719C18.349 3.25364 18.3107 3.13166 18.1796 3.05171L17.7631 3.73474ZM14.2224 7.466L18.2453 3.68469L17.6974 3.10176L13.6744 6.88308L14.2224 7.466ZM10.3558 0.598145L13.5876 7.34729L14.3092 7.00179L11.0774 0.252638L10.3558 0.598145ZM10.013 0.401158C10.1481 0.40052 10.2846 0.479992 10.3719 0.628318L11.0613 0.222465C10.8564 -0.12555 10.4784 -0.40105 10.0093 -0.398833L10.013 0.401158ZM9.62613 0.645822C9.70397 0.492117 9.85095 0.400104 10.0085 0.401154L10.0138 -0.398829C9.52645 -0.402077 9.11503 -0.115681 8.91243 0.284393L9.62613 0.645822ZM6.41582 7.34882L9.63004 0.637893L8.90852 0.292322L5.6943 7.00325L6.41582 7.34882ZM1.68009 3.61482L5.78118 7.46757L6.32894 6.8845L2.22785 3.03176L1.68009 3.61482ZM1.62385 3.60012C1.62882 3.60003 1.65654 3.60139 1.71805 3.64632L2.18988 3.00027C2.056 2.90249 1.85822 2.79583 1.60964 2.80024L1.62385 3.60012ZM1.41625 3.82288C1.41587 3.68468 1.52051 3.59973 1.61487 3.60017L1.61863 2.80018C1.0507 2.79751 0.614745 3.27271 0.616251 3.82507L1.41625 3.82288ZM1.06769 4.23642C1.06774 4.23642 1.06851 4.23629 1.06938 4.23616C1.07033 4.236 1.0718 4.23577 1.07358 4.23547C1.07706 4.23488 1.08264 4.23389 1.08944 4.23247C1.10285 4.22967 1.12435 4.22452 1.14976 4.215C1.20637 4.19379 1.26814 4.15612 1.31942 4.09478C1.40808 3.98872 1.41412 3.87274 1.41561 3.84667L0.616895 3.80128C0.61748 3.79098 0.620723 3.68326 0.705625 3.58169C0.810984 3.45565 0.956565 3.44408 0.94417 3.44602L1.06769 4.23642ZM1.2734 4.13548C1.17314 4.22938 1.05217 4.23885 1.06767 4.23643L0.94419 3.44601C0.944142 3.44602 0.943517 3.44612 0.94281 3.44623C0.942048 3.44635 0.940874 3.44654 0.939454 3.44678C0.936672 3.44724 0.932232 3.448 0.926824 3.44907C0.916201 3.45117 0.899049 3.45497 0.878539 3.46168C0.834396 3.47611 0.778716 3.50272 0.726565 3.55156L1.2734 4.13548ZM2.66683 13.7149L1.39675 3.79273L0.603222 3.89431L1.8733 13.8164L2.66683 13.7149ZM1.87017 13.775C1.87077 13.8006 1.87371 13.8348 1.8836 13.8738L2.65902 13.677C2.66728 13.7095 2.66951 13.7372 2.66996 13.7563L1.87017 13.775ZM2.66808 13.7246L2.66683 13.7149L1.8733 13.8164L1.87455 13.8262L2.66808 13.7246ZM1.87297 13.7108C1.87292 13.7114 1.86938 13.7411 1.87017 13.775L2.66996 13.7563C2.67028 13.7702 2.66967 13.781 2.66929 13.7865C2.66895 13.7913 2.66853 13.7951 2.66887 13.7918L1.87297 13.7108ZM1.87407 13.7796C1.87105 13.7532 1.87166 13.7325 1.87217 13.7224C1.87263 13.7134 1.87347 13.706 1.87297 13.7108L2.66887 13.7917C2.66898 13.7907 2.67041 13.7775 2.67115 13.7628C2.67195 13.747 2.67254 13.7208 2.66891 13.6889L1.87407 13.7796ZM3.55309 14.8727C3.08727 14.6864 2.73283 14.239 2.66882 13.6881L1.87416 13.7804C1.97152 14.6183 2.51308 15.3183 3.25593 15.6155L3.55309 14.8727ZM9.96531 15.5997C7.16698 15.6246 4.79601 15.3175 3.53935 14.8675L3.26968 15.6207C4.65882 16.1181 7.1413 16.4249 9.97243 16.3997L9.96531 15.5997ZM16.493 14.7132C15.2486 15.2051 12.8304 15.571 9.96486 15.5997L9.97287 16.3997C12.8692 16.3707 15.4049 16.0035 16.7871 15.4571L16.493 14.7132Z" fill="url(#paint1_linear_316_614)" mask="url(#path-4-inside-1_316_614)"/>
<path d="M10.072 6.72114C10.792 6.72114 11.3686 6.89448 11.802 7.24114C12.2286 7.59448 12.442 8.07448 12.442 8.68114C12.442 9.46781 12.0486 9.99114 11.262 10.2511C11.6753 10.3778 11.9953 10.5745 12.222 10.8411C12.462 11.1078 12.582 11.4545 12.582 11.8811C12.582 12.5411 12.3553 13.0811 11.902 13.5011C11.4153 13.9278 10.792 14.1411 10.032 14.1411C9.30529 14.1411 8.71862 13.9545 8.27195 13.5811C7.77195 13.1611 7.49195 12.5511 7.43195 11.7511H8.53195C8.55195 12.2378 8.70862 12.6078 9.00195 12.8611C9.26195 13.1011 9.60195 13.2211 10.022 13.2211C10.4753 13.2211 10.8453 13.0878 11.132 12.8211C11.3786 12.5745 11.502 12.2778 11.502 11.9311C11.502 11.5111 11.372 11.2011 11.112 11.0011C10.872 10.8011 10.5153 10.7011 10.042 10.7011H9.52195V9.88114H10.032C10.4653 9.88114 10.7953 9.78448 11.022 9.59114C11.2486 9.39781 11.362 9.12114 11.362 8.76114C11.362 8.40781 11.2586 8.13448 11.052 7.94114C10.8386 7.74781 10.5153 7.65114 10.082 7.65114C9.64862 7.65114 9.31195 7.76114 9.07195 7.98114C8.82529 8.20781 8.68195 8.53781 8.64195 8.97114H7.57195C7.63195 8.26448 7.89529 7.71114 8.36195 7.31114C8.79529 6.91781 9.36529 6.72114 10.072 6.72114Z" fill="#FEAE30"/>
<defs>
<linearGradient id="paint0_linear_316_614" x1="1.99997" y1="10.2869" x2="17.9997" y2="10.2869" gradientUnits="userSpaceOnUse">
<stop offset="0.183594" stop-color="#F1AD86"/>
<stop offset="0.5" stop-color="#FEFBF6"/>
<stop offset="0.8125" stop-color="#F1AD86"/>
</linearGradient>
<linearGradient id="paint1_linear_316_614" x1="6.4999" y1="1.144" x2="11.5897" y2="15.6179" gradientUnits="userSpaceOnUse">
<stop stop-color="#FF9519" stop-opacity="0.35"/>
<stop offset="1" stop-color="#FF9519" stop-opacity="0"/>
</linearGradient>
</defs>
</svg>
