<svg width="18" height="18" viewBox="0 0 18 18" fill="none" xmlns="http://www.w3.org/2000/svg">
<circle cx="12" cy="6.00012" r="1.6" stroke="#333333" stroke-width="0.8"/>
<path fill-rule="evenodd" clip-rule="evenodd" d="M1.30043 14.5816L7.39879 8.4832L7.19412 7.9893C6.94066 7.37762 6.80037 6.70632 6.80037 6.00024C6.80037 3.12836 9.12849 0.800243 12.0004 0.800243C14.8722 0.800244 17.2004 3.12836 17.2004 6.00024C17.2004 8.87212 14.8723 11.2002 12.0004 11.2002C11.309 11.2002 10.651 11.0657 10.0497 10.8222L9.55847 10.6233L6.55538 13.6264L7.12106 14.192L7.1211 14.192L7.93951 15.0104C8.13477 15.2057 8.45135 15.2057 8.64661 15.0104C8.84188 14.8152 8.84188 14.4986 8.64661 14.3033L7.8282 13.4849L9.7494 11.5637C10.4445 11.8452 11.2043 12.0002 12.0004 12.0002C15.3141 12.0002 18.0004 9.31395 18.0004 6.00024C18.0004 2.68654 15.3141 0.000244141 12.0004 0.000244141C8.68666 0.000244141 6.00037 2.68654 6.00037 6.00024C6.00037 6.81325 6.16207 7.58849 6.45506 8.29555L0.734744 14.0159C-0.171348 14.922 -0.171347 16.391 0.734745 17.2971C1.64084 18.2032 3.1099 18.2032 4.01599 17.2971L4.99972 16.3134L4.43403 15.7477L3.45031 16.7314C2.85664 17.3251 1.8941 17.3251 1.30043 16.7314C0.706757 16.1378 0.706758 15.1752 1.30043 14.5816ZM5.84827 14.3335L5.14114 15.0406L5.4645 15.364L5.46446 15.364L7.23223 17.1318C7.42749 17.327 7.74408 17.327 7.93934 17.1318C8.1346 16.9365 8.1346 16.6199 7.93934 16.4247L6.4139 14.8992L6.41396 14.8992L5.84827 14.3335Z" fill="#333333"/>
</svg>
