<svg width="18" height="18" viewBox="0 0 18 18" fill="none" xmlns="http://www.w3.org/2000/svg">
<path fill-rule="evenodd" clip-rule="evenodd" d="M16 0.8H2C1.33726 0.8 0.8 1.33726 0.8 2V16C0.8 16.6627 1.33726 17.2 2 17.2H16C16.6627 17.2 17.2 16.6627 17.2 16V2C17.2 1.33726 16.6627 0.8 16 0.8ZM2 0C0.895431 0 0 0.89543 0 2V16C0 17.1046 0.89543 18 2 18H16C17.1046 18 18 17.1046 18 16V2C18 0.895431 17.1046 0 16 0H2Z" fill="#333333"/>
<rect x="3" y="4" width="6" height="0.8" rx="0.4" fill="#333333"/>
<path d="M10.5799 10.0267L13.8094 4.43303C13.9475 4.19388 14.2533 4.11194 14.4924 4.25001C14.7316 4.38809 14.8135 4.69388 14.6754 4.93303L11.4459 10.5267L10.8051 11.004C10.6644 11.1088 10.4666 10.9946 10.487 10.8203L10.5799 10.0267Z" fill="#333333"/>
<rect x="3" y="7" width="6" height="0.8" rx="0.4" fill="#333333"/>
<rect x="3" y="10" width="6" height="0.8" rx="0.4" fill="#333333"/>
<rect x="3" y="13" width="12" height="0.8" rx="0.4" fill="#333333"/>
</svg>
