<svg width="12" height="12" viewBox="0 0 12 12" fill="none" xmlns="http://www.w3.org/2000/svg">
<path fill-rule="evenodd" clip-rule="evenodd" d="M2.95712 2.5H8.95512C9.94462 2.5 10.7501 3.2915 10.7501 4.2645V5.5C10.7501 5.7765 10.5266 6 10.2501 6C9.97363 6 9.75012 5.7765 9.75012 5.5V4.2645C9.75012 3.8435 9.39363 3.5 8.95512 3.5H2.95712L3.60363 4.1465C3.79862 4.342 3.79862 4.658 3.60363 4.8535C3.50612 4.951 3.37812 5 3.25012 5C3.12212 5 2.99413 4.951 2.89663 4.8535L1.39662 3.3535C1.20112 3.158 1.20112 2.842 1.39662 2.6465L2.89663 1.1465C3.09163 0.951 3.40813 0.951 3.60363 1.1465C3.79862 1.342 3.79862 1.658 3.60363 1.8535L2.95712 2.5ZM8.3965 7.1465C8.592 6.951 8.908 6.951 9.1035 7.1465L10.6035 8.6465C10.799 8.842 10.799 9.158 10.6035 9.3535L9.1035 10.8535C9.006 10.951 8.878 11 8.75 11C8.622 11 8.494 10.951 8.3965 10.8535C8.201 10.658 8.201 10.342 8.3965 10.1465L9.043 9.5H3.045C2.055 9.5 1.25 8.7085 1.25 7.7355V6.5C1.25 6.2235 1.474 6 1.75 6C2.026 6 2.25 6.2235 2.25 6.5V7.7355C2.25 8.157 2.6065 8.5 3.045 8.5H9.043L8.3965 7.8535C8.201 7.658 8.201 7.342 8.3965 7.1465Z" fill="#325AE7"/>
<mask id="mask0_167_3794" style="mask-type:alpha" maskUnits="userSpaceOnUse" x="1" y="0" width="10" height="11">
<path fill-rule="evenodd" clip-rule="evenodd" d="M2.95712 2.5H8.95512C9.94462 2.5 10.7501 3.2915 10.7501 4.2645V5.5C10.7501 5.7765 10.5266 6 10.2501 6C9.97363 6 9.75012 5.7765 9.75012 5.5V4.2645C9.75012 3.8435 9.39363 3.5 8.95512 3.5H2.95712L3.60363 4.1465C3.79862 4.342 3.79862 4.658 3.60363 4.8535C3.50612 4.951 3.37812 5 3.25012 5C3.12212 5 2.99413 4.951 2.89663 4.8535L1.39662 3.3535C1.20112 3.158 1.20112 2.842 1.39662 2.6465L2.89663 1.1465C3.09163 0.951 3.40813 0.951 3.60363 1.1465C3.79862 1.342 3.79862 1.658 3.60363 1.8535L2.95712 2.5ZM8.3965 7.1465C8.592 6.951 8.908 6.951 9.1035 7.1465L10.6035 8.6465C10.799 8.842 10.799 9.158 10.6035 9.3535L9.1035 10.8535C9.006 10.951 8.878 11 8.75 11C8.622 11 8.494 10.951 8.3965 10.8535C8.201 10.658 8.201 10.342 8.3965 10.1465L9.043 9.5H3.045C2.055 9.5 1.25 8.7085 1.25 7.7355V6.5C1.25 6.2235 1.474 6 1.75 6C2.026 6 2.25 6.2235 2.25 6.5V7.7355C2.25 8.157 2.6065 8.5 3.045 8.5H9.043L8.3965 7.8535C8.201 7.658 8.201 7.342 8.3965 7.1465Z" fill="white"/>
</mask>
<g mask="url(#mask0_167_3794)">
</g>
</svg>
