<svg width="18" height="18" viewBox="0 0 18 18" fill="none" xmlns="http://www.w3.org/2000/svg">
<path fill-rule="evenodd" clip-rule="evenodd" d="M3.0634 6.92218C3.3723 6.6072 3.90046 6.83028 3.90046 7.27574V15C3.90046 15.6627 4.42734 16.2 5.07728 16.2H12.9227C13.5727 16.2 14.0995 15.6627 14.0995 15V7.27574C14.0995 6.83028 14.6277 6.6072 14.9366 6.92218L15.6602 7.66001C15.7417 7.74317 15.8757 7.73697 15.9495 7.64663L17.17 6.15322C17.2324 6.07684 17.2303 5.9653 17.1651 5.89139L13.6124 1.86621C13.5752 1.82406 13.5222 1.8 13.4666 1.8H12.3518C10.6723 4.05217 7.32773 4.05217 5.64822 1.8H4.53336C4.47776 1.8 4.42477 1.82406 4.38757 1.86621L0.834894 5.89139C0.769665 5.9653 0.767583 6.07684 0.830005 6.15322L2.05046 7.64663C2.1243 7.73697 2.25828 7.74317 2.33983 7.66001L3.0634 6.92218ZM15.6686 8.50984C15.9899 8.55336 16.327 8.43436 16.5522 8.15877L17.7727 6.66537C18.0848 6.28346 18.0744 5.72574 17.7483 5.35622L14.1956 1.33104C14.0096 1.12032 13.7447 1 13.4666 1H12.0952C11.9995 1 11.9102 1.04876 11.8571 1.12993C10.4979 3.20886 7.50208 3.20886 6.14291 1.12993C6.08984 1.04876 6.00049 1 5.90482 1H4.53336C4.25535 1 3.9904 1.12032 3.80442 1.33104L0.251747 5.35622C-0.0743962 5.72574 -0.0848107 6.28346 0.227301 6.66537L1.44776 8.15877C1.67298 8.43436 2.01011 8.55335 2.33138 8.50985C2.53672 8.48203 2.73558 8.38783 2.89459 8.2257L3.11592 8V15C3.11592 16.1046 3.99405 17 5.07728 17H12.9227C14.0059 17 14.8841 16.1046 14.8841 15V8L15.1054 8.22569C15.2644 8.38783 15.4633 8.48203 15.6686 8.50984Z" fill="#333333"/>
<path fill-rule="evenodd" clip-rule="evenodd" d="M5.39227 14C5.17563 14 5 13.8244 5 13.6077V13.6V8.39227C5 8.17563 5.17563 8 5.39227 8C5.60892 8 5.78454 8.17563 5.78454 8.39227L5.78454 13.2H7.54204C7.76295 13.2 7.94204 13.3791 7.94204 13.6C7.94204 13.8209 7.76295 14 7.54204 14H5.4C5.3987 14 5.39741 14 5.39612 14C5.39484 14 5.39356 14 5.39227 14Z" fill="#333333"/>
</svg>
