<svg width="18" height="18" viewBox="0 0 18 18" fill="none" xmlns="http://www.w3.org/2000/svg">
<path d="M3.4 4C3.4 3.11634 4.11634 2.4 5 2.4H13.0462C13.2192 2.4 13.3838 2.47469 13.4978 2.6049L16.6 6.1503V16C16.6 16.8837 15.8837 17.6 15 17.6H5C4.11634 17.6 3.4 16.8837 3.4 16V4Z" stroke="#333333" stroke-width="0.8"/>
<rect x="7" y="14" width="6" height="0.8" rx="0.4" fill="#333333"/>
<path fill-rule="evenodd" clip-rule="evenodd" d="M6.94561 7C6.63081 7 6.43938 7.34681 6.60715 7.61318L9.99997 13L13.3928 7.61318C13.5606 7.34681 13.3691 7 13.0543 7C12.9169 7 12.7891 7.07054 12.7159 7.18682L9.99997 11.4989L7.28407 7.18682C7.21083 7.07054 7.08303 7 6.94561 7Z" fill="#333333"/>
<path fill-rule="evenodd" clip-rule="evenodd" d="M11 0.4C11 0.179086 10.8209 0 10.6 0H3C1.89543 0 1 0.89543 1 2V11.6C1 11.8209 1.17909 12 1.4 12C1.62091 12 1.8 11.8209 1.8 11.6V2C1.8 1.33726 2.33726 0.8 3 0.8H10.6C10.8209 0.8 11 0.620914 11 0.4Z" fill="#333333"/>
</svg>
