<svg width="24" height="24" viewBox="0 0 24 24" fill="none" xmlns="http://www.w3.org/2000/svg">
<path d="M19.0328 12.2023C19.0029 15.8605 16.0248 18.8363 12.3689 18.8661C8.71066 18.896 5.73489 15.8122 5.70502 12.2023C5.69123 10.6696 3.31521 10.6696 3.3267 12.2023C3.34508 14.5438 4.24356 16.7567 5.84519 18.4617C7.43303 20.153 9.67118 21.0974 11.9668 21.233C14.306 21.3708 16.5878 20.4816 18.3503 18.9764C20.1174 17.469 21.1193 15.2768 21.3674 12.9973C21.3973 12.7331 21.4042 12.4688 21.4065 12.2023C21.4226 10.6673 19.0443 10.6696 19.0328 12.2023V12.2023Z" fill="white"/>
<path d="M5.70274 11.7726C5.73261 8.11435 8.71068 5.13858 12.3666 5.10871C13.8993 5.09492 13.8993 2.7189 12.3666 2.73039C9.98601 2.75107 7.72718 3.67942 6.01755 5.3362C4.28954 7.00906 3.3474 9.38049 3.32672 11.7726C3.31293 13.3076 5.69125 13.3053 5.70274 11.7726V11.7726Z" fill="white"/>
<path d="M12.7297 14.5668C11.0706 14.6495 9.90557 13.6867 9.71255 12.0621C9.53101 10.5432 10.804 9.33216 12.362 9.20118C13.0077 9.14603 13.4144 8.39233 13.3019 7.80866C13.1686 7.12159 12.5527 6.81368 11.9093 6.86882C9.30122 7.08712 7.21704 9.46085 7.34802 12.0758C7.48359 14.8011 9.79297 17.0784 12.5757 16.9382C13.2214 16.906 13.7936 16.5315 13.8396 15.8283C13.8763 15.2377 13.3777 14.5346 12.7297 14.5668V14.5668Z" fill="white"/>
<path d="M14.8437 13.2845C14.3014 14.0543 13.812 14.3668 12.9526 14.5598C13.0583 14.5392 13.0376 14.5392 12.8928 14.5621C12.7664 14.5782 12.6401 14.5805 12.5137 14.5851C12.2471 14.592 12.323 14.5897 12.061 14.5438C11.5968 14.4633 11.3303 14.3278 10.8983 14.0451C10.356 13.6912 9.57008 14.0336 9.29893 14.5644C8.98182 15.1872 9.27595 15.8099 9.81825 16.1638C12.0081 17.5954 15.1103 17.0071 16.6177 14.8655C16.99 14.3369 17.0474 13.6545 16.5212 13.188C16.08 12.7928 15.2183 12.7514 14.8437 13.2845V13.2845Z" fill="white"/>
</svg>
