<svg width="20" height="20" viewBox="0 0 20 20" fill="none" xmlns="http://www.w3.org/2000/svg">
<path fill-rule="evenodd" clip-rule="evenodd" d="M15.941 2.60608C15.7834 2.2384 15.4218 2 15.0218 2H4.97819C4.57816 2 4.21662 2.2384 4.05904 2.60608L2.08085 7.22185C2.02751 7.34633 2 7.48035 2 7.61577V17C2 17.5523 2.44772 18 3 18H17C17.5523 18 18 17.5523 18 17V7.61577C18 7.48035 17.9725 7.34633 17.9191 7.22185L15.941 2.60608ZM4.31879 0C3.51874 0 2.79566 0.476795 2.4805 1.21216L0.16171 6.62268C0.0550155 6.87163 0 7.13966 0 7.41052V18C0 19.1046 0.895431 20 2 20H18C19.1046 20 20 19.1046 20 18V7.41052C20 7.13966 19.945 6.87163 19.8383 6.62268L17.5195 1.21216C17.2043 0.476794 16.4813 0 15.6812 0H4.31879Z" fill="white"/>
<rect x="1" y="7" width="18" height="2" fill="white"/>
<rect x="9" width="2" height="8" fill="white"/>
<rect x="7" y="10" width="6" height="2" rx="1" fill="white"/>
</svg>
