<svg width="145" height="152" viewBox="0 0 145 152" fill="none" xmlns="http://www.w3.org/2000/svg">
<path opacity="0.601594" fill-rule="evenodd" clip-rule="evenodd" d="M71.5646 0C85.1739 0 97.7226 4.46991 107.778 11.9996L103.733 12C101.819 12 100.267 13.5521 100.267 15.4667V15.7333C100.267 17.6479 101.819 19.2 103.733 19.2L115.781 19.1998C118.066 21.6629 120.142 24.3177 121.981 27.1367L127.701 27.1367C129.762 27.1367 131.434 28.8082 131.434 30.8701V31.0785C131.434 32.7819 130.293 34.2188 128.734 34.667L123.467 34.6667C121.11 34.6667 119.2 36.5769 119.2 38.9333V40.2667C119.2 42.6231 121.11 44.5333 123.467 44.5333L141.574 44.5333C143.427 44.9978 144.8 46.6747 144.8 48.6723V48.9104C144.8 51.2668 142.89 53.1771 140.533 53.1771L131.152 53.1768C131.338 55.0708 131.434 56.9911 131.434 58.9333C131.434 91.4813 104.629 117.867 71.5646 117.867C45.1172 117.867 22.6751 100.986 14.7515 77.5726L12.5047 77.5727C11.5963 77.5727 10.86 76.8364 10.86 75.9281C10.86 75.2351 11.2886 74.6422 11.8952 74.4001L14.6667 74.4C16.5813 74.4 18.1333 72.8479 18.1333 70.9333V70.6667C18.1333 68.7521 16.5813 67.2 14.6667 67.2L12.2798 67.2001C12.2777 67.1858 12.2757 67.1716 12.2737 67.1573L6.36109 67.1566C4.84723 67.1566 3.62 65.9294 3.62 64.4155C3.62 62.9016 4.84723 61.6744 6.36109 61.6744L11.759 61.6749C11.7168 60.7662 11.6954 59.8522 11.6954 58.9333C11.6954 50.232 13.6111 41.9711 17.05 34.537L7.46667 34.5377C3.34294 34.5377 0 31.1947 0 27.071V26.6543C0 22.6749 3.11303 19.4226 7.03665 19.1998L40.8 19.2C42.2728 19.2 43.4667 18.0061 43.4667 16.5333C43.4667 15.0606 42.2728 13.8667 40.8 13.8667L32.9844 13.8664C33.0494 13.8124 33.1146 13.7585 33.1799 13.7047L29.2928 13.7054C26.4946 13.7054 24.2262 11.437 24.2262 8.63876V8.35597C24.2262 5.55773 26.4946 3.2893 29.2928 3.2893L51.7948 3.28884C57.9839 1.15828 64.6369 0 71.5646 0Z" fill="#F3F3FA"/>
<path d="M40.2758 84.3698C40.307 84.4944 40.346 84.6269 40.3928 84.7671L40.4865 85.1411C40.5177 85.2657 40.5333 85.367 40.5333 85.4449C40.5333 85.8812 40.4163 86.2669 40.1821 86.6019C39.948 86.9369 39.6436 87.1823 39.269 87.3382C39.1286 87.3537 38.9803 87.3615 38.8242 87.3615C38.6993 87.3771 38.5589 87.3849 38.4028 87.3849H37.9579L34.3055 87.4317V91.335C34.3055 91.9115 34.3173 92.4919 34.3407 93.0763C34.3641 93.6606 34.3914 94.1865 34.4226 94.654C34.4538 95.2149 34.4928 95.7525 34.5397 96.2667H31.1682L31.2385 95.3552C31.2541 94.9968 31.2697 94.5098 31.2853 93.8943C31.3009 93.2788 31.3087 92.4569 31.3087 91.4285V87.8524C31.0434 88.0861 30.7468 88.203 30.419 88.203C30.1537 88.203 29.9235 88.1406 29.7284 88.016C29.5333 87.8913 29.3733 87.7199 29.2484 87.5018L26.6028 87.3615C26.0877 87.2369 25.6585 86.9759 25.3151 86.5785C24.9717 86.1812 24.8 85.7098 24.8 85.1645C24.8 85.071 24.8078 84.9853 24.8234 84.9074C24.839 84.8294 24.8624 84.7515 24.8936 84.6736L25.479 83.318C25.5102 82.9752 25.6077 82.6557 25.7716 82.3597C25.9355 82.0636 26.1423 81.8065 26.3921 81.5884L30.0678 74.7868H30.0913C30.3878 74.2414 30.739 73.7739 31.1448 73.3844C31.5506 72.9948 32.0735 72.8 32.7135 72.8C33.2754 72.8 33.7788 72.9481 34.2236 73.2441C34.6684 73.5402 35.0001 73.9298 35.2186 74.4128L38.1686 80.186C38.6993 80.373 39.1364 80.7002 39.4798 81.1676C39.8231 81.6351 39.9948 82.1727 39.9948 82.7804C39.9948 83.0297 39.9558 83.2946 39.8778 83.5751L40.2758 84.3698Z" fill="url(#paint0_linear_532_7108)"/>
<path d="M122.942 84.3698C122.974 84.4944 123.013 84.6269 123.06 84.7671L123.153 85.1411C123.184 85.2657 123.2 85.367 123.2 85.4449C123.2 85.8812 123.083 86.2669 122.849 86.6019C122.615 86.9369 122.31 87.1823 121.936 87.3382C121.795 87.3537 121.647 87.3615 121.491 87.3615C121.366 87.3771 121.226 87.3849 121.069 87.3849H120.625L116.972 87.4317V91.335C116.972 91.9115 116.984 92.4919 117.007 93.0763C117.031 93.6606 117.058 94.1865 117.089 94.654C117.121 95.2149 117.16 95.7525 117.206 96.2667H113.835L113.905 95.3552C113.921 94.9968 113.936 94.5098 113.952 93.8943C113.968 93.2788 113.975 92.4569 113.975 91.4285V87.8524C113.71 88.0861 113.414 88.203 113.086 88.203C112.82 88.203 112.59 88.1406 112.395 88.016C112.2 87.8913 112.04 87.7199 111.915 87.5018L109.269 87.3615C108.754 87.2369 108.325 86.9759 107.982 86.5785C107.638 86.1812 107.467 85.7098 107.467 85.1645C107.467 85.071 107.474 84.9853 107.49 84.9074C107.506 84.8294 107.529 84.7515 107.56 84.6736L108.146 83.318C108.177 82.9752 108.274 82.6557 108.438 82.3597C108.602 82.0636 108.809 81.8065 109.059 81.5884L112.735 74.7868H112.758C113.055 74.2414 113.406 73.7739 113.812 73.3844C114.217 72.9948 114.74 72.8 115.38 72.8C115.942 72.8 116.445 72.9481 116.89 73.2441C117.335 73.5402 117.667 73.9298 117.885 74.4128L120.835 80.186C121.366 80.373 121.803 80.7002 122.146 81.1676C122.49 81.6351 122.662 82.1727 122.662 82.7804C122.662 83.0297 122.622 83.2946 122.544 83.5751L122.942 84.3698Z" fill="url(#paint1_linear_532_7108)"/>
<path d="M113.133 86.9384C113.157 87.0362 113.187 87.14 113.224 87.25L113.297 87.5432C113.321 87.6409 113.333 87.7204 113.333 87.7814C113.333 88.1235 113.242 88.4259 113.06 88.6886C112.877 88.9513 112.64 89.1437 112.348 89.2659C112.238 89.2781 112.122 89.2842 112.001 89.2842C111.903 89.2964 111.794 89.3026 111.672 89.3026H111.325L108.478 89.3392V92.3998C108.478 92.8518 108.487 93.3069 108.505 93.7651C108.523 94.2233 108.545 94.6356 108.569 95.0022C108.593 95.442 108.624 95.8635 108.66 96.2667H106.032L106.086 95.552C106.099 95.2709 106.111 94.8891 106.123 94.4065C106.135 93.9239 106.141 93.2794 106.141 92.4731V89.6691C105.934 89.8524 105.703 89.944 105.448 89.944C105.241 89.944 105.061 89.8951 104.909 89.7974C104.757 89.6996 104.632 89.5652 104.535 89.3942L102.472 89.2842C102.071 89.1865 101.736 88.9818 101.468 88.6703C101.201 88.3587 101.067 87.9891 101.067 87.5615C101.067 87.4882 101.073 87.421 101.085 87.3599C101.097 87.2988 101.115 87.2377 101.14 87.1767L101.596 86.1137C101.62 85.8449 101.696 85.5945 101.824 85.3623C101.952 85.1302 102.113 84.9286 102.308 84.7575L105.174 79.4245H105.192C105.423 78.9968 105.697 78.6303 106.013 78.3249C106.33 78.0194 106.738 77.8667 107.236 77.8667C107.675 77.8667 108.067 77.9828 108.414 78.2149C108.761 78.447 109.019 78.7525 109.19 79.1312L111.49 83.6579C111.903 83.8045 112.244 84.0611 112.512 84.4277C112.78 84.7942 112.913 85.2157 112.913 85.6922C112.913 85.8877 112.883 86.0954 112.822 86.3153L113.133 86.9384Z" fill="url(#paint2_linear_532_7108)"/>
<path fill-rule="evenodd" clip-rule="evenodd" d="M68.1333 90.1333C84.5012 90.1333 99.2407 91.4684 109.543 93.601C119.62 93.6681 127.733 96.6864 127.733 100.4C127.733 103.343 122.637 105.849 115.506 106.796C113.804 107.3 111.889 107.774 109.784 108.215C109.839 108.496 109.867 108.78 109.867 109.067C109.867 115.547 95.7786 120.8 78.4 120.8C62.7648 120.8 49.793 116.548 47.3478 110.976C26.4852 109.392 11.7333 105.492 11.7333 100.933C11.7333 94.9686 36.9845 90.1333 68.1333 90.1333Z" fill="#E7EAF0"/>
<path opacity="0.5" d="M65.5101 95.4686L76.4295 82.4553L142.187 115.309L103.385 144.366L65.5101 95.4686Z" fill="url(#paint3_linear_532_7108)"/>
<path d="M96.2666 70.855L69.3333 67.4666V80.904L95.8364 83.9999L96.2666 70.855Z" fill="#A2ABB9"/>
<path d="M48 71.8513L69.33 67.4666L69.3333 82.5749L48 86.9332V71.8513Z" fill="#C0C7D2"/>
<path d="M73.0667 77.6457L96 71.7332V99.6873L73.0667 105.6V77.6457Z" fill="#A2ABB9"/>
<path d="M48.2667 72.5332L73.3333 77.5326L73.1875 105.6L48.2667 100.033V72.5332Z" fill="#C0C7D2"/>
<path d="M73.3333 77.6475L48.0446 72.2666L42.6667 82.1781L68.3849 88.2666L73.3333 77.6475Z" fill="#D1D6E2"/>
<path d="M73.3333 77.5248L96.2896 71.2L102.133 81.0432L80.1459 88.2666L73.3333 77.5248Z" fill="#C0C7D2"/>
<path d="M48.8687 31.4587C42.3584 40.7812 45.1237 47.7391 57.1646 52.3326" stroke="url(#paint4_linear_532_7108)" stroke-linecap="round"/>
<path d="M46.6282 50.7622C48.8319 53.5005 50.8336 54.8697 52.6335 54.8697" stroke="url(#paint5_linear_532_7108)" stroke-linecap="round"/>
<path d="M99.7946 19.5129C100.089 27.7988 92.3028 33.6007 76.4351 36.9187" stroke="url(#paint6_linear_532_7108)" stroke-linecap="round"/>
<path d="M101.911 29.9395C98.018 33.2023 94.9735 34.8337 92.7773 34.8337" stroke="url(#paint7_linear_532_7108)" stroke-linecap="round"/>
<path d="M95.4667 48.8855C80.1433 47.0355 70.5131 50.9816 66.5759 60.7241" stroke="url(#paint8_linear_532_7108)" stroke-linecap="round"/>
<path d="M48.5108 37.8623C57.5629 39.2804 61.2682 41.785 59.6268 45.3759C57.9853 48.9668 54.28 46.4623 48.5108 37.8623Z" fill="url(#paint9_linear_532_7108)"/>
<path d="M81.0213 29.9395C82.3458 25.2504 85.8072 23.6874 91.4054 25.2504C91.1641 27.4015 87.7027 28.9645 81.0213 29.9395Z" fill="url(#paint10_linear_532_7108)"/>
<path d="M68.8817 64.1911C73.0156 56.1512 78.7928 53.8618 86.2133 57.3229C82.752 63.7263 76.9747 66.0157 68.8817 64.1911Z" fill="url(#paint11_linear_532_7108)"/>
<path d="M79.7338 32.3867C80.7468 30.2153 82.08 28.8251 83.7333 28.2158" stroke="url(#paint12_linear_532_7108)" stroke-linecap="round"/>
<path d="M57.1646 44.3154C59.058 44.7541 60.0047 46.5751 60.0047 49.7784" stroke="url(#paint13_linear_532_7108)" stroke-linecap="round"/>
<path d="M67.1092 66.762C68.6464 63.8281 70.78 62.3611 73.5101 62.3611" stroke="url(#paint14_linear_532_7108)" stroke-linecap="round"/>
<defs>
<linearGradient id="paint0_linear_532_7108" x1="39.3562" y1="95.9851" x2="31.2156" y2="96.1117" gradientUnits="userSpaceOnUse">
<stop stop-color="#E0E5EF" stop-opacity="0"/>
<stop offset="1" stop-color="#E0E5EF"/>
</linearGradient>
<linearGradient id="paint1_linear_532_7108" x1="122.023" y1="95.9851" x2="113.882" y2="96.1117" gradientUnits="userSpaceOnUse">
<stop stop-color="#E0E5EF" stop-opacity="0"/>
<stop offset="1" stop-color="#E0E5EF"/>
</linearGradient>
<linearGradient id="paint2_linear_532_7108" x1="112.357" y1="96.0459" x2="106.081" y2="96.1441" gradientUnits="userSpaceOnUse">
<stop stop-color="#E0E5EF" stop-opacity="0"/>
<stop offset="1" stop-color="#E0E5EF"/>
</linearGradient>
<linearGradient id="paint3_linear_532_7108" x1="94.0534" y1="111.378" x2="69.4696" y2="90.7498" gradientUnits="userSpaceOnUse">
<stop stop-color="#E8EBF1" stop-opacity="0.23774"/>
<stop offset="1" stop-color="#A2ABB9"/>
</linearGradient>
<linearGradient id="paint4_linear_532_7108" x1="53.4955" y1="52.3326" x2="43.6889" y2="34.8912" gradientUnits="userSpaceOnUse">
<stop stop-color="#A2ABB9"/>
<stop offset="1" stop-color="#E7EAF0"/>
</linearGradient>
<linearGradient id="paint5_linear_532_7108" x1="53.1916" y1="53.7767" x2="48.1975" y2="50.3649" gradientUnits="userSpaceOnUse">
<stop stop-color="#A2ABB9"/>
<stop offset="1" stop-color="#E7EAF0"/>
</linearGradient>
<linearGradient id="paint6_linear_532_7108" x1="76.4351" y1="33.0444" x2="96.2889" y2="18.865" gradientUnits="userSpaceOnUse">
<stop stop-color="#A2ABB9"/>
<stop offset="1" stop-color="#E7EAF0"/>
</linearGradient>
<linearGradient id="paint7_linear_532_7108" x1="92.0063" y1="33.0892" x2="100.965" y2="29.5658" gradientUnits="userSpaceOnUse">
<stop stop-color="#A2ABB9"/>
<stop offset="1" stop-color="#E7EAF0"/>
</linearGradient>
<linearGradient id="paint8_linear_532_7108" x1="66.5759" y1="55.693" x2="91.8439" y2="44.9516" gradientUnits="userSpaceOnUse">
<stop stop-color="#A2ABB9"/>
<stop offset="1" stop-color="#E7EAF0"/>
</linearGradient>
<linearGradient id="paint9_linear_532_7108" x1="49.478" y1="45.1032" x2="58.4371" y2="37.0232" gradientUnits="userSpaceOnUse">
<stop stop-color="#C0C7D2"/>
<stop offset="1" stop-color="#909AA9"/>
</linearGradient>
<linearGradient id="paint10_linear_532_7108" x1="81.8951" y1="27.9441" x2="89.8069" y2="23.3657" gradientUnits="userSpaceOnUse">
<stop stop-color="#C0C7D2"/>
<stop offset="1" stop-color="#909AA9"/>
</linearGradient>
<linearGradient id="paint11_linear_532_7108" x1="70.3402" y1="61.4384" x2="83.4843" y2="53.631" gradientUnits="userSpaceOnUse">
<stop stop-color="#C0C7D2"/>
<stop offset="1" stop-color="#909AA9"/>
</linearGradient>
<linearGradient id="paint12_linear_532_7108" x1="79.8947" y1="32.3867" x2="83.7401" y2="28.3766" gradientUnits="userSpaceOnUse">
<stop stop-color="#909AA9"/>
<stop offset="1" stop-color="#C0C7D2"/>
</linearGradient>
<linearGradient id="paint13_linear_532_7108" x1="59.166" y1="49.7784" x2="56.2848" y2="44.9763" gradientUnits="userSpaceOnUse">
<stop stop-color="#909AA9"/>
<stop offset="1" stop-color="#C0C7D2"/>
</linearGradient>
<linearGradient id="paint14_linear_532_7108" x1="67.1092" y1="65.6017" x2="72.4268" y2="61.9457" gradientUnits="userSpaceOnUse">
<stop stop-color="#909AA9"/>
<stop offset="1" stop-color="#C0C7D2"/>
</linearGradient>
</defs>
</svg>
