<svg width="24" height="24" viewBox="0 0 24 24" fill="none" xmlns="http://www.w3.org/2000/svg">
<path d="M20.2289 12.1523H11.8477V3.77107C11.8477 3.66795 11.7633 3.58357 11.6602 3.58357H11.0508C9.82098 3.58232 8.60303 3.82391 7.46681 4.29448C6.3306 4.76506 5.29848 5.45535 4.42969 6.32576C3.5743 7.17851 2.8929 8.18946 2.42344 9.30232C1.93594 10.4578 1.6875 11.6836 1.6875 12.9492C1.6875 14.2148 1.93594 15.4383 2.42344 16.5937C2.89453 17.707 3.56953 18.7101 4.42969 19.5703C5.28984 20.4305 6.29062 21.1055 7.40625 21.5765C8.5597 22.0659 9.80017 22.317 11.0531 22.3148C12.2829 22.3161 13.5009 22.0745 14.6371 21.6039C15.7733 21.1333 16.8054 20.4431 17.6742 19.5726C18.5344 18.7125 19.2094 17.7117 19.6805 16.5961C20.1698 15.4426 20.4209 14.2022 20.4187 12.9492V12.3398C20.4164 12.2367 20.332 12.1523 20.2289 12.1523ZM22.2891 10.8515L22.2281 10.1906C22.0289 8.03436 21.0727 5.99998 19.5305 4.46482C17.9897 2.92536 15.9594 1.97279 13.7906 1.77185L13.1273 1.71092C13.0172 1.70154 12.9234 1.78592 12.9234 1.89607V10.889C12.9234 10.9922 13.0078 11.0765 13.1109 11.0765L22.1016 11.0531C22.2117 11.0508 22.2984 10.9594 22.2891 10.8515Z" fill="white"/>
</svg>
