<svg width="24" height="24" viewBox="0 0 24 24" fill="none" xmlns="http://www.w3.org/2000/svg">
<path fill-rule="evenodd" clip-rule="evenodd" d="M12 10C13.6569 10 15 8.65685 15 7C15 5.34315 13.6569 4 12 4C10.3431 4 9 5.34315 9 7C9 8.65685 10.3431 10 12 10ZM12 12C14.7614 12 17 9.76142 17 7C17 4.23858 14.7614 2 12 2C9.23858 2 7 4.23858 7 7C7 9.76142 9.23858 12 12 12Z" fill="white"/>
<path fill-rule="evenodd" clip-rule="evenodd" d="M21.9979 12.5412C22.0158 12.4176 21.9173 12.308 21.7924 12.3126L18.5566 12.4338C18.3871 12.4401 18.302 12.6412 18.4153 12.7673L19.2127 13.6545L17.328 15.2469C17.1417 15.4043 16.869 15.4043 16.6826 15.2469L14.6531 13.532C14.2702 13.2086 13.7071 13.2185 13.3359 13.5551L9.06735 17.4265C8.69917 17.7604 8.6714 18.3296 9.00533 18.6978C9.33925 19.066 9.90842 19.0937 10.2766 18.7598L13.7021 15.653C13.8877 15.4847 14.1693 15.4798 14.3607 15.6415L16.3599 17.3307C16.7326 17.6456 17.2781 17.6456 17.6507 17.3307L20.4165 14.9938L21.1868 15.8508C21.3002 15.9769 21.5092 15.9136 21.5335 15.7458L21.9979 12.5412Z" fill="white"/>
<path fill-rule="evenodd" clip-rule="evenodd" d="M17.5231 11.6623C15.9406 10.6119 14.0417 10 12 10C6.47715 10 2 14.4772 2 20C2 20.1267 2.00236 20.2529 2.00703 20.3784C2.0424 21.329 2.88364 22 3.83485 22H20.1652C21.1164 22 21.9576 21.329 21.993 20.3784C21.9976 20.2529 22 20.1267 22 20C22 19.0966 21.8802 18.2211 21.6556 17.3886L19.9226 18.8829C19.9282 18.9225 19.9334 18.9622 19.9384 19.002C20.0066 19.55 19.5523 20 19 20H5C4.44772 20 3.99344 19.55 4.06165 19.002C4.55286 15.0547 7.9197 12 12 12C13.43 12 14.7723 12.3752 15.934 13.0325L17.5231 11.6623Z" fill="white"/>
</svg>
