<svg width="303" height="112" viewBox="0 0 303 112" fill="none" xmlns="http://www.w3.org/2000/svg">
<g clip-path="url(#clip0_5640_83404)">
<path fill-rule="evenodd" clip-rule="evenodd" d="M24.489 50.6167C24.4904 50.4996 24.4912 50.3824 24.4912 50.265C24.4912 34.6547 11.3435 22 -4.87501 22C-21.0935 22 -34.2412 34.6547 -34.2412 50.265C-34.2412 65.8753 -21.0935 78.5299 -4.87501 78.5299C-2.60225 78.5299 -0.389801 78.2814 1.73462 77.8111C1.73314 77.9282 1.7324 78.0454 1.7324 78.1628C1.7324 93.7731 14.8801 106.428 31.0986 106.428C38.0148 106.428 44.3727 104.127 49.3906 100.276C48.9492 102.388 48.7183 104.567 48.7183 106.795C48.7183 126.054 65.9747 141.667 87.2614 141.667C97.4818 141.667 106.773 138.068 113.671 132.194C119.534 144.704 132.623 153.414 147.829 153.414C168.508 153.414 185.271 137.308 185.271 117.44C185.271 97.5724 168.508 81.4665 147.829 81.4665C137.766 81.4665 128.63 85.2808 121.902 91.4868C115.636 79.9011 102.479 71.9225 87.2614 71.9225C76.7166 71.9225 67.1609 75.7538 60.2018 81.9616C60.3753 80.7191 60.4648 79.451 60.4648 78.1628C60.4648 62.5525 47.3171 49.8979 31.0986 49.8979C28.8258 49.8979 26.6134 50.1464 24.489 50.6167ZM246.94 138.731C267.619 138.731 284.382 122.625 284.382 102.757C284.382 102.181 284.368 101.607 284.34 101.038C285.798 101.203 287.282 101.289 288.787 101.289C309.466 101.289 326.229 85.1828 326.229 65.3151C326.229 45.4474 309.466 29.3415 288.787 29.3415C268.108 29.3415 251.345 45.4474 251.345 65.3151C251.345 65.8915 251.359 66.4647 251.387 67.0345C249.929 66.8687 248.445 66.7834 246.94 66.7834C226.262 66.7834 209.498 82.8894 209.498 102.757C209.498 122.625 226.262 138.731 246.94 138.731Z" fill="#C4D4FF"/>
<path fill-rule="evenodd" clip-rule="evenodd" d="M34.7694 83.6689C34.7694 84.2207 34.7542 84.7696 34.724 85.3155C40.6337 81.4906 47.7145 79.2641 55.3257 79.2641C72.9449 79.2641 87.7217 91.1955 91.7084 107.267C98.5722 99.5543 108.671 94.6813 119.931 94.6813C132.641 94.6813 143.872 100.89 150.64 110.382C160.455 89.8341 181.805 75.5933 206.562 75.5933C219.292 75.5933 231.121 79.3586 240.944 85.8106C249.966 63.4892 272.259 47.6954 298.331 47.6954C332.39 47.6954 360 74.6482 360 107.896C360 141.144 332.39 168.097 298.331 168.097C285.601 168.097 273.772 164.331 263.948 157.879C254.927 180.201 232.634 195.995 206.562 195.995C179.539 195.995 156.577 179.028 148.242 155.413C141.376 163.182 131.239 168.097 119.931 168.097C102.312 168.097 87.5353 156.165 83.5486 140.094C76.6848 147.807 66.5857 152.68 55.3257 152.68C34.6471 152.68 17.8838 136.245 17.8838 115.972C17.8838 114.621 17.9583 113.287 18.1034 111.973C10.1672 117.223 -0.0136452 120.377 -11.1153 120.377C-36.4567 120.377 -57 103.942 -57 83.6689C-57 63.3958 -36.4567 46.9612 -11.1153 46.9612C14.2261 46.9612 34.7694 63.3958 34.7694 83.6689Z" fill="white"/>
</g>
<defs>
<clipPath id="clip0_5640_83404">
<rect width="303" height="112" fill="white"/>
</clipPath>
</defs>
</svg>
