<svg width="24" height="24" viewBox="0 0 24 24" fill="none" xmlns="http://www.w3.org/2000/svg">
<path d="M13.6875 8.25H10.3125C9.89766 8.25 9.5625 8.58516 9.5625 9V21.75C9.5625 22.1648 9.89766 22.5 10.3125 22.5H13.6875C14.1023 22.5 14.4375 22.1648 14.4375 21.75V9C14.4375 8.58516 14.1023 8.25 13.6875 8.25ZM20.9062 1.5H17.5312C17.1164 1.5 16.7812 1.83516 16.7812 2.25V21.75C16.7812 22.1648 17.1164 22.5 17.5312 22.5H20.9062C21.3211 22.5 21.6562 22.1648 21.6562 21.75V2.25C21.6562 1.83516 21.3211 1.5 20.9062 1.5ZM6.46875 15H3.09375C2.67891 15 2.34375 15.3352 2.34375 15.75V21.75C2.34375 22.1648 2.67891 22.5 3.09375 22.5H6.46875C6.88359 22.5 7.21875 22.1648 7.21875 21.75V15.75C7.21875 15.3352 6.88359 15 6.46875 15Z" fill="white"/>
</svg>
